<?xml version="1.0" standalone="no"?>
<!DOCTYPE svg PUBLIC "-//W3C//DTD SVG 1.1//EN" "http://www.w3.org/Graphics/SVG/1.1/DTD/svg11.dtd" >
<svg xmlns="http://www.w3.org/2000/svg" xmlns:xlink="http://www.w3.org/1999/xlink" version="1.1">
<metadata>
Created by FontForge 20170731 at Wed Oct 12 22:39:20 2016
 By Aleksey,,,
(c) 2011 Klim Type Foundry. All rights reserved.
</metadata>
<defs>
<font id="Calibre-R-Black" horiz-adv-x="608" >
  <font-face 
    font-family="Calibre-R Black"
    font-weight="900"
    font-stretch="normal"
    units-per-em="1000"
    panose-1="2 11 10 3 3 2 2 6 2 3"
    ascent="800"
    descent="-200"
    x-height="531"
    cap-height="718"
    bbox="-140 -289 1168 1100"
    underline-thickness="50"
    underline-position="-200"
    unicode-range="U+0020-FB02"
  />
<missing-glyph 
 />
    <glyph glyph-name="f_f" unicode="ff" horiz-adv-x="775" 
d="M763 756v-177q-15 7 -36 7q-59 0 -59 -52v-3h95v-171h-95v-360h-221v360h-143v-360h-221v360h-71v171h71v7q0 104 58 164.5t167 60.5q51 0 91 -14v-177q-15 7 -36 7q-26 0 -42.5 -11.5t-16.5 -33.5v-3h143v14q0 104 58 164.5t167 60.5q49 0 91 -14z" />
    <glyph glyph-name=".notdef" 
 />
    <glyph glyph-name=".null" horiz-adv-x="0" 
 />
    <glyph glyph-name="nonmarkingreturn" horiz-adv-x="333" 
 />
    <glyph glyph-name="space" unicode=" " horiz-adv-x="219" 
 />
    <glyph glyph-name="exclam" unicode="!" horiz-adv-x="307" 
d="M66 249l-48 469h271l-48 -469h-175zM280 109q0 -50 -37 -83.5t-90 -33.5t-89.5 33.5t-36.5 83.5t36.5 83.5t89.5 33.5t90 -33.5t37 -83.5z" />
    <glyph glyph-name="quotedbl" unicode="&#x22;" horiz-adv-x="452" 
d="M247 402v316h166v-316h-166zM39 402v316h166v-316h-166z" />
    <glyph glyph-name="numbersign" unicode="#" horiz-adv-x="766" 
d="M424 310l24 98h-105l-24 -98h105zM350 0l43 178h-105l-43 -178h-149l42 178h-115l32 132h115l23 98h-116l31 133h117l42 177h150l-42 -177h105l42 177h148l-42 -177h115l-32 -133h-114l-24 -98h116l-30 -132h-117l-42 -178h-150z" />
    <glyph glyph-name="dollar" unicode="$" horiz-adv-x="624" 
d="M401 -96h-175v109q-86 19 -140 72.5t-67 134.5h221q16 -46 79 -46q25 0 41.5 11t16.5 29q0 20 -12.5 28t-42.5 15l-116 27q-83 20 -130 66.5t-47 133.5q0 85 53.5 144t143.5 78v106h175v-109q80 -20 127.5 -73t60.5 -129h-210q-21 42 -72 42q-27 0 -43 -10.5t-16 -27.5
q0 -15 9 -22.5t28 -12.5l134 -34q179 -46 179 -207q0 -86 -54 -142t-143 -75v-108z" />
    <glyph glyph-name="percent" unicode="%" horiz-adv-x="808" 
d="M199 376q-73 0 -124.5 51t-51.5 124q0 75 51.5 127t124.5 52q74 0 126.5 -52t52.5 -127q0 -73 -52.5 -124t-126.5 -51zM109 0l478 718h113l-479 -718h-112zM199 497q23 0 40 16t17 38q0 24 -17 40.5t-40 16.5q-22 0 -38 -16.5t-16 -40.5q0 -22 16 -38t38 -16zM610 343
q73 0 124 -51.5t51 -124.5q0 -74 -51 -126.5t-124 -52.5q-75 0 -127 52.5t-52 126.5q0 73 52 124.5t127 51.5zM610 110q22 0 37.5 17t15.5 40q0 22 -15.5 38t-37.5 16q-24 0 -41 -16t-17 -38q0 -23 17 -40t41 -17z" />
    <glyph glyph-name="ampersand" unicode="&#x26;" horiz-adv-x="714" 
d="M291 157q21 0 42 6l-91 104q-17 -19 -17 -47q0 -27 17 -45t49 -18zM476 0l-25 29q-79 -41 -164 -41q-121 0 -192.5 61t-71.5 171q0 57 27.5 106.5t76.5 80.5q-29 50 -29 107q0 98 72 157t188 59q112 0 181 -61t79 -158h-213q-6 45 -47 45q-21 0 -32.5 -12.5t-11.5 -31.5
q0 -24 42 -76l113 -138q15 39 15 90h192q0 -134 -82 -241l120 -147h-238z" />
    <glyph glyph-name="quotesingle" unicode="'" horiz-adv-x="255" 
d="M39 402v316h177v-316h-177z" />
    <glyph glyph-name="parenleft" unicode="(" horiz-adv-x="401" 
d="M378 -98q-160 32 -251.5 146t-91.5 283t91.5 283t251.5 147v-199q-145 -58 -145 -231q0 -94 37.5 -148t107.5 -82v-199z" />
    <glyph glyph-name="parenright" unicode=")" horiz-adv-x="401" 
d="M23 -98v199q70 28 107.5 82t37.5 148q0 173 -145 231v199q160 -33 251.5 -147t91.5 -283t-91.5 -283t-251.5 -146z" />
    <glyph glyph-name="asterisk" unicode="*" horiz-adv-x="400" 
d="M101 585l-78 44l51 87l76 -44v89h100v-89l76 44l51 -87l-77 -44l77 -44l-51 -87l-76 44v-88h-100v88l-76 -44l-51 87z" />
    <glyph glyph-name="plus" unicode="+" horiz-adv-x="645" 
d="M600 270h-198v-197h-160v197h-198v161h198v197h160v-197h198v-161z" />
    <glyph glyph-name="comma" unicode="," horiz-adv-x="277" 
d="M12 -117l89 137q-36 7 -61.5 36t-25.5 72q0 50 36 83.5t89 33.5q52 0 88 -35t36 -95q0 -62 -50 -137l-62 -95h-139z" />
    <glyph glyph-name="hyphen" unicode="-" horiz-adv-x="359" 
d="M39 215v182h282v-182h-282z" />
    <glyph glyph-name="period" unicode="." horiz-adv-x="277" 
d="M263 118q0 -53 -36 -89.5t-89 -36.5q-52 0 -88 36.5t-36 89.5q0 54 36 90.5t88 36.5q53 0 89 -36.5t36 -90.5z" />
    <glyph glyph-name="slash" unicode="/" horiz-adv-x="486" 
d="M6 -98l290 859h184l-290 -859h-184z" />
    <glyph glyph-name="zero" unicode="0" horiz-adv-x="667" 
d="M647 359q0 -164 -87.5 -267.5t-226.5 -103.5q-138 0 -225.5 103.5t-87.5 267.5t87.5 267.5t225.5 103.5q139 0 226.5 -103.5t87.5 -267.5zM239 359q0 -74 22.5 -124t71.5 -50q48 0 71 50t23 124t-23 124.5t-71 50.5q-49 0 -71.5 -50.5t-22.5 -124.5z" />
    <glyph glyph-name="one" unicode="1" horiz-adv-x="456" 
d="M398 718v-718h-220v482l-166 -80v211l228 105h158z" />
    <glyph glyph-name="two" unicode="2" horiz-adv-x="589" 
d="M241 483h-234q11 105 85.5 176t192.5 71q124 0 199.5 -64.5t75.5 -167.5q0 -65 -33.5 -114.5t-98.5 -105.5l-97 -84h227v-194h-546v145l266 250q29 26 40.5 44.5t11.5 40.5q0 20 -12 33.5t-31 13.5q-21 0 -33 -13.5t-13 -30.5z" />
    <glyph glyph-name="three" unicode="3" horiz-adv-x="585" 
d="M230 284v155h38q74 0 74 54q0 22 -14 36t-38 14q-25 0 -41 -17t-20 -43h-214q11 105 87 176t199 71q116 0 186 -64t70 -168q0 -39 -20.5 -79t-48.5 -60q36 -18 56 -56t20 -87q0 -100 -73 -164t-194 -64q-129 0 -205 68.5t-84 183.5h227q5 -62 59 -62q23 0 38 14.5
t15 37.5q0 54 -72 54h-45z" />
    <glyph glyph-name="four" unicode="4" horiz-adv-x="618" 
d="M417 718l-162 -411h68v93h191v-93h86v-183h-86v-124h-191v124h-305v170l187 424h212z" />
    <glyph glyph-name="five" unicode="5" horiz-adv-x="596" 
d="M239 275h-186v443h464v-190h-283v-69q44 18 99 18q113 0 177 -65.5t64 -171.5q0 -115 -73.5 -183.5t-197.5 -68.5q-128 0 -203.5 68.5t-83.5 183.5h222q1 -29 19.5 -46t47.5 -17q26 0 43 17t17 45q0 27 -17 45t-47 18q-31 0 -62 -27z" />
    <glyph glyph-name="six" unicode="6" horiz-adv-x="614" 
d="M585 508h-209q-12 37 -55 37q-38 0 -59.5 -29.5t-23.5 -69.5v-1q34 30 113 30q108 0 174 -64.5t66 -164.5q0 -114 -76.5 -186t-202.5 -72q-70 0 -127.5 29t-94.5 79q-69 90 -69 247q0 172 79 279.5t218 107.5q110 0 181 -60.5t86 -161.5zM314 167q32 0 54 21t22 52
q0 32 -22 53t-54 21q-33 0 -54.5 -21t-21.5 -53t21.5 -52.5t54.5 -20.5z" />
    <glyph glyph-name="seven" unicode="7" horiz-adv-x="557" 
d="M534 572l-202 -572h-228l187 525h-279v193h522v-146z" />
    <glyph glyph-name="eight" unicode="8" horiz-adv-x="606" 
d="M303 730q109 0 185 -58t76 -160q0 -105 -83 -152q48 -19 77 -61t29 -99q0 -97 -81 -154.5t-203 -57.5t-203 57.5t-81 154.5q0 57 29 99t77 61q-83 47 -83 152q0 102 76 160t185 58zM240 508q0 -24 17.5 -40t45.5 -16t45.5 16t17.5 40q0 25 -17.5 41t-45.5 16t-45.5 -16
t-17.5 -41zM236 218q0 -25 19 -41.5t48 -16.5t48 16.5t19 41.5t-19 41t-48 16t-48 -16t-19 -41z" />
    <glyph glyph-name="nine" unicode="9" horiz-adv-x="614" 
d="M301 551q-32 0 -54 -20.5t-22 -51.5q0 -32 22 -53t54 -21q33 0 54.5 20.5t21.5 53.5q0 31 -22 51.5t-54 20.5zM29 211h210q13 -38 55 -38q37 0 59 29.5t24 70.5v1q-35 -31 -114 -31q-108 0 -174 65t-66 165q0 113 77 185t202 72q142 0 222 -108q69 -90 69 -246
q0 -173 -78.5 -280.5t-218.5 -107.5q-110 0 -181 60.5t-86 162.5z" />
    <glyph glyph-name="colon" unicode=":" horiz-adv-x="277" 
d="M263 405q0 -54 -36 -90.5t-89 -36.5q-52 0 -88 36.5t-36 90.5t36 90t88 36q53 0 89 -36t36 -90zM263 118q0 -53 -36 -89.5t-89 -36.5q-52 0 -88 36.5t-36 89.5q0 54 36 90.5t88 36.5q53 0 89 -36.5t36 -90.5z" />
    <glyph glyph-name="semicolon" unicode=";" horiz-adv-x="277" 
d="M263 405q0 -54 -36 -90.5t-89 -36.5q-52 0 -88 36.5t-36 90.5t36 90t88 36q53 0 89 -36t36 -90zM12 -117l89 137q-36 7 -61.5 36t-25.5 72q0 50 36 83.5t89 33.5q52 0 88 -35t36 -95q0 -62 -50 -137l-62 -95h-139z" />
    <glyph glyph-name="less" unicode="&#x3c;" horiz-adv-x="498" 
d="M33 250v195l423 179v-177l-271 -100l271 -99v-177z" />
    <glyph glyph-name="equal" unicode="=" horiz-adv-x="668" 
d="M56 400v143h556v-143h-556zM56 164v141h556v-141h-556z" />
    <glyph glyph-name="greater" unicode="&#x3e;" horiz-adv-x="498" 
d="M466 445v-195l-424 -179v177l272 99l-272 100v177z" />
    <glyph glyph-name="question" unicode="?" horiz-adv-x="579" 
d="M239 483h-227q11 108 83.5 177.5t199.5 69.5q116 0 188.5 -59.5t72.5 -160.5q0 -31 -12.5 -62t-25 -49t-39 -50t-36.5 -45q-22 -32 -24 -55h-221q1 45 50 109q8 11 23.5 30t22 28t15 22t11.5 23t3 21q0 20 -11.5 31.5t-28.5 11.5q-20 0 -31.5 -12.5t-12.5 -29.5zM434 109
q0 -50 -37 -83.5t-92 -33.5q-53 0 -89.5 33.5t-36.5 83.5t36.5 83.5t89.5 33.5q55 0 92 -33t37 -84z" />
    <glyph glyph-name="at" unicode="@" horiz-adv-x="877" 
d="M686 463l-52 -292q-8 -42 26 -42q51 0 79.5 49.5t28.5 142.5q0 120 -85 188.5t-217 68.5q-155 0 -252 -98.5t-97 -257.5q0 -87 32 -151t85 -97.5t111 -49t122 -15.5q136 0 262 56v-90q-112 -55 -262 -55q-89 0 -167.5 24t-142.5 71t-101.5 126t-37.5 181q0 188 125.5 317
t322.5 129q173 0 283.5 -99t110.5 -248q0 -139 -70 -215t-182 -76q-91 0 -140 58q-39 -53 -119 -53q-77 0 -119 51t-42 132q0 104 61 179t158 75q31 0 59 -12t41 -31l5 34h174zM467 212l14 83q-7 29 -45 29q-29 0 -49.5 -25t-20.5 -64q0 -54 49 -54q35 0 52 31z" />
    <glyph glyph-name="A" unicode="A" horiz-adv-x="779" 
d="M386 453l-60 -165h120zM550 0l-38 104h-252l-38 -104h-222l271 718h237l271 -718h-229z" />
    <glyph glyph-name="B" unicode="B" horiz-adv-x="655" 
d="M39 0v718h341q114 0 175.5 -49.5t61.5 -145.5q0 -55 -28 -96t-70 -56q52 -17 84.5 -64t32.5 -108q0 -96 -61.5 -147.5t-174.5 -51.5h-361zM253 443h94q59 0 59 47q0 46 -59 46h-94v-93zM253 281v-97h110q27 0 42 13.5t15 34.5q0 23 -15 36t-42 13h-110z" />
    <glyph glyph-name="C" unicode="C" horiz-adv-x="709" 
d="M466 250h227q-20 -117 -102.5 -189.5t-218.5 -72.5q-156 0 -256 104.5t-100 266.5t100 266.5t256 104.5q136 0 218.5 -72.5t102.5 -188.5h-227q-21 63 -94 63q-60 0 -93.5 -48t-33.5 -125q0 -76 33.5 -124.5t93.5 -48.5q73 0 94 64z" />
    <glyph glyph-name="D" unicode="D" horiz-adv-x="713" 
d="M39 0v718h289q173 0 271 -97t98 -262t-98 -262t-271 -97h-289zM261 194h55q75 0 116.5 44.5t41.5 120.5q0 77 -41.5 121.5t-116.5 44.5h-55v-331z" />
    <glyph glyph-name="E" unicode="E" horiz-adv-x="611" 
d="M39 718h540v-193h-317v-68h290v-187h-290v-76h317v-194h-540v718z" />
    <glyph glyph-name="F" unicode="F" horiz-adv-x="604" 
d="M262 0h-223v718h532v-195h-309v-101h281v-189h-281v-233z" />
    <glyph glyph-name="G" unicode="G" horiz-adv-x="731" 
d="M487 230h-85v161h313v-80q0 -148 -90.5 -235.5t-241.5 -87.5q-163 0 -265 104t-102 267q0 164 102 267.5t265 103.5q141 0 226 -72.5t105 -189.5h-233q-22 64 -98 64q-67 0 -102.5 -47.5t-35.5 -125.5q0 -80 37 -126.5t101 -46.5q75 0 104 44z" />
    <glyph glyph-name="H" unicode="H" horiz-adv-x="759" 
d="M494 718h227v-718h-227v267h-228v-267h-227v718h227v-258h228v258z" />
    <glyph glyph-name="I" unicode="I" horiz-adv-x="304" 
d="M266 718v-718h-227v718h227z" />
    <glyph glyph-name="J" unicode="J" horiz-adv-x="671" 
d="M18 281h228q2 -91 82 -91q83 0 83 105v423h227v-425q0 -154 -85.5 -229.5t-224.5 -75.5q-141 0 -224 80t-86 213z" />
    <glyph glyph-name="K" unicode="K" horiz-adv-x="729" 
d="M266 718v-266l193 266h259l-229 -308l240 -410h-262l-149 257l-52 -71v-186h-227v718h227z" />
    <glyph glyph-name="L" unicode="L" horiz-adv-x="600" 
d="M39 0v718h227v-524h308v-194h-535z" />
    <glyph glyph-name="M" unicode="M" horiz-adv-x="886" 
d="M514 0h-143l-122 385v-385h-210v718h282l121 -385l123 385h282v-718h-211v385z" />
    <glyph glyph-name="N" unicode="N" horiz-adv-x="744" 
d="M706 718v-718h-187l-262 359v-359h-218v718h211l237 -334v334h219z" />
    <glyph glyph-name="O" unicode="O" horiz-adv-x="757" 
d="M378 730q160 0 261.5 -104.5t101.5 -266.5t-101.5 -266.5t-261.5 -104.5t-261 104.5t-101 266.5t101 266.5t261 104.5zM378 532q-61 0 -97 -46.5t-36 -126.5t36.5 -126.5t96.5 -46.5t97 47t37 126q0 80 -37 126.5t-97 46.5z" />
    <glyph glyph-name="P" unicode="P" horiz-adv-x="668" 
d="M262 197v-197h-223v718h337q122 0 196 -69t74 -192t-74 -191.5t-196 -68.5h-114zM262 385h83q82 0 82 72q0 73 -82 73h-83v-145z" />
    <glyph glyph-name="Q" unicode="Q" horiz-adv-x="757" 
d="M567 -55l-56 69q-63 -26 -133 -26q-160 0 -261 104.5t-101 266.5t101 266.5t261 104.5t261.5 -104.5t101.5 -266.5q0 -143 -92 -248l48 -60zM378 173h4l-54 67l131 105l47 -58q8 34 8 72q0 80 -38 126.5t-98 46.5q-61 0 -97 -46.5t-36 -126.5q0 -81 37 -133.5t96 -52.5z
" />
    <glyph glyph-name="R" unicode="R" horiz-adv-x="684" 
d="M262 530v-146h96q81 0 81 72q0 74 -81 74h-96zM39 0v718h349q121 0 196 -70t75 -192q0 -151 -123 -216l148 -240h-249l-121 206h-52v-206h-223z" />
    <glyph glyph-name="S" unicode="S" horiz-adv-x="653" 
d="M9 221h237q15 -54 89 -54q32 0 52 12t20 35q0 17 -11.5 25t-35.5 13l-147 30q-190 38 -190 204q0 111 83.5 177.5t211.5 66.5q136 0 215.5 -65.5t93.5 -167.5h-221q-20 55 -87 55q-66 0 -66 -41q0 -27 40 -36l149 -35q193 -45 193 -212q0 -112 -84 -176t-211 -64
q-137 0 -224.5 61.5t-106.5 171.5z" />
    <glyph glyph-name="T" unicode="T" horiz-adv-x="683" 
d="M16 525v193h651v-193h-212v-525h-227v525h-212z" />
    <glyph glyph-name="U" unicode="U" horiz-adv-x="721" 
d="M688 718v-421q0 -147 -87.5 -228t-240.5 -81q-152 0 -239.5 81t-87.5 228v421h226v-401q0 -60 27.5 -93t73.5 -33q47 0 74.5 33t27.5 93v401h226z" />
    <glyph glyph-name="V" unicode="V" horiz-adv-x="755" 
d="M489 0h-223l-266 718h243l138 -408l140 408h234z" />
    <glyph glyph-name="W" unicode="W" horiz-adv-x="990" 
d="M413 718h168l95 -360l83 360h231l-192 -718h-206l-97 367l-98 -367h-206l-191 718h234l84 -360z" />
    <glyph glyph-name="X" unicode="X" horiz-adv-x="728" 
d="M717 718l-223 -351l235 -367h-250l-119 193l-117 -193h-244l235 367l-223 351h250l105 -176l108 176h243z" />
    <glyph glyph-name="Y" unicode="Y" horiz-adv-x="739" 
d="M374 462l129 256h236l-257 -482v-236h-228v236l-254 482h246z" />
    <glyph glyph-name="Z" unicode="Z" horiz-adv-x="665" 
d="M633 194v-194h-601v171l307 354h-304v193h594v-169l-300 -355h304z" />
    <glyph glyph-name="bracketleft" unicode="[" horiz-adv-x="399" 
d="M246 581v-500h130v-179h-337v859h337v-180h-130z" />
    <glyph glyph-name="backslash" unicode="\" horiz-adv-x="486" 
d="M190 761l290 -859h-184l-290 859h184z" />
    <glyph glyph-name="bracketright" unicode="]" horiz-adv-x="399" 
d="M153 581h-130v180h337v-859h-337v179h130v500z" />
    <glyph glyph-name="asciicircum" unicode="^" horiz-adv-x="534" 
d="M183 718h168l171 -299h-180l-75 145l-75 -145h-180z" />
    <glyph glyph-name="underscore" unicode="_" horiz-adv-x="446" 
d="M23 -209v160h399v-160h-399z" />
    <glyph glyph-name="grave" unicode="`" horiz-adv-x="585" 
d="M445 577h-206l-100 184h206z" />
    <glyph glyph-name="a" unicode="a" horiz-adv-x="572" 
d="M330 153v24q-18 25 -61 25q-21 0 -36 -9.5t-15 -27.5t15 -27.5t36 -9.5q43 0 61 25zM545 0h-215v26q-14 -14 -49.5 -24.5t-75.5 -10.5q-82 0 -136.5 44t-54.5 125q0 76 57.5 122t144.5 46q32 0 65 -8.5t49 -19.5v29q0 19 -11 32t-34 13q-35 0 -45 -28h-208
q11 85 81.5 141.5t180.5 56.5q120 0 185.5 -60t65.5 -170v-314z" />
    <glyph glyph-name="b" unicode="b" horiz-adv-x="631" 
d="M259 41v-41h-223v761h223v-271q19 22 55 37.5t73 15.5q109 0 170 -78.5t61 -198.5q0 -121 -61 -199.5t-170 -78.5q-37 0 -73 15.5t-55 37.5zM259 318v-105q15 -37 62 -37q34 0 54 25t20 65q0 39 -20 64.5t-54 25.5q-21 0 -38 -10.5t-24 -27.5z" />
    <glyph glyph-name="c" unicode="c" horiz-adv-x="564" 
d="M338 215h213q-11 -102 -79.5 -164.5t-180.5 -62.5q-125 0 -201.5 77t-76.5 201q0 123 76.5 200t201.5 77q112 0 180.5 -62.5t79.5 -164.5h-213q-2 19 -14 31.5t-34 12.5q-27 0 -42.5 -25t-15.5 -69q0 -45 15.5 -70t42.5 -25q22 0 34 12.5t14 31.5z" />
    <glyph glyph-name="d" unicode="d" horiz-adv-x="631" 
d="M372 213v105q-7 17 -24 27.5t-38 10.5q-34 0 -54.5 -25.5t-20.5 -64.5q0 -40 20 -65t55 -25q47 0 62 37zM372 0v41q-20 -22 -55.5 -37.5t-73.5 -15.5q-109 0 -169.5 78.5t-60.5 199.5q0 120 60.5 198.5t169.5 78.5q38 0 73.5 -15.5t55.5 -37.5v271h222v-761h-222z" />
    <glyph glyph-name="e" unicode="e" horiz-adv-x="570" 
d="M350 197h207q-15 -99 -85 -154t-179 -55q-127 0 -203.5 76.5t-76.5 201.5q0 124 77.5 200.5t198.5 76.5q126 0 197 -73.5t71 -195.5v-49h-332q12 -68 68 -68q46 0 57 40zM344 319q-4 25 -18.5 40t-36.5 15q-44 0 -60 -55h115z" />
    <glyph glyph-name="f" unicode="f" horiz-adv-x="411" 
d="M399 756v-177q-15 7 -36 7q-59 0 -59 -52v-3h95v-171h-95v-360h-221v360h-71v171h71v14q0 104 58 164.5t167 60.5q51 0 91 -14z" />
    <glyph glyph-name="g" unicode="g" horiz-adv-x="616" 
d="M360 238v100q-17 34 -59 34q-33 0 -52 -23t-19 -61t19 -61t52 -23q42 0 59 34zM360 36v47q-41 -50 -119 -50q-107 0 -167.5 70.5t-60.5 184.5t60.5 184.5t167.5 70.5q77 0 119 -50v38h220v-436q0 -139 -78.5 -212.5t-211.5 -73.5q-111 0 -186 51.5t-91 145.5h213
q13 -40 64 -40q70 0 70 70z" />
    <glyph glyph-name="h" unicode="h" horiz-adv-x="624" 
d="M36 0v761h223v-273q48 55 141 55q87 0 138 -52t51 -141v-350h-223v290q0 25 -13 41t-38 16q-45 0 -56 -43v-304h-223z" />
    <glyph glyph-name="i" unicode="i" horiz-adv-x="295" 
d="M25 666q0 52 35 83t87 31t87.5 -31t35.5 -83q0 -53 -35.5 -84t-87.5 -31t-87 31t-35 84zM259 531v-531h-223v531h223z" />
    <glyph glyph-name="j" unicode="j" horiz-adv-x="295" 
d="M25 666q0 52 35 83t87 31t87.5 -31t35.5 -83q0 -53 -35.5 -84t-87.5 -31t-87 31t-35 84zM259 531v-484q0 -114 -56.5 -176t-162.5 -62q-46 0 -79 10v162q14 -2 23 -2q27 0 39.5 11t12.5 40v501h223z" />
    <glyph glyph-name="k" unicode="k" horiz-adv-x="641" 
d="M388 0l-103 180l-26 -36v-144h-223v761h223v-374l114 144h262l-187 -216l192 -315h-252z" />
    <glyph glyph-name="l" unicode="l" horiz-adv-x="295" 
d="M259 761v-761h-223v761h223z" />
    <glyph glyph-name="m" unicode="m" horiz-adv-x="932" 
d="M897 0h-222v290q0 57 -44 57q-42 0 -53 -43v-304h-222v290q0 57 -45 57q-18 0 -32.5 -11.5t-19.5 -31.5v-304h-223v531h223v-43q47 55 139 55q90 0 148 -60q69 60 168 60q84 0 133.5 -52t49.5 -141v-350z" />
    <glyph glyph-name="n" unicode="n" horiz-adv-x="624" 
d="M36 0v531h223v-43q48 55 141 55q87 0 138 -52t51 -141v-350h-223v290q0 25 -13 41t-38 16q-45 0 -56 -43v-304h-223z" />
    <glyph glyph-name="o" unicode="o" horiz-adv-x="590" 
d="M295 543q126 0 204 -76.5t78 -200.5t-78 -201t-204 -77q-125 0 -203.5 77t-78.5 201t78.5 200.5t203.5 76.5zM295 362q-30 0 -46.5 -26.5t-16.5 -69.5q0 -44 16.5 -70t46.5 -26t47 26t17 70t-17 70t-47 26z" />
    <glyph glyph-name="p" unicode="p" horiz-adv-x="631" 
d="M259 318v-105q7 -17 24 -27t38 -10q34 0 54 25t20 65q0 39 -20 64.5t-54 25.5q-46 0 -62 -38zM259 41v-220h-223v710h223v-41q19 22 55 37.5t73 15.5q109 0 170 -78.5t61 -198.5q0 -121 -61 -199.5t-170 -78.5q-37 0 -73 15.5t-55 37.5z" />
    <glyph glyph-name="q" unicode="q" horiz-adv-x="631" 
d="M372 -179v220q-20 -22 -55.5 -37.5t-73.5 -15.5q-109 0 -169.5 78.5t-60.5 199.5q0 120 60.5 198.5t169.5 78.5q38 0 73.5 -15.5t55.5 -37.5v41h222v-710h-222zM372 213v105q-16 38 -62 38q-34 0 -54.5 -25.5t-20.5 -64.5q0 -40 20 -65t55 -25q21 0 38 10t24 27z" />
    <glyph glyph-name="r" unicode="r" horiz-adv-x="445" 
d="M426 534v-211q-35 16 -81 16q-36 0 -58 -13t-28 -33v-293h-223v531h223v-43q47 55 121 55q28 0 46 -9z" />
    <glyph glyph-name="s" unicode="s" horiz-adv-x="537" 
d="M9 170h213q8 -33 46 -33q33 0 33 21q0 7 -5 11t-9 5l-16 4l-99 19q-76 14 -115 52t-39 107q0 89 68.5 138t170.5 49q115 0 180.5 -49t76.5 -134h-202q-4 34 -45 34q-31 0 -31 -20q0 -14 26 -19l102 -24q155 -36 155 -164q0 -85 -70 -132t-176 -47q-110 0 -181 46.5
t-83 135.5z" />
    <glyph glyph-name="t" unicode="t" horiz-adv-x="434" 
d="M81 205v155h-74v171h74v149h219v-149h106v-171h-106v-119q0 -58 52 -58q32 0 54 7v-185q-34 -14 -109 -14q-109 0 -162.5 51.5t-53.5 162.5z" />
    <glyph glyph-name="u" unicode="u" horiz-adv-x="621" 
d="M585 531v-531h-221v43q-50 -55 -142 -55q-86 0 -136.5 52.5t-50.5 140.5v350h222v-293q0 -25 13 -41.5t38 -16.5q18 0 34 12t21 31v308h222z" />
    <glyph glyph-name="v" unicode="v" horiz-adv-x="597" 
d="M394 0h-192l-202 531h225l80 -257l78 257h214z" />
    <glyph glyph-name="w" unicode="w" horiz-adv-x="848" 
d="M490 531l72 -237l73 237h213l-181 -531h-178l-65 212l-65 -212h-178l-181 531h221l74 -237l71 237h124z" />
    <glyph glyph-name="x" unicode="x" horiz-adv-x="598" 
d="M594 531l-175 -263l179 -268h-236l-68 110l-67 -110h-227l178 268l-174 263h236l63 -105l64 105h227z" />
    <glyph glyph-name="y" unicode="y" horiz-adv-x="606" 
d="M336 -179h-220l79 207l-195 503h229l81 -251l77 251h219z" />
    <glyph glyph-name="z" unicode="z" horiz-adv-x="538" 
d="M510 171v-171h-482v147l212 213h-208v171h476v-147l-198 -213h200z" />
    <glyph glyph-name="braceleft" unicode="{" horiz-adv-x="443" 
d="M302 234v-119q0 -34 34 -34h84v-179h-165q-67 0 -109 42.5t-42 109.5v154q0 34 -34 34h-47v178h47q34 0 34 34v154q0 68 42 110.5t109 42.5h165v-180h-84q-34 0 -34 -33v-120q0 -62 -55 -97q55 -35 55 -97z" />
    <glyph glyph-name="bar" unicode="|" horiz-adv-x="254" 
d="M39 -98v859h176v-859h-176z" />
    <glyph glyph-name="braceright" unicode="}" horiz-adv-x="443" 
d="M142 115v119q0 63 55 97q-55 34 -55 97v120q0 33 -34 33h-85v180h165q67 0 109 -42.5t42 -110.5v-154q0 -34 34 -34h47v-178h-47q-34 0 -34 -34v-154q0 -67 -42 -109.5t-109 -42.5h-165v179h85q34 0 34 34z" />
    <glyph glyph-name="asciitilde" unicode="~" horiz-adv-x="497" 
d="M340 425h128q0 -97 -34.5 -150.5t-98.5 -53.5q-32 0 -57.5 15t-44.5 30.5t-36 15.5q-40 0 -40 -55h-128q0 97 35 151t100 54q40 0 80.5 -30.5t57.5 -30.5q20 0 29 12t9 42z" />
    <glyph glyph-name="uni00A0" unicode="&#xa0;" horiz-adv-x="219" 
 />
    <glyph glyph-name="exclamdown" unicode="&#xa1;" horiz-adv-x="307" 
d="M153 614q53 0 90 -33.5t37 -83.5q0 -49 -37 -83t-90 -34t-89.5 34t-36.5 83q0 50 36.5 83.5t89.5 33.5zM18 -112l48 469h175l48 -469h-271z" />
    <glyph glyph-name="cent" unicode="&#xa2;" horiz-adv-x="564" 
d="M551 227q-8 -80 -53.5 -137t-120.5 -79v-107h-176v108q-87 25 -137.5 95.5t-50.5 169.5t50.5 169.5t137.5 96.5v117h176v-116q75 -22 120.5 -79t53.5 -137h-213q-2 19 -14 31.5t-34 12.5q-27 0 -42.5 -25t-15.5 -70t15.5 -69.5t42.5 -24.5q22 0 34 12.5t14 31.5h213z" />
    <glyph glyph-name="sterling" unicode="&#xa3;" horiz-adv-x="596" 
d="M569 185v-185h-546v185h44q20 38 23 88h-67v165h67v44q0 111 64.5 179.5t177.5 68.5q109 0 173.5 -62t66.5 -165h-195q0 45 -37 45q-39 0 -39 -57v-53h112v-165h-112q-3 -59 -25 -88h293z" />
    <glyph glyph-name="yen" unicode="&#xa5;" horiz-adv-x="686" 
d="M612 108h-160v-108h-222v108h-160v118h160v45h-160v119h102l-160 328h245l90 -216l91 216h236l-163 -328h101v-119h-160v-45h160v-118z" />
    <glyph glyph-name="section" unicode="&#xa7;" horiz-adv-x="569" 
d="M245 300l85 -50q19 7 19 26q0 23 -25 38l-85 49q-19 -9 -19 -26q0 -23 25 -37zM528 548h-186q-5 38 -42 38q-14 0 -24 -9t-10 -24q0 -16 23 -31l137 -68q119 -59 119 -160q0 -87 -83 -130q47 -47 47 -105q0 -80 -63.5 -128t-161.5 -48q-111 0 -172 48.5t-71 134.5h186
q3 -39 42 -39q14 0 24 9t10 24q0 16 -23 31l-137 68q-120 59 -120 160q0 87 82 130q-45 43 -45 106q0 79 63.5 127t160.5 48q112 0 173 -48t71 -134z" />
    <glyph glyph-name="dieresis" unicode="&#xa8;" horiz-adv-x="585" 
d="M505 660q0 -42 -30 -72t-73 -30q-42 0 -71.5 30t-29.5 72t29.5 72.5t71.5 30.5q43 0 73 -30.5t30 -72.5zM283 660q0 -42 -30.5 -72t-72.5 -30t-72 30t-30 72t30 72.5t72 30.5t72.5 -30.5t30.5 -72.5z" />
    <glyph glyph-name="copyright" unicode="&#xa9;" horiz-adv-x="824" 
d="M412 730q154 0 262.5 -106t108.5 -265t-108.5 -265t-262.5 -106q-155 0 -263 106t-108 265t108 265t263 106zM412 676q-132 0 -224 -90.5t-92 -226.5t92.5 -226.5t223.5 -90.5t223.5 90.5t92.5 226.5t-92 226.5t-224 90.5zM415 128q-100 0 -162.5 64.5t-62.5 167.5
q0 104 62.5 169t162.5 65q87 0 139.5 -45.5t64.5 -117.5h-144q-13 39 -60 39q-40 0 -61 -30t-21 -80q0 -47 21 -77.5t61 -30.5q47 0 60 41h144q-12 -73 -64.5 -119t-139.5 -46z" />
    <glyph glyph-name="ordfeminine" unicode="&#xaa;" horiz-adv-x="388" 
d="M227 463v16q-14 16 -41 16q-13 0 -23.5 -6.5t-10.5 -18.5q0 -11 10.5 -17.5t23.5 -6.5q27 0 41 17zM372 357h-145v17q-28 -24 -88 -24q-55 0 -93 30.5t-38 86.5q0 53 40 84.5t99 31.5q50 0 80 -20v21q0 13 -8 22t-25 9q-26 0 -33 -22h-135q7 60 53 98.5t121 38.5
q82 0 127 -41t45 -116v-216z" />
    <glyph glyph-name="guillemotleft" unicode="&#xab;" horiz-adv-x="565" 
d="M536 63h-176l-107 197l107 196h176l-108 -196zM312 63h-175l-108 197l108 196h175l-107 -196z" />
    <glyph glyph-name="registered" unicode="&#xae;" horiz-adv-x="476" 
d="M238 730q88 0 149.5 -61t61.5 -153t-61.5 -153t-149.5 -61t-150 61t-62 153t62 153t150 61zM238 338q72 0 122.5 50.5t50.5 127.5t-50.5 127.5t-122.5 50.5q-73 0 -123.5 -50.5t-50.5 -127.5t50.5 -127.5t123.5 -50.5zM242 567h-21v-38h21q26 0 26 19t-26 19zM228 469h-7
v-64h-75v224h110q39 0 62.5 -21.5t23.5 -59.5q0 -49 -40 -69l47 -74h-83z" />
    <glyph glyph-name="macron" unicode="&#xaf;" horiz-adv-x="585" 
d="M135 577v146h314v-146h-314z" />
    <glyph glyph-name="degree" unicode="&#xb0;" horiz-adv-x="428" 
d="M214 730q69 0 118 -50t49 -121t-49 -121t-118 -50t-118 50t-49 121t49 121t118 50zM214 494q26 0 44 19t18 46q0 28 -18 47t-44 19t-44 -19t-18 -47q0 -27 18 -46t44 -19z" />
    <glyph glyph-name="plusminus" unicode="&#xb1;" horiz-adv-x="662" 
d="M596 385h-195v-146h-141v146h-193v140h193v147h141v-147h195v-140zM67 40v140h529v-140h-529z" />
    <glyph glyph-name="twosuperior" unicode="&#xb2;" horiz-adv-x="379" 
d="M27 387l163 144q2 3 7.5 8.5t8 7.5t6 6.5t5 8t2.5 7.5t1 9q0 25 -25 25q-11 0 -18 -7.5t-7 -17.5h-147q7 62 52 104t117 42q74 0 120 -38t46 -99q0 -38 -19 -65t-57 -61l-52 -44h125v-119h-328v89z" />
    <glyph glyph-name="threesuperior" unicode="&#xb3;" horiz-adv-x="360" 
d="M143 463v92h28q38 0 38 31q0 28 -28 28q-29 0 -35 -36h-132q6 62 49 104t115 42q76 0 118.5 -37.5t42.5 -100.5q0 -21 -11.5 -44t-26.5 -34q42 -24 42 -76q0 -64 -44 -102.5t-120 -38.5q-74 0 -119 41t-48 109h140q2 -35 33 -35q12 0 20 8.5t8 20.5q0 28 -36 28h-34z" />
    <glyph glyph-name="acute" unicode="&#xb4;" horiz-adv-x="585" 
d="M345 577h-206l100 184h206z" />
    <glyph glyph-name="paragraph" unicode="&#xb6;" horiz-adv-x="660" 
d="M293 -105v381q-111 0 -193 56.5t-82 164.5q0 56 24 100t64 69.5t87.5 38.5t99.5 13h139v-823h-139zM482 -105v823h139v-823h-139z" />
    <glyph glyph-name="periodcentered" unicode="&#xb7;" horiz-adv-x="296" 
d="M273 304q0 -53 -36.5 -89.5t-89.5 -36.5q-52 0 -88 36.5t-36 89.5q0 54 36 90.5t88 36.5q53 0 89.5 -36.5t36.5 -90.5z" />
    <glyph glyph-name="cedilla" unicode="&#xb8;" horiz-adv-x="586" 
d="M331 -205h-182l78 168h183z" />
    <glyph glyph-name="onesuperior" unicode="&#xb9;" horiz-adv-x="288" 
d="M249 718v-420h-137v267l-99 -47v138l134 62h102z" />
    <glyph glyph-name="ordmasculine" unicode="&#xba;" horiz-adv-x="406" 
d="M204 730q88 0 141.5 -52.5t53.5 -138.5q0 -85 -53.5 -137.5t-141.5 -52.5q-87 0 -141.5 52.5t-54.5 137.5t54.5 138t141.5 53zM204 603q-19 0 -30 -17.5t-11 -46.5q0 -28 11 -45t30 -17t30 17t11 45q0 29 -11 46.5t-30 17.5z" />
    <glyph glyph-name="guillemotright" unicode="&#xbb;" horiz-adv-x="565" 
d="M205 63h-176l108 197l-108 196h176l107 -196zM428 63h-175l107 197l-107 196h175l108 -196z" />
    <glyph glyph-name="onequarter" unicode="&#xbc;" horiz-adv-x="862" 
d="M259 718v-420h-137v267l-100 -47v138l135 62h102zM709 718l-479 -718h-112l479 718h112zM732 420l-110 -242h46v54h119v-54h54v-115h-54v-63h-119v63h-193v108l124 249h133z" />
    <glyph glyph-name="onehalf" unicode="&#xbd;" horiz-adv-x="860" 
d="M259 718v-420h-137v267l-100 -47v138l135 62h102zM709 718l-479 -718h-112l479 718h112zM661 233q30 28 30 47q0 24 -24 24q-11 0 -18.5 -7.5t-7.5 -16.5h-146q6 62 51.5 104t116.5 42q75 0 121 -38t46 -99q0 -38 -19 -65t-58 -61l-51 -45h124v-118h-328v89z" />
    <glyph glyph-name="threequarters" unicode="&#xbe;" horiz-adv-x="892" 
d="M738 718l-478 -718h-113l479 718h112zM152 463v92h28q39 0 39 31q0 28 -28 28q-31 0 -35 -36h-133q7 62 50 104t114 42q76 0 119 -37.5t43 -100.5q0 -21 -12 -44t-27 -34q42 -23 42 -76q0 -64 -44 -102.5t-120 -38.5q-74 0 -118.5 41t-48.5 109h140q3 -35 33 -35
q12 0 20 8.5t8 20.5q0 28 -36 28h-34zM762 420l-110 -242h45v54h120v-54h53v-115h-53v-63h-120v63h-193v108l124 249h134z" />
    <glyph glyph-name="questiondown" unicode="&#xbf;" horiz-adv-x="579" 
d="M145 497q0 50 37 83.5t92 33.5q53 0 89.5 -33.5t36.5 -83.5t-36.5 -83.5t-89.5 -33.5q-55 0 -92 33t-37 84zM284 -124q-116 0 -188.5 59.5t-72.5 160.5q0 31 12.5 62t25 49t39 50t36.5 45q22 32 24 55h221q-1 -45 -50 -109q-8 -11 -23.5 -30t-22 -28t-15 -22t-11.5 -23
t-3 -21q0 -20 12 -31.5t28 -11.5q20 0 31.5 12.5t12.5 29.5h227q-11 -108 -83.5 -177.5t-199.5 -69.5z" />
    <glyph glyph-name="Agrave" unicode="&#xc0;" horiz-adv-x="779" 
d="M507 776h-218l-99 160h217zM386 453l-60 -165h120zM550 0l-38 104h-252l-38 -104h-222l271 718h237l271 -718h-229z" />
    <glyph glyph-name="Aacute" unicode="&#xc1;" horiz-adv-x="779" 
d="M496 776h-218l100 160h218zM386 453l-60 -165h120zM550 0l-38 104h-252l-38 -104h-222l271 718h237l271 -718h-229z" />
    <glyph glyph-name="Acircumflex" unicode="&#xc2;" horiz-adv-x="779" 
d="M469 936l137 -160h-174l-42 43l-43 -43h-174l137 160h159zM386 453l-60 -165h120zM550 0l-38 104h-252l-38 -104h-222l271 718h237l271 -718h-229z" />
    <glyph glyph-name="Atilde" unicode="&#xc3;" horiz-adv-x="779" 
d="M466 955h117q0 -189 -107 -189q-30 0 -75 16t-62 16q-11 0 -18 -8t-7 -19h-117q0 188 106 188q29 0 74 -15.5t63 -15.5q11 0 18.5 8t7.5 19zM386 453l-60 -165h120zM550 0l-38 104h-252l-38 -104h-222l271 718h237l271 -718h-229z" />
    <glyph glyph-name="Adieresis" unicode="&#xc4;" horiz-adv-x="779" 
d="M611 862q0 -43 -31.5 -74t-75.5 -31t-74.5 30.5t-30.5 74.5t31 75.5t74 31.5q44 0 75.5 -31.5t31.5 -75.5zM380 862q0 -43 -31 -74t-75 -31t-75 30.5t-31 74.5t31 75.5t75 31.5t75 -31.5t31 -75.5zM386 453l-60 -165h120zM550 0l-38 104h-252l-38 -104h-222l271 718h237
l271 -718h-229z" />
    <glyph glyph-name="Aring" unicode="&#xc5;" horiz-adv-x="779" 
d="M253 879q0 55 39.5 94t97.5 39q57 0 97 -39t40 -94q0 -56 -39.5 -94.5t-97.5 -38.5t-97.5 38.5t-39.5 94.5zM390 917q-17 0 -27.5 -11t-10.5 -27t10.5 -27t27.5 -11t27.5 11t10.5 27t-10.5 27t-27.5 11zM386 453l-60 -165h120zM550 0l-38 104h-252l-38 -104h-222l271 718
h237l271 -718h-229z" />
    <glyph glyph-name="AE" unicode="&#xc6;" horiz-adv-x="1073" 
d="M524 532l-130 -244h130v244zM524 0v104h-228l-56 -104h-240l395 718h646v-193h-293v-68h266v-187h-266v-76h293v-194h-517z" />
    <glyph glyph-name="Ccedilla" unicode="&#xc7;" horiz-adv-x="709" 
d="M466 250h227q-20 -117 -102.5 -189.5t-218.5 -72.5q-156 0 -256 104.5t-100 266.5t100 266.5t256 104.5q136 0 218.5 -72.5t102.5 -188.5h-227q-21 63 -94 63q-60 0 -93.5 -48t-33.5 -125q0 -76 33.5 -124.5t93.5 -48.5q73 0 94 64zM387 -205h-182l78 168h183z" />
    <glyph glyph-name="Egrave" unicode="&#xc8;" horiz-adv-x="611" 
d="M433 776h-218l-99 160h217zM39 718h540v-193h-317v-68h290v-187h-290v-76h317v-194h-540v718z" />
    <glyph glyph-name="Eacute" unicode="&#xc9;" horiz-adv-x="611" 
d="M422 776h-217l99 160h218zM39 718h540v-193h-317v-68h290v-187h-290v-76h317v-194h-540v718z" />
    <glyph glyph-name="Ecircumflex" unicode="&#xca;" horiz-adv-x="611" 
d="M395 936l137 -160h-174l-42 43l-42 -43h-175l137 160h159zM39 718h540v-193h-317v-68h290v-187h-290v-76h317v-194h-540v718z" />
    <glyph glyph-name="Edieresis" unicode="&#xcb;" horiz-adv-x="611" 
d="M431 757q-44 0 -75 30.5t-31 74.5t31 75.5t75 31.5t75 -31.5t31 -75.5q0 -43 -31 -74t-75 -31zM200 757q-44 0 -74.5 30.5t-30.5 74.5t31 75.5t74 31.5q44 0 75.5 -31.5t31.5 -75.5q0 -43 -31.5 -74t-75.5 -31zM39 718h540v-193h-317v-68h290v-187h-290v-76h317v-194
h-540v718z" />
    <glyph glyph-name="Igrave" unicode="&#xcc;" horiz-adv-x="304" 
d="M269 776h-218l-99 160h218zM266 718v-718h-227v718h227z" />
    <glyph glyph-name="Iacute" unicode="&#xcd;" horiz-adv-x="304" 
d="M259 776h-218l99 160h218zM266 718v-718h-227v718h227z" />
    <glyph glyph-name="Icircumflex" unicode="&#xce;" horiz-adv-x="304" 
d="M232 936l137 -160h-175l-42 43l-42 -43h-174l137 160h159zM266 718v-718h-227v718h227z" />
    <glyph glyph-name="Idieresis" unicode="&#xcf;" horiz-adv-x="304" 
d="M373 862q0 -43 -31 -74t-75 -31t-75 30.5t-31 74.5t31 75.5t75 31.5t75 -31.5t31 -75.5zM143 862q0 -43 -31.5 -74t-75.5 -31t-74.5 30.5t-30.5 74.5t31 75.5t74 31.5q44 0 75.5 -31.5t31.5 -75.5zM266 718v-718h-227v718h227z" />
    <glyph glyph-name="Eth" unicode="&#xd0;" horiz-adv-x="734" 
d="M347 0h-288v280h-47v169h47v269h288q173 0 271.5 -96.5t98.5 -262.5t-98.5 -262.5t-271.5 -96.5zM281 194h55q74 0 116 44.5t42 120.5q0 77 -42 121.5t-116 44.5h-55v-76h82v-169h-82v-86z" />
    <glyph glyph-name="Ntilde" unicode="&#xd1;" horiz-adv-x="744" 
d="M448 955h117q0 -189 -106 -189q-30 0 -75 16t-62 16q-11 0 -18.5 -8t-7.5 -19h-117q0 188 106 188q30 0 75 -15.5t62 -15.5q12 0 19 7.5t7 19.5zM706 718v-718h-187l-262 359v-359h-218v718h211l237 -334v334h219z" />
    <glyph glyph-name="Ograve" unicode="&#xd2;" horiz-adv-x="757" 
d="M495 776h-218l-99 160h217zM378 730q160 0 261.5 -104.5t101.5 -266.5t-101.5 -266.5t-261.5 -104.5t-261 104.5t-101 266.5t101 266.5t261 104.5zM378 532q-61 0 -97 -46.5t-36 -126.5t36.5 -126.5t96.5 -46.5t97 47t37 126q0 80 -37 126.5t-97 46.5z" />
    <glyph glyph-name="Oacute" unicode="&#xd3;" horiz-adv-x="757" 
d="M484 776h-217l99 160h218zM378 730q160 0 261.5 -104.5t101.5 -266.5t-101.5 -266.5t-261.5 -104.5t-261 104.5t-101 266.5t101 266.5t261 104.5zM378 532q-61 0 -97 -46.5t-36 -126.5t36.5 -126.5t96.5 -46.5t97 47t37 126q0 80 -37 126.5t-97 46.5z" />
    <glyph glyph-name="Ocircumflex" unicode="&#xd4;" horiz-adv-x="757" 
d="M457 936l137 -160h-174l-42 43l-42 -43h-175l137 160h159zM378 730q160 0 261.5 -104.5t101.5 -266.5t-101.5 -266.5t-261.5 -104.5t-261 104.5t-101 266.5t101 266.5t261 104.5zM378 532q-61 0 -97 -46.5t-36 -126.5t36.5 -126.5t96.5 -46.5t97 47t37 126
q0 80 -37 126.5t-97 46.5z" />
    <glyph glyph-name="Otilde" unicode="&#xd5;" horiz-adv-x="757" 
d="M454 955h117q0 -189 -107 -189q-29 0 -74 16t-62 16q-12 0 -19 -7.5t-7 -19.5h-117q0 188 106 188q30 0 75 -15.5t62 -15.5q11 0 18.5 8t7.5 19zM378 730q160 0 261.5 -104.5t101.5 -266.5t-101.5 -266.5t-261.5 -104.5t-261 104.5t-101 266.5t101 266.5t261 104.5z
M378 532q-61 0 -97 -46.5t-36 -126.5t36.5 -126.5t96.5 -46.5t97 47t37 126q0 80 -37 126.5t-97 46.5z" />
    <glyph glyph-name="Odieresis" unicode="&#xd6;" horiz-adv-x="757" 
d="M493 757q-44 0 -75 30.5t-31 74.5t31 75.5t75 31.5t75 -31.5t31 -75.5q0 -43 -31 -74t-75 -31zM262 757q-44 0 -74.5 30.5t-30.5 74.5t31 75.5t74 31.5q44 0 75.5 -31.5t31.5 -75.5q0 -43 -31.5 -74t-75.5 -31zM378 730q160 0 261.5 -104.5t101.5 -266.5t-101.5 -266.5
t-261.5 -104.5t-261 104.5t-101 266.5t101 266.5t261 104.5zM378 532q-61 0 -97 -46.5t-36 -126.5t36.5 -126.5t96.5 -46.5t97 47t37 126q0 80 -37 126.5t-97 46.5z" />
    <glyph glyph-name="multiply" unicode="&#xd7;" horiz-adv-x="577" 
d="M176 350l-141 139l114 114l140 -140l139 140l114 -114l-140 -139l140 -141l-114 -112l-139 139l-140 -139l-114 112z" />
    <glyph glyph-name="Oslash" unicode="&#xd8;" horiz-adv-x="766" 
d="M383 -12q-133 0 -227 74l-72 -74l-63 60l74 76q-74 99 -74 235q0 162 100.5 266.5t261.5 104.5q133 0 227 -74l72 74l63 -60l-74 -76q74 -99 74 -235q0 -162 -101 -266.5t-261 -104.5zM249 359q0 -35 8 -67l206 212q-34 28 -80 28q-61 0 -97.5 -46.5t-36.5 -126.5z
M383 186q60 0 97 47t37 126q0 35 -8 67l-206 -212q34 -28 80 -28z" />
    <glyph glyph-name="Ugrave" unicode="&#xd9;" horiz-adv-x="721" 
d="M477 776h-217l-100 160h218zM688 718v-421q0 -147 -87.5 -228t-240.5 -81q-152 0 -239.5 81t-87.5 228v421h226v-401q0 -60 27.5 -93t73.5 -33q47 0 74.5 33t27.5 93v401h226z" />
    <glyph glyph-name="Uacute" unicode="&#xda;" horiz-adv-x="721" 
d="M467 776h-218l100 160h217zM688 718v-421q0 -147 -87.5 -228t-240.5 -81q-152 0 -239.5 81t-87.5 228v421h226v-401q0 -60 27.5 -93t73.5 -33q47 0 74.5 33t27.5 93v401h226z" />
    <glyph glyph-name="Ucircumflex" unicode="&#xdb;" horiz-adv-x="721" 
d="M440 936l137 -160h-175l-42 43l-42 -43h-174l137 160h159zM688 718v-421q0 -147 -87.5 -228t-240.5 -81q-152 0 -239.5 81t-87.5 228v421h226v-401q0 -60 27.5 -93t73.5 -33q47 0 74.5 33t27.5 93v401h226z" />
    <glyph glyph-name="Udieresis" unicode="&#xdc;" horiz-adv-x="721" 
d="M475 757q-43 0 -74 30.5t-31 74.5t31 75.5t74 31.5q44 0 75 -31.5t31 -75.5t-31 -74.5t-75 -30.5zM245 757q-44 0 -75 30.5t-31 74.5t31 75.5t75 31.5t75 -31.5t31 -75.5q0 -43 -31 -74t-75 -31zM688 718v-421q0 -147 -87.5 -228t-240.5 -81q-152 0 -239.5 81t-87.5 228
v421h226v-401q0 -60 27.5 -93t73.5 -33q47 0 74.5 33t27.5 93v401h226z" />
    <glyph glyph-name="Yacute" unicode="&#xdd;" horiz-adv-x="739" 
d="M476 776h-217l99 160h218zM374 462l129 256h236l-257 -482v-236h-228v236l-254 482h246z" />
    <glyph glyph-name="Thorn" unicode="&#xde;" horiz-adv-x="668" 
d="M376 104h-114v-104h-223v718h223v-92h114q122 0 196 -69t74 -192t-74 -192t-196 -69zM345 438h-83v-145h83q82 0 82 72q0 73 -82 73z" />
    <glyph glyph-name="germandbls" unicode="&#xdf;" horiz-adv-x="652" 
d="M36 487q0 132 76 207.5t207 75.5q127 0 197 -58.5t70 -152.5q0 -51 -21 -91t-51 -60q55 -20 90 -69t35 -119q0 -106 -64 -166t-168 -60q-57 0 -92 13v170q15 -6 43 -6q32 0 50.5 17t18.5 50q0 65 -83 65h-26v167h5q25 0 40 15t15 43q0 25 -15.5 40t-43.5 15
q-29 0 -45.5 -22t-16.5 -56v-505h-221v487z" />
    <glyph glyph-name="agrave" unicode="&#xe0;" horiz-adv-x="572" 
d="M407 577h-206l-99 184h206zM330 153v24q-18 25 -61 25q-21 0 -36 -9.5t-15 -27.5t15 -27.5t36 -9.5q43 0 61 25zM545 0h-215v26q-14 -14 -49.5 -24.5t-75.5 -10.5q-82 0 -136.5 44t-54.5 125q0 76 57.5 122t144.5 46q32 0 65 -8.5t49 -19.5v29q0 19 -11 32t-34 13
q-35 0 -45 -28h-208q11 85 81.5 141.5t180.5 56.5q120 0 185.5 -60t65.5 -170v-314z" />
    <glyph glyph-name="aacute" unicode="&#xe1;" horiz-adv-x="572" 
d="M399 577h-206l100 184h205zM330 153v24q-18 25 -61 25q-21 0 -36 -9.5t-15 -27.5t15 -27.5t36 -9.5q43 0 61 25zM545 0h-215v26q-14 -14 -49.5 -24.5t-75.5 -10.5q-82 0 -136.5 44t-54.5 125q0 76 57.5 122t144.5 46q32 0 65 -8.5t49 -19.5v29q0 19 -11 32t-34 13
q-35 0 -45 -28h-208q11 85 81.5 141.5t180.5 56.5q120 0 185.5 -60t65.5 -170v-314z" />
    <glyph glyph-name="acircumflex" unicode="&#xe2;" horiz-adv-x="572" 
d="M377 761l113 -184h-158l-35 48l-35 -48h-158l114 184h159zM330 153v24q-18 25 -61 25q-21 0 -36 -9.5t-15 -27.5t15 -27.5t36 -9.5q43 0 61 25zM545 0h-215v26q-14 -14 -49.5 -24.5t-75.5 -10.5q-82 0 -136.5 44t-54.5 125q0 76 57.5 122t144.5 46q32 0 65 -8.5t49 -19.5
v29q0 19 -11 32t-34 13q-35 0 -45 -28h-208q11 85 81.5 141.5t180.5 56.5q120 0 185.5 -60t65.5 -170v-314z" />
    <glyph glyph-name="atilde" unicode="&#xe3;" horiz-adv-x="572" 
d="M369 761h117q0 -189 -107 -189q-30 0 -63 16t-50 16q-12 0 -19 -7.5t-7 -19.5h-117q0 188 106 188q29 0 63 -15.5t51 -15.5q11 0 18.5 7.5t7.5 19.5zM330 153v24q-18 25 -61 25q-21 0 -36 -9.5t-15 -27.5t15 -27.5t36 -9.5q43 0 61 25zM545 0h-215v26
q-14 -14 -49.5 -24.5t-75.5 -10.5q-82 0 -136.5 44t-54.5 125q0 76 57.5 122t144.5 46q32 0 65 -8.5t49 -19.5v29q0 19 -11 32t-34 13q-35 0 -45 -28h-208q11 85 81.5 141.5t180.5 56.5q120 0 185.5 -60t65.5 -170v-314z" />
    <glyph glyph-name="adieresis" unicode="&#xe4;" horiz-adv-x="572" 
d="M515 660q0 -42 -30.5 -72t-72.5 -30t-72 30t-30 72t30 72.5t72 30.5t72.5 -30.5t30.5 -72.5zM293 660q0 -42 -30.5 -72t-72.5 -30q-43 0 -72.5 30t-29.5 72t30 72.5t72 30.5t72.5 -30.5t30.5 -72.5zM330 153v24q-18 25 -61 25q-21 0 -36 -9.5t-15 -27.5t15 -27.5t36 -9.5
q43 0 61 25zM545 0h-215v26q-14 -14 -49.5 -24.5t-75.5 -10.5q-82 0 -136.5 44t-54.5 125q0 76 57.5 122t144.5 46q32 0 65 -8.5t49 -19.5v29q0 19 -11 32t-34 13q-35 0 -45 -28h-208q11 85 81.5 141.5t180.5 56.5q120 0 185.5 -60t65.5 -170v-314z" />
    <glyph glyph-name="aring" unicode="&#xe5;" horiz-adv-x="572" 
d="M301 830q58 0 97.5 -39t39.5 -95t-39.5 -94t-97.5 -38t-97.5 38t-39.5 94t39.5 95t97.5 39zM301 735q-17 0 -27.5 -11.5t-10.5 -27.5q0 -15 10.5 -26t27.5 -11t27.5 11t10.5 26q0 16 -10.5 27.5t-27.5 11.5zM330 153v24q-18 25 -61 25q-21 0 -36 -9.5t-15 -27.5t15 -27.5
t36 -9.5q43 0 61 25zM545 0h-215v26q-14 -14 -49.5 -24.5t-75.5 -10.5q-82 0 -136.5 44t-54.5 125q0 76 57.5 122t144.5 46q32 0 65 -8.5t49 -19.5v29q0 19 -11 32t-34 13q-35 0 -45 -28h-208q11 85 81.5 141.5t180.5 56.5q120 0 185.5 -60t65.5 -170v-314z" />
    <glyph glyph-name="ae" unicode="&#xe6;" horiz-adv-x="856" 
d="M633 188h209q-17 -94 -89 -147t-179 -53q-93 0 -175 59q-81 -59 -192 -59q-80 0 -137 44.5t-57 119.5q0 80 65.5 123.5t166.5 43.5h78v13q0 20 -12.5 33.5t-37.5 13.5q-41 0 -50 -33h-193q11 86 76.5 141.5t170.5 55.5q81 0 151 -47q70 47 151 47q121 0 193 -74.5
t72 -194.5v-58h-333q6 -33 22 -46t46 -13q41 0 54 31zM516 319h115q-4 25 -18.5 40t-36.5 15q-45 0 -60 -55zM323 216h-56q-22 0 -37 -11.5t-15 -30.5q0 -18 15.5 -27.5t36.5 -9.5q38 0 56 26v53z" />
    <glyph glyph-name="ccedilla" unicode="&#xe7;" horiz-adv-x="564" 
d="M338 215h213q-11 -102 -79.5 -164.5t-180.5 -62.5q-125 0 -201.5 77t-76.5 201q0 123 76.5 200t201.5 77q112 0 180.5 -62.5t79.5 -164.5h-213q-2 19 -14 31.5t-34 12.5q-27 0 -42.5 -25t-15.5 -69q0 -45 15.5 -70t42.5 -25q22 0 34 12.5t14 31.5zM300 -205h-183l78 168
h183z" />
    <glyph glyph-name="egrave" unicode="&#xe8;" horiz-adv-x="570" 
d="M401 577h-206l-99 184h206zM350 197h207q-15 -99 -85 -154t-179 -55q-127 0 -203.5 76.5t-76.5 201.5q0 124 77.5 200.5t198.5 76.5q126 0 197 -73.5t71 -195.5v-49h-332q12 -68 68 -68q46 0 57 40zM344 319q-4 25 -18.5 40t-36.5 15q-44 0 -60 -55h115z" />
    <glyph glyph-name="eacute" unicode="&#xe9;" horiz-adv-x="570" 
d="M393 577h-206l100 184h206zM350 197h207q-15 -99 -85 -154t-179 -55q-127 0 -203.5 76.5t-76.5 201.5q0 124 77.5 200.5t198.5 76.5q126 0 197 -73.5t71 -195.5v-49h-332q12 -68 68 -68q46 0 57 40zM344 319q-4 25 -18.5 40t-36.5 15q-44 0 -60 -55h115z" />
    <glyph glyph-name="ecircumflex" unicode="&#xea;" horiz-adv-x="570" 
d="M374 761l114 -184h-158l-35 48l-35 -48h-158l113 184h159zM350 197h207q-15 -99 -85 -154t-179 -55q-127 0 -203.5 76.5t-76.5 201.5q0 124 77.5 200.5t198.5 76.5q126 0 197 -73.5t71 -195.5v-49h-332q12 -68 68 -68q46 0 57 40zM344 319q-4 25 -18.5 40t-36.5 15
q-44 0 -60 -55h115z" />
    <glyph glyph-name="edieresis" unicode="&#xeb;" horiz-adv-x="570" 
d="M509 660q0 -42 -30.5 -72t-72.5 -30t-72 30t-30 72t30 72.5t72 30.5t72.5 -30.5t30.5 -72.5zM287 660q0 -42 -30.5 -72t-72.5 -30t-72 30t-30 72t30 72.5t72 30.5t72.5 -30.5t30.5 -72.5zM350 197h207q-15 -99 -85 -154t-179 -55q-127 0 -203.5 76.5t-76.5 201.5
q0 124 77.5 200.5t198.5 76.5q126 0 197 -73.5t71 -195.5v-49h-332q12 -68 68 -68q46 0 57 40zM344 319q-4 25 -18.5 40t-36.5 15q-44 0 -60 -55h115z" />
    <glyph glyph-name="igrave" unicode="&#xec;" horiz-adv-x="295" 
d="M254 577h-206l-99 184h205zM259 531v-531h-223v531h223z" />
    <glyph glyph-name="iacute" unicode="&#xed;" horiz-adv-x="295" 
d="M246 577h-206l99 184h206zM259 531v-531h-223v531h223z" />
    <glyph glyph-name="icircumflex" unicode="&#xee;" horiz-adv-x="295" 
d="M227 761l95 -184h-151l-24 59l-23 -59h-151l95 184h159zM259 531v-531h-223v531h223z" />
    <glyph glyph-name="idieresis" unicode="&#xef;" horiz-adv-x="295" 
d="M362 660q0 -42 -30.5 -72t-72.5 -30q-43 0 -72.5 30t-29.5 72t30 72.5t72 30.5t72.5 -30.5t30.5 -72.5zM139 660q0 -42 -30.5 -72t-72.5 -30t-72 30t-30 72t30 72.5t72 30.5t72.5 -30.5t30.5 -72.5zM259 531v-531h-223v531h223z" />
    <glyph glyph-name="eth" unicode="&#xf0;" horiz-adv-x="590" 
d="M295 -12q-125 0 -203.5 77t-78.5 201q0 122 76.5 195.5t195.5 73.5q17 0 26 -4h3q-14 19 -48 53l-115 -35l-32 82l70 21q-52 44 -134 104v5h268q35 -28 59 -51l85 26l30 -82l-48 -15q128 -152 128 -346q0 -142 -77 -223.5t-205 -81.5zM295 358q-30 0 -46.5 -25t-16.5 -69
q0 -43 16.5 -68.5t46.5 -25.5t47 25.5t17 68.5q0 44 -17 69t-47 25z" />
    <glyph glyph-name="ntilde" unicode="&#xf1;" horiz-adv-x="624" 
d="M386 761h117q0 -189 -106 -189q-29 0 -63 16t-51 16q-11 0 -18.5 -8t-7.5 -19h-117q0 188 107 188q30 0 63 -15.5t50 -15.5q26 0 26 27zM36 0v531h223v-43q48 55 141 55q87 0 138 -52t51 -141v-350h-223v290q0 25 -13 41t-38 16q-45 0 -56 -43v-304h-223z" />
    <glyph glyph-name="ograve" unicode="&#xf2;" horiz-adv-x="590" 
d="M401 577h-206l-99 184h206zM295 543q126 0 204 -76.5t78 -200.5t-78 -201t-204 -77q-125 0 -203.5 77t-78.5 201t78.5 200.5t203.5 76.5zM359 266q0 44 -17 70t-47 26t-46.5 -26.5t-16.5 -69.5q0 -44 16.5 -70t46.5 -26t47 26t17 70z" />
    <glyph glyph-name="oacute" unicode="&#xf3;" horiz-adv-x="590" 
d="M393 577h-206l100 184h206zM577 266q0 -124 -78 -201t-204 -77q-125 0 -203.5 77t-78.5 201t78.5 200.5t203.5 76.5q126 0 204 -76.5t78 -200.5zM295 362q-30 0 -46.5 -26.5t-16.5 -69.5q0 -44 16.5 -70t46.5 -26t47 26t17 70t-17 70t-47 26z" />
    <glyph glyph-name="ocircumflex" unicode="&#xf4;" horiz-adv-x="590" 
d="M374 761l114 -184h-158l-35 48l-35 -48h-158l113 184h159zM295 543q126 0 204 -76.5t78 -200.5t-78 -201t-204 -77q-125 0 -203.5 77t-78.5 201t78.5 200.5t203.5 76.5zM295 362q-30 0 -46.5 -26.5t-16.5 -69.5q0 -44 16.5 -70t46.5 -26t47 26t17 70t-17 70t-47 26z" />
    <glyph glyph-name="otilde" unicode="&#xf5;" horiz-adv-x="590" 
d="M359 761h117q0 -189 -106 -189q-30 0 -63 16t-51 16q-11 0 -18.5 -8t-7.5 -19h-117q0 188 107 188q30 0 63 -15.5t50 -15.5q26 0 26 27zM295 543q126 0 204 -76.5t78 -200.5t-78 -201t-204 -77q-125 0 -203.5 77t-78.5 201t78.5 200.5t203.5 76.5zM295 362
q-30 0 -46.5 -26.5t-16.5 -69.5q0 -44 16.5 -70t46.5 -26t47 26t17 70t-17 70t-47 26z" />
    <glyph glyph-name="odieresis" unicode="&#xf6;" horiz-adv-x="590" 
d="M406 558q-42 0 -72 30t-30 72t30 72.5t72 30.5t72.5 -30.5t30.5 -72.5t-30.5 -72t-72.5 -30zM184 558q-42 0 -72 30t-30 72t30 72.5t72 30.5t72.5 -30.5t30.5 -72.5t-30.5 -72t-72.5 -30zM295 543q126 0 204 -76.5t78 -200.5t-78 -201t-204 -77q-125 0 -203.5 77
t-78.5 201t78.5 200.5t203.5 76.5zM295 362q-30 0 -46.5 -26.5t-16.5 -69.5q0 -44 16.5 -70t46.5 -26t47 26t17 70t-17 70t-47 26z" />
    <glyph glyph-name="divide" unicode="&#xf7;" horiz-adv-x="645" 
d="M429 569q0 -43 -31 -73t-75 -30t-75.5 30t-31.5 73t31.5 73t75.5 30t75 -30t31 -73zM44 270v161h556v-161h-556zM429 131q0 -43 -31 -73t-75 -30t-75.5 30t-31.5 73t31.5 73t75.5 30t75 -30t31 -73z" />
    <glyph glyph-name="oslash" unicode="&#xf8;" horiz-adv-x="601" 
d="M301 -12q-101 0 -172 51l-49 -51l-50 44l50 52q-61 74 -61 182q0 124 78 200.5t204 76.5q100 0 172 -50l49 50l49 -43l-49 -52q61 -74 61 -182q0 -124 -78 -201t-204 -77zM233 266q0 -15 1 -22l104 108q-15 15 -37 15q-30 0 -49 -29t-19 -72zM301 164q30 0 49.5 29
t19.5 73q0 9 -2 23l-104 -110q17 -15 37 -15z" />
    <glyph glyph-name="ugrave" unicode="&#xf9;" horiz-adv-x="621" 
d="M417 577h-206l-100 184h206zM585 531v-531h-221v43q-50 -55 -142 -55q-86 0 -136.5 52.5t-50.5 140.5v350h222v-293q0 -25 13 -41.5t38 -16.5q18 0 34 12t21 31v308h222z" />
    <glyph glyph-name="uacute" unicode="&#xfa;" horiz-adv-x="621" 
d="M408 577h-206l100 184h206zM585 531v-531h-221v43q-50 -55 -142 -55q-86 0 -136.5 52.5t-50.5 140.5v350h222v-293q0 -25 13 -41.5t38 -16.5q18 0 34 12t21 31v308h222z" />
    <glyph glyph-name="ucircumflex" unicode="&#xfb;" horiz-adv-x="621" 
d="M390 761l113 -184h-158l-35 48l-35 -48h-158l113 184h160zM585 531v-531h-221v43q-50 -55 -142 -55q-86 0 -136.5 52.5t-50.5 140.5v350h222v-293q0 -25 13 -41.5t38 -16.5q18 0 34 12t21 31v308h222z" />
    <glyph glyph-name="udieresis" unicode="&#xfc;" horiz-adv-x="621" 
d="M421 558q-42 0 -72 30t-30 72t30 72.5t72 30.5t72.5 -30.5t30.5 -72.5t-30.5 -72t-72.5 -30zM199 558q-42 0 -72 30t-30 72t30 72.5t72 30.5t72.5 -30.5t30.5 -72.5t-30.5 -72t-72.5 -30zM585 531v-531h-221v43q-50 -55 -142 -55q-86 0 -136.5 52.5t-50.5 140.5v350h222
v-293q0 -25 13 -41.5t38 -16.5q18 0 34 12t21 31v308h222z" />
    <glyph glyph-name="yacute" unicode="&#xfd;" horiz-adv-x="606" 
d="M411 577h-206l99 184h206zM336 -179h-220l79 207l-195 503h229l81 -251l77 251h219z" />
    <glyph glyph-name="thorn" unicode="&#xfe;" horiz-adv-x="631" 
d="M259 318v-105q7 -17 24 -27t38 -10q34 0 54 25t20 65q0 39 -20 64.5t-54 25.5q-46 0 -62 -38zM259 41v-220h-223v940h223v-271q19 22 55 37.5t73 15.5q109 0 170 -78.5t61 -198.5q0 -121 -61 -199.5t-170 -78.5q-37 0 -73 15.5t-55 37.5z" />
    <glyph glyph-name="ydieresis" unicode="&#xff;" horiz-adv-x="606" 
d="M527 660q0 -42 -30.5 -72t-72.5 -30q-43 0 -72.5 30t-29.5 72t30 72.5t72 30.5t72.5 -30.5t30.5 -72.5zM304 660q0 -42 -30.5 -72t-72.5 -30t-72 30t-30 72t30 72.5t72 30.5t72.5 -30.5t30.5 -72.5zM336 -179h-220l79 207l-195 503h229l81 -251l77 251h219z" />
    <glyph glyph-name="Amacron" unicode="&#x100;" horiz-adv-x="779" 
d="M221 776v146h338v-146h-338zM386 453l-60 -165h120zM550 0l-38 104h-252l-38 -104h-222l271 718h237l271 -718h-229z" />
    <glyph glyph-name="amacron" unicode="&#x101;" horiz-adv-x="572" 
d="M144 577v146h315v-146h-315zM330 153v24q-18 25 -61 25q-21 0 -36 -9.5t-15 -27.5t15 -27.5t36 -9.5q43 0 61 25zM545 0h-215v26q-14 -14 -49.5 -24.5t-75.5 -10.5q-82 0 -136.5 44t-54.5 125q0 76 57.5 122t144.5 46q32 0 65 -8.5t49 -19.5v29q0 19 -11 32t-34 13
q-35 0 -45 -28h-208q11 85 81.5 141.5t180.5 56.5q120 0 185.5 -60t65.5 -170v-314z" />
    <glyph glyph-name="Abreve" unicode="&#x102;" horiz-adv-x="779" 
d="M570 950q0 -90 -50 -138t-130 -48q-81 0 -131 48t-50 138h151q0 -43 30 -43t30 43h150zM386 453l-60 -165h120zM550 0l-38 104h-252l-38 -104h-222l271 718h237l271 -718h-229z" />
    <glyph glyph-name="abreve" unicode="&#x103;" horiz-adv-x="572" 
d="M481 752q0 -90 -50 -138t-130 -48t-130 48t-50 138h150q0 -43 30 -43t30 43h150zM330 153v24q-18 25 -61 25q-21 0 -36 -9.5t-15 -27.5t15 -27.5t36 -9.5q43 0 61 25zM545 0h-215v26q-14 -14 -49.5 -24.5t-75.5 -10.5q-82 0 -136.5 44t-54.5 125q0 76 57.5 122t144.5 46
q32 0 65 -8.5t49 -19.5v29q0 19 -11 32t-34 13q-35 0 -45 -28h-208q11 85 81.5 141.5t180.5 56.5q120 0 185.5 -60t65.5 -170v-314z" />
    <glyph glyph-name="Aogonek" unicode="&#x104;" horiz-adv-x="779" 
d="M271 718h237l271 -718l-15 -15t-13 -12.5t-10.5 -9.5t-8 -8t-6 -7t-5 -6t-2.5 -5t-1.5 -5t-0.5 -5q0 -18 22 -18q15 0 40 15v-117q-37 -20 -81 -20q-51 0 -85 24.5t-34 72.5q0 52 66 116h-95l-38 104h-252l-38 -104h-222zM386 453l-60 -165h120z" />
    <glyph glyph-name="aogonek" unicode="&#x105;" horiz-adv-x="572" 
d="M411 0h-81v26q-14 -14 -49.5 -24.5t-75.5 -10.5q-82 0 -136.5 44t-54.5 125q0 76 57.5 122t144.5 46q32 0 65 -8.5t49 -19.5v29q0 19 -11 32t-34 13q-35 0 -45 -28h-208q11 85 81.5 141.5t180.5 56.5q120 0 185.5 -60t65.5 -170v-314l-15 -15t-13 -12.5t-10.5 -9.5t-8 -8
t-6 -7t-5 -6t-2.5 -5t-1.5 -5t-0.5 -5q0 -18 22 -18q15 0 40 15v-117q-37 -20 -81 -20q-51 0 -85 24.5t-34 72.5q0 52 66 116zM330 153v24q-18 25 -61 25q-21 0 -36 -9.5t-15 -27.5t15 -27.5t36 -9.5q43 0 61 25z" />
    <glyph glyph-name="Cacute" unicode="&#x106;" horiz-adv-x="709" 
d="M489 776h-218l100 160h218zM693 469h-227q-21 63 -94 63q-60 0 -93.5 -48t-33.5 -125q0 -76 33.5 -124.5t93.5 -48.5q73 0 94 64h227q-20 -117 -102.5 -189.5t-218.5 -72.5q-156 0 -256 104.5t-100 266.5t100 266.5t256 104.5q136 0 218.5 -72.5t102.5 -188.5z" />
    <glyph glyph-name="cacute" unicode="&#x107;" horiz-adv-x="564" 
d="M390 577h-206l99 184h206zM338 215h213q-11 -102 -79.5 -164.5t-180.5 -62.5q-125 0 -201.5 77t-76.5 201q0 123 76.5 200t201.5 77q112 0 180.5 -62.5t79.5 -164.5h-213q-2 19 -14 31.5t-34 12.5q-27 0 -42.5 -25t-15.5 -69q0 -45 15.5 -70t42.5 -25q22 0 34 12.5
t14 31.5z" />
    <glyph glyph-name="Ccircumflex" unicode="&#x108;" horiz-adv-x="709" 
d="M459 936l137 -160h-175l-42 43l-42 -43h-174l137 160h159zM693 469h-227q-21 63 -94 63q-60 0 -93.5 -48t-33.5 -125q0 -76 33.5 -124.5t93.5 -48.5q73 0 94 64h227q-20 -117 -102.5 -189.5t-218.5 -72.5q-156 0 -256 104.5t-100 266.5t100 266.5t256 104.5
q136 0 218.5 -72.5t102.5 -188.5z" />
    <glyph glyph-name="ccircumflex" unicode="&#x109;" horiz-adv-x="564" 
d="M371 761l113 -184h-158l-35 48l-35 -48h-158l114 184h159zM338 215h213q-11 -102 -79.5 -164.5t-180.5 -62.5q-125 0 -201.5 77t-76.5 201q0 123 76.5 200t201.5 77q112 0 180.5 -62.5t79.5 -164.5h-213q-2 19 -14 31.5t-34 12.5q-27 0 -42.5 -25t-15.5 -69
q0 -45 15.5 -70t42.5 -25q22 0 34 12.5t14 31.5z" />
    <glyph glyph-name="Cdotaccent" unicode="&#x10a;" horiz-adv-x="709" 
d="M256 879q0 52 35.5 83t87.5 31t87.5 -31t35.5 -83q0 -53 -35.5 -84t-87.5 -31t-87.5 31t-35.5 84zM693 469h-227q-21 63 -94 63q-60 0 -93.5 -48t-33.5 -125q0 -76 33.5 -124.5t93.5 -48.5q73 0 94 64h227q-20 -117 -102.5 -189.5t-218.5 -72.5q-156 0 -256 104.5
t-100 266.5t100 266.5t256 104.5q136 0 218.5 -72.5t102.5 -188.5z" />
    <glyph glyph-name="cdotaccent" unicode="&#x10b;" horiz-adv-x="564" 
d="M291 793q52 0 87.5 -31t35.5 -83q0 -53 -35.5 -84t-87.5 -31t-87.5 31t-35.5 84q0 52 35.5 83t87.5 31zM338 215h213q-11 -102 -79.5 -164.5t-180.5 -62.5q-125 0 -201.5 77t-76.5 201q0 123 76.5 200t201.5 77q112 0 180.5 -62.5t79.5 -164.5h-213q-2 19 -14 31.5
t-34 12.5q-27 0 -42.5 -25t-15.5 -69q0 -45 15.5 -70t42.5 -25q22 0 34 12.5t14 31.5z" />
    <glyph glyph-name="Ccaron" unicode="&#x10c;" horiz-adv-x="709" 
d="M164 931h174l42 -43l42 43h175l-137 -160h-159zM693 469h-227q-21 63 -94 63q-60 0 -93.5 -48t-33.5 -125q0 -76 33.5 -124.5t93.5 -48.5q73 0 94 64h227q-20 -117 -102.5 -189.5t-218.5 -72.5q-156 0 -256 104.5t-100 266.5t100 266.5t256 104.5q136 0 218.5 -72.5
t102.5 -188.5z" />
    <glyph glyph-name="ccaron" unicode="&#x10d;" horiz-adv-x="564" 
d="M484 761l-113 -184h-159l-114 184h158l35 -48l35 48h158zM338 215h213q-11 -102 -79.5 -164.5t-180.5 -62.5q-125 0 -201.5 77t-76.5 201q0 123 76.5 200t201.5 77q112 0 180.5 -62.5t79.5 -164.5h-213q-2 19 -14 31.5t-34 12.5q-27 0 -42.5 -25t-15.5 -69
q0 -45 15.5 -70t42.5 -25q22 0 34 12.5t14 31.5z" />
    <glyph glyph-name="Dcaron" unicode="&#x10e;" horiz-adv-x="714" 
d="M95 931h174l42 -43l42 43h175l-137 -160h-159zM39 0v718h289q173 0 271 -97t98 -262t-98 -262t-271 -97h-289zM261 194h55q75 0 116.5 44.5t41.5 120.5q0 77 -41.5 121.5t-116.5 44.5h-55v-331z" />
    <glyph glyph-name="dcaron" unicode="&#x10f;" horiz-adv-x="631" 
d="M787 565h-170l56 196h173zM372 213v105q-7 17 -24 27.5t-38 10.5q-34 0 -54.5 -25.5t-20.5 -64.5q0 -40 20 -65t55 -25q47 0 62 37zM372 0v41q-20 -22 -55.5 -37.5t-73.5 -15.5q-109 0 -169.5 78.5t-60.5 199.5q0 120 60.5 198.5t169.5 78.5q38 0 73.5 -15.5t55.5 -37.5
v271h222v-761h-222z" />
    <glyph glyph-name="Dcroat" unicode="&#x110;" horiz-adv-x="734" 
d="M347 0h-288v278h-47v170h47v270h288q173 0 271.5 -96.5t98.5 -262.5t-98.5 -262.5t-271.5 -96.5zM281 194h55q74 0 116 44.5t42 120.5q0 77 -42 121.5t-116 44.5h-55v-77h82v-170h-82v-84z" />
    <glyph glyph-name="dcroat" unicode="&#x111;" horiz-adv-x="631" 
d="M372 213v105q-7 17 -24 27.5t-38 10.5q-34 0 -54.5 -25.5t-20.5 -64.5q0 -40 20 -65t55 -25q47 0 62 37zM372 41q-20 -22 -55.5 -37.5t-73.5 -15.5q-109 0 -169.5 78.5t-60.5 199.5q0 120 60.5 198.5t169.5 78.5q38 0 73.5 -15.5t55.5 -37.5v75h-83v142h83v54h222v-54h47
v-142h-47v-565h-222v41z" />
    <glyph glyph-name="Emacron" unicode="&#x112;" horiz-adv-x="611" 
d="M147 776v146h339v-146h-339zM39 718h540v-193h-317v-68h290v-187h-290v-76h317v-194h-540v718z" />
    <glyph glyph-name="emacron" unicode="&#x113;" horiz-adv-x="570" 
d="M138 577v146h315v-146h-315zM350 197h207q-15 -99 -85 -154t-179 -55q-127 0 -203.5 76.5t-76.5 201.5q0 124 77.5 200.5t198.5 76.5q126 0 197 -73.5t71 -195.5v-49h-332q12 -68 68 -68q46 0 57 40zM344 319q-4 25 -18.5 40t-36.5 15q-44 0 -60 -55h115z" />
    <glyph glyph-name="Ebreve" unicode="&#x114;" horiz-adv-x="611" 
d="M496 950q0 -90 -50 -138t-130 -48t-130 48t-50 138h151q0 -43 29 -43q30 0 30 43h150zM39 718h540v-193h-317v-68h290v-187h-290v-76h317v-194h-540v718z" />
    <glyph glyph-name="ebreve" unicode="&#x115;" horiz-adv-x="570" 
d="M475 752q0 -90 -50 -138t-130 -48t-130 48t-50 138h151q0 -43 29 -43q30 0 30 43h150zM350 197h207q-15 -99 -85 -154t-179 -55q-127 0 -203.5 76.5t-76.5 201.5q0 124 77.5 200.5t198.5 76.5q126 0 197 -73.5t71 -195.5v-49h-332q12 -68 68 -68q46 0 57 40zM344 319
q-4 25 -18.5 40t-36.5 15q-44 0 -60 -55h115z" />
    <glyph glyph-name="Edotaccent" unicode="&#x116;" horiz-adv-x="611" 
d="M316 993q52 0 87.5 -31t35.5 -83q0 -53 -35.5 -84t-87.5 -31t-87.5 31t-35.5 84q0 52 35.5 83t87.5 31zM39 718h540v-193h-317v-68h290v-187h-290v-76h317v-194h-540v718z" />
    <glyph glyph-name="edotaccent" unicode="&#x117;" horiz-adv-x="570" 
d="M295 793q52 0 87.5 -31t35.5 -83q0 -53 -35.5 -84t-87.5 -31t-87.5 31t-35.5 84q0 52 35.5 83t87.5 31zM350 197h207q-15 -99 -85 -154t-179 -55q-127 0 -203.5 76.5t-76.5 201.5q0 124 77.5 200.5t198.5 76.5q126 0 197 -73.5t71 -195.5v-49h-332q12 -68 68 -68
q46 0 57 40zM344 319q-4 25 -18.5 40t-36.5 15q-44 0 -60 -55h115z" />
    <glyph glyph-name="Eogonek" unicode="&#x118;" horiz-adv-x="611" 
d="M539 -193q-37 -20 -80 -20q-51 0 -85.5 24.5t-34.5 72.5q0 52 66 116h-366v718h540v-193h-317v-68h290v-187h-290v-76h317v-194h-43q-6 -7 -14 -14.5t-12.5 -12t-9.5 -10t-8 -8.5t-6 -6.5t-4.5 -6t-2.5 -5.5t-1.5 -5t-0.5 -5q0 -18 23 -18q14 0 39 15v-117z" />
    <glyph glyph-name="eogonek" unicode="&#x119;" horiz-adv-x="570" 
d="M449 -76v-117q-37 -20 -80 -20q-51 0 -85.5 24.5t-34.5 72.5q0 50 54 104h-10q-127 0 -203.5 76.5t-76.5 201.5q0 124 77.5 200.5t198.5 76.5q126 0 197 -73.5t71 -195.5v-49h-332q12 -68 68 -68q46 0 57 40h207q-9 -89 -82 -155q-49 -43 -68.5 -68t-19.5 -47
q0 -18 23 -18q14 0 39 15zM229 319h115q-4 25 -18.5 40t-36.5 15q-44 0 -60 -55z" />
    <glyph glyph-name="Ecaron" unicode="&#x11a;" horiz-adv-x="611" 
d="M99 931h175l42 -43l42 43h174l-137 -160h-159zM39 718h540v-193h-317v-68h290v-187h-290v-76h317v-194h-540v718z" />
    <glyph glyph-name="ecaron" unicode="&#x11b;" horiz-adv-x="570" 
d="M488 761l-114 -184h-159l-113 184h158l35 -48l35 48h158zM350 197h207q-15 -99 -85 -154t-179 -55q-127 0 -203.5 76.5t-76.5 201.5q0 124 77.5 200.5t198.5 76.5q126 0 197 -73.5t71 -195.5v-49h-332q12 -68 68 -68q46 0 57 40zM229 319h115q-4 25 -18.5 40t-36.5 15
q-44 0 -60 -55z" />
    <glyph glyph-name="Gcircumflex" unicode="&#x11c;" horiz-adv-x="731" 
d="M466 936l137 -160h-175l-42 43l-42 -43h-174l137 160h159zM487 230h-85v161h313v-80q0 -148 -90.5 -235.5t-241.5 -87.5q-163 0 -265 104t-102 267q0 164 102 267.5t265 103.5q141 0 226 -72.5t105 -189.5h-233q-22 64 -98 64q-67 0 -102.5 -47.5t-35.5 -125.5
q0 -80 37 -126.5t101 -46.5q75 0 104 44z" />
    <glyph glyph-name="gcircumflex" unicode="&#x11d;" horiz-adv-x="615" 
d="M413 761l114 -184h-158l-36 48l-35 -48h-158l114 184h159zM360 238v100q-17 34 -59 34q-33 0 -52 -23t-19 -61t19 -61t52 -23q42 0 59 34zM360 36v47q-41 -50 -119 -50q-107 0 -167.5 70.5t-60.5 184.5t60.5 184.5t167.5 70.5q77 0 119 -50v38h220v-436
q0 -139 -78.5 -212.5t-211.5 -73.5q-111 0 -186 51.5t-91 145.5h213q13 -40 64 -40q70 0 70 70z" />
    <glyph glyph-name="Gbreve" unicode="&#x11e;" horiz-adv-x="731" 
d="M206 950h151q0 -43 29 -43q31 0 31 43h149q0 -90 -50 -138t-130 -48t-130 48t-50 138zM487 230h-85v161h313v-80q0 -148 -90.5 -235.5t-241.5 -87.5q-163 0 -265 104t-102 267q0 164 102 267.5t265 103.5q141 0 226 -72.5t105 -189.5h-233q-22 64 -98 64
q-67 0 -102.5 -47.5t-35.5 -125.5q0 -80 37 -126.5t101 -46.5q75 0 104 44z" />
    <glyph glyph-name="gbreve" unicode="&#x11f;" horiz-adv-x="615" 
d="M514 752q0 -90 -50 -138t-131 -48q-80 0 -130 48t-50 138h151q0 -43 29 -43q31 0 31 43h150zM360 238v100q-17 34 -59 34q-33 0 -52 -23t-19 -61t19 -61t52 -23q42 0 59 34zM360 36v47q-41 -50 -119 -50q-107 0 -167.5 70.5t-60.5 184.5t60.5 184.5t167.5 70.5
q77 0 119 -50v38h220v-436q0 -139 -78.5 -212.5t-211.5 -73.5q-111 0 -186 51.5t-91 145.5h213q13 -40 64 -40q70 0 70 70z" />
    <glyph glyph-name="Gdotaccent" unicode="&#x120;" horiz-adv-x="731" 
d="M263 879q0 52 35.5 83t87.5 31t87.5 -31t35.5 -83q0 -53 -35.5 -84t-87.5 -31t-87.5 31t-35.5 84zM487 230h-85v161h313v-80q0 -148 -90.5 -235.5t-241.5 -87.5q-163 0 -265 104t-102 267q0 164 102 267.5t265 103.5q141 0 226 -72.5t105 -189.5h-233q-22 64 -98 64
q-67 0 -102.5 -47.5t-35.5 -125.5q0 -80 37 -126.5t101 -46.5q75 0 104 44z" />
    <glyph glyph-name="gdotaccent" unicode="&#x121;" horiz-adv-x="615" 
d="M211 679q0 52 35 83t87 31t87.5 -31t35.5 -83q0 -53 -35.5 -84t-87.5 -31t-87 31t-35 84zM360 238v100q-17 34 -59 34q-33 0 -52 -23t-19 -61t19 -61t52 -23q42 0 59 34zM360 36v47q-41 -50 -119 -50q-107 0 -167.5 70.5t-60.5 184.5t60.5 184.5t167.5 70.5q77 0 119 -50
v38h220v-436q0 -139 -78.5 -212.5t-211.5 -73.5q-111 0 -186 51.5t-91 145.5h213q13 -40 64 -40q70 0 70 70z" />
    <glyph glyph-name="uni0122" unicode="&#x122;" horiz-adv-x="731" 
d="M487 230h-85v161h313v-80q0 -148 -90.5 -235.5t-241.5 -87.5q-163 0 -265 104t-102 267q0 164 102 267.5t265 103.5q141 0 226 -72.5t105 -189.5h-233q-22 64 -98 64q-67 0 -102.5 -47.5t-35.5 -125.5q0 -80 37 -126.5t101 -46.5q75 0 104 44zM268 -289l63 77
q-55 25 -55 87q0 41 30.5 68t77.5 27q44 0 75.5 -28t31.5 -75q0 -52 -52 -114l-35 -42h-136z" />
    <glyph glyph-name="uni0123" unicode="&#x123;" horiz-adv-x="615" 
d="M448 814l-68 -82q24 -10 39.5 -32.5t15.5 -53.5q0 -41 -30.5 -68t-76.5 -27q-45 0 -76.5 28t-31.5 75q0 51 53 114l39 46h136zM360 238v100q-17 34 -59 34q-33 0 -52 -23t-19 -61t19 -61t52 -23q42 0 59 34zM360 36v47q-41 -50 -119 -50q-107 0 -167.5 70.5t-60.5 184.5
t60.5 184.5t167.5 70.5q77 0 119 -50v38h220v-436q0 -139 -78.5 -212.5t-211.5 -73.5q-111 0 -186 51.5t-91 145.5h213q13 -40 64 -40q70 0 70 70z" />
    <glyph glyph-name="Hcircumflex" unicode="&#x124;" horiz-adv-x="759" 
d="M459 936l137 -160h-175l-42 43l-42 -43h-174l137 160h159zM494 718h227v-718h-227v267h-228v-267h-227v718h227v-258h228v258z" />
    <glyph glyph-name="hcircumflex" unicode="&#x125;" horiz-adv-x="624" 
d="M385 948l137 -161h-175l-42 44l-42 -44h-174l137 161h159zM36 0v761h223v-273q48 55 141 55q87 0 138 -52t51 -141v-350h-223v290q0 25 -13 41t-38 16q-45 0 -56 -43v-304h-223z" />
    <glyph glyph-name="Hbar" unicode="&#x126;" horiz-adv-x="799" 
d="M285 380h229v93h-229v-93zM285 211v-211h-226v473h-47v169h47v76h226v-76h229v76h227v-76h46v-169h-46v-473h-227v211h-229z" />
    <glyph glyph-name="hbar" unicode="&#x127;" horiz-adv-x="624" 
d="M259 304v-304h-223v565h-47v142h47v54h223v-54h83v-142h-83v-77q48 55 141 55q87 0 138 -52t51 -141v-350h-223v290q0 25 -13 41t-38 16q-45 0 -56 -43z" />
    <glyph glyph-name="Itilde" unicode="&#x128;" horiz-adv-x="304" 
d="M228 955h117q0 -189 -106 -189q-30 0 -75 16t-62 16q-11 0 -18.5 -8t-7.5 -19h-117q0 188 107 188q30 0 74.5 -15.5t61.5 -15.5q12 0 19 7.5t7 19.5zM266 718v-718h-227v718h227z" />
    <glyph glyph-name="itilde" unicode="&#x129;" horiz-adv-x="295" 
d="M195 761h109q0 -189 -92 -189q-26 0 -51 16t-39 16q-10 0 -16.5 -7.5t-6.5 -19.5h-108q0 188 92 188q26 0 50.5 -15.5t39.5 -15.5q22 0 22 27zM259 531v-531h-223v531h223z" />
    <glyph glyph-name="Imacron" unicode="&#x12a;" horiz-adv-x="304" 
d="M-16 776v146h338v-146h-338zM266 718v-718h-227v718h227z" />
    <glyph glyph-name="imacron" unicode="&#x12b;" horiz-adv-x="295" 
d="M9 577v146h276v-146h-276zM259 531v-531h-223v531h223z" />
    <glyph glyph-name="Ibreve" unicode="&#x12c;" horiz-adv-x="304" 
d="M332 950q0 -90 -50 -138t-130 -48t-130 48t-50 138h151q0 -43 29 -43q31 0 31 43h149zM266 718v-718h-227v718h227z" />
    <glyph glyph-name="ibreve" unicode="&#x12d;" horiz-adv-x="295" 
d="M308 752q0 -90 -44.5 -138t-117.5 -48q-71 0 -115 48t-44 138h134q0 -43 26 -43q27 0 27 43h134zM259 531v-531h-223v531h223z" />
    <glyph glyph-name="Iogonek" unicode="&#x12e;" horiz-adv-x="304" 
d="M266 718v-718q-54 -52 -59 -60q-3 -6 -3 -13q0 -18 22 -18q14 0 40 15v-117q-38 -20 -81 -20q-51 0 -85 24.5t-34 72.5q0 51 65 116h-92v718h227z" />
    <glyph glyph-name="iogonek" unicode="&#x12f;" horiz-adv-x="295" 
d="M25 666q0 52 35 83t87 31t87.5 -31t35.5 -83q0 -53 -35.5 -84t-87.5 -31t-87 31t-35 84zM259 531v-531q-54 -52 -59 -60q-3 -6 -3 -13q0 -18 22 -18q14 0 40 15v-117q-38 -20 -81 -20q-51 0 -85 24.5t-34 72.5q0 51 65 116h-88v531h223z" />
    <glyph glyph-name="Idotaccent" unicode="&#x130;" horiz-adv-x="304" 
d="M29 879q0 52 35.5 83t87.5 31t87.5 -31t35.5 -83q0 -53 -35.5 -84t-87.5 -31t-87.5 31t-35.5 84zM266 718v-718h-227v718h227z" />
    <glyph glyph-name="dotlessi" unicode="&#x131;" horiz-adv-x="295" 
d="M259 531v-531h-223v531h223z" />
    <glyph glyph-name="IJ" unicode="&#x132;" horiz-adv-x="940" 
d="M266 718v-718h-227v718h227zM287 281h228q2 -91 82 -91q44 0 63.5 26t19.5 79v423h227v-425q0 -154 -85.5 -229.5t-224.5 -75.5q-141 0 -224 80t-86 213z" />
    <glyph glyph-name="ij" unicode="&#x133;" horiz-adv-x="590" 
d="M319 666q0 52 35.5 83t87.5 31t87.5 -31t35.5 -83q0 -53 -35.5 -84t-87.5 -31t-87.5 31t-35.5 84zM25 666q0 52 35 83t87 31t87.5 -31t35.5 -83q0 -53 -35.5 -84t-87.5 -31t-87 31t-35 84zM259 531v-531h-223v531h223zM553 531v-484q0 -113 -56 -175.5t-162 -62.5
q-46 0 -79 10v162q14 -2 22 -2q27 0 40 11t13 40v501h222z" />
    <glyph glyph-name="Jcircumflex" unicode="&#x134;" horiz-adv-x="670" 
d="M604 936l137 -160h-175l-42 43l-42 -43h-174l137 160h159zM18 281h228q2 -91 82 -91q83 0 83 105v423h227v-425q0 -154 -85.5 -229.5t-224.5 -75.5q-141 0 -224 80t-86 213z" />
    <glyph glyph-name="jcircumflex" unicode="&#x135;" horiz-adv-x="295" 
d="M227 761l95 -184h-151l-24 59l-23 -59h-151l95 184h159zM259 531v-484q0 -114 -56.5 -176t-162.5 -62q-46 0 -79 10v162q14 -2 23 -2q27 0 39.5 11t12.5 40v501h223z" />
    <glyph glyph-name="uni0136" unicode="&#x136;" horiz-adv-x="729" 
d="M266 718v-266l193 266h259l-229 -308l240 -410h-262l-149 257l-52 -71v-186h-227v718h227zM245 -289l63 77q-55 24 -55 87q0 41 30.5 68t76.5 27q45 0 76.5 -28t31.5 -75q0 -52 -53 -114l-35 -42h-135z" />
    <glyph glyph-name="uni0137" unicode="&#x137;" horiz-adv-x="641" 
d="M388 0l-103 180l-26 -36v-144h-223v761h223v-374l114 144h262l-187 -216l192 -315h-252zM190 -289l63 77q-55 24 -55 87q0 41 30.5 68t76.5 27q45 0 76.5 -28t31.5 -75q0 -52 -53 -114l-35 -42h-135z" />
    <glyph glyph-name="kgreenlandic" unicode="&#x138;" horiz-adv-x="641" 
d="M388 0l-103 180l-26 -36v-144h-223v531h223v-144l114 144h262l-187 -216l192 -315h-252z" />
    <glyph glyph-name="Lacute" unicode="&#x139;" horiz-adv-x="600" 
d="M270 776h-217l99 160h218zM39 0v718h227v-524h308v-194h-535z" />
    <glyph glyph-name="lacute" unicode="&#x13a;" horiz-adv-x="295" 
d="M254 790h-218l100 160h217zM259 761v-761h-223v761h223z" />
    <glyph glyph-name="uni013B" unicode="&#x13b;" horiz-adv-x="600" 
d="M39 0v718h227v-524h308v-194h-535zM188 -289l64 77q-55 24 -55 87q0 41 30.5 68t76.5 27q44 0 76 -28t32 -75q0 -52 -53 -114l-35 -42h-136z" />
    <glyph glyph-name="uni013C" unicode="&#x13c;" horiz-adv-x="295" 
d="M259 761v-761h-223v761h223zM29 -289l63 77q-55 25 -55 87q0 41 30.5 68t77.5 27q44 0 76 -28t32 -75q0 -50 -53 -114l-35 -42h-136z" />
    <glyph glyph-name="Lcaron" unicode="&#x13d;" horiz-adv-x="600" 
d="M39 0v718h227v-524h308v-194h-535zM484 523h-170l56 195h173z" />
    <glyph glyph-name="lcaron" unicode="&#x13e;" horiz-adv-x="295" 
d="M259 761v-761h-223v761h223zM452 565h-171l56 196h173z" />
    <glyph glyph-name="Ldot" unicode="&#x13f;" horiz-adv-x="600" 
d="M39 0v718h227v-524h308v-194h-535zM319 433q0 52 35.5 83.5t87.5 31.5t87.5 -31.5t35.5 -83.5q0 -53 -35.5 -84t-87.5 -31t-87.5 31t-35.5 84z" />
    <glyph glyph-name="ldot" unicode="&#x140;" horiz-adv-x="541" 
d="M259 761v-761h-223v761h223zM295 393q0 53 35.5 84t87.5 31t87.5 -31t35.5 -84q0 -52 -35.5 -83.5t-87.5 -31.5t-87.5 31.5t-35.5 83.5z" />
    <glyph glyph-name="Lslash" unicode="&#x141;" 
d="M583 0h-536v236l-47 -18v166l47 18v316h227v-233l121 47v-166l-121 -47v-125h309v-194z" />
    <glyph glyph-name="lslash" unicode="&#x142;" horiz-adv-x="363" 
d="M293 0h-223v238l-58 -34v154l58 34v369h223v-254l58 34v-155l-58 -34v-352z" />
    <glyph glyph-name="Nacute" unicode="&#x143;" horiz-adv-x="744" 
d="M479 776h-218l99 160h218zM706 718v-718h-187l-262 359v-359h-218v718h211l237 -334v334h219z" />
    <glyph glyph-name="nacute" unicode="&#x144;" horiz-adv-x="624" 
d="M420 577h-206l100 184h205zM36 0v531h223v-43q48 55 141 55q87 0 138 -52t51 -141v-350h-223v290q0 25 -13 41t-38 16q-45 0 -56 -43v-304h-223z" />
    <glyph glyph-name="uni0145" unicode="&#x145;" horiz-adv-x="744" 
d="M706 718v-718h-187l-262 359v-359h-218v718h211l237 -334v334h219zM254 -289l63 77q-55 25 -55 87q0 41 30.5 68t77.5 27q44 0 75.5 -28t31.5 -75q0 -52 -52 -114l-35 -42h-136z" />
    <glyph glyph-name="uni0146" unicode="&#x146;" horiz-adv-x="624" 
d="M36 0v531h223v-43q48 55 141 55q87 0 138 -52t51 -141v-350h-223v290q0 25 -13 41t-38 16q-45 0 -56 -43v-304h-223zM197 -289l63 77q-55 24 -55 87q0 41 30.5 68t76.5 27q45 0 76.5 -28t31.5 -75q0 -52 -53 -114l-35 -42h-135z" />
    <glyph glyph-name="Ncaron" unicode="&#x147;" horiz-adv-x="744" 
d="M156 931h174l42 -43l42 43h175l-137 -160h-159zM706 718v-718h-187l-262 359v-359h-218v718h211l237 -334v334h219z" />
    <glyph glyph-name="ncaron" unicode="&#x148;" horiz-adv-x="624" 
d="M515 761l-114 -184h-159l-113 184h158l35 -48l35 48h158zM36 0v531h223v-43q48 55 141 55q87 0 138 -52t51 -141v-350h-223v290q0 25 -13 41t-38 16q-45 0 -56 -43v-304h-223z" />
    <glyph glyph-name="Eng" unicode="&#x14a;" horiz-adv-x="744" 
d="M335 -177v189q30 -10 60 -10q36 0 54.5 14.5t24.5 44.5l-217 298v-359h-218v718h211l237 -334v334h219v-642q0 -135 -72.5 -201t-198.5 -66q-47 0 -100 14z" />
    <glyph glyph-name="eng" unicode="&#x14b;" horiz-adv-x="624" 
d="M366 30v260q0 25 -13 41t-38 16q-45 0 -56 -43v-304h-223v531h223v-43q48 55 141 55q87 0 138 -52t51 -141v-303q0 -113 -56.5 -175.5t-162.5 -62.5q-46 0 -79 10v162q14 -2 23 -2q27 0 39.5 11t12.5 40z" />
    <glyph glyph-name="Omacron" unicode="&#x14c;" horiz-adv-x="757" 
d="M209 776v146h339v-146h-339zM378 730q160 0 261.5 -104.5t101.5 -266.5t-101.5 -266.5t-261.5 -104.5t-261 104.5t-101 266.5t101 266.5t261 104.5zM378 532q-61 0 -97 -46.5t-36 -126.5t36.5 -126.5t96.5 -46.5t97 47t37 126q0 80 -37 126.5t-97 46.5z" />
    <glyph glyph-name="omacron" unicode="&#x14d;" horiz-adv-x="590" 
d="M138 577v146h315v-146h-315zM295 543q126 0 204 -76.5t78 -200.5t-78 -201t-204 -77q-125 0 -203.5 77t-78.5 201t78.5 200.5t203.5 76.5zM295 362q-30 0 -46.5 -26.5t-16.5 -69.5q0 -44 16.5 -70t46.5 -26t47 26t17 70t-17 70t-47 26z" />
    <glyph glyph-name="Obreve" unicode="&#x14e;" horiz-adv-x="757" 
d="M558 950q0 -90 -50 -138t-130 -48t-130 48t-50 138h151q0 -43 29 -43q30 0 30 43h150zM378 730q160 0 261.5 -104.5t101.5 -266.5t-101.5 -266.5t-261.5 -104.5t-261 104.5t-101 266.5t101 266.5t261 104.5zM378 532q-61 0 -97 -46.5t-36 -126.5t36.5 -126.5t96.5 -46.5
t97 47t37 126q0 80 -37 126.5t-97 46.5z" />
    <glyph glyph-name="obreve" unicode="&#x14f;" horiz-adv-x="590" 
d="M475 752q0 -90 -50 -138t-130 -48t-130 48t-50 138h151q0 -43 29 -43q30 0 30 43h150zM295 -12q-125 0 -203.5 77t-78.5 201t78.5 200.5t203.5 76.5q126 0 204 -76.5t78 -200.5t-78 -201t-204 -77zM295 362q-30 0 -46.5 -26.5t-16.5 -69.5q0 -44 16.5 -70t46.5 -26t47 26
t17 70t-17 70t-47 26z" />
    <glyph glyph-name="Ohungarumlaut" unicode="&#x150;" horiz-adv-x="757" 
d="M576 776h-183l100 160h182zM358 776h-182l99 160h182zM378 730q160 0 261.5 -104.5t101.5 -266.5t-101.5 -266.5t-261.5 -104.5t-261 104.5t-101 266.5t101 266.5t261 104.5zM378 532q-61 0 -97 -46.5t-36 -126.5t36.5 -126.5t96.5 -46.5t97 47t37 126q0 80 -37 126.5
t-97 46.5z" />
    <glyph glyph-name="ohungarumlaut" unicode="&#x151;" horiz-adv-x="590" 
d="M481 577h-171l100 184h170zM275 577h-171l100 184h170zM295 543q126 0 204 -76.5t78 -200.5t-78 -201t-204 -77q-125 0 -203.5 77t-78.5 201t78.5 200.5t203.5 76.5zM295 362q-30 0 -46.5 -26.5t-16.5 -69.5q0 -44 16.5 -70t46.5 -26t47 26t17 70t-17 70t-47 26z" />
    <glyph glyph-name="OE" unicode="&#x152;" horiz-adv-x="1007" 
d="M976 718v-193h-294v-68h267v-187h-267v-76h294v-194h-590q-173 0 -271.5 96.5t-98.5 262.5t98.5 262.5t271.5 96.5h590zM398 194h61v331h-61q-75 0 -116.5 -44.5t-41.5 -121.5q0 -76 41.5 -120.5t116.5 -44.5z" />
    <glyph glyph-name="oe" unicode="&#x153;" horiz-adv-x="900" 
d="M887 197q-15 -99 -85 -154t-180 -55q-93 0 -163 54q-74 -54 -164 -54q-125 0 -203.5 77t-78.5 201t78.5 200.5t203.5 76.5q92 0 166 -53q67 53 158 53q126 0 197 -73.5t71 -195.5v-49h-332q12 -68 67 -68q47 0 58 40h207zM559 319h115q-4 25 -18.5 40t-36.5 15
q-44 0 -60 -55zM295 362q-30 0 -46.5 -26.5t-16.5 -69.5q0 -44 16.5 -70t46.5 -26t47 26t17 70t-17 70t-47 26z" />
    <glyph glyph-name="Racute" unicode="&#x154;" horiz-adv-x="684" 
d="M442 776h-217l99 160h218zM262 530v-146h96q81 0 81 72q0 74 -81 74h-96zM39 0v718h349q121 0 196 -70t75 -192q0 -151 -123 -216l148 -240h-249l-121 206h-52v-206h-223z" />
    <glyph glyph-name="racute" unicode="&#x155;" horiz-adv-x="445" 
d="M336 577h-206l99 184h206zM426 534v-211q-35 16 -81 16q-36 0 -58 -13t-28 -33v-293h-223v531h223v-43q47 55 121 55q28 0 46 -9z" />
    <glyph glyph-name="uni0156" unicode="&#x156;" horiz-adv-x="684" 
d="M262 530v-146h96q81 0 81 72q0 74 -81 74h-96zM39 0v718h349q121 0 196 -70t75 -192q0 -151 -123 -216l148 -240h-249l-121 206h-52v-206h-223zM218 -289l63 77q-55 25 -55 87q0 41 30.5 68t76.5 27q45 0 76.5 -28t31.5 -75q0 -52 -53 -114l-35 -42h-135z" />
    <glyph glyph-name="uni0157" unicode="&#x157;" horiz-adv-x="445" 
d="M426 534v-211q-35 16 -81 16q-36 0 -58 -13t-28 -33v-293h-223v531h223v-43q47 55 121 55q28 0 46 -9zM27 -289l63 77q-55 25 -55 87q0 41 30.5 68t77.5 27q44 0 75.5 -28t31.5 -75q0 -52 -52 -114l-35 -42h-136z" />
    <glyph glyph-name="Rcaron" unicode="&#x158;" horiz-adv-x="684" 
d="M256 771l-137 160h175l42 -43l42 43h174l-137 -160h-159zM262 530v-146h96q81 0 81 72q0 74 -81 74h-96zM39 0v718h349q121 0 196 -70t75 -192q0 -151 -123 -216l148 -240h-249l-121 206h-52v-206h-223z" />
    <glyph glyph-name="rcaron" unicode="&#x159;" horiz-adv-x="445" 
d="M431 761l-114 -184h-159l-114 184h158l36 -48l35 48h158zM426 534v-211q-35 16 -81 16q-36 0 -58 -13t-28 -33v-293h-223v531h223v-43q47 55 121 55q28 0 46 -9z" />
    <glyph glyph-name="Sacute" unicode="&#x15a;" horiz-adv-x="653" 
d="M434 776h-218l100 160h218zM9 221h237q15 -54 89 -54q32 0 52 12t20 35q0 17 -11.5 25t-35.5 13l-147 30q-190 38 -190 204q0 111 83.5 177.5t211.5 66.5q136 0 215.5 -65.5t93.5 -167.5h-221q-20 55 -87 55q-66 0 -66 -41q0 -27 40 -36l149 -35q193 -45 193 -212
q0 -112 -84 -176t-211 -64q-137 0 -224.5 61.5t-106.5 171.5z" />
    <glyph glyph-name="sacute" unicode="&#x15b;" horiz-adv-x="537" 
d="M365 577h-206l100 184h205zM9 170h213q8 -33 46 -33q33 0 33 21q0 7 -5 11t-9 5l-16 4l-99 19q-76 14 -115 52t-39 107q0 89 68.5 138t170.5 49q115 0 180.5 -49t76.5 -134h-202q-4 34 -45 34q-31 0 -31 -20q0 -14 26 -19l102 -24q155 -36 155 -164q0 -85 -70 -132
t-176 -47q-110 0 -181 46.5t-83 135.5z" />
    <glyph glyph-name="Scircumflex" unicode="&#x15c;" horiz-adv-x="653" 
d="M411 936l137 -160h-175l-42 43l-42 -43h-174l137 160h159zM9 221h237q15 -54 89 -54q32 0 52 12t20 35q0 17 -11.5 25t-35.5 13l-147 30q-190 38 -190 204q0 111 83.5 177.5t211.5 66.5q136 0 215.5 -65.5t93.5 -167.5h-221q-20 55 -87 55q-66 0 -66 -41q0 -27 40 -36
l149 -35q193 -45 193 -212q0 -112 -84 -176t-211 -64q-137 0 -224.5 61.5t-106.5 171.5z" />
    <glyph glyph-name="scircumflex" unicode="&#x15d;" horiz-adv-x="537" 
d="M346 761l114 -184h-158l-35 48l-35 -48h-158l113 184h159zM9 170h213q8 -33 46 -33q33 0 33 21q0 7 -5 11t-9 5l-16 4l-99 19q-76 14 -115 52t-39 107q0 89 68.5 138t170.5 49q115 0 180.5 -49t76.5 -134h-202q-4 34 -45 34q-31 0 -31 -20q0 -14 26 -19l102 -24
q155 -36 155 -164q0 -85 -70 -132t-176 -47q-110 0 -181 46.5t-83 135.5z" />
    <glyph glyph-name="uni015E" unicode="&#x15e;" horiz-adv-x="653" 
d="M9 221h237q15 -54 89 -54q32 0 52 12t20 35q0 17 -11.5 25t-35.5 13l-147 30q-190 38 -190 204q0 111 83.5 177.5t211.5 66.5q136 0 215.5 -65.5t93.5 -167.5h-221q-20 55 -87 55q-66 0 -66 -41q0 -27 40 -36l149 -35q193 -45 193 -212q0 -112 -84 -176t-211 -64
q-137 0 -224.5 61.5t-106.5 171.5zM343 -205h-183l79 168h182z" />
    <glyph glyph-name="uni015F" unicode="&#x15f;" horiz-adv-x="537" 
d="M9 170h213q8 -33 46 -33q33 0 33 21q0 7 -5 11t-9 5l-16 4l-99 19q-76 14 -115 52t-39 107q0 89 68.5 138t170.5 49q115 0 180.5 -49t76.5 -134h-202q-4 34 -45 34q-31 0 -31 -20q0 -14 26 -19l102 -24q155 -36 155 -164q0 -85 -70 -132t-176 -47q-110 0 -181 46.5
t-83 135.5zM275 -205h-183l79 168h182z" />
    <glyph glyph-name="Scaron" unicode="&#x160;" horiz-adv-x="653" 
d="M248 771l-137 160h174l43 -43l42 43h174l-137 -160h-159zM9 221h237q15 -54 89 -54q32 0 52 12t20 35q0 17 -11.5 25t-35.5 13l-147 30q-190 38 -190 204q0 111 83.5 177.5t211.5 66.5q136 0 215.5 -65.5t93.5 -167.5h-221q-20 55 -87 55q-66 0 -66 -41q0 -27 40 -36
l149 -35q193 -45 193 -212q0 -112 -84 -176t-211 -64q-137 0 -224.5 61.5t-106.5 171.5z" />
    <glyph glyph-name="scaron" unicode="&#x161;" horiz-adv-x="537" 
d="M460 761l-114 -184h-159l-113 184h158l35 -48l35 48h158zM9 170h213q8 -33 46 -33q33 0 33 21q0 7 -5 11t-9 5l-16 4l-99 19q-76 14 -115 52t-39 107q0 89 68.5 138t170.5 49q115 0 180.5 -49t76.5 -134h-202q-4 34 -45 34q-31 0 -31 -20q0 -14 26 -19l102 -24
q155 -36 155 -164q0 -85 -70 -132t-176 -47q-110 0 -181 46.5t-83 135.5z" />
    <glyph glyph-name="Tcommaaccent" unicode="&#x162;" horiz-adv-x="683" 
d="M16 525v193h651v-193h-212v-525h-227v525h-212zM223 -289l64 77q-55 24 -55 87q0 41 30.5 68t76.5 27q44 0 76 -28t32 -75q0 -52 -53 -114l-35 -42h-136z" />
    <glyph glyph-name="tcommaaccent" unicode="&#x163;" horiz-adv-x="434" 
d="M78 205v155h-71v171h71v149h222v-149h106v-171h-106v-113q0 -59 52 -59q26 0 54 7v-190q-34 -14 -109 -14q-110 0 -164.5 51.5t-54.5 162.5zM130 -289l63 77q-55 25 -55 87q0 41 30.5 68t77.5 27q44 0 75.5 -28t31.5 -75q0 -52 -52 -114l-35 -42h-136z" />
    <glyph glyph-name="Tcaron" unicode="&#x164;" horiz-adv-x="683" 
d="M262 771l-137 160h175l42 -43l42 43h174l-137 -160h-159zM16 525v193h651v-193h-212v-525h-227v525h-212z" />
    <glyph glyph-name="tcaron" unicode="&#x165;" horiz-adv-x="434" 
d="M496 565h-171l56 196h174zM78 205v155h-71v171h71v149h222v-149h106v-171h-106v-113q0 -59 52 -59q26 0 54 7v-190q-34 -14 -109 -14q-110 0 -164.5 51.5t-54.5 162.5z" />
    <glyph glyph-name="Tbar" unicode="&#x166;" horiz-adv-x="683" 
d="M549 245h-94v-245h-227v245h-93v181h93v99h-212v193h651v-193h-212v-99h94v-181z" />
    <glyph glyph-name="tbar" unicode="&#x167;" horiz-adv-x="434" 
d="M406 5q-34 -14 -109 -14q-110 0 -164.5 51.5t-54.5 162.5v27h-49v124h49v39h-71v136h71v149h222v-149h106v-136h-106v-39h62v-124h-61q6 -44 51 -44q26 0 54 7v-190z" />
    <glyph glyph-name="Utilde" unicode="&#x168;" horiz-adv-x="721" 
d="M436 955h117q0 -189 -106 -189q-29 0 -74 16t-63 16q-11 0 -18.5 -8t-7.5 -19h-117q0 188 107 188q30 0 75 -15.5t62 -15.5q11 0 18 8t7 19zM688 718v-421q0 -147 -87.5 -228t-240.5 -81q-152 0 -239.5 81t-87.5 228v421h226v-401q0 -60 27.5 -93t73.5 -33q47 0 74.5 33
t27.5 93v401h226z" />
    <glyph glyph-name="utilde" unicode="&#x169;" horiz-adv-x="621" 
d="M374 761h117q0 -189 -106 -189q-29 0 -63 16t-51 16q-11 0 -18 -8t-7 -19h-117q0 188 106 188q29 0 63 -15.5t51 -15.5q11 0 18 7.5t7 19.5zM585 531v-531h-221v43q-50 -55 -142 -55q-86 0 -136.5 52.5t-50.5 140.5v350h222v-293q0 -25 13 -41.5t38 -16.5q18 0 34 12
t21 31v308h222z" />
    <glyph glyph-name="Umacron" unicode="&#x16a;" horiz-adv-x="721" 
d="M192 776v146h338v-146h-338zM688 718v-421q0 -147 -87.5 -228t-240.5 -81q-152 0 -239.5 81t-87.5 228v421h226v-401q0 -60 27.5 -93t73.5 -33q47 0 74.5 33t27.5 93v401h226z" />
    <glyph glyph-name="umacron" unicode="&#x16b;" horiz-adv-x="621" 
d="M153 577v146h315v-146h-315zM585 531v-531h-221v43q-50 -55 -142 -55q-86 0 -136.5 52.5t-50.5 140.5v350h222v-293q0 -25 13 -41.5t38 -16.5q18 0 34 12t21 31v308h222z" />
    <glyph glyph-name="Ubreve" unicode="&#x16c;" horiz-adv-x="721" 
d="M541 950q0 -90 -50 -138t-131 -48q-80 0 -130 48t-50 138h151q0 -43 29 -43q31 0 31 43h150zM688 718v-421q0 -147 -87.5 -228t-240.5 -81q-152 0 -239.5 81t-87.5 228v421h226v-401q0 -60 27.5 -93t73.5 -33q47 0 74.5 33t27.5 93v401h226z" />
    <glyph glyph-name="ubreve" unicode="&#x16d;" horiz-adv-x="621" 
d="M340 752h150q0 -90 -50 -138t-130 -48t-130 48t-50 138h151q0 -43 29 -43q30 0 30 43zM585 531v-531h-221v43q-50 -55 -142 -55q-86 0 -136.5 52.5t-50.5 140.5v350h222v-293q0 -25 13 -41.5t38 -16.5q18 0 34 12t21 31v308h222z" />
    <glyph glyph-name="Uring" unicode="&#x16e;" horiz-adv-x="721" 
d="M223 879q0 55 40 94t97 39q58 0 97.5 -39t39.5 -94q0 -56 -39.5 -94.5t-97.5 -38.5t-97.5 38.5t-39.5 94.5zM360 917q-16 0 -26.5 -11t-10.5 -27q0 -15 10.5 -26.5t26.5 -11.5q17 0 28 11t11 27t-10.5 27t-28.5 11zM688 718v-421q0 -147 -87.5 -228t-240.5 -81
q-152 0 -239.5 81t-87.5 228v421h226v-401q0 -60 27.5 -93t73.5 -33q47 0 74.5 33t27.5 93v401h226z" />
    <glyph glyph-name="uring" unicode="&#x16f;" horiz-adv-x="621" 
d="M310 830q58 0 97.5 -39t39.5 -95t-39.5 -94t-97.5 -38t-97.5 38t-39.5 94t39.5 95t97.5 39zM310 735q-16 0 -26.5 -11.5t-10.5 -27.5q0 -15 10.5 -26t26.5 -11q17 0 28 11t11 26q0 16 -11 27.5t-28 11.5zM585 531v-531h-221v43q-50 -55 -142 -55q-86 0 -136.5 52.5
t-50.5 140.5v350h222v-293q0 -25 13 -41.5t38 -16.5q18 0 34 12t21 31v308h222z" />
    <glyph glyph-name="Uhungarumlaut" unicode="&#x170;" horiz-adv-x="721" 
d="M558 776h-182l99 160h183zM340 776h-182l99 160h183zM688 718v-421q0 -147 -87.5 -228t-240.5 -81q-152 0 -239.5 81t-87.5 228v421h226v-401q0 -60 27.5 -93t73.5 -33q47 0 74.5 33t27.5 93v401h226z" />
    <glyph glyph-name="uhungarumlaut" unicode="&#x171;" horiz-adv-x="621" 
d="M496 577h-171l100 184h171zM290 577h-171l100 184h171zM585 531v-531h-221v43q-50 -55 -142 -55q-86 0 -136.5 52.5t-50.5 140.5v350h222v-293q0 -25 13 -41.5t38 -16.5q18 0 34 12t21 31v308h222z" />
    <glyph glyph-name="Uogonek" unicode="&#x172;" horiz-adv-x="721" 
d="M688 718v-421q0 -176 -138 -264q-51 -33 -76.5 -62t-25.5 -44q0 -18 22 -18q14 0 40 15v-117q-37 -20 -81 -20q-51 0 -85 24.5t-34 72.5q0 50 54 104h-4q-152 0 -239.5 81t-87.5 228v421h226v-401q0 -60 27.5 -93t73.5 -33q47 0 74.5 33t27.5 93v401h226z" />
    <glyph glyph-name="uogonek" unicode="&#x173;" horiz-adv-x="621" 
d="M585 531v-531l-15 -15t-13 -12.5t-10.5 -9.5t-8 -8t-6 -7t-5 -6t-2.5 -5t-1.5 -5t-0.5 -5q0 -18 22 -18q14 0 40 15v-117q-37 -20 -81 -20q-51 0 -85 24.5t-34 72.5q0 51 65 116h-86v43q-50 -55 -142 -55q-86 0 -136.5 52.5t-50.5 140.5v350h222v-293q0 -25 13 -41.5
t38 -16.5q18 0 34 12t21 31v308h222z" />
    <glyph glyph-name="Wcircumflex" unicode="&#x174;" horiz-adv-x="990" 
d="M574 936l137 -160h-174l-42 43l-42 -43h-175l137 160h159zM413 718h168l95 -360l83 360h231l-192 -718h-206l-97 367l-98 -367h-206l-191 718h234l84 -360z" />
    <glyph glyph-name="wcircumflex" unicode="&#x175;" horiz-adv-x="848" 
d="M503 761l114 -184h-158l-35 48l-36 -48h-158l114 184h159zM490 531l72 -237l73 237h213l-181 -531h-178l-65 212l-65 -212h-178l-181 531h221l74 -237l71 237h124z" />
    <glyph glyph-name="Ycircumflex" unicode="&#x176;" horiz-adv-x="739" 
d="M449 936l137 -160h-174l-42 43l-42 -43h-175l137 160h159zM374 462l129 256h236l-257 -482v-236h-228v236l-254 482h246z" />
    <glyph glyph-name="ycircumflex" unicode="&#x177;" horiz-adv-x="606" 
d="M392 761l113 -184h-158l-35 48l-35 -48h-158l114 184h159zM336 -179h-220l79 207l-195 503h229l81 -251l77 251h219z" />
    <glyph glyph-name="Ydieresis" unicode="&#x178;" horiz-adv-x="739" 
d="M591 862q0 -43 -31.5 -74t-75.5 -31t-74.5 30.5t-30.5 74.5t31 75.5t74 31.5q44 0 75.5 -31.5t31.5 -75.5zM360 862q0 -43 -31 -74t-75 -31t-74.5 30.5t-30.5 74.5t30.5 75.5t74.5 31.5t75 -31.5t31 -75.5zM374 462l129 256h236l-257 -482v-236h-228v236l-254 482h246z
" />
    <glyph glyph-name="Zacute" unicode="&#x179;" horiz-adv-x="665" 
d="M448 776h-218l100 160h218zM633 194v-194h-601v171l307 354h-304v193h594v-169l-300 -355h304z" />
    <glyph glyph-name="zacute" unicode="&#x17a;" horiz-adv-x="538" 
d="M381 577h-205l99 184h206zM510 171v-171h-482v147l212 213h-208v171h476v-147l-198 -213h200z" />
    <glyph glyph-name="Zdotaccent" unicode="&#x17b;" horiz-adv-x="665" 
d="M342 993q52 0 87 -31t35 -83q0 -53 -35 -84t-87 -31t-87.5 31t-35.5 84q0 52 35.5 83t87.5 31zM633 194v-194h-601v171l307 354h-304v193h594v-169l-300 -355h304z" />
    <glyph glyph-name="zdotaccent" unicode="&#x17c;" horiz-adv-x="538" 
d="M160 679q0 52 35.5 83t87.5 31t87.5 -31t35.5 -83q0 -53 -35.5 -84t-87.5 -31t-87.5 31t-35.5 84zM510 171v-171h-482v147l212 213h-208v171h476v-147l-198 -213h200z" />
    <glyph glyph-name="Zcaron" unicode="&#x17d;" horiz-adv-x="665" 
d="M125 931h175l42 -43l42 43h174l-137 -160h-159zM633 194v-194h-601v171l307 354h-304v193h594v-169l-300 -355h304z" />
    <glyph glyph-name="zcaron" unicode="&#x17e;" horiz-adv-x="538" 
d="M476 761l-113 -184h-159l-114 184h158l35 -48l35 48h158zM510 171v-171h-482v147l212 213h-208v171h476v-147l-198 -213h200z" />
    <glyph glyph-name="uni0192" unicode="&#x192;" horiz-adv-x="489" 
d="M68 -179q-57 0 -97 14v151q14 -7 36 -7q45 0 54 53l39 220h-60v168h89l15 85q39 225 230 225q50 0 92 -14v-177q-15 7 -37 7q-49 0 -58 -52l-13 -74h83v-168h-112l-36 -206q-19 -111 -70 -168t-155 -57z" />
    <glyph glyph-name="Aringacute" unicode="&#x1fa;" horiz-adv-x="779" 
d="M497 970h-217l80 130h218zM386 737q-57 0 -95 31t-38 76t38 76t95 31t95 -31t38 -76t-38 -76t-95 -31zM347 844q0 -13 11 -22.5t28 -9.5t28 9.5t11 22.5t-11 22.5t-28 9.5t-28 -9.5t-11 -22.5zM386 453l-60 -165h120zM550 0l-38 104h-252l-38 -104h-222l271 718h237
l271 -718h-229z" />
    <glyph glyph-name="aringacute" unicode="&#x1fb;" horiz-adv-x="572" 
d="M405 794h-218l81 130h218zM160 668q0 45 38.5 76.5t95.5 31.5t95 -31.5t38 -76.5q0 -44 -38.5 -75t-94.5 -31q-57 0 -95.5 31t-38.5 75zM255 668q0 -13 11 -22.5t28 -9.5t27.5 9.5t10.5 22.5q0 14 -10.5 23.5t-27.5 9.5q-18 0 -28.5 -9.5t-10.5 -23.5zM330 153v24
q-18 25 -61 25q-21 0 -36 -9.5t-15 -27.5t15 -27.5t36 -9.5q43 0 61 25zM545 0h-215v26q-14 -14 -49.5 -24.5t-75.5 -10.5q-82 0 -136.5 44t-54.5 125q0 76 57.5 122t144.5 46q32 0 65 -8.5t49 -19.5v29q0 19 -11 32t-34 13q-35 0 -45 -28h-208q11 85 81.5 141.5t180.5 56.5
q120 0 185.5 -60t65.5 -170v-314z" />
    <glyph glyph-name="AEacute" unicode="&#x1fc;" horiz-adv-x="1073" 
d="M819 776h-218l100 160h217zM524 532l-130 -244h130v244zM524 0v104h-228l-56 -104h-240l395 718h646v-193h-293v-68h266v-187h-266v-76h293v-194h-517z" />
    <glyph glyph-name="aeacute" unicode="&#x1fd;" horiz-adv-x="856" 
d="M532 577h-206l100 184h206zM633 188h209q-17 -94 -89 -147t-179 -53q-93 0 -175 59q-81 -59 -192 -59q-80 0 -137 44.5t-57 119.5q0 80 65.5 123.5t166.5 43.5h78v13q0 20 -12.5 33.5t-37.5 13.5q-41 0 -50 -33h-193q11 86 76.5 141.5t170.5 55.5q81 0 151 -47
q70 47 151 47q121 0 193 -74.5t72 -194.5v-58h-333q6 -33 22 -46t46 -13q41 0 54 31zM516 319h115q-4 25 -18.5 40t-36.5 15q-45 0 -60 -55zM323 216h-56q-22 0 -37 -11.5t-15 -30.5q0 -18 15.5 -27.5t36.5 -9.5q38 0 56 26v53z" />
    <glyph glyph-name="Oslashacute" unicode="&#x1fe;" horiz-adv-x="766" 
d="M489 776h-218l100 160h218zM383 -12q-133 0 -227 74l-72 -74l-63 60l74 76q-74 99 -74 235q0 162 100.5 266.5t261.5 104.5q133 0 227 -74l72 74l63 -60l-74 -76q74 -99 74 -235q0 -162 -101 -266.5t-261 -104.5zM249 359q0 -35 8 -67l206 212q-34 28 -80 28
q-61 0 -97.5 -46.5t-36.5 -126.5zM383 186q60 0 97 47t37 126q0 35 -8 67l-206 -212q34 -28 80 -28z" />
    <glyph glyph-name="oslashacute" unicode="&#x1ff;" horiz-adv-x="601" 
d="M399 577h-206l100 184h205zM301 -12q-101 0 -172 51l-49 -51l-50 44l50 52q-61 74 -61 182q0 124 78 200.5t204 76.5q100 0 172 -50l49 50l49 -43l-49 -52q61 -74 61 -182q0 -124 -78 -201t-204 -77zM233 266q0 -15 1 -22l104 108q-15 15 -37 15q-30 0 -49 -29t-19 -72z
M301 164q30 0 49.5 29t19.5 73q0 9 -2 23l-104 -110q17 -15 37 -15z" />
    <glyph glyph-name="uni0218" unicode="&#x218;" horiz-adv-x="653" 
d="M9 221h237q15 -54 89 -54q32 0 52 12t20 35q0 17 -11.5 25t-35.5 13l-147 30q-190 38 -190 204q0 111 83.5 177.5t211.5 66.5q136 0 215.5 -65.5t93.5 -167.5h-221q-20 55 -87 55q-66 0 -66 -41q0 -27 40 -36l149 -35q193 -45 193 -212q0 -112 -84 -176t-211 -64
q-137 0 -224.5 61.5t-106.5 171.5zM209 -289l64 77q-55 24 -55 87q0 41 30.5 68t76.5 27q44 0 76 -28t32 -75q0 -52 -53 -114l-35 -42h-136z" />
    <glyph glyph-name="uni0219" unicode="&#x219;" horiz-adv-x="537" 
d="M9 170h213q8 -33 46 -33q33 0 33 21q0 7 -5 11t-9 5l-16 4l-99 19q-76 14 -115 52t-39 107q0 89 68.5 138t170.5 49q115 0 180.5 -49t76.5 -134h-202q-4 34 -45 34q-31 0 -31 -20q0 -14 26 -19l102 -24q155 -36 155 -164q0 -85 -70 -132t-176 -47q-110 0 -181 46.5
t-83 135.5zM149 -289l63 77q-55 25 -55 87q0 41 30.5 68t76.5 27q45 0 76.5 -28t31.5 -75q0 -52 -53 -114l-35 -42h-135z" />
    <glyph glyph-name="uni0237" unicode="&#x237;" horiz-adv-x="295" 
d="M259 531v-484q0 -114 -56.5 -176t-162.5 -62q-46 0 -79 10v162q14 -2 23 -2q27 0 39.5 11t12.5 40v501h223z" />
    <glyph glyph-name="circumflex" unicode="&#x2c6;" horiz-adv-x="585" 
d="M372 761l114 -184h-158l-35 48l-36 -48h-158l114 184h159z" />
    <glyph glyph-name="caron" unicode="&#x2c7;" horiz-adv-x="585" 
d="M486 761l-114 -184h-159l-114 184h158l36 -48l35 48h158z" />
    <glyph glyph-name="breve" unicode="&#x2d8;" horiz-adv-x="585" 
d="M323 752h150q0 -90 -50 -138t-130 -48q-81 0 -131 48t-50 138h151q0 -43 30 -43t30 43z" />
    <glyph glyph-name="dotaccent" unicode="&#x2d9;" horiz-adv-x="585" 
d="M170 679q0 52 35.5 83t87.5 31t87 -31t35 -83q0 -53 -35 -84t-87 -31t-87.5 31t-35.5 84z" />
    <glyph glyph-name="ring" unicode="&#x2da;" horiz-adv-x="585" 
d="M156 696q0 56 39.5 95t97.5 39q57 0 96.5 -39t39.5 -95t-39 -94t-97 -38t-97.5 38t-39.5 94zM255 696q0 -15 10.5 -26t27.5 -11t27.5 11t10.5 26q0 16 -10.5 27.5t-27.5 11.5t-27.5 -11.5t-10.5 -27.5z" />
    <glyph glyph-name="ogonek" unicode="&#x2db;" horiz-adv-x="585" 
d="M264 12h130q-10 -11 -21.5 -22.5l-17.5 -17.5t-12 -13l-9 -10.5t-5.5 -7.5t-3.5 -7t-1 -7q0 -18 22 -18q14 0 40 15v-117q-37 -20 -81 -20q-51 0 -85 24.5t-34 72.5q0 33 19.5 62t58.5 66z" />
    <glyph glyph-name="tilde" unicode="&#x2dc;" horiz-adv-x="585" 
d="M357 761h117q0 -189 -107 -189q-29 0 -62 16t-51 16q-11 0 -18.5 -8t-7.5 -19h-117q0 188 107 188q30 0 63 -15.5t50 -15.5q11 0 18.5 7.5t7.5 19.5z" />
    <glyph glyph-name="hungarumlaut" unicode="&#x2dd;" horiz-adv-x="585" 
d="M431 577h-171l99 184h171zM225 577h-171l99 184h171z" />
    <glyph glyph-name="Wgrave" unicode="&#x1e80;" horiz-adv-x="990" 
d="M612 776h-218l-99 160h217zM413 718h168l95 -360l83 360h231l-192 -718h-206l-97 367l-98 -367h-206l-191 718h234l84 -360z" />
    <glyph glyph-name="wgrave" unicode="&#x1e81;" horiz-adv-x="848" 
d="M530 577h-206l-99 184h206zM490 531l72 -237l73 237h213l-181 -531h-178l-65 212l-65 -212h-178l-181 531h221l74 -237l71 237h124z" />
    <glyph glyph-name="Wacute" unicode="&#x1e82;" horiz-adv-x="990" 
d="M601 776h-217l99 160h218zM413 718h168l95 -360l83 360h231l-192 -718h-206l-97 367l-98 -367h-206l-191 718h234l84 -360z" />
    <glyph glyph-name="wacute" unicode="&#x1e83;" horiz-adv-x="848" 
d="M522 577h-206l99 184h206zM490 531l72 -237l73 237h213l-181 -531h-178l-65 212l-65 -212h-178l-181 531h221l74 -237l71 237h124z" />
    <glyph glyph-name="Wdieresis" unicode="&#x1e84;" horiz-adv-x="990" 
d="M610 757q-44 0 -75 30.5t-31 74.5t31 75.5t75 31.5t75 -31.5t31 -75.5q0 -43 -31 -74t-75 -31zM379 757q-43 0 -74 30.5t-31 74.5t31 75.5t74 31.5q44 0 75.5 -31.5t31.5 -75.5q0 -43 -31.5 -74t-75.5 -31zM413 718h168l95 -360l83 360h231l-192 -718h-206l-97 367
l-98 -367h-206l-191 718h234l84 -360z" />
    <glyph glyph-name="wdieresis" unicode="&#x1e85;" horiz-adv-x="848" 
d="M535 558q-42 0 -72 30t-30 72t30 72.5t72 30.5t72.5 -30.5t30.5 -72.5t-30.5 -72t-72.5 -30zM312 558q-42 0 -71.5 30t-29.5 72t29.5 72.5t71.5 30.5q43 0 73 -30.5t30 -72.5t-30 -72t-73 -30zM490 531l72 -237l73 237h213l-181 -531h-178l-65 212l-65 -212h-178
l-181 531h221l74 -237l71 237h124z" />
    <glyph glyph-name="Ygrave" unicode="&#x1ef2;" horiz-adv-x="739" 
d="M487 776h-218l-99 160h217zM374 462l129 256h236l-257 -482v-236h-228v236l-254 482h246z" />
    <glyph glyph-name="ygrave" unicode="&#x1ef3;" horiz-adv-x="606" 
d="M419 577h-206l-100 184h206zM336 -179h-220l79 207l-195 503h229l81 -251l77 251h219z" />
    <glyph glyph-name="endash" unicode="&#x2013;" horiz-adv-x="539" 
d="M39 234v143h462v-143h-462z" />
    <glyph glyph-name="emdash" unicode="&#x2014;" horiz-adv-x="973" 
d="M39 234v143h896v-143h-896z" />
    <glyph glyph-name="quoteleft" unicode="&#x2018;" horiz-adv-x="280" 
d="M266 718l-89 -137q36 -7 61 -35.5t25 -71.5q0 -51 -35.5 -84t-89.5 -33q-52 0 -88 34.5t-36 95.5q0 60 50 137l62 94h140z" />
    <glyph glyph-name="quoteright" unicode="&#x2019;" horiz-adv-x="280" 
d="M14 369l89 136q-36 8 -61.5 36.5t-25.5 71.5q0 51 36 84t90 33q52 0 88 -35t36 -95t-51 -137l-62 -94h-139z" />
    <glyph glyph-name="quotesinglbase" unicode="&#x201a;" horiz-adv-x="280" 
d="M14 -136l89 137q-36 8 -61.5 36.5t-25.5 71.5q0 51 36 84t90 33q52 0 88 -35t36 -95t-51 -137l-62 -95h-139z" />
    <glyph glyph-name="quotedblleft" unicode="&#x201c;" horiz-adv-x="550" 
d="M536 718l-89 -137q36 -7 61.5 -35.5t25.5 -71.5q0 -51 -36 -84t-90 -33q-52 0 -88 34.5t-36 95.5q0 59 51 137l62 94h139zM266 718l-89 -137q36 -7 61 -35.5t25 -71.5q0 -51 -35.5 -84t-89.5 -33q-52 0 -88 34.5t-36 95.5q0 60 50 137l62 94h140z" />
    <glyph glyph-name="quotedblright" unicode="&#x201d;" horiz-adv-x="550" 
d="M284 369l89 136q-36 8 -61 36.5t-25 71.5q0 51 35.5 84t89.5 33q52 0 88 -35t36 -95q0 -62 -50 -137l-62 -94h-140zM14 369l89 136q-36 8 -61.5 36.5t-25.5 71.5q0 51 36 84t90 33q52 0 88 -35t36 -95t-51 -137l-62 -94h-139z" />
    <glyph glyph-name="quotedblbase" unicode="&#x201e;" horiz-adv-x="550" 
d="M284 -136l89 137q-36 8 -61 36.5t-25 71.5q0 51 35.5 84t89.5 33q52 0 88 -35t36 -95q0 -62 -50 -137l-62 -95h-140zM14 -136l89 137q-36 8 -61.5 36.5t-25.5 71.5q0 51 36 84t90 33q52 0 88 -35t36 -95t-51 -137l-62 -95h-139z" />
    <glyph glyph-name="dagger" unicode="&#x2020;" horiz-adv-x="412" 
d="M388 522h-115v-199h-134v199h-116v131h116v108h134v-108h115v-131z" />
    <glyph glyph-name="daggerdbl" unicode="&#x2021;" horiz-adv-x="412" 
d="M388 393h-119v-70h-126v70h-120v114h120v69h-120v114h120v71h126v-71h119v-114h-119v-69h119v-114z" />
    <glyph glyph-name="bullet" unicode="&#x2022;" horiz-adv-x="466" 
d="M23 305q0 93 61 152t150 59q88 0 148 -59t60 -152q0 -90 -60.5 -148.5t-147.5 -58.5q-89 0 -150 58.5t-61 148.5z" />
    <glyph glyph-name="ellipsis" unicode="&#x2026;" horiz-adv-x="879" 
d="M865 118q0 -53 -36.5 -89.5t-89.5 -36.5q-52 0 -88 36.5t-36 89.5q0 54 36 90.5t88 36.5q53 0 89.5 -36.5t36.5 -90.5zM564 118q0 -53 -36 -89.5t-89 -36.5q-52 0 -88 36.5t-36 89.5q0 54 36 90.5t88 36.5q53 0 89 -36.5t36 -90.5zM263 118q0 -53 -36 -89.5t-89 -36.5
q-52 0 -88 36.5t-36 89.5q0 54 36 90.5t88 36.5q53 0 89 -36.5t36 -90.5z" />
    <glyph glyph-name="perthousand" unicode="&#x2030;" horiz-adv-x="1191" 
d="M378 551q0 -73 -52.5 -124t-126.5 -51q-73 0 -124.5 51t-51.5 124q0 75 51.5 127t124.5 52q74 0 126.5 -52t52.5 -127zM109 0l478 718h113l-479 -718h-112zM145 551q0 -22 16 -38t38 -16q23 0 40 16t17 38q0 24 -17 40.5t-40 16.5q-22 0 -38 -16.5t-16 -40.5zM992 343
q73 0 124.5 -51.5t51.5 -124.5q0 -74 -51.5 -126.5t-124.5 -52.5q-74 0 -126.5 52.5t-52.5 126.5q0 73 52.5 124.5t126.5 51.5zM610 343q73 0 124 -51.5t51 -124.5q0 -74 -51 -126.5t-124 -52.5q-75 0 -127 52.5t-52 126.5q0 73 52 124.5t127 51.5zM992 221q-23 0 -40 -16
t-17 -38q0 -23 17 -40t40 -17q22 0 38 17t16 40q0 22 -16 38t-38 16zM610 221q-24 0 -41 -16t-17 -38q0 -23 17 -40t41 -17q22 0 37.5 17t15.5 40q0 22 -15.5 38t-37.5 16z" />
    <glyph glyph-name="guilsinglleft" unicode="&#x2039;" horiz-adv-x="353" 
d="M324 63h-187l-108 197l108 196h187l-108 -196z" />
    <glyph glyph-name="guilsinglright" unicode="&#x203a;" horiz-adv-x="353" 
d="M216 63h-187l108 197l-108 196h187l108 -196z" />
    <glyph glyph-name="fraction" unicode="&#x2044;" horiz-adv-x="253" 
d="M393 718l-432 -718h-101l431 718h102z" />
    <glyph glyph-name="Euro" unicode="&#x20ac;" horiz-adv-x="680" 
d="M656 249q-17 -116 -87 -188.5t-188 -72.5q-112 0 -192.5 72.5t-106.5 192.5h-59v90h48v16v22h-48v91h60q28 118 107.5 188t190.5 70q118 0 188 -72.5t87 -188.5h-196q-16 66 -79 66q-57 0 -81 -63h120l-18 -91h-118v-22v-16h109l-17 -90h-78q23 -69 83 -69q64 0 79 65
h196z" />
    <glyph glyph-name="trademark" unicode="&#x2122;" horiz-adv-x="722" 
d="M23 621v97h284v-97h-89v-200h-107v200h-88zM544 421h-60l-50 159v-159h-91v297h121l51 -159l50 159h122v-297h-93v159z" />
    <glyph glyph-name="uni2153" unicode="&#x2153;" horiz-adv-x="873" 
d="M259 718v-420h-137v267l-100 -47v138l135 62h102zM709 718l-479 -718h-112l479 718h112zM646 163v96h27q37 0 37 29q0 23 -26 23q-12 0 -20.5 -9t-10.5 -22h-136q6 62 49 104t115 42q76 0 118.5 -37.5t42.5 -100.5q0 -22 -11.5 -45t-26.5 -34q42 -23 42 -76
q0 -64 -44 -102t-120 -38q-74 0 -119 41t-48 109h145q2 -28 27 -28q24 0 24 22q0 26 -32 26h-33z" />
    <glyph glyph-name="uni2154" unicode="&#x2154;" horiz-adv-x="955" 
d="M199 531q2 3 7.5 8.5t8 7.5t6 6.5t5 8t2.5 7.5t1 9q0 25 -24 25q-11 0 -18.5 -8t-7.5 -17h-146q6 62 51.5 104t116.5 42q75 0 120.5 -38t45.5 -99q0 -38 -19 -65t-57 -61l-51 -44h124v-119h-328v89zM791 718l-479 -718h-112l479 718h112zM728 165v91h28q38 0 38 32
q0 28 -28 28q-29 0 -35 -36h-132q6 62 49 104t115 42q76 0 118.5 -37.5t42.5 -100.5q0 -22 -11.5 -45t-26.5 -34q42 -24 42 -76q0 -64 -44 -102t-120 -38q-74 0 -119 41t-48 109h140q2 -35 33 -35q12 0 20 8.5t8 20.5q0 28 -36 28h-34z" />
    <glyph glyph-name="uni215B" unicode="&#x215b;" horiz-adv-x="881" 
d="M259 718v-420h-137v267l-100 -47v138l135 62h102zM709 718l-479 -718h-112l479 718h112zM841 117q0 -57 -48.5 -90.5t-120.5 -33.5q-73 0 -122 33.5t-49 90.5q0 67 59 92q-45 28 -45 88t45.5 94.5t111.5 34.5q64 0 109.5 -34.5t45.5 -94.5q0 -61 -45 -88q59 -25 59 -92z
M707 295q0 12 -10 21t-25 9q-17 0 -27 -9t-10 -21q0 -14 10 -23t27 -9q16 0 25.5 9t9.5 23zM708 129q0 13 -10 22t-26 9q-17 0 -28 -9t-11 -22q0 -14 11 -23t28 -9q16 0 26 9t10 23z" />
    <glyph glyph-name="uni215C" unicode="&#x215c;" horiz-adv-x="910" 
d="M738 718l-478 -718h-113l479 718h112zM152 463v92h28q39 0 39 31q0 28 -28 28q-31 0 -35 -36h-133q7 62 50 104t114 42q76 0 119 -37.5t43 -100.5q0 -21 -12 -44t-27 -34q42 -23 42 -76q0 -64 -44 -102.5t-120 -38.5q-74 0 -118.5 41t-48.5 109h140q3 -35 33 -35
q12 0 20 8.5t8 20.5q0 28 -36 28h-34zM701 426q65 0 110 -34.5t45 -94.5q0 -62 -45 -88q59 -25 59 -92q0 -57 -48.5 -90.5t-120.5 -33.5q-73 0 -122 33.5t-49 90.5q0 66 60 92q-46 27 -46 88q0 60 45.5 94.5t111.5 34.5zM736 295q0 12 -10 21t-25 9q-16 0 -26 -9t-10 -21
q0 -14 10 -23t26 -9t25.5 9t9.5 23zM737 129q0 13 -10 22t-26 9t-27.5 -9t-11.5 -22q0 -14 11.5 -23t27.5 -9t26 9t10 23z" />
    <glyph glyph-name="uni215D" unicode="&#x215d;" horiz-adv-x="921" 
d="M749 718l-479 -718h-112l478 718h113zM193 405q15 0 24.5 9.5t9.5 24.5q0 14 -10 24t-26 10q-15 0 -34 -12h-116v257h282v-110h-170v-44q21 12 58 12q68 0 107 -37.5t39 -99.5q0 -67 -44 -107.5t-118 -40.5q-78 0 -123.5 36t-49.5 104h137q1 -12 11 -19t23 -7zM881 117
q0 -57 -48.5 -90.5t-121.5 -33.5q-72 0 -121 33.5t-49 90.5q0 67 59 92q-45 28 -45 88t45 94.5t111 34.5q65 0 110.5 -34.5t45.5 -94.5q0 -62 -46 -88q60 -26 60 -92zM746 295q0 12 -10 21t-25 9q-16 0 -26 -9t-10 -21q0 -14 10 -23t26 -9t25.5 9t9.5 23zM748 129
q0 13 -10.5 22t-26.5 9t-27 -9t-11 -22q0 -14 11 -23t27 -9t26.5 9t10.5 23z" />
    <glyph glyph-name="uni215E" unicode="&#x215e;" horiz-adv-x="846" 
d="M332 627l-135 -329h-146l127 302h-156v118h310v-91zM674 718l-479 -718h-112l479 718h112zM480 297q0 60 45 94.5t111 34.5q65 0 110.5 -34.5t45.5 -94.5q0 -62 -46 -88q60 -25 60 -92q0 -57 -48.5 -90.5t-121.5 -33.5q-72 0 -121 33.5t-49 90.5q0 67 59 92
q-45 28 -45 88zM672 295q0 12 -10 21t-26 9t-26 -9t-10 -21q0 -14 10 -23t26 -9t26 9t10 23zM598 129q0 -14 11 -23t27 -9t26.5 9t10.5 23q0 13 -10.5 22t-26.5 9t-27 -9t-11 -22z" />
    <glyph glyph-name="minus" unicode="&#x2212;" horiz-adv-x="645" 
d="M44 270v161h556v-161h-556z" />
    <glyph glyph-name="approxequal" unicode="&#x2248;" horiz-adv-x="668" 
d="M56 364v148q75 50 149 50q47 0 127 -24t127 -24q77 0 153 50v-150q-78 -49 -153 -49q-47 0 -127 24t-127 24q-73 0 -149 -49zM56 138v149q75 50 149 50q47 0 127 -24.5t127 -24.5q75 0 153 50v-150q-78 -49 -153 -49q-47 0 -127 24.5t-127 24.5q-72 0 -149 -50z" />
    <glyph glyph-name="notequal" unicode="&#x2260;" horiz-adv-x="668" 
d="M612 164h-330l-66 -108h-128l66 108h-98v141h185l58 95h-243v143h331l65 106h128l-65 -106h97v-143h-185l-58 -95h243v-141z" />
    <glyph glyph-name="lessequal" unicode="&#x2264;" horiz-adv-x="510" 
d="M43 343v188l424 139v-167l-272 -65l272 -68v-166zM43 28v153h424v-153h-424z" />
    <glyph glyph-name="greaterequal" unicode="&#x2265;" horiz-adv-x="510" 
d="M467 531v-188l-424 -139v166l272 68l-272 65v167zM467 181v-153h-424v153h424z" />
    <glyph glyph-name="fi" unicode="&#xfb01;" horiz-adv-x="706" 
d="M558 780q52 0 87.5 -31t35.5 -83q0 -53 -35.5 -84t-87.5 -31t-87.5 31t-35.5 84q0 52 35.5 83t87.5 31zM399 756v-177q-15 7 -36 7q-59 0 -59 -52v-3h95v-171h-95v-360h-221v360h-71v171h71v14q0 104 58 164.5t167 60.5q51 0 91 -14zM669 531v-531h-222v531h222z" />
    <glyph glyph-name="fl" unicode="&#xfb02;" horiz-adv-x="706" 
d="M669 761v-761h-222v761h222zM399 756v-177q-15 7 -36 7q-59 0 -59 -52v-3h95v-171h-95v-360h-221v360h-71v171h71v14q0 104 58 164.5t167 60.5q51 0 91 -14z" />
    <glyph glyph-name="i.dot" horiz-adv-x="295" 
d="M25 679q0 52 35 83t87 31t87.5 -31t35.5 -83q0 -53 -35.5 -84t-87.5 -31t-87 31t-35 84zM259 531v-531h-223v531h223z" />
    <glyph glyph-name="caron.Slovak" horiz-adv-x="585" 
d="M342 565h-171l56 196h173z" />
    <glyph glyph-name="commaturn" horiz-adv-x="585" 
d="M406 814l-68 -82q24 -10 39.5 -32.5t15.5 -53.5q0 -41 -30.5 -68t-77.5 -27q-44 0 -75.5 28t-31.5 75q0 50 52 114l40 46h136z" />
    <glyph glyph-name="uni00200326" horiz-adv-x="585" 
d="M180 -289l63 77q-55 25 -55 87q0 41 30.5 68t77.5 27q44 0 76 -28t32 -75q0 -50 -53 -114l-35 -42h-136z" />
    <glyph glyph-name="guilsinglleft.cap" horiz-adv-x="353" 
d="M324 157h-187l-108 196l108 197h187l-108 -197z" />
    <glyph glyph-name="guilsinglright.cap" horiz-adv-x="353" 
d="M216 157h-187l108 196l-108 197h187l108 -197z" />
    <glyph glyph-name="guillemotleft.cap" horiz-adv-x="565" 
d="M536 157h-176l-107 196l107 197h176l-108 -197zM312 157h-175l-108 196l108 197h175l-107 -197z" />
    <glyph glyph-name="guillemotright.cap" horiz-adv-x="565" 
d="M205 157h-176l108 196l-108 197h176l107 -197zM428 157h-175l107 196l-107 197h175l108 -197z" />
    <glyph glyph-name="slash.cap" horiz-adv-x="486" 
d="M6 -75l290 859h184l-290 -859h-184z" />
    <glyph glyph-name="backslash.cap" horiz-adv-x="486" 
d="M190 784l290 -859h-184l-290 859h184z" />
    <glyph glyph-name="bar.cap" horiz-adv-x="254" 
d="M39 -75v859h176v-859h-176z" />
    <glyph glyph-name="periodcentered.cap" horiz-adv-x="296" 
d="M273 339q0 -53 -36.5 -89.5t-89.5 -36.5q-52 0 -88 36.5t-36 89.5q0 54 36 90.5t88 36.5q53 0 89.5 -36t36.5 -91z" />
    <glyph glyph-name="bullet.cap" horiz-adv-x="466" 
d="M23 340q0 93 61 152t150 59q88 0 148 -59t60 -152q0 -90 -60.5 -148.5t-147.5 -58.5q-89 0 -150 58.5t-61 148.5z" />
    <glyph glyph-name="hyphen.cap" horiz-adv-x="359" 
d="M39 250v182h282v-182h-282z" />
    <glyph glyph-name="endash.cap" horiz-adv-x="539" 
d="M39 269v143h462v-143h-462z" />
    <glyph glyph-name="emdash.cap" horiz-adv-x="973" 
d="M39 269v143h896v-143h-896z" />
    <glyph glyph-name="parenleft.cap" horiz-adv-x="401" 
d="M378 -75q-160 32 -251.5 146.5t-91.5 283.5q0 168 92 282.5t251 146.5v-199q-70 -28 -107.5 -82t-37.5 -148q0 -95 37.5 -149t107.5 -82v-199z" />
    <glyph glyph-name="parenright.cap" horiz-adv-x="401" 
d="M23 -75v199q70 28 107.5 82t37.5 149q0 94 -37.5 148t-107.5 82v199q159 -32 251 -146.5t92 -282.5q0 -169 -91.5 -283.5t-251.5 -146.5z" />
    <glyph glyph-name="bracketleft.cap" horiz-adv-x="399" 
d="M246 605v-501h130v-179h-337v859h337v-179h-130z" />
    <glyph glyph-name="bracketright.cap" horiz-adv-x="399" 
d="M153 605h-130v179h337v-859h-337v179h130v501z" />
    <glyph glyph-name="braceleft.cap" horiz-adv-x="443" 
d="M302 257v-119q0 -34 34 -34h84v-179h-165q-67 0 -109 42.5t-42 109.5v155q0 34 -34 34h-47v177h47q34 0 34 34v155q0 67 42 109.5t109 42.5h165v-179h-84q-34 0 -34 -34v-119q0 -64 -55 -97q55 -35 55 -98z" />
    <glyph glyph-name="braceright.cap" horiz-adv-x="443" 
d="M142 138v119q0 64 55 98q-55 32 -55 97v119q0 34 -34 34h-85v179h165q67 0 109 -42.5t42 -109.5v-155q0 -34 34 -34h47v-177h-47q-34 0 -34 -34v-155q0 -67 -42 -109.5t-109 -42.5h-165v179h85q34 0 34 34z" />
    <glyph glyph-name="at.cap" horiz-adv-x="877" 
d="M686 571l-52 -293q-8 -42 26 -42q51 0 79.5 49.5t28.5 142.5q0 120 -85 189t-217 69q-155 0 -252 -98.5t-97 -257.5q0 -87 32 -151.5t85 -98t111 -49t122 -15.5q134 0 262 57v-91q-112 -55 -262 -55q-70 0 -134.5 14.5t-122.5 46.5t-100 78t-67 114t-25 150
q0 188 125.5 317t322.5 129q173 0 283.5 -99t110.5 -249q0 -139 -70 -214.5t-182 -75.5q-90 0 -140 57q-39 -52 -119 -52q-77 0 -119 51t-42 131q0 105 60.5 179.5t158.5 74.5q31 0 59 -11.5t41 -30.5l5 34h174zM467 319l14 83q-7 30 -45 30q-29 0 -49.5 -25t-20.5 -64
q0 -54 49 -54q34 0 52 30z" />
    <glyph glyph-name="published" horiz-adv-x="824" 
d="M412 730q154 0 262.5 -106t108.5 -265t-108.5 -265t-262.5 -106q-155 0 -263 106t-108 265t108 265t263 106zM412 42q131 0 223.5 90.5t92.5 226.5t-92 226.5t-224 90.5t-224 -90.5t-92 -226.5t92.5 -226.5t223.5 -90.5zM459 262h-69v-117h-135v432h204q74 0 118 -41.5
t44 -115.5q0 -75 -44 -116.5t-118 -41.5zM440 463h-50v-87h50q49 0 49 44q0 43 -49 43z" />
    <glyph glyph-name="uni0192.lt" 
d="M153 -179q-55 0 -97 14v151q15 -7 36 -7q45 0 54 53l39 220h-60v168h89l15 85q39 225 231 225q51 0 91 -14v-177q-14 7 -36 7q-50 0 -59 -52l-13 -74h84v-168h-113l-36 -206q-19 -111 -69.5 -168t-155.5 -57z" />
    <glyph glyph-name="Euro.lt" 
d="M596 249q-16 -117 -80 -189t-173 -72q-103 0 -176.5 72.5t-96.5 192.5h-43v90h33v16v22h-33v91h44q25 118 98 188t174 70q109 0 173 -72t80 -189h-185q-12 66 -64 66q-45 0 -63 -63h95l-16 -91h-92v-23v-15h84l-17 -90h-57q18 -72 66 -72q52 0 64 66z" />
    <glyph glyph-name="dollar.lt" 
d="M397 -96h-176v110q-86 19 -140 72t-67 134h221q17 -46 80 -46q24 0 40.5 11t16.5 29q0 20 -12.5 28.5t-42.5 14.5l-116 27q-83 20 -129.5 66.5t-46.5 133.5q0 85 53.5 143.5t142.5 78.5v106h176v-109q80 -20 127 -72.5t60 -129.5h-210q-19 42 -72 42q-26 0 -42.5 -10.5
t-16.5 -27.5q0 -25 38 -35l133 -34q91 -23 135 -73.5t44 -133.5q0 -86 -53.5 -142t-142.5 -75v-108z" />
    <glyph glyph-name="cent.lt" 
d="M573 227q-8 -80 -53.5 -137t-120.5 -79v-107h-176v108q-87 26 -137.5 96t-50.5 169t50.5 169.5t137.5 96.5v117h176v-116q75 -22 120.5 -79t53.5 -137h-213q-2 19 -14 31.5t-34 12.5q-27 0 -42.5 -25t-15.5 -70t15.5 -69.5t42.5 -24.5q22 0 34 12.5t14 31.5h213z" />
    <glyph glyph-name="sterling.lt" 
d="M574 185v-185h-545v185h44q20 38 23 88h-67v165h67v44q0 111 64.5 179.5t177.5 68.5q108 0 172.5 -62t67.5 -165h-195q0 45 -37 45q-39 0 -39 -57v-53h112v-165h-112q-3 -59 -25 -88h292z" />
    <glyph glyph-name="yen.lt" 
d="M562 108h-149v-108h-221v108h-149v118h149v45h-149v119h100l-135 328h237l64 -196l64 196h227l-137 -328h99v-119h-149v-45h149v-118z" />
    <glyph glyph-name="zero.lt" 
d="M590 359q0 -168 -75 -269.5t-211 -101.5t-210.5 101.5t-74.5 269.5t74.5 269.5t210.5 101.5t211 -101.5t75 -269.5zM371 359q0 51 -4 86t-20 62t-43 27q-66 0 -66 -175q0 -51 4 -85.5t19.5 -61.5t42.5 -27q39 0 53 47t14 127z" />
    <glyph glyph-name="one.lt" 
d="M56 0v194h164v288l-154 -75v211l216 100h158v-524h132v-194h-516z" />
    <glyph glyph-name="two.lt" 
d="M295 395q28 26 39.5 44.5t11.5 40.5q0 21 -12 34t-31 13q-20 0 -32 -13t-14 -31h-234q11 105 86 176t193 71q124 0 199.5 -64.5t75.5 -167.5q0 -65 -33.5 -114t-98.5 -106l-98 -84h227v-194h-546v145z" />
    <glyph glyph-name="three.lt" 
d="M245 284v155h37q74 0 74 54q0 22 -14 36t-38 14q-25 0 -41 -17t-20 -43h-214q11 105 87 176t199 71q117 0 186.5 -64t69.5 -168q0 -39 -20.5 -79t-48.5 -60q36 -18 56 -56t20 -87q0 -100 -73 -164t-194 -64q-129 0 -205 68.5t-84 183.5h227q5 -62 59 -62q23 0 38.5 14.5
t15.5 37.5q0 54 -73 54h-44z" />
    <glyph glyph-name="four.lt" 
d="M407 718l-161 -411h68v93h195v-93h80v-183h-80v-124h-190v124h-305v170l187 424h206z" />
    <glyph glyph-name="five.lt" 
d="M252 275h-196v443h469v-190h-283v-68q47 17 93 17q117 0 182.5 -65t65.5 -172q0 -115 -74 -183.5t-198 -68.5q-128 0 -203.5 68.5t-82.5 183.5h225q2 -26 20 -43.5t46 -17.5q23 0 40 16.5t17 43.5q0 26 -16.5 43.5t-45.5 17.5q-30 0 -59 -25z" />
    <glyph glyph-name="six.lt" 
d="M584 508h-210q-12 37 -55 37q-37 0 -59 -29.5t-24 -69.5v-1q36 30 114 30q108 0 174 -64.5t66 -164.5q0 -114 -76.5 -186t-202.5 -72q-70 0 -127.5 29t-94.5 79q-69 90 -69 247q0 173 78.5 280t218.5 107q110 0 181 -60.5t86 -161.5zM312 167q32 0 54 21t22 52
q0 32 -22 53t-54 21t-54 -21t-22 -53q0 -31 22 -52t54 -21z" />
    <glyph glyph-name="seven.lt" 
d="M577 572l-201 -572h-229l188 525h-303v193h545v-146z" />
    <glyph glyph-name="eight.lt" 
d="M589 200q0 -97 -81.5 -154.5t-203.5 -57.5t-203 57.5t-81 154.5q0 57 29 99t77 61q-83 47 -83 152q0 102 76 160t185 58t185 -58t76 -160q0 -105 -83 -152q48 -19 77.5 -61t29.5 -99zM367 508q0 25 -17.5 41t-45.5 16t-45.5 -16t-17.5 -41q0 -24 17.5 -40t45.5 -16
t45.5 16t17.5 40zM371 218q0 25 -19 41t-48 16t-47.5 -16t-18.5 -41t19 -41.5t47 -16.5q29 0 48 16.5t19 41.5z" />
    <glyph glyph-name="nine.lt" 
d="M296 551q-32 0 -54 -20.5t-22 -51.5q0 -32 22 -53t54 -21q33 0 54.5 20.5t21.5 53.5q0 31 -22 51.5t-54 20.5zM25 211h209q13 -38 55 -38q38 0 59.5 29.5t23.5 70.5v1q-35 -31 -113 -31q-108 0 -174 65t-66 165q0 113 76.5 185t201.5 72q70 0 128 -29t94 -79
q70 -90 70 -246q0 -173 -79 -280.5t-219 -107.5q-110 0 -181 60.5t-85 162.5z" />
    <glyph glyph-name="percent.lt" 
d="M166 440q-59 0 -101.5 42t-42.5 102q0 61 42.5 103.5t101.5 42.5q61 0 103.5 -42.5t42.5 -103.5q0 -60 -42.5 -102t-103.5 -42zM22 0l455 718h109l-455 -718h-109zM166 539q20 0 33.5 13t13.5 32q0 20 -13.5 33.5t-33.5 13.5q-18 0 -31 -14t-13 -33t13 -32t31 -13z
M442 -12q-60 0 -103 43t-43 104q0 59 43 101t103 42t102 -42t42 -101q0 -61 -42 -104t-102 -43zM442 179q-19 0 -33 -13t-14 -31q0 -19 14 -33t33 -14t32 13.5t13 33.5q0 18 -13 31t-32 13z" />
    <glyph glyph-name="period.tab" horiz-adv-x="304" 
d="M276 118q0 -53 -36 -89.5t-89 -36.5q-52 0 -88 36.5t-36 89.5q0 54 36 90.5t88 36.5q53 0 89 -36.5t36 -90.5z" />
    <glyph glyph-name="comma.tab" horiz-adv-x="304" 
d="M25 -117l88 137q-36 7 -61 36t-25 72q0 50 36 83.5t89 33.5q52 0 88 -35t36 -95q0 -62 -50 -137l-62 -95h-139z" />
    <glyph glyph-name="colon.tab" horiz-adv-x="304" 
d="M276 405q0 -54 -36 -90.5t-89 -36.5q-52 0 -88 36.5t-36 90.5t36 90t88 36q53 0 89 -36t36 -90zM276 118q0 -53 -36 -89.5t-89 -36.5q-52 0 -88 36.5t-36 89.5q0 54 36 90.5t88 36.5q53 0 89 -36.5t36 -90.5z" />
    <glyph glyph-name="semicolon.tab" horiz-adv-x="304" 
d="M276 405q0 -54 -36 -90.5t-89 -36.5q-52 0 -88 36.5t-36 90.5t36 90t88 36q53 0 89 -36t36 -90zM25 -117l88 137q-36 7 -61 36t-25 72q0 50 36 83.5t89 33.5q52 0 88 -35t36 -95q0 -62 -50 -137l-62 -95h-139z" />
    <glyph glyph-name="space.tab" horiz-adv-x="260" 
 />
    <glyph glyph-name="approxequal.lt" 
d="M26 364v148q75 50 148 50q48 0 127 -24t127 -24q77 0 153 50v-150q-78 -49 -153 -49q-48 0 -127 24t-127 24q-72 0 -148 -49zM26 138v149q75 50 148 50q48 0 127 -24.5t127 -24.5q75 0 153 50v-150q-78 -49 -153 -49q-48 0 -127 24.5t-127 24.5q-71 0 -148 -50z" />
    <glyph glyph-name="notequal.lt" 
d="M581 164h-329l-66 -108h-129l66 108h-97v141h184l58 95h-242v143h330l65 106h129l-65 -106h96v-143h-184l-58 -95h242v-141z" />
    <glyph glyph-name="equal.lt" 
d="M26 400v143h555v-143h-555zM26 164v141h555v-141h-555z" />
    <glyph glyph-name="greater.lt" 
d="M516 445v-195l-424 -179v177l272 99l-272 100v177z" />
    <glyph glyph-name="plusminus.lt" 
d="M569 385h-195v-146h-141v146h-193v140h193v147h141v-147h195v-140zM40 40v140h529v-140h-529z" />
    <glyph glyph-name="dotbelow" horiz-adv-x="585" 
d="M174 -140q0 50 34 80t85 30q50 0 84 -30t34 -80q0 -51 -34 -81.5t-84 -30.5q-51 0 -85 30t-34 82z" />
    <glyph glyph-name="exclamdown.cap" horiz-adv-x="307" 
d="M153 727q53 0 90 -34t37 -83q0 -50 -37 -83.5t-90 -33.5t-89.5 33.5t-36.5 83.5q0 49 36.5 83t89.5 34zM18 0l48 469h175l48 -469h-271z" />
    <glyph glyph-name="plus.lt" 
d="M581 270h-197v-197h-161v197h-197v161h197v197h161v-197h197v-161z" />
    <glyph glyph-name="cedilla.alt" horiz-adv-x="585" 
d="M331 -205h-182l78 168h183z" />
    <glyph glyph-name="perthousand.lt" horiz-adv-x="936" 
d="M187 440q-59 0 -101.5 42t-42.5 102q0 61 42.5 103.5t101.5 42.5q61 0 103.5 -42.5t42.5 -103.5q0 -60 -42.5 -102t-103.5 -42zM20 0l502 718h109l-502 -718h-109zM187 539q20 0 33.5 13t13.5 32q0 20 -14 33.5t-33 13.5q-18 0 -31 -14t-13 -33t13 -32t31 -13zM772 278
q60 0 102 -42t42 -101q0 -61 -42 -104t-102 -43q-61 0 -103.5 43t-42.5 104q0 59 42.5 101t103.5 42zM463 278q60 0 102 -42t42 -101q0 -61 -42 -104t-102 -43t-103 43t-43 104q0 59 43 101t103 42zM772 179q-19 0 -33 -13t-14 -31q0 -19 13.5 -33t33.5 -14q18 0 31.5 14
t13.5 33q0 18 -13.5 31t-31.5 13zM463 179q-19 0 -32.5 -13t-13.5 -31q0 -19 13.5 -33t32.5 -14t32 13.5t13 33.5q0 18 -13 31t-32 13z" />
    <glyph glyph-name="lessequal.lt" 
d="M92 343v188l424 139v-167l-271 -65l271 -68v-166zM92 28v153h424v-153h-424z" />
    <glyph glyph-name="greaterequal.lt" 
d="M516 531v-188l-424 -139v166l272 68l-272 65v167zM516 181v-153h-424v153h424z" />
    <glyph glyph-name="minus.lt" 
d="M26 270v161h555v-161h-555z" />
    <glyph glyph-name="questiondown.cap" horiz-adv-x="579" 
d="M145 610q0 50 37 83.5t92 33.5q53 0 89.5 -34t36.5 -83q0 -50 -36.5 -83.5t-89.5 -33.5q-55 0 -92 33t-37 84zM340 235h227q-11 -107 -83.5 -177t-199.5 -70q-116 0 -188.5 59.5t-72.5 160.5q0 31 12.5 62t25 49t39 50t36.5 45q22 32 24 55h221q-1 -24 -11 -47.5
t-39 -61.5q-9 -11 -24 -30t-21.5 -28t-15 -21.5t-11.5 -23t-3 -21.5q0 -20 12 -31.5t28 -11.5q20 0 31.5 12.5t12.5 29.5z" />
    <glyph glyph-name="less.lt" 
d="M92 250v195l424 179v-177l-271 -100l271 -99v-177z" />
    <glyph glyph-name="multiply.lt" 
d="M191 350l-141 139l114 114l140 -140l139 140l114 -114l-139 -139l139 -141l-114 -112l-139 139l-140 -139l-114 112z" />
    <glyph glyph-name="divide.lt" 
d="M411 569q0 -43 -31.5 -73t-75.5 -30t-75 30t-31 73t31 73t75 30t75.5 -30t31.5 -73zM26 270v161h555v-161h-555zM411 131q0 -43 -31.5 -73t-75.5 -30t-75 30t-31 73t31 73t75 30t75.5 -30t31.5 -73z" />
    </font>
</defs>
</svg>
