<svg xmlns="http://www.w3.org/2000/svg" viewBox="0 0 682.02 123.11"><defs><style>.cls-1,.cls-2{fill:#3280fa;}.cls-2{stroke:#3280fa;stroke-miterlimit:10;stroke-width:0.2px;}</style></defs><title>background</title><g id="Layer_2" data-name="Layer 2"><g id="Layer_1-2" data-name="Layer 1"><path class="cls-1" d="M544.81,69.9a.64.64,0,0,1,.05-.24.63.63,0,0,1,.59-.39h69.32V53.66a.64.64,0,0,1,.21-.47.62.62,0,0,1,.5-.16l30.06,3.23a.65.65,0,0,1,.57.64v2h3.8V52.66a.63.63,0,0,1,.64-.64h13.74v-4.2a.64.64,0,0,1,.64-.64h5.91V28.69a.7.7,0,0,1,0-.25.65.65,0,0,1,.59-.39h0a.65.65,0,0,1,.64.64V47.18h5.28v-9.7a.64.64,0,0,1,.64-.64.64.64,0,0,1,.64.64v9.7h2.6a.64.64,0,0,1,.64.64v53.11a.64.64,0,0,1-.64.64h-5.87l-.16,0H664.47l-.16,0h-2.47l-.16,0H615.41l-.16,0H611l-.16,0H545.45a.63.63,0,0,1-.59-.39.7.7,0,0,1-.05-.25h0Z"/><path class="cls-1" d="M137.21,69.9a.64.64,0,0,0-.05-.24.64.64,0,0,0-.59-.39H67.25V53.66a.64.64,0,0,0-.21-.47.62.62,0,0,0-.5-.16L36.48,56.26a.64.64,0,0,0-.57.64v2h-3.8V52.66a.63.63,0,0,0-.64-.64H17.73v-4.2a.64.64,0,0,0-.64-.64H11.18V28.69a.7.7,0,0,0,0-.25.65.65,0,0,0-.59-.39h0a.65.65,0,0,0-.64.64V47.18H4.62v-9.7A.64.64,0,0,0,4,36.84a.64.64,0,0,0-.64.64v9.7H.74a.64.64,0,0,0-.64.64v53.11a.64.64,0,0,0,.64.64H6.61l.16,0H17.55l.15,0h2.48l.16,0H66.61l.15,0H71l.16,0h65.41a.64.64,0,0,0,.59-.39.7.7,0,0,0,.05-.25h0Z"/><path class="cls-1" d="M280.3,19.13h-2.6V9.43a.64.64,0,0,0-1.28,0v9.7h-5.28V.64A.6.6,0,0,0,271,.19.6.6,0,0,0,270.5,0h0a.65.65,0,0,0-.59.39.7.7,0,0,0-.05.25V19.13H264a.64.64,0,0,0-.64.64V24H249.57a.64.64,0,0,0-.64.64v6.26h-3.8v-2a.64.64,0,0,0-.57-.64L214.5,25a.62.62,0,0,0-.5.16.64.64,0,0,0-.21.47V41.22H210V19.77a.64.64,0,0,0-.64-.64h-2.6V9.43a.64.64,0,0,0-.64-.64.64.64,0,0,0-.64.64v9.7h-5.28V.64A.6.6,0,0,0,200,.19a.6.6,0,0,0-.45-.19h0a.65.65,0,0,0-.59.39.7.7,0,0,0,0,.25V19.13H193a.64.64,0,0,0-.64.64V24H178.58a.63.63,0,0,0-.64.64v6.26h-3.8v-2a.65.65,0,0,0-.57-.64L143.51,25a.62.62,0,0,0-.5.16.64.64,0,0,0-.21.47V41.22H129.16a.64.64,0,0,0-.59.39.64.64,0,0,0,0,.24v31h0c0,.09,0,28.66,0,28.74.1.23,152.37.08,152.37-.27V19.77A.64.64,0,0,0,280.3,19.13Z"/><path class="cls-1" d="M537.43,69.9a.64.64,0,0,0-.64-.63H528.3V53.66a.64.64,0,0,0-.21-.47.62.62,0,0,0-.5-.16l-30.06,3.23a.64.64,0,0,0-.57.64v2h-3.8V52.66a.64.64,0,0,0-.64-.64H478.78v-4.2a.64.64,0,0,0-.64-.64h-5.91V28.69a.7.7,0,0,0-.05-.25.65.65,0,0,0-.59-.39h0a.64.64,0,0,0-.46.19.63.63,0,0,0-.18.45V47.18h-5.28v-9.7a.64.64,0,0,0-1.28,0v9.7h-2.6a.64.64,0,0,0-.64.64v53.11a.64.64,0,0,0,.64.64h5.87l.16,0H478.6l.15,0h2.48l.15,0h46.28l.15,0h4.24l.16,0h4.58a.65.65,0,0,0,.59-.39.7.7,0,0,0,0-.25h0Z"/><path class="cls-2" d="M681.92,99.81v23s-.06.07-.17.09a2.93,2.93,0,0,1-.61.07H1.07c-.53,0-1-.08-1-.17v-23c0-.09.44-.16,1-.16H681.14a2.93,2.93,0,0,1,.61.07C681.86,99.75,681.92,99.78,681.92,99.81Z"/><rect class="cls-1" x="277.04" y="55" width="195.31" height="53.76"/></g></g></svg>