<svg xmlns="http://www.w3.org/2000/svg" viewBox="0 0 28.47 18.5"><defs><style>.cls-1{fill:#fff;}.cls-2{fill:#3280fa;}</style></defs><title>bird</title><g id="Layer_2" data-name="Layer 2"><g id="ëÎÓÈ_1" data-name="ëÎÓÈ 1"><path class="cls-1" d="M4.05,4.67a3.65,3.65,0,0,0-.15,1v3l-.5-.36L2.9,8,.9,6.52l2-1.18L3.46,5Z"/><path class="cls-2" d="M3.65,4.32,3,4.69H3L0,6.47,2.9,8.61,3.4,9l.43.32v.46H3.9v-4a3.65,3.65,0,0,1,.15-1,3.52,3.52,0,0,1,.35-.79ZM2.9,5.92l.5-.29.43-.25V8.05L3.4,7.73l-.5-.37-1.09-.8Z"/><path class="cls-1" d="M18.58,10.26a.17.17,0,0,1,0,.07h-.48a5,5,0,0,1-3.43,1.37h-.18a1.83,1.83,0,0,1-.33,0l-.17,0v-1l.27,0h.41a4,4,0,0,0,1.68-.37l.14-.07a4,4,0,0,0,.67-.43h1.42c-.09.11-.18.22-.28.32l-.12.11Z"/><path class="cls-1" d="M27.46,10.33a10.92,10.92,0,0,1-2.7,6.73l-2.57-2.65H18.26l.21-.34a8.35,8.35,0,0,0,2.1-1.57,8.23,8.23,0,0,0,1.53-2.17Z"/><path class="cls-1" d="M21.23,9.83a4.82,4.82,0,0,1-.27.5,7.38,7.38,0,0,1-1.11,1.47,6.17,6.17,0,0,1-.66.6,4.81,4.81,0,0,1-.71.5h0a6.65,6.65,0,0,1-.74.41,7.06,7.06,0,0,1-3.08.7h-.18L14,14v.92h8l2.79,2.87a11.34,11.34,0,0,0,3.2-8Zm3.53,7.23-2.57-2.65H18.26l.21-.34a8.35,8.35,0,0,0,2.1-1.57,8.23,8.23,0,0,0,1.53-2.17h5.36A10.92,10.92,0,0,1,24.76,17.06Z"/><path class="cls-2" d="M14.25,10.68l-.27,0-.22,0-.27-.07h0v1a4.37,4.37,0,0,0,.5.09l.17,0a1.83,1.83,0,0,0,.33,0v-1Zm4.32-.85h.53V9.76h-.47a3.11,3.11,0,0,0,.31-.43H17.68l-.11.12-.33.31-.09.07a4,4,0,0,1-.67.43l-.14.07h2.23a.17.17,0,0,0,0-.07h-.41l.12-.11C18.39,10.05,18.48,9.94,18.57,9.83Zm2.88-.5a4.46,4.46,0,0,1-.22.5,4.82,4.82,0,0,1-.27.5h6.5a10.92,10.92,0,0,1-2.7,6.73l-2.57-2.65H14.48V14L14,14l-.5-.07v1a9.23,9.23,0,0,0,1.18.08A8.45,8.45,0,0,0,16,14.91h.64a4.27,4.27,0,0,1-.36.38,1.49,1.49,0,0,1-.14.12h5.63l3,3.09.36-.37a11.85,11.85,0,0,0,3.34-8.3v-.5Z"/><path class="cls-1" d="M18.57,9.83h.53V9.76H17.24l-.09.07a4,4,0,0,1-.67.43l-.14.07a4,4,0,0,1-1.68.37h-.41l-.27,0-.22,0-.27-.07h-.05l-.27-.1a4,4,0,0,1-1.07-.63l2-2.06.35-.36-.7-.72L10.27,3.06v0a3.86,3.86,0,0,0-2.95-1.4A3.92,3.92,0,0,0,3.65,4.32a3.29,3.29,0,0,0-.19.7,6,6,0,0,0-.06.61V9.76a8,8,0,0,0,7.85,8.09,7.68,7.68,0,0,0,5.55-2.37.46.46,0,0,1,.07-.07c.15-.16.3-.33.44-.5l.33-.45,0-.05a6.59,6.59,0,0,0,.44-.72,7,7,0,0,0,.37-.78,6.65,6.65,0,0,1-.74.41,7.06,7.06,0,0,1-3.08.7h-.18L14,14l-.5-.07a7.15,7.15,0,0,1-3.67-1.78L11.4,10.5a4,4,0,0,0,.41.31,4.37,4.37,0,0,0,.4.25,3.94,3.94,0,0,0,.55.26,2.86,2.86,0,0,0,.41.15l.21.06.1,0a4.37,4.37,0,0,0,.5.09l.17,0a1.83,1.83,0,0,0,.33,0h.18a5,5,0,0,0,3.43-1.37h.48a.17.17,0,0,0,0-.07h-.41l.12-.11C18.39,10.05,18.48,9.94,18.57,9.83Zm-2.29,5.46a1.49,1.49,0,0,1-.14.12,7.14,7.14,0,0,1-4.89,1.94A7.47,7.47,0,0,1,3.9,9.76v-4a3.65,3.65,0,0,1,.15-1,3.52,3.52,0,0,1,.35-.79A3.34,3.34,0,0,1,9.89,3.4l.62.72,0-.08L13.4,7,10.69,9.8,8.41,12.15l.34.35a8.19,8.19,0,0,0,4.73,2.44,9.23,9.23,0,0,0,1.18.08A8.45,8.45,0,0,0,16,14.91h.64A4.27,4.27,0,0,1,16.28,15.29Z"/><path class="cls-1" d="M16.64,14.91a4.27,4.27,0,0,1-.36.38,1.49,1.49,0,0,1-.14.12,7.14,7.14,0,0,1-4.89,1.94A7.47,7.47,0,0,1,3.9,9.76v-4a3.65,3.65,0,0,1,.15-1,3.52,3.52,0,0,1,.35-.79A3.34,3.34,0,0,1,9.89,3.4l.62.72,0-.08L13.4,7,10.69,9.8,8.41,12.15l.34.35a8.19,8.19,0,0,0,4.73,2.44,9.23,9.23,0,0,0,1.18.08A8.45,8.45,0,0,0,16,14.91Z"/><path class="cls-2" d="M18.48,12.9h0a6.65,6.65,0,0,1-.74.41,6.52,6.52,0,0,1-.43.72,3.09,3.09,0,0,1-.26.37,2.6,2.6,0,0,1-.26.32,1.19,1.19,0,0,1-.15.18,4.27,4.27,0,0,1-.36.38,1.49,1.49,0,0,1-.14.12,7.14,7.14,0,0,1-4.89,1.94A7.47,7.47,0,0,1,3.9,9.76v-4a3.65,3.65,0,0,1,.15-1,3.52,3.52,0,0,1,.35-.79A3.34,3.34,0,0,1,9.89,3.4l.62.72,0-.08L13.4,7l.35.37.35.35.35-.36L14.8,7l-.35-.35-.35-.36L10.63,2.71l-.17-.17-.13-.13L10,2.1v0a4.35,4.35,0,0,0-2.69-.95A4.43,4.43,0,0,0,3,4.69H3a3.29,3.29,0,0,0-.1.64c0,.12,0,.25,0,.38v4a8.48,8.48,0,0,0,8.35,8.59,8.23,8.23,0,0,0,6.28-2.94c.14-.16.27-.33.4-.5a5.39,5.39,0,0,0,.33-.5l.21-.34a7.61,7.61,0,0,0,.4-.81h0a7.83,7.83,0,0,0,.32-.85A4.81,4.81,0,0,1,18.48,12.9ZM19.6,9.33V9.26H17.74l-.06.07-.11.12-.33.31-.09.07a4,4,0,0,1-.67.43h1.69l.12-.11c.1-.1.19-.21.28-.32h.53V9.76h-.47a3.11,3.11,0,0,0,.31-.43Z"/><path class="cls-1" d="M19.26,6c0-.12,0-.24,0-.36v0c0-.14,0-.27-.08-.41S19.07,5,19,4.86a1.75,1.75,0,0,0-.12-.32s0,0,0,0a0,0,0,0,0,0,0,2.26,2.26,0,0,0-.17-.35,2.5,2.5,0,0,0-.21-.35,4.65,4.65,0,0,0-.56-.7l-.35.36L14.45,6.65,14.1,7l-.35.37-2,2.07-.34.36.33.31.08.07.16.12,0,0a2.11,2.11,0,0,0,.31.21l.1.06a1.59,1.59,0,0,0,.29.15l.11,0a.71.71,0,0,0,.18.08l.24.09h0l.23.06a2.22,2.22,0,0,0,.5.1,2.12,2.12,0,0,0,.5,0,3.21,3.21,0,0,0,.62,0l.31,0,.31-.07.1,0,.09,0a1.14,1.14,0,0,0,.26-.09l.19-.06.34-.16a2.53,2.53,0,0,0,.23-.12,3.11,3.11,0,0,0,.38-.25l.09-.07.25-.2a2.73,2.73,0,0,0,.25-.23L18,9.76l.12-.14,0,0a2.23,2.23,0,0,0,.19-.24l0,0a.18.18,0,0,0,.05-.07l0-.06a2.33,2.33,0,0,0,.17-.26,6.16,6.16,0,0,0,.34-.68,2.32,2.32,0,0,0,.13-.37,4.12,4.12,0,0,0,.21-1.09c0-.13,0-.26,0-.39A2.42,2.42,0,0,0,19.26,6ZM18.75,7A4.07,4.07,0,0,1,18.48,8a4.15,4.15,0,0,1-.74,1.22l-.06.07-.11.12-.33.31-.09.07a4,4,0,0,1-.67.43l-.14.07a4,4,0,0,1-1.68.37h-.41l-.27,0-.22,0-.27-.07h-.05l-.27-.1a4,4,0,0,1-1.07-.63l2-2.06.35-.36L14.8,7l3.1-3.19.08.1.08.12a4.07,4.07,0,0,1,.42.8c0,.06.05.12.07.19l.06.2a3.15,3.15,0,0,1,.13.61,4.4,4.4,0,0,1,0,.81A1.73,1.73,0,0,1,18.75,7Z"/><path class="cls-2" d="M19.76,6c0-.12,0-.25,0-.37a.3.3,0,0,0,0-.1,2.38,2.38,0,0,0-.05-.26,3.11,3.11,0,0,0-.11-.41,1.43,1.43,0,0,0-.09-.27c0-.11-.08-.22-.13-.33a3,3,0,0,0-.2-.4,3.26,3.26,0,0,0-.24-.4,4.33,4.33,0,0,0-.27-.37c-.1-.13-.21-.25-.32-.37h0l-.35-.36-.7.72L14.1,6.29l-.35.35L13.4,7,10.69,9.8l.34.35h0a3.89,3.89,0,0,0,.36.34,4,4,0,0,0,.41.31,4.37,4.37,0,0,0,.4.25,3.94,3.94,0,0,0,.55.26,2.86,2.86,0,0,0,.41.15l.21.06.1,0h0a4.37,4.37,0,0,0,.5.09l.17,0a1.83,1.83,0,0,0,.33,0h.18a5,5,0,0,0,3.43-1.37.18.18,0,0,0,.08-.07l.12-.11c.1-.1.19-.21.28-.32l.06-.07a3.11,3.11,0,0,0,.31-.43.25.25,0,0,0,0-.07A5.28,5.28,0,0,0,19.76,6ZM17.68,9.33l-.11.12-.33.31-.09.07a4,4,0,0,1-.67.43l-.14.07a4,4,0,0,1-1.68.37h-.41l-.27,0-.22,0-.27-.07h-.05l-.27-.1a4,4,0,0,1-1.07-.63l2-2.06.35-.36L14.8,7l3.1-3.19h0a.26.26,0,0,1,.07.11l.08.12a4.07,4.07,0,0,1,.42.8c0,.06.05.12.07.19l.06.2a3.15,3.15,0,0,1,.13.61,4.4,4.4,0,0,1,0,.81,1.73,1.73,0,0,1,0,.32A4.07,4.07,0,0,1,18.48,8a4.15,4.15,0,0,1-.74,1.22Z"/><path class="cls-1" d="M18.78,6.64a1.73,1.73,0,0,1,0,.32A4.07,4.07,0,0,1,18.48,8a4.15,4.15,0,0,1-.74,1.22l-.06.07-.11.12-.33.31-.09.07a4,4,0,0,1-.67.43l-.14.07a4,4,0,0,1-1.68.37h-.41l-.27,0-.22,0-.27-.07h-.05l-.27-.1a4,4,0,0,1-1.07-.63l2-2.06.35-.36L14.8,7l3.1-3.19.08.1.08.12a4.07,4.07,0,0,1,.42.8c0,.06.05.12.07.19l.06.2c.05.2.1.41.13.61A4.4,4.4,0,0,1,18.78,6.64Z"/><path class="cls-1" d="M18.17,10.26a.18.18,0,0,1-.08.07h.48a.17.17,0,0,0,0-.07Zm2-9.55-1.93,2-.35.36a4.65,4.65,0,0,1,.56.7,2.5,2.5,0,0,1,.21.35,2.26,2.26,0,0,1,.17.35,0,0,0,0,1,0,0s0,0,0,0a1.75,1.75,0,0,1,.12.32,1.68,1.68,0,0,1,.12.38c0,.14.06.27.08.41a2.33,2.33,0,0,1,0,.38,2.42,2.42,0,0,1,0,.38c0,.13,0,.26,0,.39a4.12,4.12,0,0,1-.21,1.09,2.32,2.32,0,0,1-.13.37,3.6,3.6,0,0,1-.34.68,2.33,2.33,0,0,1-.17.26l0,.06a.18.18,0,0,1-.05.07l0,0a1.71,1.71,0,0,1-.21.26L18,9.76l-.07.07a2.73,2.73,0,0,1-.25.23,1.57,1.57,0,0,1-.25.2l-.09.07a3.11,3.11,0,0,1-.38.25,2.53,2.53,0,0,1-.23.12l-.34.16-.19.06a1.14,1.14,0,0,1-.26.09l-.09,0-.1,0a3.92,3.92,0,0,1-1.24.12,2.12,2.12,0,0,1-.5,0,2.22,2.22,0,0,1-.5-.1L13.25,11a3.76,3.76,0,0,1-.55-.23,1.59,1.59,0,0,1-.29-.15l-.1-.06a2.11,2.11,0,0,1-.31-.21,1.86,1.86,0,0,1-.28-.21l-.33-.31-.35.36-1.93,2a7.65,7.65,0,0,0,4.37,2.27,4,4,0,0,0,.5.06,6.82,6.82,0,0,0,1.91-.07A6.46,6.46,0,0,0,17.31,14a6.26,6.26,0,0,0,.8-.35,6.4,6.4,0,0,0,.76-.43h0a6.94,6.94,0,0,0,1.34-1.1,7.76,7.76,0,0,0,1.32-1.82,3.27,3.27,0,0,0,.24-.5,2.41,2.41,0,0,0,.21-.5A8.24,8.24,0,0,0,20.21.71Zm1.24,8.62a4.46,4.46,0,0,1-.22.5,4.82,4.82,0,0,1-.27.5,7.38,7.38,0,0,1-1.11,1.47,6.17,6.17,0,0,1-.66.6,4.81,4.81,0,0,1-.71.5h0a6.65,6.65,0,0,1-.74.41,7.06,7.06,0,0,1-3.08.7h-.18L14,14l-.5-.07a7.15,7.15,0,0,1-3.67-1.78L11.4,10.5a4,4,0,0,0,.41.31,4.37,4.37,0,0,0,.4.25,3.94,3.94,0,0,0,.55.26,2.86,2.86,0,0,0,.41.15l.21.06.1,0a4.37,4.37,0,0,0,.5.09l.17,0a1.83,1.83,0,0,0,.33,0h.18a5,5,0,0,0,3.43-1.37h.48a.17.17,0,0,0,0-.07h-.41l.12-.11c.1-.1.19-.21.28-.32h.53V9.76h-.47a3.11,3.11,0,0,0,.31-.43h.66V9.26H19A5.28,5.28,0,0,0,19.76,6c0-.12,0-.25,0-.37a.3.3,0,0,0,0-.1,2.38,2.38,0,0,0-.05-.26,3.11,3.11,0,0,0-.11-.41,1.43,1.43,0,0,0-.09-.27c0-.11-.08-.22-.13-.33a3,3,0,0,0-.2-.4,3.26,3.26,0,0,0-.24-.4,4.33,4.33,0,0,0-.27-.37L20.2,1.45A7.78,7.78,0,0,1,21.45,9.33Z"/><path class="cls-2" d="M20.57.37,20.21,0,17.93,2.34l-.7.72.34.35h0a2.37,2.37,0,0,1,.32.39l.08.1.08.12a4.07,4.07,0,0,1,.42.8c0,.06.05.12.07.19l.06.2a3.15,3.15,0,0,1,.13.61,4.4,4.4,0,0,1,0,.81,1.73,1.73,0,0,1,0,.32A4.07,4.07,0,0,1,18.48,8a4.15,4.15,0,0,1-.74,1.22l-.06.07-.11.12-.33.31-.09.07a4,4,0,0,1-.67.43l-.14.07a4,4,0,0,1-1.68.37h-.41l-.27,0-.22,0-.27-.07h-.05l-.27-.1a4,4,0,0,1-1.07-.63q-.18-.15-.36-.33h0l-.34-.35-.7.71L8.41,12.15l.34.35a8.19,8.19,0,0,0,4.73,2.44,9.23,9.23,0,0,0,1.18.08A8.45,8.45,0,0,0,16,14.91a7,7,0,0,0,.79-.18,6.45,6.45,0,0,0,.85-.27l.12-.05a6.59,6.59,0,0,0,.71-.34,8.35,8.35,0,0,0,2.1-1.57,8.23,8.23,0,0,0,1.53-2.17,3.16,3.16,0,0,0,.22-.5,3,3,0,0,0,.19-.5A8.74,8.74,0,0,0,20.57.37Zm.66,9.46a4.82,4.82,0,0,1-.27.5,7.38,7.38,0,0,1-1.11,1.47,6.17,6.17,0,0,1-.66.6,4.81,4.81,0,0,1-.71.5h0a6.65,6.65,0,0,1-.74.41,7.06,7.06,0,0,1-3.08.7h-.18L14,14l-.5-.07a7.15,7.15,0,0,1-3.67-1.78L11.4,10.5a4,4,0,0,0,.41.31,4.37,4.37,0,0,0,.4.25,3.94,3.94,0,0,0,.55.26,2.86,2.86,0,0,0,.41.15l.21.06.1,0a4.37,4.37,0,0,0,.5.09l.17,0a1.83,1.83,0,0,0,.33,0h.18a5,5,0,0,0,3.43-1.37.18.18,0,0,0,.08-.07l.12-.11c.1-.1.19-.21.28-.32l.06-.07a3.11,3.11,0,0,0,.31-.43.25.25,0,0,0,0-.07A5.28,5.28,0,0,0,19.76,6c0-.12,0-.25,0-.37a.3.3,0,0,0,0-.1,2.38,2.38,0,0,0-.05-.26,3.11,3.11,0,0,0-.11-.41,1.43,1.43,0,0,0-.09-.27c0-.11-.08-.22-.13-.33a3,3,0,0,0-.2-.4,3.26,3.26,0,0,0-.24-.4,4.33,4.33,0,0,0-.27-.37L20.2,1.45a7.78,7.78,0,0,1,1.25,7.88A4.46,4.46,0,0,1,21.23,9.83Z"/><path class="cls-1" d="M21.45,9.33a4.46,4.46,0,0,1-.22.5,4.82,4.82,0,0,1-.27.5,7.38,7.38,0,0,1-1.11,1.47,6.17,6.17,0,0,1-.66.6,4.81,4.81,0,0,1-.71.5h0a6.65,6.65,0,0,1-.74.41,7.06,7.06,0,0,1-3.08.7h-.18L14,14l-.5-.07a7.15,7.15,0,0,1-3.67-1.78L11.4,10.5a4,4,0,0,0,.41.31,4.37,4.37,0,0,0,.4.25,3.94,3.94,0,0,0,.55.26,2.86,2.86,0,0,0,.41.15l.21.06.1,0a4.37,4.37,0,0,0,.5.09l.17,0a1.83,1.83,0,0,0,.33,0h.18a5,5,0,0,0,3.43-1.37h.48a.17.17,0,0,0,0-.07h-.41l.12-.11c.1-.1.19-.21.28-.32h.53V9.76h-.47a3.11,3.11,0,0,0,.31-.43h.66V9.26H19A5.28,5.28,0,0,0,19.76,6c0-.12,0-.25,0-.37a.3.3,0,0,0,0-.1,2.38,2.38,0,0,0-.05-.26,3.11,3.11,0,0,0-.11-.41,1.43,1.43,0,0,0-.09-.27c0-.11-.08-.22-.13-.33a3,3,0,0,0-.2-.4,3.26,3.26,0,0,0-.24-.4,4.33,4.33,0,0,0-.27-.37L20.2,1.45A7.78,7.78,0,0,1,21.45,9.33Z"/></g></g></svg>