<svg xmlns="http://www.w3.org/2000/svg" viewBox="0 0 74.78 86.12"><defs><style>.cls-1{fill:#3280fa;}.cls-2{fill:#f2f2f2;}.cls-3{fill:#cadefe;}</style></defs><title>bld_6</title><g id="Layer_2" data-name="Layer 2"><g id="Layer_1-2" data-name="Layer 1"><path class="cls-1" d="M73.7,0H44.35a1.09,1.09,0,0,0-1.09,1.08V7.65H12.41a1.08,1.08,0,0,0-1.08,1.09V65H1.09A1.09,1.09,0,0,0,0,66.08V85a1.09,1.09,0,0,0,1.09,1.08H73.7A1.08,1.08,0,0,0,74.78,85v-84A1.08,1.08,0,0,0,73.7,0Z"/><path class="cls-2" d="M51.31,65H55V2.17h-3.7Zm-5.88,0h3.71V2.17H45.43ZM29.6,9.82H13.5v5.37H29.6ZM26.5,65H39.91V62.44H26.5Zm30.69,0h3.7V2.17h-3.7ZM68.94,2.17V84h3.67V2.17ZM63.06,65H64a1.09,1.09,0,0,1,1.09,1.09V84h1.68V2.17H63.06Z"/><path class="cls-3" d="M42.08,61.36V65h1.18V9.82H31.77V60.27H41A1.09,1.09,0,0,1,42.08,61.36ZM2.17,67.16V84H62.91V67.16Zm22.16-5.8a1.08,1.08,0,0,1,1.08-1.09H29.6V17.36H13.5V65H24.33Z"/><path class="cls-1" d="M73.7,0H44.35a1.09,1.09,0,0,0-1.09,1.08V7.65H12.41a1.08,1.08,0,0,0-1.08,1.09V65H1.09A1.09,1.09,0,0,0,0,66.08V85a1.09,1.09,0,0,0,1.09,1.08H73.7A1.08,1.08,0,0,0,74.78,85v-84A1.08,1.08,0,0,0,73.7,0ZM57.19,2.17h3.7V65h-3.7Zm-5.88,0H55V65h-3.7Zm-5.88,0h3.71V65H45.43ZM31.77,9.82H43.26V65H42.08V61.36A1.09,1.09,0,0,0,41,60.27H31.77Zm8.14,52.62V65H26.5V62.44ZM13.5,9.82H29.6v5.37H13.5Zm0,7.54H29.6V60.27H25.41a1.08,1.08,0,0,0-1.08,1.09V65H13.5ZM62.91,84H2.17V67.16H62.91Zm3.86,0H65.09V66.08A1.09,1.09,0,0,0,64,65h-.94V2.17h3.71Zm5.84,0H68.94V2.17h3.67Z"/></g></g></svg>