<svg xmlns="http://www.w3.org/2000/svg" viewBox="0 0 165.98 117.49"><defs><style>.cls-1{fill:#3280fa;}.cls-2{fill:#f2f2f2;}.cls-3{fill:#cadefe;}</style></defs><title>bld_14</title><g id="Layer_2" data-name="Layer 2"><g id="Layer_1-2" data-name="Layer 1"><path class="cls-1" d="M164.89,31.33H135.54a1.09,1.09,0,0,0-1.09,1.09V39H103.6a1.08,1.08,0,0,0-1.08,1.08V96.33H92.28a1.08,1.08,0,0,0-1.09,1.08v19a1.08,1.08,0,0,0,1.09,1.08h72.61a1.08,1.08,0,0,0,1.09-1.08V32.42A1.09,1.09,0,0,0,164.89,31.33Z"/><path class="cls-2" d="M142.5,96.33h3.71V33.5H142.5Zm-5.87,0h3.7V33.5h-3.7ZM120.79,41.15h-16.1v5.37h16.1Zm-3.1,55.18H131.1V93.77H117.69Zm30.69,0h3.7V33.5h-3.7ZM160.13,33.5v81.79h3.67V33.5Zm-5.87,62.83h.93a1.08,1.08,0,0,1,1.09,1.08v17.88H158V33.5h-3.7Z"/><path class="cls-3" d="M133.27,92.69v3.64h1.18V41.15H123V91.61h9.22A1.08,1.08,0,0,1,133.27,92.69Zm-39.9,5.8v16.8h60.74V98.49Zm22.15-5.8a1.08,1.08,0,0,1,1.09-1.08h4.18V48.69h-16.1V96.33h10.83Z"/><path class="cls-1" d="M164.89,31.33H135.54a1.09,1.09,0,0,0-1.09,1.09V39H103.6a1.08,1.08,0,0,0-1.08,1.08V96.33H92.28a1.08,1.08,0,0,0-1.09,1.08v19a1.08,1.08,0,0,0,1.09,1.08h72.61a1.08,1.08,0,0,0,1.09-1.08V32.42A1.09,1.09,0,0,0,164.89,31.33ZM148.38,33.5h3.7V96.33h-3.7Zm-5.88,0h3.71V96.33H142.5Zm-5.87,0h3.7V96.33h-3.7ZM123,41.15h11.48V96.33h-1.18V92.69a1.08,1.08,0,0,0-1.08-1.08H123Zm8.13,52.62v2.56H117.69V93.77ZM104.69,41.15h16.1v5.37h-16.1Zm0,7.54h16.1V91.61h-4.18a1.08,1.08,0,0,0-1.09,1.08v3.64H104.69Zm49.42,66.6H93.37V98.49h60.74Zm3.85,0h-1.68V97.41a1.08,1.08,0,0,0-1.09-1.08h-.93V33.5H158Zm5.84,0h-3.67V33.5h3.67Z"/><path class="cls-1" d="M92.28,53H83V47.6a1.09,1.09,0,0,0-1.09-1.08H79.59V25.72a1.08,1.08,0,0,0-1.09-1.08H52.26V1.08A1.08,1.08,0,0,0,51.18,0H1.09A1.09,1.09,0,0,0,0,1.08V116.39H0a1.09,1.09,0,0,0,1.09,1.09H51.18a1.17,1.17,0,0,0,.26,0H92.28a1.08,1.08,0,0,0,1.09-1.08V54.06A1.08,1.08,0,0,0,92.28,53Z"/><path class="cls-2" d="M7.92,80.83H21.81V71.58H7.92Zm0-45.91H21.81V2.17H7.92ZM7.92,58H21.81V48.51H7.92Zm0,11.42H21.81V60.16H7.92ZM24,103.9H31.4V94.42H24ZM7.92,46.34H21.81V37.09H7.92Zm16.06,69H31.4v-9.22H24Zm0-68.95H31.4V37.09H24ZM24,58H31.4V48.51H24Zm0,34.26H31.4V83H24Zm0-11.42H31.4V71.58H24Zm0-11.42H31.4V60.16H24ZM7.92,115.29H21.81v-9.22H7.92ZM2.17,103.9H5.75V94.42H2.17Zm0-11.65H5.75V83H2.17Zm0-11.42H5.75V71.58H2.17Zm75.24-54H64V46.52H77.41ZM2.17,69.41H5.75V60.16H2.17Zm0,45.88H5.75v-9.22H2.17Zm0-68.95H5.75V37.09H2.17ZM7.92,103.9H21.81V94.42H7.92ZM24,34.92H31.4V2.17H24Zm-21.81,0H5.75V2.17H2.17ZM2.17,58H5.75V48.51H2.17ZM7.92,92.25H21.81V83H7.92ZM33.57,58H40.5V48.51H33.57Zm24.57,57.3h3.7V55.15h-3.7ZM42.68,46.34h7.41V37.09H42.68ZM52.26,53H56V26.8H52.26ZM33.57,34.92H50.09V2.17H33.57ZM64,115.29h3.7V55.15H64Zm-11.76,0H56V55.15H52.26ZM58.14,53h3.7V26.8h-3.7Zm23.51,62.31h3.67V55.15H81.65Zm-11.76,0H73.6V55.15H69.89Zm17.6-60.14v60.14h3.7V55.15ZM75.77,115.29h3.7V55.15h-3.7ZM64,53H80.83V48.69H64ZM33.57,69.41H40.5V60.16H33.57Zm0,45.88H40.5v-9.22H33.57Zm0-68.95H40.5V37.09H33.57Zm0,34.49H40.5V71.58H33.57Zm0,11.42H40.5V83H33.57Zm0,11.65H40.5V94.42H33.57ZM42.68,58h7.41V48.51H42.68Zm0,11.42h7.41V60.16H42.68Zm0,11.42h7.41V71.58H42.68Zm0,34.46h7.41v-9.22H42.68Zm0-11.39h7.41V94.42H42.68Zm0-11.65h7.41V83H42.68Z"/><path class="cls-1" d="M92.28,53H83V47.6a1.09,1.09,0,0,0-1.09-1.08H79.59V25.72a1.08,1.08,0,0,0-1.09-1.08H52.26V1.08A1.08,1.08,0,0,0,51.18,0H1.09A1.09,1.09,0,0,0,0,1.08V116.39H0a1.09,1.09,0,0,0,1.09,1.09H51.18a1.17,1.17,0,0,0,.26,0H92.28a1.08,1.08,0,0,0,1.09-1.08V54.06A1.08,1.08,0,0,0,92.28,53ZM5.75,115.29H2.17v-9.22H5.75Zm0-11.39H2.17V94.42H5.75Zm0-11.65H2.17V83H5.75Zm0-11.42H2.17V71.58H5.75Zm0-11.42H2.17V60.16H5.75ZM5.75,58H2.17V48.51H5.75Zm0-11.65H2.17V37.09H5.75Zm0-11.42H2.17V2.17H5.75Zm16.06,80.37H7.92v-9.22H21.81Zm0-11.39H7.92V94.42H21.81Zm0-11.65H7.92V83H21.81Zm0-11.42H7.92V71.58H21.81Zm0-11.42H7.92V60.16H21.81Zm0-11.42H7.92V48.51H21.81Zm0-11.65H7.92V37.09H21.81Zm0-11.42H7.92V2.17H21.81Zm9.59,80.37H24v-9.22H31.4Zm0-11.39H24V94.42H31.4Zm0-11.65H24V83H31.4Zm0-11.42H24V71.58H31.4Zm0-11.42H24V60.16H31.4ZM31.4,58H24V48.51H31.4Zm0-11.65H24V37.09H31.4Zm0-11.42H24V2.17H31.4Zm9.1,80.37H33.57v-9.22H40.5Zm0-11.39H33.57V94.42H40.5Zm0-11.65H33.57V83H40.5Zm0-11.42H33.57V71.58H40.5Zm0-11.42H33.57V60.16H40.5ZM40.5,58H33.57V48.51H40.5Zm0-11.65H33.57V37.09H40.5Zm9.59,69H42.68v-9.22h7.41Zm0-11.39H42.68V94.42h7.41Zm0-11.65H42.68V83h7.41Zm0-11.42H42.68V71.58h7.41Zm0-11.42H42.68V60.16h7.41Zm0-11.42H42.68V48.51h7.41Zm0-11.65H42.68V37.09h7.41Zm0-11.42H33.57V2.17H50.09ZM56,115.29H52.26V55.15H56ZM56,53H52.26V26.8H56Zm5.87,62.31h-3.7V55.15h3.7Zm0-62.31h-3.7V26.8h3.7ZM64,26.8H77.41V46.52H64Zm3.7,88.49H64V55.15h3.7Zm5.88,0H69.89V55.15H73.6Zm5.87,0h-3.7V55.15h3.7ZM80.83,53H64V48.69H80.83Zm4.49,62.31H81.65V55.15h3.67Zm5.87,0h-3.7V55.15h3.7Z"/></g></g></svg>