<svg xmlns="http://www.w3.org/2000/svg" viewBox="0 0 129.68 125.02"><defs><style>.cls-1{fill:#3280fa;}.cls-2{fill:#cadefe;}.cls-3{fill:#f2f2f2;}</style></defs><title>bld_4</title><g id="Layer_2" data-name="Layer 2"><g id="Layer_1-2" data-name="Layer 1"><path class="cls-1" d="M129.68,71.16a1.09,1.09,0,0,0-1.09-1.09H114.16V43.54a1.09,1.09,0,0,0-.36-.81,1.12,1.12,0,0,0-.84-.27L61.85,48a1.08,1.08,0,0,0-1,1.08v3.44H54.42V41.83a1.08,1.08,0,0,0-1.09-1.08H30V33.61a1.08,1.08,0,0,0-1.08-1.08H18.83V1.08a1.09,1.09,0,0,0-2.17,0V32.53h-9V16a1.09,1.09,0,0,0-2.17,0v16.5H1.09A1.08,1.08,0,0,0,0,33.61V123.9A1.09,1.09,0,0,0,1.09,125h10a1.15,1.15,0,0,0,.26,0H29.67a1.15,1.15,0,0,0,.26,0h4.21a1.09,1.09,0,0,0,.26,0h78.67a1.09,1.09,0,0,0,.26,0h7.21a1.09,1.09,0,0,0,.26,0h7.79a1.08,1.08,0,0,0,1.09-1.08V71.16Z"/><rect class="cls-2" x="87.73" y="59.21" width="15.08" height="10.86"/><path class="cls-3" d="M72.38,58.35v-3.7H35.49v3.69H72.38Zm2.17-4.79V70.07h11V58.13A1.09,1.09,0,0,1,86.65,57H103.9A1.09,1.09,0,0,1,105,58.13V70.07h7V44.75L63.05,50v2.47H73.47A1.08,1.08,0,0,1,74.55,53.56ZM27.8,34.7H2.17v88.12H5.51v-81A1.08,1.08,0,0,1,6.6,40.75H27.8ZM72.38,64.22V60.5H35.49v3.7H72.38ZM52.25,42.92H35.49v9.56H52.25ZM35.49,87.67H60.88V84H35.49Zm0,5.86H60.88v-3.7H35.49Zm0-11.73H60.88V78.1H35.49Zm0-5.86H60.88v-3.7H35.49Zm85.31,0h6.7v-3.7H63.05v3.7H80.3a1.08,1.08,0,0,1,0,2.16H63.05v3.7H80.3a1.09,1.09,0,0,1,0,2.17H63.05v3.7H80.3a1.08,1.08,0,1,1,0,2.16H63.05v3.7H80.3a1.09,1.09,0,0,1,0,2.17H63.05v3.7H80.3a1.08,1.08,0,0,1,0,2.16H63.05v3.7H80.3a1.09,1.09,0,0,1,0,2.17H63.05v3.7H80.3a1.08,1.08,0,1,1,0,2.16H63.05V117H80.3a1.09,1.09,0,0,1,0,2.17H63.05v3.66H127.5v-3.66h-6.7a1.09,1.09,0,1,1,0-2.17h6.7v-3.7h-6.7a1.08,1.08,0,1,1,0-2.16h6.7v-3.7h-6.7a1.09,1.09,0,1,1,0-2.17h6.7v-3.7h-6.7a1.08,1.08,0,1,1,0-2.16h6.7V95.7h-6.7a1.09,1.09,0,1,1,0-2.17h6.7v-3.7h-6.7a1.08,1.08,0,1,1,0-2.16h6.7V84h-6.7a1.09,1.09,0,1,1,0-2.17h6.7V78.1h-6.7a1.08,1.08,0,1,1,0-2.16Zm-7.73,43.22H94.74a1.09,1.09,0,1,1,0-2.17h18.33a1.09,1.09,0,1,1,0,2.17Zm0-5.87H94.74a1.08,1.08,0,1,1,0-2.16h18.33a1.08,1.08,0,1,1,0,2.16Zm0-5.86H94.74a1.09,1.09,0,1,1,0-2.17h18.33a1.09,1.09,0,1,1,0,2.17Zm0-5.87H94.74a1.08,1.08,0,1,1,0-2.16h18.33a1.08,1.08,0,1,1,0,2.16Zm0-5.86H94.74a1.09,1.09,0,1,1,0-2.17h18.33a1.09,1.09,0,1,1,0,2.17Zm0-5.87H94.74a1.08,1.08,0,1,1,0-2.16h18.33a1.08,1.08,0,1,1,0,2.16Zm0-5.86H94.74a1.09,1.09,0,1,1,0-2.17h18.33a1.09,1.09,0,1,1,0,2.17Zm0-5.87H94.74a1.08,1.08,0,1,1,0-2.16h18.33a1.08,1.08,0,1,1,0,2.16ZM72.38,66.36H35.49v3.7H72.38ZM35.49,117H60.88v-3.7H35.49Zm0,5.83H60.88v-3.66H35.49Zm-27.81,0H33.31V42.92H7.68Zm3.65-76.21H29.67a1.09,1.09,0,0,1,0,2.17H11.33a1.09,1.09,0,0,1,0-2.17Zm0,5.87H29.67a1.09,1.09,0,0,1,0,2.17H11.33a1.09,1.09,0,0,1,0-2.17Zm0,5.86H29.67a1.09,1.09,0,0,1,0,2.17H11.33a1.09,1.09,0,0,1,0-2.17Zm0,5.87H29.67a1.08,1.08,0,1,1,0,2.16H11.33a1.08,1.08,0,0,1,0-2.16Zm0,5.86H29.67a1.09,1.09,0,0,1,0,2.17H11.33a1.09,1.09,0,0,1,0-2.17Zm0,5.87H29.67a1.08,1.08,0,0,1,0,2.16H11.33a1.08,1.08,0,0,1,0-2.16Zm0,5.86H29.67a1.09,1.09,0,0,1,0,2.17H11.33a1.09,1.09,0,0,1,0-2.17Zm0,5.87H29.67a1.08,1.08,0,1,1,0,2.16H11.33a1.08,1.08,0,0,1,0-2.16Zm0,5.86H29.67a1.09,1.09,0,0,1,0,2.17H11.33a1.09,1.09,0,0,1,0-2.17Zm0,5.87H29.67a1.08,1.08,0,0,1,0,2.16H11.33a1.08,1.08,0,0,1,0-2.16Zm0,5.86H29.67a1.09,1.09,0,0,1,0,2.17H11.33a1.09,1.09,0,0,1,0-2.17Zm0,5.87H29.67a1.08,1.08,0,1,1,0,2.16H11.33a1.08,1.08,0,0,1,0-2.16Zm0,5.86H29.67a1.09,1.09,0,0,1,0,2.17H11.33a1.09,1.09,0,0,1,0-2.17Zm24.16-5.86H60.88v-3.7H35.49Zm0-5.87H60.88v-3.7H35.49Zm0-5.86H60.88V95.7H35.49Z"/><path class="cls-1" d="M11.33,84H29.67a1.09,1.09,0,0,0,0-2.17H11.33a1.09,1.09,0,0,0,0,2.17Zm0-5.87H29.67a1.08,1.08,0,0,0,0-2.16H11.33a1.08,1.08,0,0,0,0,2.16Zm0-5.86H29.67a1.09,1.09,0,0,0,0-2.17H11.33a1.09,1.09,0,0,0,0,2.17Zm0-5.87H29.67a1.08,1.08,0,1,0,0-2.16H11.33a1.08,1.08,0,0,0,0,2.16Zm0,23.46H29.67a1.08,1.08,0,1,0,0-2.16H11.33a1.08,1.08,0,0,0,0,2.16Zm0,29.33H29.67a1.09,1.09,0,0,0,0-2.17H11.33a1.09,1.09,0,0,0,0,2.17Zm0-5.87H29.67a1.08,1.08,0,1,0,0-2.16H11.33a1.08,1.08,0,0,0,0,2.16Zm0-52.78H29.67a1.09,1.09,0,0,0,0-2.17H11.33a1.09,1.09,0,0,0,0,2.17Zm0,46.92H29.67a1.09,1.09,0,0,0,0-2.17H11.33a1.09,1.09,0,0,0,0,2.17Zm0-5.87H29.67a1.08,1.08,0,0,0,0-2.16H11.33a1.08,1.08,0,0,0,0,2.16Zm0-5.86H29.67a1.09,1.09,0,0,0,0-2.17H11.33a1.09,1.09,0,0,0,0,2.17Zm83.41,11.73h18.33a1.09,1.09,0,1,0,0-2.17H94.74a1.09,1.09,0,1,0,0,2.17ZM11.33,54.65H29.67a1.09,1.09,0,0,0,0-2.17H11.33a1.09,1.09,0,0,0,0,2.17Zm83.41,58.64h18.33a1.08,1.08,0,1,0,0-2.16H94.74a1.08,1.08,0,1,0,0,2.16Zm0,5.87h18.33a1.09,1.09,0,1,0,0-2.17H94.74a1.09,1.09,0,1,0,0,2.17Zm0-23.46h18.33a1.09,1.09,0,1,0,0-2.17H94.74a1.09,1.09,0,1,0,0,2.17Zm0,5.86h18.33a1.08,1.08,0,1,0,0-2.16H94.74a1.08,1.08,0,1,0,0,2.16Zm0-11.73h18.33a1.08,1.08,0,1,0,0-2.16H94.74a1.08,1.08,0,1,0,0,2.16Zm34.94-18.67a1.09,1.09,0,0,0-1.09-1.09H114.16V43.54a1.09,1.09,0,0,0-.36-.81,1.12,1.12,0,0,0-.84-.27L61.85,48a1.08,1.08,0,0,0-1,1.08v3.44H54.42V41.83a1.08,1.08,0,0,0-1.09-1.08H30V33.61a1.08,1.08,0,0,0-1.08-1.08H18.83V1.08a1.09,1.09,0,0,0-2.17,0V32.53h-9V16a1.09,1.09,0,0,0-2.17,0v16.5H1.09A1.08,1.08,0,0,0,0,33.61V123.9A1.09,1.09,0,0,0,1.09,125h10a1.15,1.15,0,0,0,.26,0H29.67a1.15,1.15,0,0,0,.26,0h4.21a1.09,1.09,0,0,0,.26,0h78.67a1.09,1.09,0,0,0,.26,0h7.21a1.09,1.09,0,0,0,.26,0h7.79a1.08,1.08,0,0,0,1.09-1.08V71.16ZM5.51,41.83v81H2.17V34.7H27.8v6H6.6A1.08,1.08,0,0,0,5.51,41.83Zm27.8,81H7.68V42.92H33.31ZM63.05,50,112,44.75V70.07h-7V58.13A1.09,1.09,0,0,0,103.9,57H86.65a1.09,1.09,0,0,0-1.09,1.09V70.07h-11V53.56a1.08,1.08,0,0,0-1.08-1.08H63.05Zm39.77,9.2V70.07H87.73V59.21ZM35.49,42.92H52.25v9.56H35.49Zm0,11.73H72.38v3.7H35.49Zm0,5.86H72.38v3.72H35.49Zm0,5.86H72.38v3.71H35.49Zm25.39,56.45H35.49v-3.66H60.88Zm0-5.83H35.49v-3.7H60.88Zm0-5.86H35.49v-3.7H60.88Zm0-5.87H35.49v-3.7H60.88Zm0-5.86H35.49V95.7H60.88Zm0-5.87H35.49v-3.7H60.88Zm0-5.86H35.49V84H60.88Zm0-5.87H35.49V78.1H60.88Zm0-5.86H35.49v-3.7H60.88Zm66.62,0h-6.7a1.08,1.08,0,1,0,0,2.16h6.7v3.7h-6.7a1.09,1.09,0,1,0,0,2.17h6.7v3.7h-6.7a1.08,1.08,0,1,0,0,2.16h6.7v3.7h-6.7a1.09,1.09,0,1,0,0,2.17h6.7v3.7h-6.7a1.08,1.08,0,1,0,0,2.16h6.7v3.7h-6.7a1.09,1.09,0,1,0,0,2.17h6.7v3.7h-6.7a1.08,1.08,0,1,0,0,2.16h6.7V117h-6.7a1.09,1.09,0,1,0,0,2.17h6.7v3.66H63.05v-3.66H80.3a1.09,1.09,0,0,0,0-2.17H63.05v-3.7H80.3a1.08,1.08,0,1,0,0-2.16H63.05v-3.7H80.3a1.09,1.09,0,0,0,0-2.17H63.05v-3.7H80.3a1.08,1.08,0,0,0,0-2.16H63.05V95.7H80.3a1.09,1.09,0,0,0,0-2.17H63.05v-3.7H80.3a1.08,1.08,0,1,0,0-2.16H63.05V84H80.3a1.09,1.09,0,0,0,0-2.17H63.05V78.1H80.3a1.08,1.08,0,0,0,0-2.16H63.05v-3.7H127.5ZM11.33,48.78H29.67a1.09,1.09,0,0,0,0-2.17H11.33a1.09,1.09,0,0,0,0,2.17ZM94.74,84h18.33a1.09,1.09,0,1,0,0-2.17H94.74a1.09,1.09,0,1,0,0,2.17Zm0-5.87h18.33a1.08,1.08,0,1,0,0-2.16H94.74a1.08,1.08,0,1,0,0,2.16Z"/></g></g></svg>