<svg xmlns="http://www.w3.org/2000/svg" viewBox="0 0 260.41 159.55"><defs><style>.cls-1{fill:#3280fa;}.cls-2{fill:#cadefe;}.cls-3{fill:#f2f2f2;}</style></defs><title>bld_12</title><g id="Layer_2" data-name="Layer 2"><g id="Layer_1-2" data-name="Layer 1"><path class="cls-1" d="M191.44,140.76H157.1V82.17A1.09,1.09,0,0,0,156,81.08H133.59V17.75a1.09,1.09,0,0,0-1.09-1.09h-40V1.08A1.08,1.08,0,0,0,91.44,0H49.73a1.08,1.08,0,0,0-1.08,1.08V28.36H1.09A1.08,1.08,0,0,0,0,29.44v129a1.09,1.09,0,0,0,1.09,1.08H191.44a1.08,1.08,0,0,0,1.08-1.08V141.84A1.08,1.08,0,0,0,191.44,140.76Z"/><path class="cls-2" d="M157.1,142.93v14.45h33.25V142.93ZM2.17,157.38H35.23V142H2.17ZM92.52,34.22h38.9V24.7H92.52Z"/><path class="cls-3" d="M145.34,157.38h3.71V83.25h-3.71Zm5.88-74.13v74.13h3.7V83.25ZM65.3,2.17h-2V4.93h2Zm4.2,0h-2V4.93h2Zm-12.61,0h-2V4.93h2Zm82.58,155.21h3.7V83.25h-3.7ZM61.09,2.17h-2V4.93h2Zm12.61,0h-2V4.93h2Zm34.74,134.77h-6.87v8.5h6.87ZM76.87,89.21H53.78a1.09,1.09,0,1,1,0-2.17H75.92l-5.69-3.7H53.78a1.09,1.09,0,1,1,0-2.17H66.9l-5.69-3.69H53.78a1.09,1.09,0,1,1,0-2.17h7.49a1.33,1.33,0,0,1,.21,0H90.35V2.17H88.48V6A1.08,1.08,0,0,1,87.39,7.1H53.78A1.08,1.08,0,0,1,52.69,6V2.17H50.82V90.89H76.87ZM53.78,10.8H87.39a1.09,1.09,0,1,1,0,2.17H53.78a1.09,1.09,0,1,1,0-2.17Zm0,5.86H87.39a1.09,1.09,0,1,1,0,2.17H53.78a1.09,1.09,0,1,1,0-2.17Zm0,5.87H87.39a1.09,1.09,0,1,1,0,2.17H53.78a1.09,1.09,0,1,1,0-2.17Zm0,5.86H87.39a1.09,1.09,0,1,1,0,2.17H53.78a1.09,1.09,0,1,1,0-2.17Zm0,5.87H87.39a1.08,1.08,0,1,1,0,2.16H53.78a1.08,1.08,0,1,1,0-2.16Zm0,5.86H87.39a1.09,1.09,0,1,1,0,2.17H53.78a1.09,1.09,0,1,1,0-2.17Zm0,5.87H87.39a1.08,1.08,0,1,1,0,2.16H53.78a1.08,1.08,0,1,1,0-2.16Zm0,5.86H87.39a1.09,1.09,0,1,1,0,2.17H53.78a1.09,1.09,0,1,1,0-2.17Zm0,5.87H87.39a1.08,1.08,0,1,1,0,2.16H53.78a1.08,1.08,0,1,1,0-2.16Zm0,5.86H87.39a1.09,1.09,0,1,1,0,2.17H53.78a1.09,1.09,0,1,1,0-2.17Zm0,5.87H87.39a1.08,1.08,0,1,1,0,2.16H53.78a1.08,1.08,0,1,1,0-2.16Zm79.81,21.44h3.7V83.25h-3.7Zm-25.15,35.39h-6.87v8.5h6.87Zm-62.86,31.1h91.71V93.06H45.58Zm4.79-20.44a1.08,1.08,0,1,1,0-2.16h3.8v-8.5h-3.8a1.09,1.09,0,1,1,0-2.17h3.8v-8.5h-3.8a1.09,1.09,0,1,1,0-2.17h3.8v-8.5h-3.8a1.08,1.08,0,1,1,0-2.16h3.8V97.34a1.09,1.09,0,0,1,2.17,0v5.44h6.88V97.34a1.09,1.09,0,0,1,2.17,0v5.44h6.87V97.34a1.09,1.09,0,0,1,2.17,0v5.44h6.88V97.34a1.09,1.09,0,0,1,2.17,0v5.44h6.87V97.34a1.09,1.09,0,0,1,2.17,0v5.44h6.87V97.34a1.09,1.09,0,0,1,2.18,0v5.44h6.87V97.34a1.09,1.09,0,0,1,2.17,0v5.44h6.87V97.34a1.09,1.09,0,0,1,2.18,0v5.44h6.87V97.34a1.09,1.09,0,0,1,2.17,0v5.44h3.8a1.08,1.08,0,1,1,0,2.16h-3.8v8.5h3.8a1.09,1.09,0,1,1,0,2.17h-3.8v8.5h3.8a1.09,1.09,0,1,1,0,2.17h-3.8v8.5h3.8a1.08,1.08,0,1,1,0,2.16h-3.8v8.5h3.8a1.09,1.09,0,1,1,0,2.17h-3.8v5.49a1.09,1.09,0,0,1-2.17,0v-5.49h-6.87v5.49a1.09,1.09,0,0,1-2.18,0v-5.49h-6.87v5.49a1.09,1.09,0,0,1-2.17,0v-5.49h-6.87v5.49a1.09,1.09,0,0,1-2.18,0v-5.49H92.52v5.49a1.09,1.09,0,0,1-2.17,0v-5.49H83.48v5.49a1.09,1.09,0,0,1-2.17,0v-5.49H74.43v5.49a1.09,1.09,0,0,1-2.17,0v-5.49H65.39v5.49a1.09,1.09,0,0,1-2.17,0v-5.49H56.34v5.49a1.09,1.09,0,0,1-2.17,0v-5.49h-3.8a1.09,1.09,0,1,1,0-2.17h3.8v-8.5Zm58.07-32h-6.87v8.5h6.87Zm0,10.67h-6.87v8.5h6.87Zm-10-79.22V75.28h3.7V36.39ZM65.13,77.44,78.28,86h26.31l13.15-8.55ZM108,90.89V86.37l-2,1.29v3.23Zm5.88,0V82.55L110.15,85v5.93Zm-10,0V88.15H79v2.74Zm27.59,0V36.39h-3.67v54.5Zm0-72.06H92.52v3.7h38.9ZM2.17,139.79H5.88V30.53H2.17ZM122,77.27l-.08,0V90.89h3.67V36.39h-3.67v39a1.07,1.07,0,0,1,.08,1.85ZM110.15,36.39V75.28h3.71V36.39Zm-13.92,0H92.52V75.28h3.71ZM86.31,2.17h-2V4.93h2Zm-4.21,0h-2V4.93h2Zm22.18,34.22V75.28H108V36.39ZM77.9,2.17h-2V4.93h2Zm41.83,34.22H116V75.28h3.7Zm0,42.34L116,81.14v9.75h3.7ZM72.26,136.94H65.39v8.5h6.87Zm27.13-10.66H92.52v8.5h6.87Zm-9-21.34H83.48v8.5h6.87Zm9,32H92.52v8.5h6.87Zm0-32H92.52v8.5h6.87Zm0,10.67H92.52v8.5h6.87ZM8.05,139.79h3.7V30.53H8.05Zm82.3-24.18H83.48v8.5h6.87Zm0,10.67H83.48v8.5h6.87Zm0,10.66H83.48v8.5h6.87Zm27.13-21.33h-6.87v8.5h6.87Zm0,10.67h-6.87v8.5h6.87Zm9-21.34h-6.87v8.5h6.87Zm-9,0h-6.87v8.5h6.87Zm9,32h-6.87v8.5h6.87Zm0-21.33h-6.87v8.5h6.87Zm0,10.67h-6.87v8.5h6.87ZM81.31,104.94H74.43v8.5h6.88ZM48.65,89.17H40.84a1.09,1.09,0,1,1,0-2.17h7.81V83.31H40.84a1.09,1.09,0,1,1,0-2.17h7.81v-3.7H40.84a1.08,1.08,0,1,1,0-2.16h7.81v-3.7H40.84a1.09,1.09,0,1,1,0-2.17h7.81v-3.7H40.84a1.08,1.08,0,1,1,0-2.16h7.81v-3.7H40.84a1.09,1.09,0,1,1,0-2.17h7.81V54H40.84a1.08,1.08,0,1,1,0-2.16h7.81v-3.7H40.84a1.09,1.09,0,1,1,0-2.17h7.81v-3.7H40.84a1.08,1.08,0,1,1,0-2.16h7.81v-3.7H40.84a1.09,1.09,0,1,1,0-2.17h7.81V30.53H37.4V157.38h6v-3.7H40.84a1.08,1.08,0,1,1,0-2.16h2.57v-3.7H40.84a1.09,1.09,0,1,1,0-2.17h2.57V142H40.84a1.09,1.09,0,1,1,0-2.17h2.57v-3.7H40.84a1.09,1.09,0,1,1,0-2.17h2.57v-3.69H40.84a1.09,1.09,0,1,1,0-2.17h2.57v-3.7H40.84a1.09,1.09,0,1,1,0-2.17h2.57V118.5H40.84a1.09,1.09,0,1,1,0-2.17h2.57v-3.7H40.84a1.09,1.09,0,1,1,0-2.17h2.57v-3.69H40.84a1.09,1.09,0,1,1,0-2.17h2.57v-3.7H40.84a1.09,1.09,0,1,1,0-2.17h2.57V95H40.84a1.09,1.09,0,1,1,0-2.17h2.57V92a1.08,1.08,0,0,1,1.08-1.08h4.16Zm14.57,47.77H56.34v8.5h6.88Zm-31.66,2.85h3.67V30.53H31.56Zm31.66-24.18H56.34v8.5h6.88Zm0,10.67H56.34v8.5h6.88ZM13.93,139.79h3.7V30.53h-3.7Zm5.87,0h3.71V30.53H19.8Zm5.88,0h3.7V30.53h-3.7Zm55.63-24.18H74.43v8.5h6.88Zm0,21.33H74.43v8.5h6.88Zm0-10.66H74.43v8.5h6.88Zm-9-21.34H65.39v8.5h6.87Zm-9,0H56.34v8.5h6.88Zm9,10.67H65.39v8.5h6.87Zm45.22,21.33h-6.87v8.5h6.87ZM72.26,126.28H65.39v8.5h6.87Z"/><path class="cls-1" d="M53.78,71.61H87.39a1.08,1.08,0,1,0,0-2.16H53.78a1.08,1.08,0,1,0,0,2.16Zm137.66,69.15H157.1V82.17A1.09,1.09,0,0,0,156,81.08H133.59V17.75a1.09,1.09,0,0,0-1.09-1.09h-40V1.08A1.08,1.08,0,0,0,91.44,0H49.73a1.08,1.08,0,0,0-1.08,1.08V28.36H1.09A1.08,1.08,0,0,0,0,29.44v129a1.09,1.09,0,0,0,1.09,1.08H191.44a1.08,1.08,0,0,0,1.08-1.08V141.84A1.08,1.08,0,0,0,191.44,140.76ZM92.52,18.83h38.9v3.7H92.52Zm0,5.87h38.9v9.52H92.52Zm38.9,11.69v54.5h-3.67V36.39Zm-9,39.66a1.11,1.11,0,0,0-.53-.63v-39h3.67v54.5h-3.67V77.32l.08,0A1.1,1.1,0,0,0,122.44,76.05Zm-2.71-39.66V75.28H116V36.39Zm-5.87,0V75.28h-3.71V36.39Zm-5.88,0V75.28h-3.7V36.39Zm-5.88,0V75.28H98.4V36.39Zm-9.58,0h3.71V75.28H92.52Zm25.22,41.05L104.59,86H78.28L65.13,77.44Zm2,1.29V90.89H116V81.14Zm-5.87,3.82v8.34h-3.71V85ZM108,86.37v4.52h-2V87.66Zm-4.15,1.78v2.74H79V88.15Zm-19.55-86h2V4.93h-2Zm-4.21,0h2V4.93h-2Zm-4.2,0h2V4.93h-2Zm-4.2,0h2V4.93h-2Zm-4.2,0h2V4.93h-2Zm-4.2,0h2V4.93h-2Zm-4.2,0h2V4.93h-2Zm-4.21,0h2V4.93h-2Zm-4,0h1.87V6A1.08,1.08,0,0,0,53.78,7.1H87.39A1.08,1.08,0,0,0,88.48,6V2.17h1.87V75.28H61.48a1.33,1.33,0,0,0-.21,0H53.78a1.09,1.09,0,1,0,0,2.17h7.43l5.69,3.69H53.78a1.09,1.09,0,1,0,0,2.17H70.23L75.92,87H53.78a1.09,1.09,0,1,0,0,2.17H76.87v1.68H50.82ZM25.68,30.53h3.7V139.79h-3.7Zm-5.88,0h3.71V139.79H19.8Zm-5.87,0h3.7V139.79h-3.7Zm-5.88,0h3.7V139.79H8.05Zm-5.88,0H5.88V139.79H2.17ZM35.23,157.38H2.17V142H35.23Zm0-17.59H31.56V30.53h3.67ZM43.41,92v.9H40.84a1.09,1.09,0,1,0,0,2.17h2.57v3.69H40.84a1.09,1.09,0,1,0,0,2.17h2.57v3.7H40.84a1.09,1.09,0,1,0,0,2.17h2.57v3.69H40.84a1.09,1.09,0,1,0,0,2.17h2.57v3.7H40.84a1.09,1.09,0,1,0,0,2.17h2.57v3.69H40.84a1.09,1.09,0,1,0,0,2.17h2.57v3.7H40.84a1.09,1.09,0,1,0,0,2.17h2.57v3.69H40.84a1.09,1.09,0,1,0,0,2.17h2.57v3.7H40.84a1.09,1.09,0,1,0,0,2.17h2.57v3.69H40.84a1.09,1.09,0,1,0,0,2.17h2.57v3.7H40.84a1.08,1.08,0,1,0,0,2.16h2.57v3.7h-6V30.53H48.65v3.69H40.84a1.09,1.09,0,1,0,0,2.17h7.81v3.7H40.84a1.08,1.08,0,1,0,0,2.16h7.81V46H40.84a1.09,1.09,0,1,0,0,2.17h7.81v3.7H40.84a1.08,1.08,0,1,0,0,2.16h7.81v3.7H40.84a1.09,1.09,0,1,0,0,2.17h7.81v3.7H40.84a1.08,1.08,0,1,0,0,2.16h7.81v3.7H40.84a1.09,1.09,0,1,0,0,2.17h7.81v3.7H40.84a1.08,1.08,0,1,0,0,2.16h7.81v3.7H40.84a1.09,1.09,0,1,0,0,2.17h7.81V87H40.84a1.09,1.09,0,1,0,0,2.17h7.81v1.72H44.49A1.08,1.08,0,0,0,43.41,92Zm93.88,65.41H45.58V93.06h91.71Zm0-66.49h-3.7V83.25h3.7Zm5.88,66.49h-3.7V83.25h3.7Zm5.88,0h-3.71V83.25h3.71Zm5.87,0h-3.7V83.25h3.7Zm35.43,0H157.1V142.93h33.25Zm-140-11.94a1.09,1.09,0,1,0,0,2.17h3.8v5.49a1.09,1.09,0,0,0,2.17,0v-5.49h6.88v5.49a1.09,1.09,0,0,0,2.17,0v-5.49h6.87v5.49a1.09,1.09,0,0,0,2.17,0v-5.49h6.88v5.49a1.09,1.09,0,0,0,2.17,0v-5.49h6.87v5.49a1.09,1.09,0,0,0,2.17,0v-5.49h6.87v5.49a1.09,1.09,0,0,0,2.18,0v-5.49h6.87v5.49a1.09,1.09,0,0,0,2.17,0v-5.49h6.87v5.49a1.09,1.09,0,0,0,2.18,0v-5.49h6.87v5.49a1.09,1.09,0,0,0,2.17,0v-5.49h3.8a1.09,1.09,0,1,0,0-2.17h-3.8v-8.5h3.8a1.08,1.08,0,1,0,0-2.16h-3.8v-8.5h3.8a1.09,1.09,0,1,0,0-2.17h-3.8v-8.5h3.8a1.09,1.09,0,1,0,0-2.17h-3.8v-8.5h3.8a1.08,1.08,0,1,0,0-2.16h-3.8V97.34a1.09,1.09,0,0,0-2.17,0v5.44h-6.87V97.34a1.09,1.09,0,0,0-2.18,0v5.44h-6.87V97.34a1.09,1.09,0,0,0-2.17,0v5.44h-6.87V97.34a1.09,1.09,0,0,0-2.18,0v5.44H92.52V97.34a1.09,1.09,0,0,0-2.17,0v5.44H83.48V97.34a1.09,1.09,0,0,0-2.17,0v5.44H74.43V97.34a1.09,1.09,0,0,0-2.17,0v5.44H65.39V97.34a1.09,1.09,0,0,0-2.17,0v5.44H56.34V97.34a1.09,1.09,0,0,0-2.17,0v5.44h-3.8a1.08,1.08,0,1,0,0,2.16h3.8v8.5h-3.8a1.09,1.09,0,1,0,0,2.17h3.8v8.5h-3.8a1.09,1.09,0,1,0,0,2.17h3.8v8.5h-3.8a1.08,1.08,0,1,0,0,2.16h3.8v8.5Zm69.29-40.5h6.87v8.5h-6.87Zm0,10.67h6.87v8.5h-6.87Zm0,10.67h6.87v8.5h-6.87Zm0,10.66h6.87v8.5h-6.87Zm-9-32h6.87v8.5h-6.87Zm0,10.67h6.87v8.5h-6.87Zm0,10.67h6.87v8.5h-6.87Zm0,10.66h6.87v8.5h-6.87Zm-9-32h6.87v8.5h-6.87Zm0,10.67h6.87v8.5h-6.87Zm0,10.67h6.87v8.5h-6.87Zm0,10.66h6.87v8.5h-6.87Zm-9-32h6.87v8.5H92.52Zm0,10.67h6.87v8.5H92.52Zm0,10.67h6.87v8.5H92.52Zm0,10.66h6.87v8.5H92.52Zm-9-32h6.87v8.5H83.48Zm0,10.67h6.87v8.5H83.48Zm0,10.67h6.87v8.5H83.48Zm0,10.66h6.87v8.5H83.48Zm-9-32h6.88v8.5H74.43Zm0,10.67h6.88v8.5H74.43Zm0,10.67h6.88v8.5H74.43Zm0,10.66h6.88v8.5H74.43Zm-9-32h6.87v8.5H65.39Zm0,10.67h6.87v8.5H65.39Zm0,10.67h6.87v8.5H65.39Zm0,10.66h6.87v8.5H65.39Zm-9-32h6.88v8.5H56.34Zm0,10.67h6.88v8.5H56.34Zm0,10.67h6.88v8.5H56.34Zm0,10.66h6.88v8.5H56.34ZM53.78,42.29H87.39a1.09,1.09,0,1,0,0-2.17H53.78a1.09,1.09,0,1,0,0,2.17Zm0-17.59H87.39a1.09,1.09,0,1,0,0-2.17H53.78a1.09,1.09,0,1,0,0,2.17Zm0,5.86H87.39a1.09,1.09,0,1,0,0-2.17H53.78a1.09,1.09,0,1,0,0,2.17Zm0-11.73H87.39a1.09,1.09,0,1,0,0-2.17H53.78a1.09,1.09,0,1,0,0,2.17Zm0-5.86H87.39a1.09,1.09,0,1,0,0-2.17H53.78a1.09,1.09,0,1,0,0,2.17Zm0,41.05H87.39a1.09,1.09,0,1,0,0-2.17H53.78a1.09,1.09,0,1,0,0,2.17Zm0,5.86H87.39a1.08,1.08,0,1,0,0-2.16H53.78a1.08,1.08,0,1,0,0,2.16Zm0-23.46H87.39a1.08,1.08,0,1,0,0-2.16H53.78a1.08,1.08,0,1,0,0,2.16Zm0,29.33H87.39a1.09,1.09,0,1,0,0-2.17H53.78a1.09,1.09,0,1,0,0,2.17Zm0-17.6H87.39a1.08,1.08,0,1,0,0-2.16H53.78a1.08,1.08,0,1,0,0,2.16Z"/><path class="cls-1" d="M259.32,110.46H241.9V69h4.87A1.08,1.08,0,0,0,247.86,68V65a1.09,1.09,0,0,0-1.09-1.09H241.9V62.58h4.87a1.08,1.08,0,0,0,1.09-1.08V58.57a1.09,1.09,0,0,0-1.09-1.09H241.9V56.13h4.87a1.09,1.09,0,0,0,1.09-1.08V52.11A1.08,1.08,0,0,0,246.77,51H241.9V49.68h4.87a1.09,1.09,0,0,0,1.09-1.09V45.66a1.08,1.08,0,0,0-1.09-1.08H241.9V33.49a1,1,0,0,0-.06-.35L234,10.42a1.11,1.11,0,0,0-1.21-.72,1.09,1.09,0,0,0-.91,1.07V44.58H227a1.08,1.08,0,0,0-1.09,1.08v2.93A1.09,1.09,0,0,0,227,49.68h4.87V51H227a1.08,1.08,0,0,0-1.09,1.08v2.94A1.09,1.09,0,0,0,227,56.13h4.87v1.35H227a1.09,1.09,0,0,0-1.09,1.09V61.5A1.08,1.08,0,0,0,227,62.58h4.87v1.35H227A1.09,1.09,0,0,0,225.91,65V68A1.08,1.08,0,0,0,227,69h4.87v47.3H213.13a1.08,1.08,0,0,0-1.09,1.08v4.78H203.6a1.08,1.08,0,0,0-1.08,1.09v35.19a1.08,1.08,0,0,0,1.08,1.08h55.72a1.09,1.09,0,0,0,1.09-1.08V111.55A1.09,1.09,0,0,0,259.32,110.46Z"/><path class="cls-3" d="M239.72,33.67l-5.67-16.43V44.58h5.67Zm6,26H228.08v.76h17.61Zm0-12.91H228.08v.77h17.61Zm-6,4.29V49.68h-5.67V51Zm6,2.17H228.08V54h17.61Zm-6,4.28V56.13h-5.67v1.35Zm-25.51,64.71h22.68a1.09,1.09,0,0,1,0,2.17h-9.67v3.7h9.67a1.09,1.09,0,0,1,0,2.17h-9.67v3.69h9.67a1.09,1.09,0,0,1,0,2.17h-9.67v3.7h12.5V118.5H214.21Zm-9.52,35.19H212v-3.7h-3.53a1.08,1.08,0,1,1,0-2.16H212v-3.7h-3.53a1.09,1.09,0,0,1,0-2.17H212V142h-3.53a1.09,1.09,0,0,1,0-2.17H225V124.36H204.69Zm3.82-29.32h12.71a1.09,1.09,0,0,1,0,2.17H208.51a1.09,1.09,0,0,1,0-2.17Zm0,5.86h12.71a1.09,1.09,0,0,1,0,2.17H208.51a1.09,1.09,0,0,1,0-2.17Zm31.21-70V62.58h-5.67v1.35Zm-5.67,52.4h5.67V69h-5.67ZM245.69,66.1H228.08v.77h17.61Zm-3.79,46.53v27.16h13.47a1.09,1.09,0,1,1,0,2.17H252v3.69h3.35a1.09,1.09,0,1,1,0,2.17H252v3.7h3.35a1.08,1.08,0,1,1,0,2.16H252v3.7h6.22V112.63Zm13.47,23.46H244.76a1.09,1.09,0,0,1,0-2.17h10.61a1.09,1.09,0,1,1,0,2.17Zm0-5.86H244.76a1.09,1.09,0,0,1,0-2.17h10.61a1.09,1.09,0,1,1,0,2.17Zm0-5.87H244.76a1.09,1.09,0,0,1,0-2.17h10.61a1.09,1.09,0,1,1,0,2.17Zm0-5.86H244.76a1.09,1.09,0,0,1,0-2.17h10.61a1.09,1.09,0,1,1,0,2.17Z"/><rect class="cls-2" x="214.21" y="141.96" width="35.64" height="15.43"/><path class="cls-1" d="M244.76,136.09h10.61a1.09,1.09,0,1,0,0-2.17H244.76a1.09,1.09,0,0,0,0,2.17Zm0-11.73h10.61a1.09,1.09,0,1,0,0-2.17H244.76a1.09,1.09,0,0,0,0,2.17Zm0-5.86h10.61a1.09,1.09,0,1,0,0-2.17H244.76a1.09,1.09,0,0,0,0,2.17Zm14.56-8H241.9V69h4.87A1.08,1.08,0,0,0,247.86,68V65a1.09,1.09,0,0,0-1.09-1.09H241.9V62.58h4.87a1.08,1.08,0,0,0,1.09-1.08V58.57a1.09,1.09,0,0,0-1.09-1.09H241.9V56.13h4.87a1.09,1.09,0,0,0,1.09-1.08V52.11A1.08,1.08,0,0,0,246.77,51H241.9V49.68h4.87a1.09,1.09,0,0,0,1.09-1.09V45.66a1.08,1.08,0,0,0-1.09-1.08H241.9V33.49a1,1,0,0,0-.06-.35L234,10.42a1.11,1.11,0,0,0-1.21-.72,1.09,1.09,0,0,0-.91,1.07V44.58H227a1.08,1.08,0,0,0-1.09,1.08v2.93A1.09,1.09,0,0,0,227,49.68h4.87V51H227a1.08,1.08,0,0,0-1.09,1.08v2.94A1.09,1.09,0,0,0,227,56.13h4.87v1.35H227a1.09,1.09,0,0,0-1.09,1.09V61.5A1.08,1.08,0,0,0,227,62.58h4.87v1.35H227A1.09,1.09,0,0,0,225.91,65V68A1.08,1.08,0,0,0,227,69h4.87v47.3H213.13a1.08,1.08,0,0,0-1.09,1.08v4.78H203.6a1.08,1.08,0,0,0-1.08,1.09v35.19a1.08,1.08,0,0,0,1.08,1.08h55.72a1.09,1.09,0,0,0,1.09-1.08V111.55A1.09,1.09,0,0,0,259.32,110.46ZM234.05,17.24l5.67,16.43V44.58h-5.67Zm-6,30.27v-.77h17.61v.77Zm11.64,2.17V51h-5.67V49.68ZM228.08,54V53.2h17.61V54Zm11.64,2.17v1.35h-5.67V56.13Zm-11.64,4.28v-.76h17.61v.76Zm11.64,2.17v1.35h-5.67V62.58Zm-11.64,4.29V66.1h17.61v.77ZM239.72,69v47.3h-5.67V69ZM214.21,118.5h25.51v21.29h-12.5v-3.7h9.67a1.09,1.09,0,0,0,0-2.17h-9.67v-3.69h9.67a1.09,1.09,0,0,0,0-2.17h-9.67v-3.7h9.67a1.09,1.09,0,0,0,0-2.17H214.21ZM212,145.65h-3.53a1.09,1.09,0,0,0,0,2.17H212v3.7h-3.53a1.08,1.08,0,1,0,0,2.16H212v3.7h-7.35v-33H225v15.43H208.51a1.09,1.09,0,0,0,0,2.17H212Zm37.81,11.73H214.21V142h35.64Zm8.39,0H252v-3.7h3.35a1.08,1.08,0,1,0,0-2.16H252v-3.7h3.35a1.09,1.09,0,1,0,0-2.17H252V142h3.35a1.09,1.09,0,1,0,0-2.17H241.9V112.63h16.34Zm-13.48-27.15h10.61a1.09,1.09,0,1,0,0-2.17H244.76a1.09,1.09,0,0,0,0,2.17Zm-36.25,0h12.71a1.09,1.09,0,0,0,0-2.17H208.51a1.09,1.09,0,0,0,0,2.17Zm0,5.86h12.71a1.09,1.09,0,0,0,0-2.17H208.51a1.09,1.09,0,0,0,0,2.17Z"/></g></g></svg>