<svg xmlns="http://www.w3.org/2000/svg" viewBox="0 0 57.9 149.86"><defs><style>.cls-1{fill:#3280fa;}.cls-2{fill:#f2f2f2;}.cls-3{fill:#cadefe;}</style></defs><title>bld_2</title><g id="Layer_2" data-name="Layer 2"><g id="Layer_1-2" data-name="Layer 1"><path class="cls-1" d="M56.81,100.78H39.38V59.35h4.88a1.08,1.08,0,0,0,1.08-1.09V55.33a1.08,1.08,0,0,0-1.08-1.08H39.38V52.89h4.88a1.08,1.08,0,0,0,1.08-1.08V48.88a1.08,1.08,0,0,0-1.08-1.09H39.38V46.44h4.88a1.08,1.08,0,0,0,1.08-1.08V42.43a1.08,1.08,0,0,0-1.08-1.09H39.38V40h4.88a1.08,1.08,0,0,0,1.08-1.08V36a1.08,1.08,0,0,0-1.08-1.08H39.38V23.81a1.13,1.13,0,0,0-.06-.36L31.47.73a1.08,1.08,0,0,0-2.11.35V34.89H24.48A1.08,1.08,0,0,0,23.4,36v2.94A1.08,1.08,0,0,0,24.48,40h4.88v1.35H24.48a1.08,1.08,0,0,0-1.08,1.09v2.93a1.08,1.08,0,0,0,1.08,1.08h4.88v1.35H24.48a1.08,1.08,0,0,0-1.08,1.09v2.93a1.08,1.08,0,0,0,1.08,1.08h4.88v1.36H24.48a1.08,1.08,0,0,0-1.08,1.08v2.93a1.08,1.08,0,0,0,1.08,1.09h4.88v47.29H10.61a1.08,1.08,0,0,0-1.08,1.09v4.78H1.09A1.08,1.08,0,0,0,0,113.59v35.19a1.08,1.08,0,0,0,1.09,1.08H56.81a1.08,1.08,0,0,0,1.09-1.08V101.86A1.08,1.08,0,0,0,56.81,100.78Z"/><path class="cls-2" d="M37.21,24,31.53,7.55V34.89h5.68Zm6,26H25.57v.77h17.6Zm0-12.9H25.57v.76h17.6Zm-6,4.28V40H31.53v1.35Zm6,2.17H25.57v.76h17.6Zm-6,4.28V46.44H31.53v1.35ZM11.7,112.51H34.37a1.08,1.08,0,1,1,0,2.16H24.7v3.7h9.67a1.09,1.09,0,1,1,0,2.17H24.7v3.7h9.67a1.08,1.08,0,1,1,0,2.16H24.7v3.7H37.21V108.81H11.7ZM2.17,147.69H9.53V144H6a1.09,1.09,0,1,1,0-2.17H9.53v-3.7H6A1.08,1.08,0,1,1,6,136H9.53v-3.7H6a1.09,1.09,0,1,1,0-2.17H22.53V114.67H2.17ZM6,118.37H18.7a1.09,1.09,0,1,1,0,2.17H6a1.09,1.09,0,1,1,0-2.17Zm0,5.87H18.7a1.08,1.08,0,1,1,0,2.16H6a1.08,1.08,0,1,1,0-2.16Zm31.21-70V52.89H31.53v1.36Zm-5.68,52.39h5.68V59.35H31.53ZM43.17,56.41H25.57v.77h17.6Zm-3.79,46.53V130.1H52.85a1.09,1.09,0,1,1,0,2.17H49.51V136h3.34a1.08,1.08,0,1,1,0,2.16H49.51v3.7h3.34a1.09,1.09,0,1,1,0,2.17H49.51v3.69h6.21V102.94ZM52.85,126.4H42.25a1.08,1.08,0,1,1,0-2.16h10.6a1.08,1.08,0,1,1,0,2.16Zm0-5.86H42.25a1.09,1.09,0,1,1,0-2.17h10.6a1.09,1.09,0,1,1,0,2.17Zm0-5.87H42.25a1.08,1.08,0,1,1,0-2.16h10.6a1.08,1.08,0,1,1,0,2.16Zm0-5.86H42.25a1.09,1.09,0,1,1,0-2.17h10.6a1.09,1.09,0,1,1,0,2.17Z"/><rect class="cls-3" x="11.7" y="132.27" width="35.64" height="15.43"/><path class="cls-1" d="M42.25,126.4h10.6a1.08,1.08,0,1,0,0-2.16H42.25a1.08,1.08,0,1,0,0,2.16Zm0-11.73h10.6a1.08,1.08,0,1,0,0-2.16H42.25a1.08,1.08,0,1,0,0,2.16Zm0-5.86h10.6a1.09,1.09,0,1,0,0-2.17H42.25a1.09,1.09,0,1,0,0,2.17Zm14.56-8H39.38V59.35h4.88a1.08,1.08,0,0,0,1.08-1.09V55.33a1.08,1.08,0,0,0-1.08-1.08H39.38V52.89h4.88a1.08,1.08,0,0,0,1.08-1.08V48.88a1.08,1.08,0,0,0-1.08-1.09H39.38V46.44h4.88a1.08,1.08,0,0,0,1.08-1.08V42.43a1.08,1.08,0,0,0-1.08-1.09H39.38V40h4.88a1.08,1.08,0,0,0,1.08-1.08V36a1.08,1.08,0,0,0-1.08-1.08H39.38V23.81a1.13,1.13,0,0,0-.06-.36L31.47.73a1.08,1.08,0,0,0-2.11.35V34.89H24.48A1.08,1.08,0,0,0,23.4,36v2.94A1.08,1.08,0,0,0,24.48,40h4.88v1.35H24.48a1.08,1.08,0,0,0-1.08,1.09v2.93a1.08,1.08,0,0,0,1.08,1.08h4.88v1.35H24.48a1.08,1.08,0,0,0-1.08,1.09v2.93a1.08,1.08,0,0,0,1.08,1.08h4.88v1.36H24.48a1.08,1.08,0,0,0-1.08,1.08v2.93a1.08,1.08,0,0,0,1.08,1.09h4.88v47.29H10.61a1.08,1.08,0,0,0-1.08,1.09v4.78H1.09A1.08,1.08,0,0,0,0,113.59v35.19a1.08,1.08,0,0,0,1.09,1.08H56.81a1.08,1.08,0,0,0,1.09-1.08V101.86A1.08,1.08,0,0,0,56.81,100.78ZM31.53,7.55,37.21,24v10.9H31.53Zm-6,30.27v-.76h17.6v.76ZM37.21,40v1.35H31.53V40ZM25.57,44.27v-.76h17.6v.76Zm11.64,2.17v1.35H31.53V46.44ZM25.57,50.73V50h17.6v.77Zm11.64,2.16v1.36H31.53V52.89ZM25.57,57.18v-.77h17.6v.77Zm11.64,2.17v47.29H31.53V59.35ZM11.7,108.81H37.21V130.1H24.7v-3.7h9.67a1.08,1.08,0,1,0,0-2.16H24.7v-3.7h9.67a1.09,1.09,0,1,0,0-2.17H24.7v-3.7h9.67a1.08,1.08,0,1,0,0-2.16H11.7ZM9.53,136H6a1.08,1.08,0,1,0,0,2.16H9.53v3.7H6A1.09,1.09,0,1,0,6,144H9.53v3.69H2.17v-33H22.53V130.1H6a1.09,1.09,0,1,0,0,2.17H9.53Zm37.8,11.72H11.7V132.27H47.33Zm8.39,0H49.51V144h3.34a1.09,1.09,0,1,0,0-2.17H49.51v-3.7h3.34a1.08,1.08,0,1,0,0-2.16H49.51v-3.7h3.34a1.09,1.09,0,1,0,0-2.17H39.38V102.94H55.72ZM42.25,120.54h10.6a1.09,1.09,0,1,0,0-2.17H42.25a1.09,1.09,0,1,0,0,2.17ZM6,120.54H18.7a1.09,1.09,0,1,0,0-2.17H6a1.09,1.09,0,1,0,0,2.17Zm0,5.86H18.7a1.08,1.08,0,1,0,0-2.16H6a1.08,1.08,0,1,0,0,2.16Z"/></g></g></svg>