<svg xmlns="http://www.w3.org/2000/svg" viewBox="0 0 214.7 142.98"><defs><style>.cls-1{fill:#3280fa;}.cls-2{fill:#cadefe;}.cls-3{fill:#f2f2f2;}</style></defs><title>bld_13</title><g id="Layer_2" data-name="Layer 2"><g id="Layer_1-2" data-name="Layer 1"><path class="cls-1" d="M214.7,89.05A1.09,1.09,0,0,0,213.61,88H199.18V61.44a1.09,1.09,0,0,0-.36-.81,1.11,1.11,0,0,0-.84-.27l-51.11,5.5a1.09,1.09,0,0,0-1,1.08v3.44h-6.46V59.73a1.08,1.08,0,0,0-1.08-1.08H115V51.51a1.08,1.08,0,0,0-1.09-1.08H103.85V19a1.09,1.09,0,0,0-2.17,0V50.43h-9V33.93a1.09,1.09,0,0,0-2.17,0v16.5H86.11A1.08,1.08,0,0,0,85,51.51V141.8a1.09,1.09,0,0,0,1.09,1.09h10a1.18,1.18,0,0,0,.27,0h18.33a1.09,1.09,0,0,0,.26,0h4.21a1.15,1.15,0,0,0,.26,0h78.67a1.18,1.18,0,0,0,.27,0h7.2a1.15,1.15,0,0,0,.26,0h7.79a1.08,1.08,0,0,0,1.09-1.08V89.05Z"/><rect class="cls-2" x="172.76" y="77.11" width="15.08" height="10.86"/><path class="cls-3" d="M157.4,76.25V72.54H120.51v3.7H157.4Zm2.18-4.79V88h11V76a1.09,1.09,0,0,1,1.09-1.09h17.26A1.08,1.08,0,0,1,190,76V88h7V62.64l-48.94,5.27v2.47h10.42A1.08,1.08,0,0,1,159.58,71.46ZM112.82,52.6H87.19v88.12h3.35v-81a1.08,1.08,0,0,1,1.08-1.08h21.2ZM157.4,82.12V78.4H120.51v3.7H157.4ZM137.27,60.81H120.51v9.57h16.76Zm-16.76,44.76H145.9v-3.7H120.51Zm0,5.86H145.9v-3.7H120.51Zm0-11.73H145.9V96H120.51Zm0-5.86H145.9v-3.7H120.51Zm85.31,0h6.71v-3.7H148.07v3.7h17.25a1.08,1.08,0,1,1,0,2.16H148.07v3.7h17.25a1.09,1.09,0,1,1,0,2.17H148.07v3.7h17.25a1.08,1.08,0,1,1,0,2.16H148.07v3.7h17.25a1.09,1.09,0,1,1,0,2.17H148.07v3.69h17.25a1.09,1.09,0,1,1,0,2.17H148.07v3.7h17.25a1.09,1.09,0,1,1,0,2.17H148.07V129h17.25a1.09,1.09,0,1,1,0,2.17H148.07v3.7h17.25a1.09,1.09,0,1,1,0,2.17H148.07v3.66h64.46v-3.66h-6.71a1.09,1.09,0,0,1,0-2.17h6.71v-3.7h-6.71a1.09,1.09,0,0,1,0-2.17h6.71v-3.69h-6.71a1.09,1.09,0,0,1,0-2.17h6.71v-3.7h-6.71a1.09,1.09,0,0,1,0-2.17h6.71V113.6h-6.71a1.09,1.09,0,0,1,0-2.17h6.71v-3.7h-6.71a1.08,1.08,0,1,1,0-2.16h6.71v-3.7h-6.71a1.09,1.09,0,0,1,0-2.17h6.71V96h-6.71a1.08,1.08,0,1,1,0-2.16Zm-7.73,43.22H179.76a1.09,1.09,0,1,1,0-2.17h18.33a1.09,1.09,0,1,1,0,2.17Zm0-5.87H179.76a1.09,1.09,0,1,1,0-2.17h18.33a1.09,1.09,0,1,1,0,2.17Zm0-5.86H179.76a1.09,1.09,0,1,1,0-2.17h18.33a1.09,1.09,0,1,1,0,2.17Zm0-5.87H179.76a1.09,1.09,0,1,1,0-2.17h18.33a1.09,1.09,0,1,1,0,2.17Zm0-5.86H179.76a1.09,1.09,0,1,1,0-2.17h18.33a1.09,1.09,0,1,1,0,2.17Zm0-5.87H179.76a1.08,1.08,0,1,1,0-2.16h18.33a1.08,1.08,0,1,1,0,2.16Zm0-5.86H179.76a1.09,1.09,0,1,1,0-2.17h18.33a1.09,1.09,0,1,1,0,2.17Zm0-5.87H179.76a1.08,1.08,0,1,1,0-2.16h18.33a1.08,1.08,0,1,1,0,2.16ZM157.4,84.26H120.51V88H157.4Zm-36.89,50.63H145.9v-3.7H120.51Zm0,5.83H145.9v-3.66H120.51Zm-27.8,0h25.63V60.81H92.71Zm3.65-76.21h18.33a1.09,1.09,0,1,1,0,2.17H96.36a1.09,1.09,0,1,1,0-2.17Zm0,5.87h18.33a1.08,1.08,0,1,1,0,2.16H96.36a1.08,1.08,0,1,1,0-2.16Zm0,5.86h18.33a1.09,1.09,0,1,1,0,2.17H96.36a1.09,1.09,0,1,1,0-2.17Zm0,5.87h18.33a1.08,1.08,0,1,1,0,2.16H96.36a1.08,1.08,0,1,1,0-2.16Zm0,5.86h18.33a1.09,1.09,0,1,1,0,2.17H96.36a1.09,1.09,0,1,1,0-2.17Zm0,5.87h18.33a1.08,1.08,0,1,1,0,2.16H96.36a1.08,1.08,0,1,1,0-2.16Zm0,5.86h18.33a1.09,1.09,0,1,1,0,2.17H96.36a1.09,1.09,0,1,1,0-2.17Zm0,5.87h18.33a1.08,1.08,0,1,1,0,2.16H96.36a1.08,1.08,0,1,1,0-2.16Zm0,5.86h18.33a1.09,1.09,0,1,1,0,2.17H96.36a1.09,1.09,0,1,1,0-2.17Zm0,5.86h18.33a1.09,1.09,0,1,1,0,2.17H96.36a1.09,1.09,0,1,1,0-2.17Zm0,5.87h18.33a1.09,1.09,0,1,1,0,2.17H96.36a1.09,1.09,0,1,1,0-2.17Zm0,5.86h18.33a1.09,1.09,0,1,1,0,2.17H96.36a1.09,1.09,0,1,1,0-2.17Zm0,5.87h18.33a1.09,1.09,0,1,1,0,2.17H96.36a1.09,1.09,0,1,1,0-2.17ZM120.51,129H145.9v-3.69H120.51Zm0-5.86H145.9v-3.7H120.51Zm0-5.87H145.9V113.6H120.51Z"/><path class="cls-1" d="M96.36,101.87h18.33a1.09,1.09,0,1,0,0-2.17H96.36a1.09,1.09,0,1,0,0,2.17Zm0-5.87h18.33a1.08,1.08,0,1,0,0-2.16H96.36a1.08,1.08,0,1,0,0,2.16Zm0-5.86h18.33a1.09,1.09,0,1,0,0-2.17H96.36a1.09,1.09,0,1,0,0,2.17Zm0-5.87h18.33a1.08,1.08,0,1,0,0-2.16H96.36a1.08,1.08,0,1,0,0,2.16Zm0,23.46h18.33a1.08,1.08,0,1,0,0-2.16H96.36a1.08,1.08,0,1,0,0,2.16Zm0,29.33h18.33a1.09,1.09,0,1,0,0-2.17H96.36a1.09,1.09,0,1,0,0,2.17Zm0-5.87h18.33a1.09,1.09,0,1,0,0-2.17H96.36a1.09,1.09,0,1,0,0,2.17Zm0-52.78h18.33a1.09,1.09,0,1,0,0-2.17H96.36a1.09,1.09,0,1,0,0,2.17Zm0,46.92h18.33a1.09,1.09,0,1,0,0-2.17H96.36a1.09,1.09,0,1,0,0,2.17Zm0-5.87h18.33a1.09,1.09,0,1,0,0-2.17H96.36a1.09,1.09,0,1,0,0,2.17Zm0-5.86h18.33a1.09,1.09,0,1,0,0-2.17H96.36a1.09,1.09,0,1,0,0,2.17Zm83.4,11.73h18.33a1.09,1.09,0,1,0,0-2.17H179.76a1.09,1.09,0,1,0,0,2.17ZM96.36,72.54h18.33a1.08,1.08,0,1,0,0-2.16H96.36a1.08,1.08,0,1,0,0,2.16Zm83.4,58.65h18.33a1.09,1.09,0,1,0,0-2.17H179.76a1.09,1.09,0,1,0,0,2.17Zm0,5.87h18.33a1.09,1.09,0,1,0,0-2.17H179.76a1.09,1.09,0,1,0,0,2.17Zm0-23.46h18.33a1.09,1.09,0,1,0,0-2.17H179.76a1.09,1.09,0,1,0,0,2.17Zm0,5.86h18.33a1.09,1.09,0,1,0,0-2.17H179.76a1.09,1.09,0,1,0,0,2.17Zm0-11.73h18.33a1.08,1.08,0,1,0,0-2.16H179.76a1.08,1.08,0,1,0,0,2.16ZM214.7,89.05A1.09,1.09,0,0,0,213.61,88H199.18V61.44a1.09,1.09,0,0,0-.36-.81,1.11,1.11,0,0,0-.84-.27l-51.11,5.5a1.09,1.09,0,0,0-1,1.08v3.44h-6.46V59.73a1.08,1.08,0,0,0-1.08-1.08H115V51.51a1.08,1.08,0,0,0-1.09-1.08H103.85V19a1.09,1.09,0,0,0-2.17,0V50.43h-9V33.93a1.09,1.09,0,0,0-2.17,0v16.5H86.11A1.08,1.08,0,0,0,85,51.51V141.8a1.09,1.09,0,0,0,1.09,1.09h10a1.18,1.18,0,0,0,.27,0h18.33a1.09,1.09,0,0,0,.26,0h4.21a1.15,1.15,0,0,0,.26,0h78.67a1.18,1.18,0,0,0,.27,0h7.2a1.15,1.15,0,0,0,.26,0h7.79a1.08,1.08,0,0,0,1.09-1.08V89.05ZM90.54,59.73v81H87.19V52.6h25.63v6H91.62A1.08,1.08,0,0,0,90.54,59.73Zm27.8,81H92.71V60.81h25.63Zm29.73-72.81L197,62.64V88h-7V76a1.08,1.08,0,0,0-1.08-1.09H171.67A1.09,1.09,0,0,0,170.58,76V88h-11V71.46a1.08,1.08,0,0,0-1.09-1.08H148.07Zm39.77,9.2V88H172.76V77.11Zm-67.33-16.3h16.76v9.57H120.51Zm0,11.73H157.4v3.71H120.51Zm0,5.87H157.4v3.72H120.51Zm0,5.86H157.4V88H120.51Zm25.39,56.45H120.51v-3.66H145.9Zm0-5.83H120.51v-3.7H145.9Zm0-5.87H120.51v-3.69H145.9Zm0-5.86H120.51v-3.7H145.9Zm0-5.87H120.51V113.6H145.9Zm0-5.86H120.51v-3.7H145.9Zm0-5.86H120.51v-3.7H145.9Zm0-5.87H120.51V96H145.9Zm0-5.86H120.51v-3.7H145.9Zm66.63,0h-6.71a1.08,1.08,0,1,0,0,2.16h6.71v3.7h-6.71a1.09,1.09,0,0,0,0,2.17h6.71v3.7h-6.71a1.08,1.08,0,1,0,0,2.16h6.71v3.7h-6.71a1.09,1.09,0,0,0,0,2.17h6.71v3.69h-6.71a1.09,1.09,0,0,0,0,2.17h6.71v3.7h-6.71a1.09,1.09,0,0,0,0,2.17h6.71V129h-6.71a1.09,1.09,0,0,0,0,2.17h6.71v3.7h-6.71a1.09,1.09,0,0,0,0,2.17h6.71v3.66H148.07v-3.66h17.25a1.09,1.09,0,1,0,0-2.17H148.07v-3.7h17.25a1.09,1.09,0,1,0,0-2.17H148.07v-3.69h17.25a1.09,1.09,0,1,0,0-2.17H148.07v-3.7h17.25a1.09,1.09,0,1,0,0-2.17H148.07V113.6h17.25a1.09,1.09,0,1,0,0-2.17H148.07v-3.7h17.25a1.08,1.08,0,1,0,0-2.16H148.07v-3.7h17.25a1.09,1.09,0,1,0,0-2.17H148.07V96h17.25a1.08,1.08,0,1,0,0-2.16H148.07v-3.7h64.46ZM96.36,66.68h18.33a1.09,1.09,0,1,0,0-2.17H96.36a1.09,1.09,0,1,0,0,2.17Zm83.4,35.19h18.33a1.09,1.09,0,1,0,0-2.17H179.76a1.09,1.09,0,1,0,0,2.17Zm0-5.87h18.33a1.08,1.08,0,1,0,0-2.16H179.76a1.08,1.08,0,1,0,0,2.16Z"/><path class="cls-1" d="M80.18,50.43h-8.8V1.08A1.09,1.09,0,0,0,70.29,0H25.23a1.08,1.08,0,0,0-1.08,1.08V17.56H1.09A1.08,1.08,0,0,0,0,18.64V141.8a1.09,1.09,0,0,0,1.09,1.09H24.8a1.22,1.22,0,0,0,.43.09H44.17a1.13,1.13,0,0,0,.32-.06H63.82a1.09,1.09,0,0,0,.26,0h16.1a1.08,1.08,0,0,0,1.08-1.09V51.51A1.08,1.08,0,0,0,80.18,50.43Z"/><path class="cls-3" d="M62.73,101.87H50.89v3.7H62.73Zm0-5.87H50.89v3.7H62.73Zm0-11.73H50.89V88H62.73Zm0-5.86H50.89v3.7H62.73ZM50.89,117.26H62.73V113.6H50.89ZM62.73,2.17H26.32V9.1H62.73Zm6.47,0H64.91V117.26H69.2ZM62.73,72.54H50.89v3.7H62.73Zm-18.13-55H62.73V14.2H26.32v3.27H44.17A1,1,0,0,1,44.6,17.56Zm18.13,90.17H50.89v3.7H62.73Zm0-17.59H50.89v3.7H62.73Zm-14-70.41h-28v97.53h28Zm-4.54,93.88H25.23a1.09,1.09,0,0,1,0-2.17H44.17a1.09,1.09,0,0,1,0,2.17Zm0-5.87H25.23a1.09,1.09,0,0,1,0-2.17H44.17a1.09,1.09,0,0,1,0,2.17Zm0-5.88H25.23a1.08,1.08,0,0,1,0-2.16H44.17a1.08,1.08,0,1,1,0,2.16Zm0-5.87H25.23a1.09,1.09,0,0,1,0-2.17H44.17a1.09,1.09,0,0,1,0,2.17Zm0-5.87H25.23a1.09,1.09,0,0,1,0-2.17H44.17a1.09,1.09,0,0,1,0,2.17Zm0-5.88H25.23a1.08,1.08,0,0,1,0-2.16H44.17a1.08,1.08,0,1,1,0,2.16Zm0-5.87H25.23a1.09,1.09,0,0,1,0-2.17H44.17a1.09,1.09,0,0,1,0,2.17Zm0-5.87H25.23a1.09,1.09,0,0,1,0-2.17H44.17a1.09,1.09,0,0,1,0,2.17ZM24.55,66.75V58.51a1.09,1.09,0,0,1,2.18,0v8.24a1.09,1.09,0,0,1-2.18,0Zm6,0V58.51a1.09,1.09,0,0,1,2.18,0v8.24a1.09,1.09,0,0,1-2.18,0Zm6,0V58.51a1.09,1.09,0,0,1,2.18,0v8.24a1.09,1.09,0,0,1-2.18,0Zm6,0V58.51a1.09,1.09,0,0,1,2.18,0v8.24a1.09,1.09,0,0,1-2.18,0Zm1.5-11.87H25.23a1.09,1.09,0,0,1,0-2.17H44.17a1.09,1.09,0,0,1,0,2.17Zm0-5.88H25.23a1.08,1.08,0,0,1,0-2.16H44.17a1.08,1.08,0,0,1,0,2.16Zm0-5.87H25.23a1.09,1.09,0,0,1,0-2.17H44.17a1.09,1.09,0,0,1,0,2.17Zm0-5.87H25.23a1.09,1.09,0,0,1,0-2.17H44.17a1.09,1.09,0,0,1,0,2.17Zm0-5.88H25.23a1.08,1.08,0,0,1,0-2.16H44.17a1.08,1.08,0,0,1,0,2.16Zm0-5.87H25.23a1.09,1.09,0,0,1,0-2.17H44.17a1.09,1.09,0,0,1,0,2.17Zm18.56.08H50.89v3.73H62.73Zm0,41.09H50.89v3.7H62.73ZM10.26,119.43v3.69H39.55a1.09,1.09,0,0,1,1.09,1.09v16.51H79.09V119.43ZM13.5,25.82v91.44h5V19.73H2.17v5H12.41A1.08,1.08,0,0,1,13.5,25.82Zm49.23,5.67H50.89v3.7H62.73Zm0,23.46H50.89v3.7H62.73Zm0-17.59H50.89v3.69H62.73Zm0,23.45H50.89v3.7H62.73Zm0-17.59H50.89v3.7H62.73Zm0,5.87H50.89v3.69H62.73Z"/><path class="cls-2" d="M71.38,52.6v64.66h7.71V52.6ZM8.09,118.34a1.09,1.09,0,0,1,1.08-1.08h2.15V26.9H2.17v96.22H8.09ZM2.17,140.72h36.3V125.29H2.17ZM26.32,12H62.73v-.76H26.32ZM50.89,23.42H62.73V19.73H50.89Z"/><path class="cls-1" d="M80.18,50.43h-8.8V1.08A1.09,1.09,0,0,0,70.29,0H25.23a1.08,1.08,0,0,0-1.08,1.08V17.56H1.09A1.08,1.08,0,0,0,0,18.64V141.8a1.09,1.09,0,0,0,1.09,1.09H24.8a1.22,1.22,0,0,0,.43.09H44.17a1.13,1.13,0,0,0,.32-.06H63.82a1.09,1.09,0,0,0,.26,0h16.1a1.08,1.08,0,0,0,1.08-1.09V51.51A1.08,1.08,0,0,0,80.18,50.43ZM64.91,2.17H69.2V117.26H64.91Zm-38.59,0H62.73V9.1H26.32Zm0,9.1H62.73V12H26.32Zm0,2.93H62.73v3.36H44.6a1,1,0,0,0-.43-.09H26.32Zm24.57,97.23v-3.7H62.73v3.7Zm11.84,2.17v3.66H50.89V113.6Zm-11.84-8v-3.7H62.73v3.7Zm0-5.87V96H62.73v3.7Zm0-5.86v-3.7H62.73v3.7Zm0-5.87v-3.7H62.73V88Zm0-5.86v-3.7H62.73v3.7Zm0-5.87v-3.7H62.73v3.7Zm0-5.86v-3.7H62.73v3.7Zm0-5.87v-3.7H62.73v3.7Zm0-5.86V55H62.73v3.7Zm0-5.87V49.09H62.73v3.69Zm0-5.86v-3.7H62.73v3.7Zm0-5.87V37.36H62.73v3.69Zm0-5.86v-3.7H62.73v3.7Zm0-5.87V25.59H62.73v3.73Zm0-5.9V19.73H62.73v3.69Zm-30.2-3.69h28v97.53h-28Zm-18.52,0H18.51v97.53h-5V25.82a1.08,1.08,0,0,0-1.09-1.08H2.17Zm0,7.17h9.15v90.36H9.17a1.09,1.09,0,0,0-1.08,1.08v4.78H2.17Zm36.3,113.82H2.17V125.29h36.3Zm40.62,0H40.64V124.21a1.09,1.09,0,0,0-1.09-1.09H10.26v-3.69H79.09Zm0-23.46H71.38V52.6h7.71ZM44.17,52.71H25.23a1.09,1.09,0,0,0,0,2.17H44.17a1.09,1.09,0,0,0,0-2.17Zm.68,14V58.51a1.09,1.09,0,0,0-2.18,0v8.24a1.09,1.09,0,0,0,2.18,0Zm-.68-19.91H25.23a1.08,1.08,0,0,0,0,2.16H44.17a1.08,1.08,0,0,0,0-2.16ZM38.81,66.75V58.51a1.09,1.09,0,0,0-2.18,0v8.24a1.09,1.09,0,0,0,2.18,0Zm5.36-43.41H25.23a1.09,1.09,0,0,0,0,2.17H44.17a1.09,1.09,0,0,0,0-2.17ZM32.77,66.75V58.51a1.09,1.09,0,0,0-2.18,0v8.24a1.09,1.09,0,0,0,2.18,0ZM44.17,41H25.23a1.09,1.09,0,0,0,0,2.17H44.17a1.09,1.09,0,0,0,0-2.17Zm0-11.74H25.23a1.08,1.08,0,0,0,0,2.16H44.17a1.08,1.08,0,0,0,0-2.16Zm0,5.87H25.23a1.09,1.09,0,0,0,0,2.17H44.17a1.09,1.09,0,0,0,0-2.17Zm0,52.86H25.23a1.09,1.09,0,0,0,0,2.17H44.17a1.09,1.09,0,0,0,0-2.17Zm0,5.87H25.23a1.09,1.09,0,0,0,0,2.17H44.17a1.09,1.09,0,0,0,0-2.17Zm0,5.88H25.23a1.08,1.08,0,0,0,0,2.16H44.17a1.08,1.08,0,1,0,0-2.16Zm0,5.87H25.23a1.09,1.09,0,0,0,0,2.17H44.17a1.09,1.09,0,0,0,0-2.17Zm0,5.87H25.23a1.09,1.09,0,0,0,0,2.17H44.17a1.09,1.09,0,0,0,0-2.17Zm0-41.11H25.23a1.09,1.09,0,0,0,0,2.17H44.17a1.09,1.09,0,0,0,0-2.17ZM26.73,66.75V58.51a1.09,1.09,0,0,0-2.18,0v8.24a1.09,1.09,0,0,0,2.18,0ZM44.17,76.2H25.23a1.09,1.09,0,0,0,0,2.17H44.17a1.09,1.09,0,0,0,0-2.17Zm0,5.88H25.23a1.08,1.08,0,0,0,0,2.16H44.17a1.08,1.08,0,1,0,0-2.16Z"/></g></g></svg>