<svg xmlns="http://www.w3.org/2000/svg" viewBox="0 0 81.26 142.98"><defs><style>.cls-1{fill:#3280fa;}.cls-2{fill:#f2f2f2;}.cls-3{fill:#cadefe;}</style></defs><title>bld_3</title><g id="Layer_2" data-name="Layer 2"><g id="Layer_1-2" data-name="Layer 1"><path class="cls-1" d="M80.18,50.43h-8.8V1.08A1.09,1.09,0,0,0,70.29,0H25.23a1.08,1.08,0,0,0-1.08,1.08V17.56H1.09A1.08,1.08,0,0,0,0,18.64V141.8a1.09,1.09,0,0,0,1.09,1.09H24.8a1.22,1.22,0,0,0,.43.09H44.17a1.13,1.13,0,0,0,.32-.06H63.82a1.09,1.09,0,0,0,.26,0h16.1a1.08,1.08,0,0,0,1.08-1.09V51.51A1.08,1.08,0,0,0,80.18,50.43Z"/><path class="cls-2" d="M62.73,101.87H50.89v3.7H62.73Zm0-5.87H50.89v3.7H62.73Zm0-11.73H50.89V88H62.73Zm0-5.86H50.89v3.7H62.73ZM50.89,117.26H62.73V113.6H50.89ZM62.73,2.17H26.32V9.1H62.73Zm6.47,0H64.91V117.26H69.2ZM62.73,72.54H50.89v3.7H62.73Zm-18.13-55H62.73V14.2H26.32v3.27H44.17A1,1,0,0,1,44.6,17.56Zm18.13,90.17H50.89v3.7H62.73Zm0-17.59H50.89v3.7H62.73Zm-14-70.41h-28v97.53h28Zm-4.54,93.88H25.23a1.09,1.09,0,0,1,0-2.17H44.17a1.09,1.09,0,0,1,0,2.17Zm0-5.87H25.23a1.09,1.09,0,0,1,0-2.17H44.17a1.09,1.09,0,0,1,0,2.17Zm0-5.88H25.23a1.08,1.08,0,0,1,0-2.16H44.17a1.08,1.08,0,1,1,0,2.16Zm0-5.87H25.23a1.09,1.09,0,0,1,0-2.17H44.17a1.09,1.09,0,0,1,0,2.17Zm0-5.87H25.23a1.09,1.09,0,0,1,0-2.17H44.17a1.09,1.09,0,0,1,0,2.17Zm0-5.88H25.23a1.08,1.08,0,0,1,0-2.16H44.17a1.08,1.08,0,1,1,0,2.16Zm0-5.87H25.23a1.09,1.09,0,0,1,0-2.17H44.17a1.09,1.09,0,0,1,0,2.17Zm0-5.87H25.23a1.09,1.09,0,0,1,0-2.17H44.17a1.09,1.09,0,0,1,0,2.17ZM24.55,66.75V58.51a1.09,1.09,0,0,1,2.18,0v8.24a1.09,1.09,0,0,1-2.18,0Zm6,0V58.51a1.09,1.09,0,0,1,2.18,0v8.24a1.09,1.09,0,0,1-2.18,0Zm6,0V58.51a1.09,1.09,0,0,1,2.18,0v8.24a1.09,1.09,0,0,1-2.18,0Zm6,0V58.51a1.09,1.09,0,0,1,2.18,0v8.24a1.09,1.09,0,0,1-2.18,0Zm1.5-11.87H25.23a1.09,1.09,0,0,1,0-2.17H44.17a1.09,1.09,0,0,1,0,2.17Zm0-5.88H25.23a1.08,1.08,0,0,1,0-2.16H44.17a1.08,1.08,0,0,1,0,2.16Zm0-5.87H25.23a1.09,1.09,0,0,1,0-2.17H44.17a1.09,1.09,0,0,1,0,2.17Zm0-5.87H25.23a1.09,1.09,0,0,1,0-2.17H44.17a1.09,1.09,0,0,1,0,2.17Zm0-5.88H25.23a1.08,1.08,0,0,1,0-2.16H44.17a1.08,1.08,0,0,1,0,2.16Zm0-5.87H25.23a1.09,1.09,0,0,1,0-2.17H44.17a1.09,1.09,0,0,1,0,2.17Zm18.56.08H50.89v3.73H62.73Zm0,41.09H50.89v3.7H62.73ZM10.26,119.43v3.69H39.55a1.09,1.09,0,0,1,1.09,1.09v16.51H79.09V119.43ZM13.5,25.82v91.44h5V19.73H2.17v5H12.41A1.08,1.08,0,0,1,13.5,25.82Zm49.23,5.67H50.89v3.7H62.73Zm0,23.46H50.89v3.7H62.73Zm0-17.59H50.89v3.69H62.73Zm0,23.45H50.89v3.7H62.73Zm0-17.59H50.89v3.7H62.73Zm0,5.87H50.89v3.69H62.73Z"/><path class="cls-3" d="M71.38,52.6v64.66h7.71V52.6ZM8.09,118.34a1.09,1.09,0,0,1,1.08-1.08h2.15V26.9H2.17v96.22H8.09ZM2.17,140.72h36.3V125.29H2.17ZM26.32,12H62.73v-.76H26.32ZM50.89,23.42H62.73V19.73H50.89Z"/><path class="cls-1" d="M80.18,50.43h-8.8V1.08A1.09,1.09,0,0,0,70.29,0H25.23a1.08,1.08,0,0,0-1.08,1.08V17.56H1.09A1.08,1.08,0,0,0,0,18.64V141.8a1.09,1.09,0,0,0,1.09,1.09H24.8a1.22,1.22,0,0,0,.43.09H44.17a1.13,1.13,0,0,0,.32-.06H63.82a1.09,1.09,0,0,0,.26,0h16.1a1.08,1.08,0,0,0,1.08-1.09V51.51A1.08,1.08,0,0,0,80.18,50.43ZM64.91,2.17H69.2V117.26H64.91Zm-38.59,0H62.73V9.1H26.32Zm0,9.1H62.73V12H26.32Zm0,2.93H62.73v3.36H44.6a1,1,0,0,0-.43-.09H26.32Zm24.57,97.23v-3.7H62.73v3.7Zm11.84,2.17v3.66H50.89V113.6Zm-11.84-8v-3.7H62.73v3.7Zm0-5.87V96H62.73v3.7Zm0-5.86v-3.7H62.73v3.7Zm0-5.87v-3.7H62.73V88Zm0-5.86v-3.7H62.73v3.7Zm0-5.87v-3.7H62.73v3.7Zm0-5.86v-3.7H62.73v3.7Zm0-5.87v-3.7H62.73v3.7Zm0-5.86V55H62.73v3.7Zm0-5.87V49.09H62.73v3.69Zm0-5.86v-3.7H62.73v3.7Zm0-5.87V37.36H62.73v3.69Zm0-5.86v-3.7H62.73v3.7Zm0-5.87V25.59H62.73v3.73Zm0-5.9V19.73H62.73v3.69Zm-30.2-3.69h28v97.53h-28Zm-18.52,0H18.51v97.53h-5V25.82a1.08,1.08,0,0,0-1.09-1.08H2.17Zm0,7.17h9.15v90.36H9.17a1.09,1.09,0,0,0-1.08,1.08v4.78H2.17Zm36.3,113.82H2.17V125.29h36.3Zm40.62,0H40.64V124.21a1.09,1.09,0,0,0-1.09-1.09H10.26v-3.69H79.09Zm0-23.46H71.38V52.6h7.71ZM44.17,52.71H25.23a1.09,1.09,0,0,0,0,2.17H44.17a1.09,1.09,0,0,0,0-2.17Zm.68,14V58.51a1.09,1.09,0,0,0-2.18,0v8.24a1.09,1.09,0,0,0,2.18,0Zm-.68-19.91H25.23a1.08,1.08,0,0,0,0,2.16H44.17a1.08,1.08,0,0,0,0-2.16ZM38.81,66.75V58.51a1.09,1.09,0,0,0-2.18,0v8.24a1.09,1.09,0,0,0,2.18,0Zm5.36-43.41H25.23a1.09,1.09,0,0,0,0,2.17H44.17a1.09,1.09,0,0,0,0-2.17ZM32.77,66.75V58.51a1.09,1.09,0,0,0-2.18,0v8.24a1.09,1.09,0,0,0,2.18,0ZM44.17,41H25.23a1.09,1.09,0,0,0,0,2.17H44.17a1.09,1.09,0,0,0,0-2.17Zm0-11.74H25.23a1.08,1.08,0,0,0,0,2.16H44.17a1.08,1.08,0,0,0,0-2.16Zm0,5.87H25.23a1.09,1.09,0,0,0,0,2.17H44.17a1.09,1.09,0,0,0,0-2.17Zm0,52.86H25.23a1.09,1.09,0,0,0,0,2.17H44.17a1.09,1.09,0,0,0,0-2.17Zm0,5.87H25.23a1.09,1.09,0,0,0,0,2.17H44.17a1.09,1.09,0,0,0,0-2.17Zm0,5.88H25.23a1.08,1.08,0,0,0,0,2.16H44.17a1.08,1.08,0,1,0,0-2.16Zm0,5.87H25.23a1.09,1.09,0,0,0,0,2.17H44.17a1.09,1.09,0,0,0,0-2.17Zm0,5.87H25.23a1.09,1.09,0,0,0,0,2.17H44.17a1.09,1.09,0,0,0,0-2.17Zm0-41.11H25.23a1.09,1.09,0,0,0,0,2.17H44.17a1.09,1.09,0,0,0,0-2.17ZM26.73,66.75V58.51a1.09,1.09,0,0,0-2.18,0v8.24a1.09,1.09,0,0,0,2.18,0ZM44.17,76.2H25.23a1.09,1.09,0,0,0,0,2.17H44.17a1.09,1.09,0,0,0,0-2.17Zm0,5.88H25.23a1.08,1.08,0,0,0,0,2.16H44.17a1.08,1.08,0,1,0,0-2.16Z"/></g></g></svg>