<svg xmlns="http://www.w3.org/2000/svg" viewBox="0 0 685.09 159.64"><defs><style>.cls-1{fill:#3280fa;}.cls-2{fill:#f2f2f2;}.cls-3{fill:#cadefe;}</style></defs><title>bld_all</title><g id="Layer_2" data-name="Layer 2"><g id="Layer_1-2" data-name="Layer 1"><path class="cls-1" d="M684,73.43H654.66a1.08,1.08,0,0,0-1.09,1.08v6.57H622.72a1.08,1.08,0,0,0-1.08,1.09v56.25H611.4a1.09,1.09,0,0,0-1.09,1.09v19a1.09,1.09,0,0,0,1.09,1.08H684a1.08,1.08,0,0,0,1.08-1.08v-84A1.08,1.08,0,0,0,684,73.43Z"/><path class="cls-2" d="M661.62,138.42h3.71V75.6h-3.71Zm-5.87,0h3.7V75.6h-3.7ZM639.91,83.25h-16.1v5.37h16.1Zm-3.1,55.17h13.41v-2.55H636.81Zm30.69,0h3.7V75.6h-3.7ZM679.25,75.6v81.78h3.67V75.6Zm-5.87,62.82h.93a1.09,1.09,0,0,1,1.09,1.09v17.87h1.68V75.6h-3.7Z"/><path class="cls-3" d="M652.39,134.79v3.63h1.18V83.25H642.09V133.7h9.21A1.09,1.09,0,0,1,652.39,134.79Zm-39.91,5.8v16.79h60.75V140.59Zm22.16-5.8a1.09,1.09,0,0,1,1.09-1.09h4.18V90.78h-16.1v47.64h10.83Z"/><path class="cls-1" d="M684,73.43H654.66a1.08,1.08,0,0,0-1.09,1.08v6.57H622.72a1.08,1.08,0,0,0-1.08,1.09v56.25H611.4a1.09,1.09,0,0,0-1.09,1.09v19a1.09,1.09,0,0,0,1.09,1.08H684a1.08,1.08,0,0,0,1.08-1.08v-84A1.08,1.08,0,0,0,684,73.43ZM667.5,75.6h3.7v62.82h-3.7Zm-5.88,0h3.71v62.82h-3.71Zm-5.87,0h3.7v62.82h-3.7Zm-13.66,7.65h11.48v55.17h-1.18v-3.63a1.09,1.09,0,0,0-1.09-1.09h-9.21Zm8.13,52.62v2.55H636.81v-2.55ZM623.81,83.25h16.1v5.37h-16.1Zm0,7.53h16.1V133.7h-4.18a1.09,1.09,0,0,0-1.09,1.09v3.63H623.81Zm49.42,66.6H612.48V140.59h60.75Zm3.85,0H675.4V139.51a1.09,1.09,0,0,0-1.09-1.09h-.93V75.6h3.7Zm5.84,0h-3.67V75.6h3.67Z"/><path class="cls-1" d="M611.4,95.08h-9.28V89.7A1.08,1.08,0,0,0,601,88.62H598.7V67.82a1.08,1.08,0,0,0-1.08-1.09H571.38V43.18a1.08,1.08,0,0,0-1.08-1.08H520.21a1.08,1.08,0,0,0-1.09,1.08V158.47h0v0a1.08,1.08,0,0,0,1.09,1.08H570.3a1.15,1.15,0,0,0,.26,0H611.4a1.08,1.08,0,0,0,1.08-1.08V96.16A1.08,1.08,0,0,0,611.4,95.08Z"/><path class="cls-2" d="M527,122.93h13.89v-9.26H527ZM527,77h13.89V44.26H527Zm0,23.07h13.89V90.6H527Zm0,11.42h13.89v-9.25H527ZM543.1,146h7.42v-9.49H543.1ZM527,88.44h13.89V79.18H527Zm16.06,68.94h7.42v-9.21H543.1Zm0-68.94h7.42V79.18H543.1Zm0,11.65h7.42V90.6H543.1Zm0,34.25h7.42v-9.25H543.1Zm0-11.41h7.42v-9.26H543.1Zm0-11.42h7.42v-9.25H543.1ZM527,157.38h13.89v-9.21H527ZM521.29,146h3.58v-9.49h-3.58Zm0-11.66h3.58v-9.25h-3.58Zm0-11.41h3.58v-9.26h-3.58Zm75.24-54H583.14V88.62h13.39Zm-75.24,42.61h3.58v-9.25h-3.58Zm0,45.87h3.58v-9.21h-3.58Zm0-68.94h3.58V79.18h-3.58ZM527,146h13.89v-9.49H527ZM543.1,77h7.42V44.26H543.1Zm-21.81,0h3.58V44.26h-3.58Zm0,23.07h3.58V90.6h-3.58ZM527,134.34h13.89v-9.25H527Zm25.65-34.25h6.93V90.6h-6.93Zm24.57,57.29H581V97.24h-3.7ZM561.8,88.44h7.41V79.18H561.8Zm9.58,6.64h3.71V68.9h-3.71ZM552.69,77h16.52V44.26H552.69Zm30.45,80.36h3.7V97.24h-3.7Zm-11.76,0h3.71V97.24h-3.71Zm5.88-62.3H581V68.9h-3.7Zm23.51,62.3h3.67V97.24h-3.67Zm-11.76,0h3.71V97.24H589Zm17.6-60.14v60.14h3.7V97.24Zm-11.72,60.14h3.7V97.24h-3.7Zm-11.75-62.3H600v-4.3H583.14Zm-30.45,16.43h6.93v-9.25h-6.93Zm0,45.87h6.93v-9.21h-6.93Zm0-68.94h6.93V79.18h-6.93Zm0,34.49h6.93v-9.26h-6.93Zm0,11.41h6.93v-9.25h-6.93Zm0,11.66h6.93v-9.49h-6.93Zm9.11-45.91h7.41V90.6H561.8Zm0,11.42h7.41v-9.25H561.8Zm0,11.42h7.41v-9.26H561.8Zm0,34.45h7.41v-9.21H561.8Zm0-11.38h7.41v-9.49H561.8Zm0-11.66h7.41v-9.25H561.8Z"/><path class="cls-1" d="M611.4,95.08h-9.28V89.7A1.08,1.08,0,0,0,601,88.62H598.7V67.82a1.08,1.08,0,0,0-1.08-1.09H571.38V43.18a1.08,1.08,0,0,0-1.08-1.08H520.21a1.08,1.08,0,0,0-1.09,1.08V158.47h0v0a1.08,1.08,0,0,0,1.09,1.08H570.3a1.15,1.15,0,0,0,.26,0H611.4a1.08,1.08,0,0,0,1.08-1.08V96.16A1.08,1.08,0,0,0,611.4,95.08Zm-86.53,62.3h-3.58v-9.21h3.58Zm0-11.38h-3.58v-9.49h3.58Zm0-11.66h-3.58v-9.25h3.58Zm0-11.41h-3.58v-9.26h3.58Zm0-11.42h-3.58v-9.25h3.58Zm0-11.42h-3.58V90.6h3.58Zm0-11.65h-3.58V79.18h3.58Zm0-11.42h-3.58V44.26h3.58Zm16.06,80.36H527v-9.21h13.89Zm0-11.38H527v-9.49h13.89Zm0-11.66H527v-9.25h13.89Zm0-11.41H527v-9.26h13.89Zm0-11.42H527v-9.25h13.89Zm0-11.42H527V90.6h13.89Zm0-11.65H527V79.18h13.89Zm0-11.42H527V44.26h13.89Zm9.59,80.36H543.1v-9.21h7.42Zm0-11.38H543.1v-9.49h7.42Zm0-11.66H543.1v-9.25h7.42Zm0-11.41H543.1v-9.26h7.42Zm0-11.42H543.1v-9.25h7.42Zm0-11.42H543.1V90.6h7.42Zm0-11.65H543.1V79.18h7.42Zm0-11.42H543.1V44.26h7.42Zm9.1,80.36h-6.93v-9.21h6.93Zm0-11.38h-6.93v-9.49h6.93Zm0-11.66h-6.93v-9.25h6.93Zm0-11.41h-6.93v-9.26h6.93Zm0-11.42h-6.93v-9.25h6.93Zm0-11.42h-6.93V90.6h6.93Zm0-11.65h-6.93V79.18h6.93Zm9.59,68.94H561.8v-9.21h7.41Zm0-11.38H561.8v-9.49h7.41Zm0-11.66H561.8v-9.25h7.41Zm0-11.41H561.8v-9.26h7.41Zm0-11.42H561.8v-9.25h7.41Zm0-11.42H561.8V90.6h7.41Zm0-11.65H561.8V79.18h7.41Zm0-11.42H552.69V44.26h16.52Zm5.88,80.36h-3.71V97.24h3.71Zm0-62.3h-3.71V68.9h3.71Zm5.87,62.3h-3.7V97.24H581Zm0-62.3h-3.7V68.9H581Zm2.18-26.18h13.39V88.62H583.14Zm3.7,88.48h-3.7V97.24h3.7Zm5.88,0H589V97.24h3.71Zm5.87,0h-3.7V97.24h3.7ZM600,95.08H583.14v-4.3H600Zm4.49,62.3h-3.67V97.24h3.67Zm5.87,0h-3.7V97.24h3.7Z"/><path class="cls-1" d="M191.44,140.76H157.1V82.17A1.09,1.09,0,0,0,156,81.08H133.59V17.75a1.09,1.09,0,0,0-1.09-1.09h-40V1.08A1.08,1.08,0,0,0,91.44,0H49.73a1.08,1.08,0,0,0-1.08,1.08V28.36H1.09A1.08,1.08,0,0,0,0,29.44v129a1.09,1.09,0,0,0,1.09,1.08H191.44a1.08,1.08,0,0,0,1.08-1.08V141.84A1.08,1.08,0,0,0,191.44,140.76Z"/><path class="cls-3" d="M157.1,142.93v14.45h33.25V142.93ZM2.17,157.38H35.23V142H2.17ZM92.52,34.22h38.9V24.7H92.52Z"/><path class="cls-2" d="M145.34,157.38h3.71V83.25h-3.71Zm5.88-74.13v74.13h3.7V83.25ZM65.3,2.17h-2V4.93h2Zm4.2,0h-2V4.93h2Zm-12.61,0h-2V4.93h2Zm82.58,155.21h3.7V83.25h-3.7ZM61.09,2.17h-2V4.93h2Zm12.61,0h-2V4.93h2Zm34.74,134.77h-6.87v8.5h6.87ZM76.87,89.21H53.78a1.09,1.09,0,1,1,0-2.17H75.92l-5.69-3.7H53.78a1.09,1.09,0,1,1,0-2.17H66.9l-5.69-3.69H53.78a1.09,1.09,0,1,1,0-2.17h7.49a1.33,1.33,0,0,1,.21,0H90.35V2.17H88.48V6A1.08,1.08,0,0,1,87.39,7.1H53.78A1.08,1.08,0,0,1,52.69,6V2.17H50.82V90.89H76.87ZM53.78,10.8H87.39a1.09,1.09,0,1,1,0,2.17H53.78a1.09,1.09,0,1,1,0-2.17Zm0,5.86H87.39a1.09,1.09,0,1,1,0,2.17H53.78a1.09,1.09,0,1,1,0-2.17Zm0,5.87H87.39a1.09,1.09,0,1,1,0,2.17H53.78a1.09,1.09,0,1,1,0-2.17Zm0,5.86H87.39a1.09,1.09,0,1,1,0,2.17H53.78a1.09,1.09,0,1,1,0-2.17Zm0,5.87H87.39a1.08,1.08,0,1,1,0,2.16H53.78a1.08,1.08,0,1,1,0-2.16Zm0,5.86H87.39a1.09,1.09,0,1,1,0,2.17H53.78a1.09,1.09,0,1,1,0-2.17Zm0,5.87H87.39a1.08,1.08,0,1,1,0,2.16H53.78a1.08,1.08,0,1,1,0-2.16Zm0,5.86H87.39a1.09,1.09,0,1,1,0,2.17H53.78a1.09,1.09,0,1,1,0-2.17Zm0,5.87H87.39a1.08,1.08,0,1,1,0,2.16H53.78a1.08,1.08,0,1,1,0-2.16Zm0,5.86H87.39a1.09,1.09,0,1,1,0,2.17H53.78a1.09,1.09,0,1,1,0-2.17Zm0,5.87H87.39a1.08,1.08,0,1,1,0,2.16H53.78a1.08,1.08,0,1,1,0-2.16Zm79.81,21.44h3.7V83.25h-3.7Zm-25.15,35.39h-6.87v8.5h6.87Zm-62.86,31.1h91.71V93.06H45.58Zm4.79-20.44a1.08,1.08,0,1,1,0-2.16h3.8v-8.5h-3.8a1.09,1.09,0,1,1,0-2.17h3.8v-8.5h-3.8a1.09,1.09,0,1,1,0-2.17h3.8v-8.5h-3.8a1.08,1.08,0,1,1,0-2.16h3.8V97.34a1.09,1.09,0,0,1,2.17,0v5.44h6.88V97.34a1.09,1.09,0,0,1,2.17,0v5.44h6.87V97.34a1.09,1.09,0,0,1,2.17,0v5.44h6.88V97.34a1.09,1.09,0,0,1,2.17,0v5.44h6.87V97.34a1.09,1.09,0,0,1,2.17,0v5.44h6.87V97.34a1.09,1.09,0,0,1,2.18,0v5.44h6.87V97.34a1.09,1.09,0,0,1,2.17,0v5.44h6.87V97.34a1.09,1.09,0,0,1,2.18,0v5.44h6.87V97.34a1.09,1.09,0,0,1,2.17,0v5.44h3.8a1.08,1.08,0,1,1,0,2.16h-3.8v8.5h3.8a1.09,1.09,0,1,1,0,2.17h-3.8v8.5h3.8a1.09,1.09,0,1,1,0,2.17h-3.8v8.5h3.8a1.08,1.08,0,1,1,0,2.16h-3.8v8.5h3.8a1.09,1.09,0,1,1,0,2.17h-3.8v5.49a1.09,1.09,0,0,1-2.17,0v-5.49h-6.87v5.49a1.09,1.09,0,0,1-2.18,0v-5.49h-6.87v5.49a1.09,1.09,0,0,1-2.17,0v-5.49h-6.87v5.49a1.09,1.09,0,0,1-2.18,0v-5.49H92.52v5.49a1.09,1.09,0,0,1-2.17,0v-5.49H83.48v5.49a1.09,1.09,0,0,1-2.17,0v-5.49H74.43v5.49a1.09,1.09,0,0,1-2.17,0v-5.49H65.39v5.49a1.09,1.09,0,0,1-2.17,0v-5.49H56.34v5.49a1.09,1.09,0,0,1-2.17,0v-5.49h-3.8a1.09,1.09,0,1,1,0-2.17h3.8v-8.5Zm58.07-32h-6.87v8.5h6.87Zm0,10.67h-6.87v8.5h6.87Zm-10-79.22V75.28h3.7V36.39ZM65.13,77.44,78.28,86h26.31l13.15-8.55ZM108,90.89V86.37l-2,1.29v3.23Zm5.88,0V82.55L110.15,85v5.93Zm-10,0V88.15H79v2.74Zm27.59,0V36.39h-3.67v54.5Zm0-72.06H92.52v3.7h38.9ZM2.17,139.79H5.88V30.53H2.17ZM122,77.27l-.08,0V90.89h3.67V36.39h-3.67v39a1.07,1.07,0,0,1,.08,1.85ZM110.15,36.39V75.28h3.71V36.39Zm-13.92,0H92.52V75.28h3.71ZM86.31,2.17h-2V4.93h2Zm-4.21,0h-2V4.93h2Zm22.18,34.22V75.28H108V36.39ZM77.9,2.17h-2V4.93h2Zm41.83,34.22H116V75.28h3.7Zm0,42.34L116,81.14v9.75h3.7ZM72.26,136.94H65.39v8.5h6.87Zm27.13-10.66H92.52v8.5h6.87Zm-9-21.34H83.48v8.5h6.87Zm9,32H92.52v8.5h6.87Zm0-32H92.52v8.5h6.87Zm0,10.67H92.52v8.5h6.87ZM8.05,139.79h3.7V30.53H8.05Zm82.3-24.18H83.48v8.5h6.87Zm0,10.67H83.48v8.5h6.87Zm0,10.66H83.48v8.5h6.87Zm27.13-21.33h-6.87v8.5h6.87Zm0,10.67h-6.87v8.5h6.87Zm9-21.34h-6.87v8.5h6.87Zm-9,0h-6.87v8.5h6.87Zm9,32h-6.87v8.5h6.87Zm0-21.33h-6.87v8.5h6.87Zm0,10.67h-6.87v8.5h6.87ZM81.31,104.94H74.43v8.5h6.88ZM48.65,89.17H40.84a1.09,1.09,0,1,1,0-2.17h7.81V83.31H40.84a1.09,1.09,0,1,1,0-2.17h7.81v-3.7H40.84a1.08,1.08,0,1,1,0-2.16h7.81v-3.7H40.84a1.09,1.09,0,1,1,0-2.17h7.81v-3.7H40.84a1.08,1.08,0,1,1,0-2.16h7.81v-3.7H40.84a1.09,1.09,0,1,1,0-2.17h7.81V54H40.84a1.08,1.08,0,1,1,0-2.16h7.81v-3.7H40.84a1.09,1.09,0,1,1,0-2.17h7.81v-3.7H40.84a1.08,1.08,0,1,1,0-2.16h7.81v-3.7H40.84a1.09,1.09,0,1,1,0-2.17h7.81V30.53H37.4V157.38h6v-3.7H40.84a1.08,1.08,0,1,1,0-2.16h2.57v-3.7H40.84a1.09,1.09,0,1,1,0-2.17h2.57V142H40.84a1.09,1.09,0,1,1,0-2.17h2.57v-3.7H40.84a1.09,1.09,0,1,1,0-2.17h2.57v-3.69H40.84a1.09,1.09,0,1,1,0-2.17h2.57v-3.7H40.84a1.09,1.09,0,1,1,0-2.17h2.57V118.5H40.84a1.09,1.09,0,1,1,0-2.17h2.57v-3.7H40.84a1.09,1.09,0,1,1,0-2.17h2.57v-3.69H40.84a1.09,1.09,0,1,1,0-2.17h2.57v-3.7H40.84a1.09,1.09,0,1,1,0-2.17h2.57V95H40.84a1.09,1.09,0,1,1,0-2.17h2.57V92a1.08,1.08,0,0,1,1.08-1.08h4.16Zm14.57,47.77H56.34v8.5h6.88Zm-31.66,2.85h3.67V30.53H31.56Zm31.66-24.18H56.34v8.5h6.88Zm0,10.67H56.34v8.5h6.88ZM13.93,139.79h3.7V30.53h-3.7Zm5.87,0h3.71V30.53H19.8Zm5.88,0h3.7V30.53h-3.7Zm55.63-24.18H74.43v8.5h6.88Zm0,21.33H74.43v8.5h6.88Zm0-10.66H74.43v8.5h6.88Zm-9-21.34H65.39v8.5h6.87Zm-9,0H56.34v8.5h6.88Zm9,10.67H65.39v8.5h6.87Zm45.22,21.33h-6.87v8.5h6.87ZM72.26,126.28H65.39v8.5h6.87Z"/><path class="cls-1" d="M53.78,71.61H87.39a1.08,1.08,0,1,0,0-2.16H53.78a1.08,1.08,0,1,0,0,2.16Zm137.66,69.15H157.1V82.17A1.09,1.09,0,0,0,156,81.08H133.59V17.75a1.09,1.09,0,0,0-1.09-1.09h-40V1.08A1.08,1.08,0,0,0,91.44,0H49.73a1.08,1.08,0,0,0-1.08,1.08V28.36H1.09A1.08,1.08,0,0,0,0,29.44v129a1.09,1.09,0,0,0,1.09,1.08H191.44a1.08,1.08,0,0,0,1.08-1.08V141.84A1.08,1.08,0,0,0,191.44,140.76ZM92.52,18.83h38.9v3.7H92.52Zm0,5.87h38.9v9.52H92.52Zm38.9,11.69v54.5h-3.67V36.39Zm-9,39.66a1.11,1.11,0,0,0-.53-.63v-39h3.67v54.5h-3.67V77.32l.08,0A1.1,1.1,0,0,0,122.44,76.05Zm-2.71-39.66V75.28H116V36.39Zm-5.87,0V75.28h-3.71V36.39Zm-5.88,0V75.28h-3.7V36.39Zm-5.88,0V75.28H98.4V36.39Zm-9.58,0h3.71V75.28H92.52Zm25.22,41.05L104.59,86H78.28L65.13,77.44Zm2,1.29V90.89H116V81.14Zm-5.87,3.82v8.34h-3.71V85ZM108,86.37v4.52h-2V87.66Zm-4.15,1.78v2.74H79V88.15Zm-19.55-86h2V4.93h-2Zm-4.21,0h2V4.93h-2Zm-4.2,0h2V4.93h-2Zm-4.2,0h2V4.93h-2Zm-4.2,0h2V4.93h-2Zm-4.2,0h2V4.93h-2Zm-4.2,0h2V4.93h-2Zm-4.21,0h2V4.93h-2Zm-4,0h1.87V6A1.08,1.08,0,0,0,53.78,7.1H87.39A1.08,1.08,0,0,0,88.48,6V2.17h1.87V75.28H61.48a1.33,1.33,0,0,0-.21,0H53.78a1.09,1.09,0,1,0,0,2.17h7.43l5.69,3.69H53.78a1.09,1.09,0,1,0,0,2.17H70.23L75.92,87H53.78a1.09,1.09,0,1,0,0,2.17H76.87v1.68H50.82ZM25.68,30.53h3.7V139.79h-3.7Zm-5.88,0h3.71V139.79H19.8Zm-5.87,0h3.7V139.79h-3.7Zm-5.88,0h3.7V139.79H8.05Zm-5.88,0H5.88V139.79H2.17ZM35.23,157.38H2.17V142H35.23Zm0-17.59H31.56V30.53h3.67ZM43.41,92v.9H40.84a1.09,1.09,0,1,0,0,2.17h2.57v3.69H40.84a1.09,1.09,0,1,0,0,2.17h2.57v3.7H40.84a1.09,1.09,0,1,0,0,2.17h2.57v3.69H40.84a1.09,1.09,0,1,0,0,2.17h2.57v3.7H40.84a1.09,1.09,0,1,0,0,2.17h2.57v3.69H40.84a1.09,1.09,0,1,0,0,2.17h2.57v3.7H40.84a1.09,1.09,0,1,0,0,2.17h2.57v3.69H40.84a1.09,1.09,0,1,0,0,2.17h2.57v3.7H40.84a1.09,1.09,0,1,0,0,2.17h2.57v3.69H40.84a1.09,1.09,0,1,0,0,2.17h2.57v3.7H40.84a1.08,1.08,0,1,0,0,2.16h2.57v3.7h-6V30.53H48.65v3.69H40.84a1.09,1.09,0,1,0,0,2.17h7.81v3.7H40.84a1.08,1.08,0,1,0,0,2.16h7.81V46H40.84a1.09,1.09,0,1,0,0,2.17h7.81v3.7H40.84a1.08,1.08,0,1,0,0,2.16h7.81v3.7H40.84a1.09,1.09,0,1,0,0,2.17h7.81v3.7H40.84a1.08,1.08,0,1,0,0,2.16h7.81v3.7H40.84a1.09,1.09,0,1,0,0,2.17h7.81v3.7H40.84a1.08,1.08,0,1,0,0,2.16h7.81v3.7H40.84a1.09,1.09,0,1,0,0,2.17h7.81V87H40.84a1.09,1.09,0,1,0,0,2.17h7.81v1.72H44.49A1.08,1.08,0,0,0,43.41,92Zm93.88,65.41H45.58V93.06h91.71Zm0-66.49h-3.7V83.25h3.7Zm5.88,66.49h-3.7V83.25h3.7Zm5.88,0h-3.71V83.25h3.71Zm5.87,0h-3.7V83.25h3.7Zm35.43,0H157.1V142.93h33.25Zm-140-11.94a1.09,1.09,0,1,0,0,2.17h3.8v5.49a1.09,1.09,0,0,0,2.17,0v-5.49h6.88v5.49a1.09,1.09,0,0,0,2.17,0v-5.49h6.87v5.49a1.09,1.09,0,0,0,2.17,0v-5.49h6.88v5.49a1.09,1.09,0,0,0,2.17,0v-5.49h6.87v5.49a1.09,1.09,0,0,0,2.17,0v-5.49h6.87v5.49a1.09,1.09,0,0,0,2.18,0v-5.49h6.87v5.49a1.09,1.09,0,0,0,2.17,0v-5.49h6.87v5.49a1.09,1.09,0,0,0,2.18,0v-5.49h6.87v5.49a1.09,1.09,0,0,0,2.17,0v-5.49h3.8a1.09,1.09,0,1,0,0-2.17h-3.8v-8.5h3.8a1.08,1.08,0,1,0,0-2.16h-3.8v-8.5h3.8a1.09,1.09,0,1,0,0-2.17h-3.8v-8.5h3.8a1.09,1.09,0,1,0,0-2.17h-3.8v-8.5h3.8a1.08,1.08,0,1,0,0-2.16h-3.8V97.34a1.09,1.09,0,0,0-2.17,0v5.44h-6.87V97.34a1.09,1.09,0,0,0-2.18,0v5.44h-6.87V97.34a1.09,1.09,0,0,0-2.17,0v5.44h-6.87V97.34a1.09,1.09,0,0,0-2.18,0v5.44H92.52V97.34a1.09,1.09,0,0,0-2.17,0v5.44H83.48V97.34a1.09,1.09,0,0,0-2.17,0v5.44H74.43V97.34a1.09,1.09,0,0,0-2.17,0v5.44H65.39V97.34a1.09,1.09,0,0,0-2.17,0v5.44H56.34V97.34a1.09,1.09,0,0,0-2.17,0v5.44h-3.8a1.08,1.08,0,1,0,0,2.16h3.8v8.5h-3.8a1.09,1.09,0,1,0,0,2.17h3.8v8.5h-3.8a1.09,1.09,0,1,0,0,2.17h3.8v8.5h-3.8a1.08,1.08,0,1,0,0,2.16h3.8v8.5Zm69.29-40.5h6.87v8.5h-6.87Zm0,10.67h6.87v8.5h-6.87Zm0,10.67h6.87v8.5h-6.87Zm0,10.66h6.87v8.5h-6.87Zm-9-32h6.87v8.5h-6.87Zm0,10.67h6.87v8.5h-6.87Zm0,10.67h6.87v8.5h-6.87Zm0,10.66h6.87v8.5h-6.87Zm-9-32h6.87v8.5h-6.87Zm0,10.67h6.87v8.5h-6.87Zm0,10.67h6.87v8.5h-6.87Zm0,10.66h6.87v8.5h-6.87Zm-9-32h6.87v8.5H92.52Zm0,10.67h6.87v8.5H92.52Zm0,10.67h6.87v8.5H92.52Zm0,10.66h6.87v8.5H92.52Zm-9-32h6.87v8.5H83.48Zm0,10.67h6.87v8.5H83.48Zm0,10.67h6.87v8.5H83.48Zm0,10.66h6.87v8.5H83.48Zm-9-32h6.88v8.5H74.43Zm0,10.67h6.88v8.5H74.43Zm0,10.67h6.88v8.5H74.43Zm0,10.66h6.88v8.5H74.43Zm-9-32h6.87v8.5H65.39Zm0,10.67h6.87v8.5H65.39Zm0,10.67h6.87v8.5H65.39Zm0,10.66h6.87v8.5H65.39Zm-9-32h6.88v8.5H56.34Zm0,10.67h6.88v8.5H56.34Zm0,10.67h6.88v8.5H56.34Zm0,10.66h6.88v8.5H56.34ZM53.78,42.29H87.39a1.09,1.09,0,1,0,0-2.17H53.78a1.09,1.09,0,1,0,0,2.17Zm0-17.59H87.39a1.09,1.09,0,1,0,0-2.17H53.78a1.09,1.09,0,1,0,0,2.17Zm0,5.86H87.39a1.09,1.09,0,1,0,0-2.17H53.78a1.09,1.09,0,1,0,0,2.17Zm0-11.73H87.39a1.09,1.09,0,1,0,0-2.17H53.78a1.09,1.09,0,1,0,0,2.17Zm0-5.86H87.39a1.09,1.09,0,1,0,0-2.17H53.78a1.09,1.09,0,1,0,0,2.17Zm0,41.05H87.39a1.09,1.09,0,1,0,0-2.17H53.78a1.09,1.09,0,1,0,0,2.17Zm0,5.86H87.39a1.08,1.08,0,1,0,0-2.16H53.78a1.08,1.08,0,1,0,0,2.16Zm0-23.46H87.39a1.08,1.08,0,1,0,0-2.16H53.78a1.08,1.08,0,1,0,0,2.16Zm0,29.33H87.39a1.09,1.09,0,1,0,0-2.17H53.78a1.09,1.09,0,1,0,0,2.17Zm0-17.6H87.39a1.08,1.08,0,1,0,0-2.16H53.78a1.08,1.08,0,1,0,0,2.16Z"/><path class="cls-1" d="M259.32,110.46H241.9V69h4.87A1.08,1.08,0,0,0,247.86,68V65a1.09,1.09,0,0,0-1.09-1.09H241.9V62.58h4.87a1.08,1.08,0,0,0,1.09-1.08V58.57a1.09,1.09,0,0,0-1.09-1.09H241.9V56.13h4.87a1.09,1.09,0,0,0,1.09-1.08V52.11A1.08,1.08,0,0,0,246.77,51H241.9V49.68h4.87a1.09,1.09,0,0,0,1.09-1.09V45.66a1.08,1.08,0,0,0-1.09-1.08H241.9V33.49a1,1,0,0,0-.06-.35L234,10.42a1.11,1.11,0,0,0-1.21-.72,1.09,1.09,0,0,0-.91,1.07V44.58H227a1.08,1.08,0,0,0-1.09,1.08v2.93A1.09,1.09,0,0,0,227,49.68h4.87V51H227a1.08,1.08,0,0,0-1.09,1.08v2.94A1.09,1.09,0,0,0,227,56.13h4.87v1.35H227a1.09,1.09,0,0,0-1.09,1.09V61.5A1.08,1.08,0,0,0,227,62.58h4.87v1.35H227A1.09,1.09,0,0,0,225.91,65V68A1.08,1.08,0,0,0,227,69h4.87v47.3H213.13a1.08,1.08,0,0,0-1.09,1.08v4.78H203.6a1.08,1.08,0,0,0-1.08,1.09v35.19a1.08,1.08,0,0,0,1.08,1.08h55.72a1.09,1.09,0,0,0,1.09-1.08V111.55A1.09,1.09,0,0,0,259.32,110.46Z"/><path class="cls-2" d="M239.72,33.67l-5.67-16.43V44.58h5.67Zm6,26H228.08v.76h17.61Zm0-12.91H228.08v.77h17.61Zm-6,4.29V49.68h-5.67V51Zm6,2.17H228.08V54h17.61Zm-6,4.28V56.13h-5.67v1.35Zm-25.51,64.71h22.68a1.09,1.09,0,0,1,0,2.17h-9.67v3.7h9.67a1.09,1.09,0,0,1,0,2.17h-9.67v3.69h9.67a1.09,1.09,0,0,1,0,2.17h-9.67v3.7h12.5V118.5H214.21Zm-9.52,35.19H212v-3.7h-3.53a1.08,1.08,0,1,1,0-2.16H212v-3.7h-3.53a1.09,1.09,0,0,1,0-2.17H212V142h-3.53a1.09,1.09,0,0,1,0-2.17H225V124.36H204.69Zm3.82-29.32h12.71a1.09,1.09,0,0,1,0,2.17H208.51a1.09,1.09,0,0,1,0-2.17Zm0,5.86h12.71a1.09,1.09,0,0,1,0,2.17H208.51a1.09,1.09,0,0,1,0-2.17Zm31.21-70V62.58h-5.67v1.35Zm-5.67,52.4h5.67V69h-5.67ZM245.69,66.1H228.08v.77h17.61Zm-3.79,46.53v27.16h13.47a1.09,1.09,0,1,1,0,2.17H252v3.69h3.35a1.09,1.09,0,1,1,0,2.17H252v3.7h3.35a1.08,1.08,0,1,1,0,2.16H252v3.7h6.22V112.63Zm13.47,23.46H244.76a1.09,1.09,0,0,1,0-2.17h10.61a1.09,1.09,0,1,1,0,2.17Zm0-5.86H244.76a1.09,1.09,0,0,1,0-2.17h10.61a1.09,1.09,0,1,1,0,2.17Zm0-5.87H244.76a1.09,1.09,0,0,1,0-2.17h10.61a1.09,1.09,0,1,1,0,2.17Zm0-5.86H244.76a1.09,1.09,0,0,1,0-2.17h10.61a1.09,1.09,0,1,1,0,2.17Z"/><rect class="cls-3" x="214.21" y="141.96" width="35.64" height="15.43"/><path class="cls-1" d="M244.76,136.09h10.61a1.09,1.09,0,1,0,0-2.17H244.76a1.09,1.09,0,0,0,0,2.17Zm0-11.73h10.61a1.09,1.09,0,1,0,0-2.17H244.76a1.09,1.09,0,0,0,0,2.17Zm0-5.86h10.61a1.09,1.09,0,1,0,0-2.17H244.76a1.09,1.09,0,0,0,0,2.17Zm14.56-8H241.9V69h4.87A1.08,1.08,0,0,0,247.86,68V65a1.09,1.09,0,0,0-1.09-1.09H241.9V62.58h4.87a1.08,1.08,0,0,0,1.09-1.08V58.57a1.09,1.09,0,0,0-1.09-1.09H241.9V56.13h4.87a1.09,1.09,0,0,0,1.09-1.08V52.11A1.08,1.08,0,0,0,246.77,51H241.9V49.68h4.87a1.09,1.09,0,0,0,1.09-1.09V45.66a1.08,1.08,0,0,0-1.09-1.08H241.9V33.49a1,1,0,0,0-.06-.35L234,10.42a1.11,1.11,0,0,0-1.21-.72,1.09,1.09,0,0,0-.91,1.07V44.58H227a1.08,1.08,0,0,0-1.09,1.08v2.93A1.09,1.09,0,0,0,227,49.68h4.87V51H227a1.08,1.08,0,0,0-1.09,1.08v2.94A1.09,1.09,0,0,0,227,56.13h4.87v1.35H227a1.09,1.09,0,0,0-1.09,1.09V61.5A1.08,1.08,0,0,0,227,62.58h4.87v1.35H227A1.09,1.09,0,0,0,225.91,65V68A1.08,1.08,0,0,0,227,69h4.87v47.3H213.13a1.08,1.08,0,0,0-1.09,1.08v4.78H203.6a1.08,1.08,0,0,0-1.08,1.09v35.19a1.08,1.08,0,0,0,1.08,1.08h55.72a1.09,1.09,0,0,0,1.09-1.08V111.55A1.09,1.09,0,0,0,259.32,110.46ZM234.05,17.24l5.67,16.43V44.58h-5.67Zm-6,30.27v-.77h17.61v.77Zm11.64,2.17V51h-5.67V49.68ZM228.08,54V53.2h17.61V54Zm11.64,2.17v1.35h-5.67V56.13Zm-11.64,4.28v-.76h17.61v.76Zm11.64,2.17v1.35h-5.67V62.58Zm-11.64,4.29V66.1h17.61v.77ZM239.72,69v47.3h-5.67V69ZM214.21,118.5h25.51v21.29h-12.5v-3.7h9.67a1.09,1.09,0,0,0,0-2.17h-9.67v-3.69h9.67a1.09,1.09,0,0,0,0-2.17h-9.67v-3.7h9.67a1.09,1.09,0,0,0,0-2.17H214.21ZM212,145.65h-3.53a1.09,1.09,0,0,0,0,2.17H212v3.7h-3.53a1.08,1.08,0,1,0,0,2.16H212v3.7h-7.35v-33H225v15.43H208.51a1.09,1.09,0,0,0,0,2.17H212Zm37.81,11.73H214.21V142h35.64Zm8.39,0H252v-3.7h3.35a1.08,1.08,0,1,0,0-2.16H252v-3.7h3.35a1.09,1.09,0,1,0,0-2.17H252V142h3.35a1.09,1.09,0,1,0,0-2.17H241.9V112.63h16.34Zm-13.48-27.15h10.61a1.09,1.09,0,1,0,0-2.17H244.76a1.09,1.09,0,0,0,0,2.17Zm-36.25,0h12.71a1.09,1.09,0,0,0,0-2.17H208.51a1.09,1.09,0,0,0,0,2.17Zm0,5.86h12.71a1.09,1.09,0,0,0,0-2.17H208.51a1.09,1.09,0,0,0,0,2.17Z"/><path class="cls-1" d="M488.94,105.72a1.09,1.09,0,0,0-1.09-1.09H473.42V78.1a1.09,1.09,0,0,0-.36-.81,1.13,1.13,0,0,0-.85-.27l-51.11,5.5a1.08,1.08,0,0,0-1,1.08V87h-6.46V76.39a1.09,1.09,0,0,0-1.09-1.08H389.23V68.17a1.08,1.08,0,0,0-1.08-1.08H378.09V35.65a1.09,1.09,0,1,0-2.17,0V67.09h-9V50.59a1.09,1.09,0,0,0-2.17,0v16.5h-4.42a1.09,1.09,0,0,0-1.09,1.08v90.3a1.09,1.09,0,0,0,1.09,1.08h10a1.09,1.09,0,0,0,.26,0h18.34a1.15,1.15,0,0,0,.26,0h4.21a1.09,1.09,0,0,0,.26,0h78.67a1.09,1.09,0,0,0,.26,0h7.21a1.09,1.09,0,0,0,.26,0h7.79a1.08,1.08,0,0,0,1.09-1.08v0h0Z"/><rect class="cls-3" x="446.99" y="93.77" width="15.08" height="10.86"/><path class="cls-2" d="M431.64,92.92V89.21H394.75V92.9h36.78Zm2.17-4.8v16.51h11V92.69a1.08,1.08,0,0,1,1.09-1.08h17.25a1.08,1.08,0,0,1,1.09,1.08v11.94h7V79.31l-48.94,5.26V87h10.42A1.08,1.08,0,0,1,433.81,88.12ZM387.06,69.26H361.43v88.12h3.34v-81a1.09,1.09,0,0,1,1.09-1.08h21.2Zm44.58,29.52V95.06H394.75v3.7h36.89Zm-20.13-21.3H394.75V87h16.76Zm-16.76,44.75h25.39v-3.7H394.75Zm0,5.86h25.39V124.4H394.75Zm0-11.73h25.39v-3.69H394.75Zm0-5.86h25.39v-3.7H394.75Zm85.31,0h6.7v-3.7H422.31v3.7h17.25a1.09,1.09,0,0,1,0,2.17H422.31v3.69h17.25a1.09,1.09,0,0,1,0,2.17H422.31v3.7h17.25a1.09,1.09,0,0,1,0,2.17H422.31v3.69h17.25a1.09,1.09,0,0,1,0,2.17H422.31V134h17.25a1.08,1.08,0,0,1,0,2.16H422.31v3.7h17.25a1.09,1.09,0,0,1,0,2.17H422.31v3.7h17.25a1.08,1.08,0,0,1,0,2.16H422.31v3.7h17.25a1.09,1.09,0,0,1,0,2.17H422.31v3.66h64.45v-3.66h-6.7a1.09,1.09,0,1,1,0-2.17h6.7v-3.7h-6.7a1.08,1.08,0,1,1,0-2.16h6.7V142h-6.7a1.09,1.09,0,1,1,0-2.17h6.7v-3.7h-6.7a1.08,1.08,0,1,1,0-2.16h6.7v-3.7h-6.7a1.09,1.09,0,1,1,0-2.17h6.7V124.4h-6.7a1.09,1.09,0,1,1,0-2.17h6.7v-3.7h-6.7a1.09,1.09,0,1,1,0-2.17h6.7v-3.69h-6.7a1.09,1.09,0,1,1,0-2.17Zm-7.73,43.22H454a1.09,1.09,0,1,1,0-2.17h18.33a1.09,1.09,0,1,1,0,2.17Zm0-5.87H454a1.08,1.08,0,1,1,0-2.16h18.33a1.08,1.08,0,1,1,0,2.16Zm0-5.86H454a1.09,1.09,0,1,1,0-2.17h18.33a1.09,1.09,0,1,1,0,2.17Zm0-5.87H454a1.08,1.08,0,1,1,0-2.16h18.33a1.08,1.08,0,1,1,0,2.16Zm0-5.86H454a1.09,1.09,0,1,1,0-2.17h18.33a1.09,1.09,0,1,1,0,2.17Zm0-5.86H454a1.09,1.09,0,1,1,0-2.17h18.33a1.09,1.09,0,1,1,0,2.17Zm0-5.87H454a1.09,1.09,0,1,1,0-2.17h18.33a1.09,1.09,0,1,1,0,2.17Zm0-5.86H454a1.09,1.09,0,1,1,0-2.17h18.33a1.09,1.09,0,1,1,0,2.17Zm-40.69-11.74H394.75v3.69h36.89Zm-36.89,50.62h25.39v-3.7H394.75Zm0,5.83h25.39v-3.66H394.75Zm-27.81,0h25.63V77.48H366.94Zm3.65-76.21h18.34a1.09,1.09,0,0,1,0,2.17H370.59a1.09,1.09,0,0,1,0-2.17Zm0,5.87h18.34a1.09,1.09,0,0,1,0,2.17H370.59a1.09,1.09,0,0,1,0-2.17Zm0,5.86h18.34a1.09,1.09,0,0,1,0,2.17H370.59a1.09,1.09,0,0,1,0-2.17Zm0,5.87h18.34a1.09,1.09,0,0,1,0,2.17H370.59a1.09,1.09,0,0,1,0-2.17Zm0,5.86h18.34a1.09,1.09,0,0,1,0,2.17H370.59a1.09,1.09,0,0,1,0-2.17Zm0,5.87h18.34a1.09,1.09,0,0,1,0,2.17H370.59a1.09,1.09,0,0,1,0-2.17Zm0,5.86h18.34a1.09,1.09,0,0,1,0,2.17H370.59a1.09,1.09,0,0,1,0-2.17Zm0,5.87h18.34a1.09,1.09,0,0,1,0,2.17H370.59a1.09,1.09,0,0,1,0-2.17Zm0,5.86h18.34a1.09,1.09,0,0,1,0,2.17H370.59a1.09,1.09,0,0,1,0-2.17Zm0,5.87h18.34a1.08,1.08,0,1,1,0,2.16H370.59a1.08,1.08,0,1,1,0-2.16Zm0,5.86h18.34a1.09,1.09,0,0,1,0,2.17H370.59a1.09,1.09,0,0,1,0-2.17Zm0,5.87h18.34a1.08,1.08,0,0,1,0,2.16H370.59a1.08,1.08,0,0,1,0-2.16Zm0,5.86h18.34a1.09,1.09,0,0,1,0,2.17H370.59a1.09,1.09,0,0,1,0-2.17Zm24.16-5.86h25.39V142H394.75Zm0-5.87h25.39v-3.7H394.75Zm0-5.86h25.39v-3.7H394.75Z"/><path class="cls-1" d="M370.59,118.53h18.34a1.09,1.09,0,0,0,0-2.17H370.59a1.09,1.09,0,0,0,0,2.17Zm0-5.86h18.34a1.09,1.09,0,0,0,0-2.17H370.59a1.09,1.09,0,0,0,0,2.17Zm0-5.87h18.34a1.09,1.09,0,0,0,0-2.17H370.59a1.09,1.09,0,0,0,0,2.17Zm0-5.86h18.34a1.09,1.09,0,0,0,0-2.17H370.59a1.09,1.09,0,0,0,0,2.17Zm0,23.46h18.34a1.09,1.09,0,0,0,0-2.17H370.59a1.09,1.09,0,0,0,0,2.17Zm0,29.32h18.34a1.09,1.09,0,0,0,0-2.17H370.59a1.09,1.09,0,0,0,0,2.17Zm0-5.87h18.34a1.08,1.08,0,0,0,0-2.16H370.59a1.08,1.08,0,0,0,0,2.16Zm0-52.78h18.34a1.09,1.09,0,0,0,0-2.17H370.59a1.09,1.09,0,0,0,0,2.17Zm0,46.92h18.34a1.09,1.09,0,0,0,0-2.17H370.59a1.09,1.09,0,0,0,0,2.17Zm0-5.87h18.34a1.08,1.08,0,1,0,0-2.16H370.59a1.08,1.08,0,1,0,0,2.16Zm0-5.86h18.34a1.09,1.09,0,0,0,0-2.17H370.59a1.09,1.09,0,0,0,0,2.17ZM454,142h18.33a1.09,1.09,0,1,0,0-2.17H454a1.09,1.09,0,1,0,0,2.17ZM370.59,89.21h18.34a1.09,1.09,0,0,0,0-2.17H370.59a1.09,1.09,0,0,0,0,2.17ZM454,147.85h18.33a1.08,1.08,0,1,0,0-2.16H454a1.08,1.08,0,1,0,0,2.16Zm0,5.87h18.33a1.09,1.09,0,1,0,0-2.17H454a1.09,1.09,0,1,0,0,2.17Zm0-23.46h18.33a1.09,1.09,0,1,0,0-2.17H454a1.09,1.09,0,1,0,0,2.17Zm0,5.86h18.33a1.08,1.08,0,1,0,0-2.16H454a1.08,1.08,0,1,0,0,2.16Zm0-11.72h18.33a1.09,1.09,0,1,0,0-2.17H454a1.09,1.09,0,1,0,0,2.17Zm34.94-18.68a1.09,1.09,0,0,0-1.09-1.09H473.42V78.1a1.09,1.09,0,0,0-.36-.81,1.13,1.13,0,0,0-.85-.27l-51.11,5.5a1.08,1.08,0,0,0-1,1.08V87h-6.46V76.39a1.09,1.09,0,0,0-1.09-1.08H389.23V68.17a1.08,1.08,0,0,0-1.08-1.08H378.09V35.65a1.09,1.09,0,1,0-2.17,0V67.09h-9V50.59a1.09,1.09,0,0,0-2.17,0v16.5h-4.42a1.09,1.09,0,0,0-1.09,1.08v90.3a1.09,1.09,0,0,0,1.09,1.08h10a1.09,1.09,0,0,0,.26,0h18.34a1.15,1.15,0,0,0,.26,0h4.21a1.09,1.09,0,0,0,.26,0h78.67a1.09,1.09,0,0,0,.26,0h7.21a1.09,1.09,0,0,0,.26,0h7.79a1.08,1.08,0,0,0,1.09-1.08v0h0ZM364.77,76.39v81h-3.34V69.26h25.63v6h-21.2A1.09,1.09,0,0,0,364.77,76.39Zm27.8,81H366.94V77.48h25.63Zm29.74-72.81,48.94-5.26v25.32h-7V92.69a1.08,1.08,0,0,0-1.09-1.08H445.91a1.08,1.08,0,0,0-1.09,1.08v11.94h-11V88.12A1.08,1.08,0,0,0,432.73,87H422.31Zm39.77,9.2v10.86H447V93.77ZM394.75,77.48h16.76V87H394.75Zm0,11.73h36.89v3.71l-.11,0H394.75Zm0,5.86h36.89v3.72H394.75Zm0,5.87h36.89v3.7H394.75Zm25.39,56.44H394.75v-3.66h25.39Zm0-5.83H394.75v-3.7h25.39Zm0-5.86H394.75V142h25.39Zm0-5.87H394.75v-3.7h25.39Zm0-5.86H394.75v-3.7h25.39Zm0-5.87H394.75V124.4h25.39Zm0-5.86H394.75v-3.7h25.39Zm0-5.87H394.75v-3.69h25.39Zm0-5.86H394.75v-3.7h25.39Zm66.62,0h-6.7a1.09,1.09,0,1,0,0,2.17h6.7v3.69h-6.7a1.09,1.09,0,1,0,0,2.17h6.7v3.7h-6.7a1.09,1.09,0,1,0,0,2.17h6.7v3.69h-6.7a1.09,1.09,0,1,0,0,2.17h6.7V134h-6.7a1.08,1.08,0,1,0,0,2.16h6.7v3.7h-6.7a1.09,1.09,0,1,0,0,2.17h6.7v3.7h-6.7a1.08,1.08,0,1,0,0,2.16h6.7v3.7h-6.7a1.09,1.09,0,1,0,0,2.17h6.7v3.66H422.31v-3.66h17.25a1.09,1.09,0,0,0,0-2.17H422.31v-3.7h17.25a1.08,1.08,0,0,0,0-2.16H422.31V142h17.25a1.09,1.09,0,0,0,0-2.17H422.31v-3.7h17.25a1.08,1.08,0,0,0,0-2.16H422.31v-3.7h17.25a1.09,1.09,0,0,0,0-2.17H422.31V124.4h17.25a1.09,1.09,0,0,0,0-2.17H422.31v-3.7h17.25a1.09,1.09,0,0,0,0-2.17H422.31v-3.69h17.25a1.09,1.09,0,0,0,0-2.17H422.31v-3.7h64.45ZM370.59,83.34h18.34a1.09,1.09,0,0,0,0-2.17H370.59a1.09,1.09,0,0,0,0,2.17ZM454,118.53h18.33a1.09,1.09,0,1,0,0-2.17H454a1.09,1.09,0,1,0,0,2.17Zm0-5.86h18.33a1.09,1.09,0,1,0,0-2.17H454a1.09,1.09,0,1,0,0,2.17Z"/><path class="cls-1" d="M354.41,67.09h-8.8V17.75a1.08,1.08,0,0,0-1.08-1.09H299.47a1.09,1.09,0,0,0-1.09,1.09V34.22H275.32a1.08,1.08,0,0,0-1.08,1.09V158.47a1.08,1.08,0,0,0,1.08,1.08H299a1,1,0,0,0,.43.09H318.4a.88.88,0,0,0,.33-.06h19.33a1.15,1.15,0,0,0,.26,0h16.09a1.09,1.09,0,0,0,1.09-1.08V68.17A1.09,1.09,0,0,0,354.41,67.09Z"/><path class="cls-2" d="M337,118.53H325.12v3.7H337Zm0-5.86H325.12v3.69H337Zm0-11.73H325.12v3.69H337Zm0-5.87H325.12v3.7H337Zm-11.85,38.85H337v-3.66H325.12ZM337,18.83H300.56v6.93H337Zm6.47,0h-4.3V133.92h4.3ZM337,89.21H325.12V92.9H337Zm-18.13-55H337V30.86H300.56v3.27H318.4A1.08,1.08,0,0,1,318.84,34.22ZM337,124.4H325.12v3.69H337Zm0-17.6H325.12v3.7H337ZM323,36.39h-28v97.53h28Zm-4.55,93.88H299.47a1.08,1.08,0,1,1,0-2.16H318.4a1.08,1.08,0,1,1,0,2.16Zm0-5.87H299.47a1.09,1.09,0,1,1,0-2.17H318.4a1.09,1.09,0,1,1,0,2.17Zm0-5.87H299.47a1.09,1.09,0,1,1,0-2.17H318.4a1.09,1.09,0,1,1,0,2.17Zm0-5.88H299.47a1.08,1.08,0,1,1,0-2.16H318.4a1.08,1.08,0,1,1,0,2.16Zm0-5.87H299.47a1.09,1.09,0,1,1,0-2.17H318.4a1.09,1.09,0,1,1,0,2.17Zm0-5.87H299.47a1.09,1.09,0,1,1,0-2.17H318.4a1.09,1.09,0,1,1,0,2.17Zm0-5.88H299.47a1.08,1.08,0,1,1,0-2.16H318.4a1.08,1.08,0,1,1,0,2.16Zm0-5.87H299.47a1.09,1.09,0,1,1,0-2.17H318.4a1.09,1.09,0,1,1,0,2.17Zm-19.61-5.75V75.17a1.09,1.09,0,0,1,2.17,0v8.24a1.09,1.09,0,1,1-2.17,0Zm6,0V75.17a1.09,1.09,0,0,1,2.17,0v8.24a1.09,1.09,0,1,1-2.17,0Zm6,0V75.17a1.09,1.09,0,0,1,2.17,0v8.24a1.09,1.09,0,1,1-2.17,0Zm6,0V75.17a1.09,1.09,0,0,1,2.17,0v8.24a1.09,1.09,0,1,1-2.17,0Zm1.49-11.87H299.47a1.09,1.09,0,1,1,0-2.17H318.4a1.09,1.09,0,1,1,0,2.17Zm0-5.87H299.47a1.09,1.09,0,1,1,0-2.17H318.4a1.09,1.09,0,1,1,0,2.17Zm0-5.88H299.47a1.08,1.08,0,1,1,0-2.16H318.4a1.08,1.08,0,1,1,0,2.16Zm0-5.87H299.47a1.09,1.09,0,1,1,0-2.17H318.4a1.09,1.09,0,1,1,0,2.17Zm0-5.87H299.47a1.09,1.09,0,1,1,0-2.17H318.4a1.09,1.09,0,1,1,0,2.17Zm0-5.88H299.47a1.08,1.08,0,1,1,0-2.16H318.4a1.08,1.08,0,1,1,0,2.16Zm18.57.08H325.12V46H337Zm0,41.09H325.12V87H337ZM284.5,136.09v3.7h29.29a1.08,1.08,0,0,1,1.09,1.08v16.51h38.45V136.09Zm3.23-93.61v91.44h5V36.39H276.41v5h10.24A1.08,1.08,0,0,1,287.73,42.48ZM337,48.15H325.12v3.7H337Zm0,23.46H325.12v3.7H337ZM337,54H325.12v3.7H337Zm0,23.46H325.12v3.69H337Zm0-17.6H325.12v3.7H337Zm0,5.87H325.12v3.7H337Z"/><path class="cls-3" d="M345.61,69.26v64.66h7.72V69.26ZM282.33,135a1.08,1.08,0,0,1,1.08-1.09h2.15V43.57h-9.15v96.22h5.92Zm-5.92,22.37H312.7V142H276.41ZM300.56,28.7H337v-.77H300.56Zm24.56,11.39H337v-3.7H325.12Z"/><path class="cls-1" d="M354.41,67.09h-8.8V17.75a1.08,1.08,0,0,0-1.08-1.09H299.47a1.09,1.09,0,0,0-1.09,1.09V34.22H275.32a1.08,1.08,0,0,0-1.08,1.09V158.47a1.08,1.08,0,0,0,1.08,1.08H299a1,1,0,0,0,.43.09H318.4a.88.88,0,0,0,.33-.06h19.33a1.15,1.15,0,0,0,.26,0h16.09a1.09,1.09,0,0,0,1.09-1.08V68.17A1.09,1.09,0,0,0,354.41,67.09ZM339.14,18.83h4.3V133.92h-4.3Zm-38.58,0H337v6.93H300.56Zm0,9.1H337v.77H300.56Zm0,2.93H337v3.36H318.84a1.08,1.08,0,0,0-.44-.09H300.56Zm24.56,97.23V124.4H337v3.69ZM337,130.26v3.66H325.12v-3.66Zm-11.85-8v-3.7H337v3.7Zm0-5.87v-3.69H337v3.69Zm0-5.86v-3.7H337v3.7Zm0-5.87v-3.69H337v3.69Zm0-5.86v-3.7H337v3.7Zm0-5.87V89.21H337V92.9Zm0-5.86v-3.7H337V87Zm0-5.87V77.48H337v3.69Zm0-5.86v-3.7H337v3.7Zm0-5.86v-3.7H337v3.7Zm0-5.87v-3.7H337v3.7Zm0-5.86V54H337v3.7Zm0-5.87v-3.7H337v3.7Zm0-5.86V42.25H337V46Zm0-5.9v-3.7H337v3.7Zm-30.2-3.7h28v97.53h-28Zm-18.51,0h16.34v97.53h-5V42.48a1.08,1.08,0,0,0-1.08-1.08H276.41Zm0,7.18h9.15v90.35h-2.15a1.08,1.08,0,0,0-1.08,1.09v4.78h-5.92ZM312.7,157.38H276.41V142H312.7Zm40.63,0H314.88V140.87a1.08,1.08,0,0,0-1.09-1.08H284.5v-3.7h68.83Zm0-23.46h-7.72V69.26h7.72ZM318.4,69.37H299.47a1.09,1.09,0,1,0,0,2.17H318.4a1.09,1.09,0,1,0,0-2.17Zm.68,14V75.17a1.09,1.09,0,0,0-2.17,0v8.24a1.09,1.09,0,1,0,2.17,0ZM318.4,63.5H299.47a1.09,1.09,0,1,0,0,2.17H318.4a1.09,1.09,0,1,0,0-2.17ZM313,83.41V75.17a1.09,1.09,0,0,0-2.17,0v8.24a1.09,1.09,0,1,0,2.17,0ZM318.4,40H299.47a1.08,1.08,0,1,0,0,2.16H318.4a1.08,1.08,0,1,0,0-2.16ZM307,83.41V75.17a1.09,1.09,0,0,0-2.17,0v8.24a1.09,1.09,0,1,0,2.17,0Zm11.4-25.78H299.47a1.08,1.08,0,1,0,0,2.16H318.4a1.08,1.08,0,1,0,0-2.16Zm0-11.75H299.47a1.09,1.09,0,1,0,0,2.17H318.4a1.09,1.09,0,1,0,0-2.17Zm0,5.87H299.47a1.09,1.09,0,1,0,0,2.17H318.4a1.09,1.09,0,1,0,0-2.17Zm0,52.86H299.47a1.09,1.09,0,1,0,0,2.17H318.4a1.09,1.09,0,1,0,0-2.17Zm0,5.88H299.47a1.08,1.08,0,1,0,0,2.16H318.4a1.08,1.08,0,1,0,0-2.16Zm0,5.87H299.47a1.09,1.09,0,1,0,0,2.17H318.4a1.09,1.09,0,1,0,0-2.17Zm0,5.87H299.47a1.09,1.09,0,1,0,0,2.17H318.4a1.09,1.09,0,1,0,0-2.17Zm0,5.88H299.47a1.08,1.08,0,1,0,0,2.16H318.4a1.08,1.08,0,1,0,0-2.16Zm0-41.12H299.47a1.09,1.09,0,1,0,0,2.17H318.4a1.09,1.09,0,1,0,0-2.17ZM301,83.41V75.17a1.09,1.09,0,0,0-2.17,0v8.24a1.09,1.09,0,1,0,2.17,0Zm17.44,9.46H299.47a1.08,1.08,0,1,0,0,2.16H318.4a1.08,1.08,0,1,0,0-2.16Zm0,5.87H299.47a1.09,1.09,0,1,0,0,2.17H318.4a1.09,1.09,0,1,0,0-2.17Z"/></g></g></svg>