<svg xmlns="http://www.w3.org/2000/svg" viewBox="0 0 645.35 159.64"><defs><style>.cls-1{fill:#3280fa;}.cls-2{fill:#f2f2f2;}.cls-3{fill:#cadefe;}</style></defs><title>bld_all_1</title><g id="Layer_2" data-name="Layer 2"><g id="Layer_1-2" data-name="Layer 1"><path class="cls-1" d="M644.26,73.43H614.92a1.08,1.08,0,0,0-1.09,1.08v6.57H583a1.09,1.09,0,0,0-1.09,1.09v56.25H571.65a1.08,1.08,0,0,0-1.08,1.09v19a1.08,1.08,0,0,0,1.08,1.08h72.61a1.09,1.09,0,0,0,1.09-1.08v-84A1.08,1.08,0,0,0,644.26,73.43Z"/><path class="cls-2" d="M621.88,138.42h3.7V75.6h-3.7Zm-5.88,0h3.71V75.6H616ZM600.17,83.25h-16.1v5.37h16.1Zm-3.1,55.17h13.4v-2.55h-13.4Zm30.69,0h3.7V75.6h-3.7ZM639.51,75.6v81.78h3.67V75.6Zm-5.88,62.82h.94a1.09,1.09,0,0,1,1.09,1.09v17.87h1.68V75.6h-3.71Z"/><path class="cls-3" d="M612.65,134.79v3.63h1.18V83.25H602.34V133.7h9.22A1.09,1.09,0,0,1,612.65,134.79Zm-39.91,5.8v16.79h60.74V140.59Zm22.16-5.8A1.08,1.08,0,0,1,596,133.7h4.19V90.78h-16.1v47.64H594.9Z"/><path class="cls-1" d="M644.26,73.43H614.92a1.08,1.08,0,0,0-1.09,1.08v6.57H583a1.09,1.09,0,0,0-1.09,1.09v56.25H571.65a1.08,1.08,0,0,0-1.08,1.09v19a1.08,1.08,0,0,0,1.08,1.08h72.61a1.09,1.09,0,0,0,1.09-1.08v-84A1.08,1.08,0,0,0,644.26,73.43Zm-16.5,2.17h3.7v62.82h-3.7Zm-5.88,0h3.7v62.82h-3.7Zm-5.88,0h3.71v62.82H616Zm-13.66,7.65h11.49v55.17h-1.18v-3.63a1.09,1.09,0,0,0-1.09-1.09h-9.22Zm8.13,52.62v2.55h-13.4v-2.55Zm-26.4-52.62h16.1v5.37h-16.1Zm0,7.53h16.1V133.7H596a1.08,1.08,0,0,0-1.08,1.09v3.63H584.07Zm49.41,66.6H572.74V140.59h60.74Zm3.86,0h-1.68V139.51a1.09,1.09,0,0,0-1.09-1.09h-.94V75.6h3.71Zm5.84,0h-3.67V75.6h3.67Z"/><path class="cls-1" d="M571.65,95.08h-9.27V89.7a1.08,1.08,0,0,0-1.09-1.08H559V67.82a1.09,1.09,0,0,0-1.09-1.09H531.64V43.18a1.08,1.08,0,0,0-1.09-1.08H480.46a1.08,1.08,0,0,0-1.08,1.08V158.47h0v0a1.08,1.08,0,0,0,1.08,1.08h50.09a1.09,1.09,0,0,0,.26,0h40.84a1.09,1.09,0,0,0,1.09-1.08V96.16A1.08,1.08,0,0,0,571.65,95.08Z"/><path class="cls-2" d="M487.3,122.93h13.88v-9.26H487.3Zm0-45.91h13.88V44.26H487.3Zm0,23.07h13.88V90.6H487.3Zm0,11.42h13.88v-9.25H487.3ZM503.36,146h7.41v-9.49h-7.41ZM487.3,88.44h13.88V79.18H487.3Zm16.06,68.94h7.41v-9.21h-7.41Zm0-68.94h7.41V79.18h-7.41Zm0,11.65h7.41V90.6h-7.41Zm0,34.25h7.41v-9.25h-7.41Zm0-11.41h7.41v-9.26h-7.41Zm0-11.42h7.41v-9.25h-7.41ZM487.3,157.38h13.88v-9.21H487.3ZM481.55,146h3.58v-9.49h-3.58Zm0-11.66h3.58v-9.25h-3.58Zm0-11.41h3.58v-9.26h-3.58Zm75.24-54h-13.4V88.62h13.4Zm-75.24,42.61h3.58v-9.25h-3.58Zm0,45.87h3.58v-9.21h-3.58Zm0-68.94h3.58V79.18h-3.58ZM487.3,146h13.88v-9.49H487.3Zm16.06-69h7.41V44.26h-7.41Zm-21.81,0h3.58V44.26h-3.58Zm0,23.07h3.58V90.6h-3.58Zm5.75,34.25h13.88v-9.25H487.3Zm25.64-34.25h6.94V90.6h-6.94Zm24.57,57.29h3.71V97.24h-3.71ZM522.05,88.44h7.42V79.18h-7.42Zm9.59,6.64h3.7V68.9h-3.7ZM512.94,77h16.53V44.26H512.94Zm30.45,80.36h3.71V97.24h-3.71Zm-11.75,0h3.7V97.24h-3.7Zm5.87-62.3h3.71V68.9h-3.71ZM561,157.38h3.67V97.24H561Zm-11.75,0H553V97.24h-3.7Zm17.59-60.14v60.14h3.71V97.24Zm-11.71,60.14h3.7V97.24h-3.7Zm-11.76-62.3H560.2v-4.3H543.39Zm-30.45,16.43h6.94v-9.25h-6.94Zm0,45.87h6.94v-9.21h-6.94Zm0-68.94h6.94V79.18h-6.94Zm0,34.49h6.94v-9.26h-6.94Zm0,11.41h6.94v-9.25h-6.94Zm0,11.66h6.94v-9.49h-6.94Zm9.11-45.91h7.42V90.6h-7.42Zm0,11.42h7.42v-9.25h-7.42Zm0,11.42h7.42v-9.26h-7.42Zm0,34.45h7.42v-9.21h-7.42Zm0-11.38h7.42v-9.49h-7.42Zm0-11.66h7.42v-9.25h-7.42Z"/><path class="cls-1" d="M571.65,95.08h-9.27V89.7a1.08,1.08,0,0,0-1.09-1.08H559V67.82a1.09,1.09,0,0,0-1.09-1.09H531.64V43.18a1.08,1.08,0,0,0-1.09-1.08H480.46a1.08,1.08,0,0,0-1.08,1.08V158.47h0v0a1.08,1.08,0,0,0,1.08,1.08h50.09a1.09,1.09,0,0,0,.26,0h40.84a1.09,1.09,0,0,0,1.09-1.08V96.16A1.08,1.08,0,0,0,571.65,95.08Zm-86.52,62.3h-3.58v-9.21h3.58Zm0-11.38h-3.58v-9.49h3.58Zm0-11.66h-3.58v-9.25h3.58Zm0-11.41h-3.58v-9.26h3.58Zm0-11.42h-3.58v-9.25h3.58Zm0-11.42h-3.58V90.6h3.58Zm0-11.65h-3.58V79.18h3.58Zm0-11.42h-3.58V44.26h3.58Zm16.05,80.36H487.3v-9.21h13.88Zm0-11.38H487.3v-9.49h13.88Zm0-11.66H487.3v-9.25h13.88Zm0-11.41H487.3v-9.26h13.88Zm0-11.42H487.3v-9.25h13.88Zm0-11.42H487.3V90.6h13.88Zm0-11.65H487.3V79.18h13.88Zm0-11.42H487.3V44.26h13.88Zm9.59,80.36h-7.41v-9.21h7.41Zm0-11.38h-7.41v-9.49h7.41Zm0-11.66h-7.41v-9.25h7.41Zm0-11.41h-7.41v-9.26h7.41Zm0-11.42h-7.41v-9.25h7.41Zm0-11.42h-7.41V90.6h7.41Zm0-11.65h-7.41V79.18h7.41Zm0-11.42h-7.41V44.26h7.41Zm9.11,80.36h-6.94v-9.21h6.94Zm0-11.38h-6.94v-9.49h6.94Zm0-11.66h-6.94v-9.25h6.94Zm0-11.41h-6.94v-9.26h6.94Zm0-11.42h-6.94v-9.25h6.94Zm0-11.42h-6.94V90.6h6.94Zm0-11.65h-6.94V79.18h6.94Zm9.59,68.94h-7.42v-9.21h7.42Zm0-11.38h-7.42v-9.49h7.42Zm0-11.66h-7.42v-9.25h7.42Zm0-11.41h-7.42v-9.26h7.42Zm0-11.42h-7.42v-9.25h7.42Zm0-11.42h-7.42V90.6h7.42Zm0-11.65h-7.42V79.18h7.42Zm0-11.42H512.94V44.26h16.53Zm5.87,80.36h-3.7V97.24h3.7Zm0-62.3h-3.7V68.9h3.7Zm5.88,62.3h-3.71V97.24h3.71Zm0-62.3h-3.71V68.9h3.71Zm2.17-26.18h13.4V88.62h-13.4Zm3.71,88.48h-3.71V97.24h3.71Zm5.87,0h-3.7V97.24H553Zm5.88,0h-3.7V97.24h3.7Zm1.35-62.3H543.39v-4.3H560.2Zm4.49,62.3H561V97.24h3.67Zm5.88,0h-3.71V97.24h3.71Z"/><path class="cls-1" d="M191.44,140.76H157.1V82.17A1.09,1.09,0,0,0,156,81.08H133.59V17.75a1.09,1.09,0,0,0-1.09-1.09h-40V1.08A1.08,1.08,0,0,0,91.44,0H49.73a1.08,1.08,0,0,0-1.08,1.08V28.36H1.09A1.08,1.08,0,0,0,0,29.44v129a1.09,1.09,0,0,0,1.09,1.08H191.44a1.08,1.08,0,0,0,1.08-1.08V141.84A1.08,1.08,0,0,0,191.44,140.76Z"/><path class="cls-3" d="M157.1,142.93v14.45h33.25V142.93ZM2.17,157.38H35.23V142H2.17ZM92.52,34.22h38.9V24.7H92.52Z"/><path class="cls-2" d="M145.34,157.38h3.71V83.25h-3.71Zm5.88-74.13v74.13h3.7V83.25ZM65.3,2.17h-2V4.93h2Zm4.2,0h-2V4.93h2Zm-12.61,0h-2V4.93h2Zm82.58,155.21h3.7V83.25h-3.7ZM61.09,2.17h-2V4.93h2Zm12.61,0h-2V4.93h2Zm34.74,134.77h-6.87v8.5h6.87ZM76.87,89.21H53.78a1.09,1.09,0,1,1,0-2.17H75.92l-5.69-3.7H53.78a1.09,1.09,0,1,1,0-2.17H66.9l-5.69-3.69H53.78a1.09,1.09,0,1,1,0-2.17h7.49a1.33,1.33,0,0,1,.21,0H90.35V2.17H88.48V6A1.08,1.08,0,0,1,87.39,7.1H53.78A1.08,1.08,0,0,1,52.69,6V2.17H50.82V90.89H76.87ZM53.78,10.8H87.39a1.09,1.09,0,1,1,0,2.17H53.78a1.09,1.09,0,1,1,0-2.17Zm0,5.86H87.39a1.09,1.09,0,1,1,0,2.17H53.78a1.09,1.09,0,1,1,0-2.17Zm0,5.87H87.39a1.09,1.09,0,1,1,0,2.17H53.78a1.09,1.09,0,1,1,0-2.17Zm0,5.86H87.39a1.09,1.09,0,1,1,0,2.17H53.78a1.09,1.09,0,1,1,0-2.17Zm0,5.87H87.39a1.08,1.08,0,1,1,0,2.16H53.78a1.08,1.08,0,1,1,0-2.16Zm0,5.86H87.39a1.09,1.09,0,1,1,0,2.17H53.78a1.09,1.09,0,1,1,0-2.17Zm0,5.87H87.39a1.08,1.08,0,1,1,0,2.16H53.78a1.08,1.08,0,1,1,0-2.16Zm0,5.86H87.39a1.09,1.09,0,1,1,0,2.17H53.78a1.09,1.09,0,1,1,0-2.17Zm0,5.87H87.39a1.08,1.08,0,1,1,0,2.16H53.78a1.08,1.08,0,1,1,0-2.16Zm0,5.86H87.39a1.09,1.09,0,1,1,0,2.17H53.78a1.09,1.09,0,1,1,0-2.17Zm0,5.87H87.39a1.08,1.08,0,1,1,0,2.16H53.78a1.08,1.08,0,1,1,0-2.16Zm79.81,21.44h3.7V83.25h-3.7Zm-25.15,35.39h-6.87v8.5h6.87Zm-62.86,31.1h91.71V93.06H45.58Zm4.79-20.44a1.08,1.08,0,1,1,0-2.16h3.8v-8.5h-3.8a1.09,1.09,0,1,1,0-2.17h3.8v-8.5h-3.8a1.09,1.09,0,1,1,0-2.17h3.8v-8.5h-3.8a1.08,1.08,0,1,1,0-2.16h3.8V97.34a1.09,1.09,0,0,1,2.17,0v5.44h6.88V97.34a1.09,1.09,0,0,1,2.17,0v5.44h6.87V97.34a1.09,1.09,0,0,1,2.17,0v5.44h6.88V97.34a1.09,1.09,0,0,1,2.17,0v5.44h6.87V97.34a1.09,1.09,0,0,1,2.17,0v5.44h6.87V97.34a1.09,1.09,0,0,1,2.18,0v5.44h6.87V97.34a1.09,1.09,0,0,1,2.17,0v5.44h6.87V97.34a1.09,1.09,0,0,1,2.18,0v5.44h6.87V97.34a1.09,1.09,0,0,1,2.17,0v5.44h3.8a1.08,1.08,0,1,1,0,2.16h-3.8v8.5h3.8a1.09,1.09,0,1,1,0,2.17h-3.8v8.5h3.8a1.09,1.09,0,1,1,0,2.17h-3.8v8.5h3.8a1.08,1.08,0,1,1,0,2.16h-3.8v8.5h3.8a1.09,1.09,0,1,1,0,2.17h-3.8v5.49a1.09,1.09,0,0,1-2.17,0v-5.49h-6.87v5.49a1.09,1.09,0,0,1-2.18,0v-5.49h-6.87v5.49a1.09,1.09,0,0,1-2.17,0v-5.49h-6.87v5.49a1.09,1.09,0,0,1-2.18,0v-5.49H92.52v5.49a1.09,1.09,0,0,1-2.17,0v-5.49H83.48v5.49a1.09,1.09,0,0,1-2.17,0v-5.49H74.43v5.49a1.09,1.09,0,0,1-2.17,0v-5.49H65.39v5.49a1.09,1.09,0,0,1-2.17,0v-5.49H56.34v5.49a1.09,1.09,0,0,1-2.17,0v-5.49h-3.8a1.09,1.09,0,1,1,0-2.17h3.8v-8.5Zm58.07-32h-6.87v8.5h6.87Zm0,10.67h-6.87v8.5h6.87Zm-10-79.22V75.28h3.7V36.39ZM65.13,77.44,78.28,86h26.31l13.15-8.55ZM108,90.89V86.37l-2,1.29v3.23Zm5.88,0V82.55L110.15,85v5.93Zm-10,0V88.15H79v2.74Zm27.59,0V36.39h-3.67v54.5Zm0-72.06H92.52v3.7h38.9ZM2.17,139.79H5.88V30.53H2.17ZM122,77.27l-.08,0V90.89h3.67V36.39h-3.67v39a1.07,1.07,0,0,1,.08,1.85ZM110.15,36.39V75.28h3.71V36.39Zm-13.92,0H92.52V75.28h3.71ZM86.31,2.17h-2V4.93h2Zm-4.21,0h-2V4.93h2Zm22.18,34.22V75.28H108V36.39ZM77.9,2.17h-2V4.93h2Zm41.83,34.22H116V75.28h3.7Zm0,42.34L116,81.14v9.75h3.7ZM72.26,136.94H65.39v8.5h6.87Zm27.13-10.66H92.52v8.5h6.87Zm-9-21.34H83.48v8.5h6.87Zm9,32H92.52v8.5h6.87Zm0-32H92.52v8.5h6.87Zm0,10.67H92.52v8.5h6.87ZM8.05,139.79h3.7V30.53H8.05Zm82.3-24.18H83.48v8.5h6.87Zm0,10.67H83.48v8.5h6.87Zm0,10.66H83.48v8.5h6.87Zm27.13-21.33h-6.87v8.5h6.87Zm0,10.67h-6.87v8.5h6.87Zm9-21.34h-6.87v8.5h6.87Zm-9,0h-6.87v8.5h6.87Zm9,32h-6.87v8.5h6.87Zm0-21.33h-6.87v8.5h6.87Zm0,10.67h-6.87v8.5h6.87ZM81.31,104.94H74.43v8.5h6.88ZM48.65,89.17H40.84a1.09,1.09,0,1,1,0-2.17h7.81V83.31H40.84a1.09,1.09,0,1,1,0-2.17h7.81v-3.7H40.84a1.08,1.08,0,1,1,0-2.16h7.81v-3.7H40.84a1.09,1.09,0,1,1,0-2.17h7.81v-3.7H40.84a1.08,1.08,0,1,1,0-2.16h7.81v-3.7H40.84a1.09,1.09,0,1,1,0-2.17h7.81V54H40.84a1.08,1.08,0,1,1,0-2.16h7.81v-3.7H40.84a1.09,1.09,0,1,1,0-2.17h7.81v-3.7H40.84a1.08,1.08,0,1,1,0-2.16h7.81v-3.7H40.84a1.09,1.09,0,1,1,0-2.17h7.81V30.53H37.4V157.38h6v-3.7H40.84a1.08,1.08,0,1,1,0-2.16h2.57v-3.7H40.84a1.09,1.09,0,1,1,0-2.17h2.57V142H40.84a1.09,1.09,0,1,1,0-2.17h2.57v-3.7H40.84a1.09,1.09,0,1,1,0-2.17h2.57v-3.69H40.84a1.09,1.09,0,1,1,0-2.17h2.57v-3.7H40.84a1.09,1.09,0,1,1,0-2.17h2.57V118.5H40.84a1.09,1.09,0,1,1,0-2.17h2.57v-3.7H40.84a1.09,1.09,0,1,1,0-2.17h2.57v-3.69H40.84a1.09,1.09,0,1,1,0-2.17h2.57v-3.7H40.84a1.09,1.09,0,1,1,0-2.17h2.57V95H40.84a1.09,1.09,0,1,1,0-2.17h2.57V92a1.08,1.08,0,0,1,1.08-1.08h4.16Zm14.57,47.77H56.34v8.5h6.88Zm-31.66,2.85h3.67V30.53H31.56Zm31.66-24.18H56.34v8.5h6.88Zm0,10.67H56.34v8.5h6.88ZM13.93,139.79h3.7V30.53h-3.7Zm5.87,0h3.71V30.53H19.8Zm5.88,0h3.7V30.53h-3.7Zm55.63-24.18H74.43v8.5h6.88Zm0,21.33H74.43v8.5h6.88Zm0-10.66H74.43v8.5h6.88Zm-9-21.34H65.39v8.5h6.87Zm-9,0H56.34v8.5h6.88Zm9,10.67H65.39v8.5h6.87Zm45.22,21.33h-6.87v8.5h6.87ZM72.26,126.28H65.39v8.5h6.87Z"/><path class="cls-1" d="M53.78,71.61H87.39a1.08,1.08,0,1,0,0-2.16H53.78a1.08,1.08,0,1,0,0,2.16Zm137.66,69.15H157.1V82.17A1.09,1.09,0,0,0,156,81.08H133.59V17.75a1.09,1.09,0,0,0-1.09-1.09h-40V1.08A1.08,1.08,0,0,0,91.44,0H49.73a1.08,1.08,0,0,0-1.08,1.08V28.36H1.09A1.08,1.08,0,0,0,0,29.44v129a1.09,1.09,0,0,0,1.09,1.08H191.44a1.08,1.08,0,0,0,1.08-1.08V141.84A1.08,1.08,0,0,0,191.44,140.76ZM92.52,18.83h38.9v3.7H92.52Zm0,5.87h38.9v9.52H92.52Zm38.9,11.69v54.5h-3.67V36.39Zm-9,39.66a1.11,1.11,0,0,0-.53-.63v-39h3.67v54.5h-3.67V77.32l.08,0A1.1,1.1,0,0,0,122.44,76.05Zm-2.71-39.66V75.28H116V36.39Zm-5.87,0V75.28h-3.71V36.39Zm-5.88,0V75.28h-3.7V36.39Zm-5.88,0V75.28H98.4V36.39Zm-9.58,0h3.71V75.28H92.52Zm25.22,41.05L104.59,86H78.28L65.13,77.44Zm2,1.29V90.89H116V81.14Zm-5.87,3.82v8.34h-3.71V85ZM108,86.37v4.52h-2V87.66Zm-4.15,1.78v2.74H79V88.15Zm-19.55-86h2V4.93h-2Zm-4.21,0h2V4.93h-2Zm-4.2,0h2V4.93h-2Zm-4.2,0h2V4.93h-2Zm-4.2,0h2V4.93h-2Zm-4.2,0h2V4.93h-2Zm-4.2,0h2V4.93h-2Zm-4.21,0h2V4.93h-2Zm-4,0h1.87V6A1.08,1.08,0,0,0,53.78,7.1H87.39A1.08,1.08,0,0,0,88.48,6V2.17h1.87V75.28H61.48a1.33,1.33,0,0,0-.21,0H53.78a1.09,1.09,0,1,0,0,2.17h7.43l5.69,3.69H53.78a1.09,1.09,0,1,0,0,2.17H70.23L75.92,87H53.78a1.09,1.09,0,1,0,0,2.17H76.87v1.68H50.82ZM25.68,30.53h3.7V139.79h-3.7Zm-5.88,0h3.71V139.79H19.8Zm-5.87,0h3.7V139.79h-3.7Zm-5.88,0h3.7V139.79H8.05Zm-5.88,0H5.88V139.79H2.17ZM35.23,157.38H2.17V142H35.23Zm0-17.59H31.56V30.53h3.67ZM43.41,92v.9H40.84a1.09,1.09,0,1,0,0,2.17h2.57v3.69H40.84a1.09,1.09,0,1,0,0,2.17h2.57v3.7H40.84a1.09,1.09,0,1,0,0,2.17h2.57v3.69H40.84a1.09,1.09,0,1,0,0,2.17h2.57v3.7H40.84a1.09,1.09,0,1,0,0,2.17h2.57v3.69H40.84a1.09,1.09,0,1,0,0,2.17h2.57v3.7H40.84a1.09,1.09,0,1,0,0,2.17h2.57v3.69H40.84a1.09,1.09,0,1,0,0,2.17h2.57v3.7H40.84a1.09,1.09,0,1,0,0,2.17h2.57v3.69H40.84a1.09,1.09,0,1,0,0,2.17h2.57v3.7H40.84a1.08,1.08,0,1,0,0,2.16h2.57v3.7h-6V30.53H48.65v3.69H40.84a1.09,1.09,0,1,0,0,2.17h7.81v3.7H40.84a1.08,1.08,0,1,0,0,2.16h7.81V46H40.84a1.09,1.09,0,1,0,0,2.17h7.81v3.7H40.84a1.08,1.08,0,1,0,0,2.16h7.81v3.7H40.84a1.09,1.09,0,1,0,0,2.17h7.81v3.7H40.84a1.08,1.08,0,1,0,0,2.16h7.81v3.7H40.84a1.09,1.09,0,1,0,0,2.17h7.81v3.7H40.84a1.08,1.08,0,1,0,0,2.16h7.81v3.7H40.84a1.09,1.09,0,1,0,0,2.17h7.81V87H40.84a1.09,1.09,0,1,0,0,2.17h7.81v1.72H44.49A1.08,1.08,0,0,0,43.41,92Zm93.88,65.41H45.58V93.06h91.71Zm0-66.49h-3.7V83.25h3.7Zm5.88,66.49h-3.7V83.25h3.7Zm5.88,0h-3.71V83.25h3.71Zm5.87,0h-3.7V83.25h3.7Zm35.43,0H157.1V142.93h33.25Zm-140-11.94a1.09,1.09,0,1,0,0,2.17h3.8v5.49a1.09,1.09,0,0,0,2.17,0v-5.49h6.88v5.49a1.09,1.09,0,0,0,2.17,0v-5.49h6.87v5.49a1.09,1.09,0,0,0,2.17,0v-5.49h6.88v5.49a1.09,1.09,0,0,0,2.17,0v-5.49h6.87v5.49a1.09,1.09,0,0,0,2.17,0v-5.49h6.87v5.49a1.09,1.09,0,0,0,2.18,0v-5.49h6.87v5.49a1.09,1.09,0,0,0,2.17,0v-5.49h6.87v5.49a1.09,1.09,0,0,0,2.18,0v-5.49h6.87v5.49a1.09,1.09,0,0,0,2.17,0v-5.49h3.8a1.09,1.09,0,1,0,0-2.17h-3.8v-8.5h3.8a1.08,1.08,0,1,0,0-2.16h-3.8v-8.5h3.8a1.09,1.09,0,1,0,0-2.17h-3.8v-8.5h3.8a1.09,1.09,0,1,0,0-2.17h-3.8v-8.5h3.8a1.08,1.08,0,1,0,0-2.16h-3.8V97.34a1.09,1.09,0,0,0-2.17,0v5.44h-6.87V97.34a1.09,1.09,0,0,0-2.18,0v5.44h-6.87V97.34a1.09,1.09,0,0,0-2.17,0v5.44h-6.87V97.34a1.09,1.09,0,0,0-2.18,0v5.44H92.52V97.34a1.09,1.09,0,0,0-2.17,0v5.44H83.48V97.34a1.09,1.09,0,0,0-2.17,0v5.44H74.43V97.34a1.09,1.09,0,0,0-2.17,0v5.44H65.39V97.34a1.09,1.09,0,0,0-2.17,0v5.44H56.34V97.34a1.09,1.09,0,0,0-2.17,0v5.44h-3.8a1.08,1.08,0,1,0,0,2.16h3.8v8.5h-3.8a1.09,1.09,0,1,0,0,2.17h3.8v8.5h-3.8a1.09,1.09,0,1,0,0,2.17h3.8v8.5h-3.8a1.08,1.08,0,1,0,0,2.16h3.8v8.5Zm69.29-40.5h6.87v8.5h-6.87Zm0,10.67h6.87v8.5h-6.87Zm0,10.67h6.87v8.5h-6.87Zm0,10.66h6.87v8.5h-6.87Zm-9-32h6.87v8.5h-6.87Zm0,10.67h6.87v8.5h-6.87Zm0,10.67h6.87v8.5h-6.87Zm0,10.66h6.87v8.5h-6.87Zm-9-32h6.87v8.5h-6.87Zm0,10.67h6.87v8.5h-6.87Zm0,10.67h6.87v8.5h-6.87Zm0,10.66h6.87v8.5h-6.87Zm-9-32h6.87v8.5H92.52Zm0,10.67h6.87v8.5H92.52Zm0,10.67h6.87v8.5H92.52Zm0,10.66h6.87v8.5H92.52Zm-9-32h6.87v8.5H83.48Zm0,10.67h6.87v8.5H83.48Zm0,10.67h6.87v8.5H83.48Zm0,10.66h6.87v8.5H83.48Zm-9-32h6.88v8.5H74.43Zm0,10.67h6.88v8.5H74.43Zm0,10.67h6.88v8.5H74.43Zm0,10.66h6.88v8.5H74.43Zm-9-32h6.87v8.5H65.39Zm0,10.67h6.87v8.5H65.39Zm0,10.67h6.87v8.5H65.39Zm0,10.66h6.87v8.5H65.39Zm-9-32h6.88v8.5H56.34Zm0,10.67h6.88v8.5H56.34Zm0,10.67h6.88v8.5H56.34Zm0,10.66h6.88v8.5H56.34ZM53.78,42.29H87.39a1.09,1.09,0,1,0,0-2.17H53.78a1.09,1.09,0,1,0,0,2.17Zm0-17.59H87.39a1.09,1.09,0,1,0,0-2.17H53.78a1.09,1.09,0,1,0,0,2.17Zm0,5.86H87.39a1.09,1.09,0,1,0,0-2.17H53.78a1.09,1.09,0,1,0,0,2.17Zm0-11.73H87.39a1.09,1.09,0,1,0,0-2.17H53.78a1.09,1.09,0,1,0,0,2.17Zm0-5.86H87.39a1.09,1.09,0,1,0,0-2.17H53.78a1.09,1.09,0,1,0,0,2.17Zm0,41.05H87.39a1.09,1.09,0,1,0,0-2.17H53.78a1.09,1.09,0,1,0,0,2.17Zm0,5.86H87.39a1.08,1.08,0,1,0,0-2.16H53.78a1.08,1.08,0,1,0,0,2.16Zm0-23.46H87.39a1.08,1.08,0,1,0,0-2.16H53.78a1.08,1.08,0,1,0,0,2.16Zm0,29.33H87.39a1.09,1.09,0,1,0,0-2.17H53.78a1.09,1.09,0,1,0,0,2.17Zm0-17.6H87.39a1.08,1.08,0,1,0,0-2.16H53.78a1.08,1.08,0,1,0,0,2.16Z"/><path class="cls-1" d="M254.36,110.46H236.93V69h4.87A1.08,1.08,0,0,0,242.89,68V65a1.09,1.09,0,0,0-1.09-1.09h-4.87V62.58h4.87a1.08,1.08,0,0,0,1.09-1.08V58.57a1.09,1.09,0,0,0-1.09-1.09h-4.87V56.13h4.87a1.09,1.09,0,0,0,1.09-1.08V52.11A1.08,1.08,0,0,0,241.8,51h-4.87V49.68h4.87a1.09,1.09,0,0,0,1.09-1.09V45.66a1.08,1.08,0,0,0-1.09-1.08h-4.87V33.49a1,1,0,0,0-.06-.35L229,10.42a1.1,1.1,0,0,0-1.21-.72,1.08,1.08,0,0,0-.9,1.07V44.58H222a1.08,1.08,0,0,0-1.09,1.08v2.93A1.09,1.09,0,0,0,222,49.68h4.88V51H222a1.08,1.08,0,0,0-1.09,1.08v2.94A1.09,1.09,0,0,0,222,56.13h4.88v1.35H222a1.09,1.09,0,0,0-1.09,1.09V61.5A1.08,1.08,0,0,0,222,62.58h4.88v1.35H222A1.09,1.09,0,0,0,220.94,65V68A1.08,1.08,0,0,0,222,69h4.88v47.3H208.16a1.08,1.08,0,0,0-1.09,1.08v4.78h-8.44a1.08,1.08,0,0,0-1.08,1.09v35.19a1.08,1.08,0,0,0,1.08,1.08h55.73a1.08,1.08,0,0,0,1.08-1.08V111.55A1.08,1.08,0,0,0,254.36,110.46Z"/><path class="cls-2" d="M234.76,33.67l-5.68-16.43V44.58h5.68Zm6,26h-17.6v.76h17.6Zm0-12.91h-17.6v.77h17.6Zm-6,4.29V49.68h-5.68V51Zm6,2.17h-17.6V54h17.6Zm-6,4.28V56.13h-5.68v1.35Zm-25.51,64.71h22.67a1.09,1.09,0,0,1,0,2.17h-9.67v3.7h9.67a1.09,1.09,0,0,1,0,2.17h-9.67v3.69h9.67a1.09,1.09,0,0,1,0,2.17h-9.67v3.7h12.51V118.5H209.25Zm-9.53,35.19h7.35v-3.7h-3.52a1.08,1.08,0,1,1,0-2.16h3.52v-3.7h-3.52a1.09,1.09,0,1,1,0-2.17h3.52V142h-3.52a1.09,1.09,0,1,1,0-2.17h16.53V124.36H199.72Zm3.83-29.32h12.7a1.09,1.09,0,1,1,0,2.17h-12.7a1.09,1.09,0,1,1,0-2.17Zm0,5.86h12.7a1.09,1.09,0,1,1,0,2.17h-12.7a1.09,1.09,0,1,1,0-2.17Zm31.21-70V62.58h-5.68v1.35Zm-5.68,52.4h5.68V69h-5.68ZM240.72,66.1h-17.6v.77h17.6Zm-3.79,46.53v27.16H250.4a1.09,1.09,0,1,1,0,2.17h-3.35v3.69h3.35a1.09,1.09,0,1,1,0,2.17h-3.35v3.7h3.35a1.08,1.08,0,1,1,0,2.16h-3.35v3.7h6.22V112.63Zm13.47,23.46H239.8a1.09,1.09,0,1,1,0-2.17h10.6a1.09,1.09,0,1,1,0,2.17Zm0-5.86H239.8a1.09,1.09,0,1,1,0-2.17h10.6a1.09,1.09,0,1,1,0,2.17Zm0-5.87H239.8a1.09,1.09,0,1,1,0-2.17h10.6a1.09,1.09,0,1,1,0,2.17Zm0-5.86H239.8a1.09,1.09,0,1,1,0-2.17h10.6a1.09,1.09,0,1,1,0,2.17Z"/><rect class="cls-3" x="209.25" y="141.96" width="35.64" height="15.43"/><path class="cls-1" d="M239.8,136.09h10.6a1.09,1.09,0,1,0,0-2.17H239.8a1.09,1.09,0,1,0,0,2.17Zm0-11.73h10.6a1.09,1.09,0,1,0,0-2.17H239.8a1.09,1.09,0,1,0,0,2.17Zm0-5.86h10.6a1.09,1.09,0,1,0,0-2.17H239.8a1.09,1.09,0,1,0,0,2.17Zm14.56-8H236.93V69h4.87A1.08,1.08,0,0,0,242.89,68V65a1.09,1.09,0,0,0-1.09-1.09h-4.87V62.58h4.87a1.08,1.08,0,0,0,1.09-1.08V58.57a1.09,1.09,0,0,0-1.09-1.09h-4.87V56.13h4.87a1.09,1.09,0,0,0,1.09-1.08V52.11A1.08,1.08,0,0,0,241.8,51h-4.87V49.68h4.87a1.09,1.09,0,0,0,1.09-1.09V45.66a1.08,1.08,0,0,0-1.09-1.08h-4.87V33.49a1,1,0,0,0-.06-.35L229,10.42a1.1,1.1,0,0,0-1.21-.72,1.08,1.08,0,0,0-.9,1.07V44.58H222a1.08,1.08,0,0,0-1.09,1.08v2.93A1.09,1.09,0,0,0,222,49.68h4.88V51H222a1.08,1.08,0,0,0-1.09,1.08v2.94A1.09,1.09,0,0,0,222,56.13h4.88v1.35H222a1.09,1.09,0,0,0-1.09,1.09V61.5A1.08,1.08,0,0,0,222,62.58h4.88v1.35H222A1.09,1.09,0,0,0,220.94,65V68A1.08,1.08,0,0,0,222,69h4.88v47.3H208.16a1.08,1.08,0,0,0-1.09,1.08v4.78h-8.44a1.08,1.08,0,0,0-1.08,1.09v35.19a1.08,1.08,0,0,0,1.08,1.08h55.73a1.08,1.08,0,0,0,1.08-1.08V111.55A1.08,1.08,0,0,0,254.36,110.46ZM229.08,17.24l5.68,16.43V44.58h-5.68Zm-6,30.27v-.77h17.6v.77Zm11.64,2.17V51h-5.68V49.68ZM223.12,54V53.2h17.6V54Zm11.64,2.17v1.35h-5.68V56.13Zm-11.64,4.28v-.76h17.6v.76Zm11.64,2.17v1.35h-5.68V62.58Zm-11.64,4.29V66.1h17.6v.77ZM234.76,69v47.3h-5.68V69ZM209.25,118.5h25.51v21.29H222.25v-3.7h9.67a1.09,1.09,0,0,0,0-2.17h-9.67v-3.69h9.67a1.09,1.09,0,0,0,0-2.17h-9.67v-3.7h9.67a1.09,1.09,0,0,0,0-2.17H209.25Zm-2.18,27.15h-3.52a1.09,1.09,0,1,0,0,2.17h3.52v3.7h-3.52a1.08,1.08,0,1,0,0,2.16h3.52v3.7h-7.35v-33h20.36v15.43H203.55a1.09,1.09,0,1,0,0,2.17h3.52Zm37.81,11.73H209.25V142h35.63Zm8.39,0h-6.22v-3.7h3.35a1.08,1.08,0,1,0,0-2.16h-3.35v-3.7h3.35a1.09,1.09,0,1,0,0-2.17h-3.35V142h3.35a1.09,1.09,0,1,0,0-2.17H236.93V112.63h16.34ZM239.8,130.23h10.6a1.09,1.09,0,1,0,0-2.17H239.8a1.09,1.09,0,1,0,0,2.17Zm-36.25,0h12.7a1.09,1.09,0,1,0,0-2.17h-12.7a1.09,1.09,0,1,0,0,2.17Zm0,5.86h12.7a1.09,1.09,0,1,0,0-2.17h-12.7a1.09,1.09,0,1,0,0,2.17Z"/><path class="cls-1" d="M474,105.72a1.08,1.08,0,0,0-1.08-1.09H458.51V78.1a1.09,1.09,0,0,0-.36-.81,1.11,1.11,0,0,0-.84-.27l-51.11,5.5a1.09,1.09,0,0,0-1,1.08V87h-6.45V76.39a1.09,1.09,0,0,0-1.09-1.08H374.33V68.17a1.09,1.09,0,0,0-1.09-1.08H363.18V35.65a1.09,1.09,0,1,0-2.17,0V67.09h-9V50.59a1.09,1.09,0,0,0-2.17,0v16.5h-4.43a1.08,1.08,0,0,0-1.08,1.08v90.3a1.08,1.08,0,0,0,1.08,1.08h10a1.09,1.09,0,0,0,.26,0H374a1.09,1.09,0,0,0,.26,0h4.21l.27,0h78.67a1.15,1.15,0,0,0,.26,0h7.21a1.09,1.09,0,0,0,.26,0H473A1.08,1.08,0,0,0,474,158.5v0h0Z"/><rect class="cls-3" x="432.09" y="93.77" width="15.08" height="10.86"/><path class="cls-2" d="M416.74,92.92V89.21h-36.9V92.9h36.78Zm2.17-4.8v16.51h11V92.69A1.08,1.08,0,0,1,431,91.61h17.26a1.08,1.08,0,0,1,1.09,1.08v11.94h7V79.31L407.4,84.57V87h10.42A1.08,1.08,0,0,1,418.91,88.12ZM372.16,69.26H346.53v88.12h3.34v-81A1.08,1.08,0,0,1,351,75.31h21.21Zm44.58,29.52V95.06h-36.9v3.7h36.9ZM396.6,77.48H379.84V87H396.6Zm-16.76,44.75h25.39v-3.7H379.84Zm0,5.86h25.39V124.4H379.84Zm0-11.73h25.39v-3.69H379.84Zm0-5.86h25.39v-3.7H379.84Zm85.32,0h6.7v-3.7H407.4v3.7h17.25a1.09,1.09,0,1,1,0,2.17H407.4v3.69h17.25a1.09,1.09,0,1,1,0,2.17H407.4v3.7h17.25a1.09,1.09,0,1,1,0,2.17H407.4v3.69h17.25a1.09,1.09,0,1,1,0,2.17H407.4V134h17.25a1.08,1.08,0,1,1,0,2.16H407.4v3.7h17.25a1.09,1.09,0,1,1,0,2.17H407.4v3.7h17.25a1.08,1.08,0,1,1,0,2.16H407.4v3.7h17.25a1.09,1.09,0,1,1,0,2.17H407.4v3.66h64.46v-3.66h-6.7a1.09,1.09,0,1,1,0-2.17h6.7v-3.7h-6.7a1.08,1.08,0,1,1,0-2.16h6.7V142h-6.7a1.09,1.09,0,1,1,0-2.17h6.7v-3.7h-6.7a1.08,1.08,0,1,1,0-2.16h6.7v-3.7h-6.7a1.09,1.09,0,1,1,0-2.17h6.7V124.4h-6.7a1.09,1.09,0,1,1,0-2.17h6.7v-3.7h-6.7a1.09,1.09,0,1,1,0-2.17h6.7v-3.69h-6.7a1.09,1.09,0,1,1,0-2.17Zm-7.73,43.22H439.09a1.09,1.09,0,0,1,0-2.17h18.34a1.09,1.09,0,0,1,0,2.17Zm0-5.87H439.09a1.08,1.08,0,1,1,0-2.16h18.34a1.08,1.08,0,0,1,0,2.16Zm0-5.86H439.09a1.09,1.09,0,0,1,0-2.17h18.34a1.09,1.09,0,0,1,0,2.17Zm0-5.87H439.09a1.08,1.08,0,1,1,0-2.16h18.34a1.08,1.08,0,0,1,0,2.16Zm0-5.86H439.09a1.09,1.09,0,0,1,0-2.17h18.34a1.09,1.09,0,0,1,0,2.17Zm0-5.86H439.09a1.09,1.09,0,0,1,0-2.17h18.34a1.09,1.09,0,0,1,0,2.17Zm0-5.87H439.09a1.09,1.09,0,0,1,0-2.17h18.34a1.09,1.09,0,0,1,0,2.17Zm0-5.86H439.09a1.09,1.09,0,0,1,0-2.17h18.34a1.09,1.09,0,0,1,0,2.17Zm-40.69-11.74h-36.9v3.69h36.9Zm-36.9,50.62h25.39v-3.7H379.84Zm0,5.83h25.39v-3.66H379.84Zm-27.8,0h25.63V77.48H352Zm3.65-76.21H374a1.09,1.09,0,1,1,0,2.17H355.69a1.09,1.09,0,1,1,0-2.17Zm0,5.87H374a1.09,1.09,0,1,1,0,2.17H355.69a1.09,1.09,0,1,1,0-2.17Zm0,5.86H374a1.09,1.09,0,1,1,0,2.17H355.69a1.09,1.09,0,1,1,0-2.17Zm0,5.87H374a1.09,1.09,0,1,1,0,2.17H355.69a1.09,1.09,0,1,1,0-2.17Zm0,5.86H374a1.09,1.09,0,1,1,0,2.17H355.69a1.09,1.09,0,1,1,0-2.17Zm0,5.87H374a1.09,1.09,0,1,1,0,2.17H355.69a1.09,1.09,0,1,1,0-2.17Zm0,5.86H374a1.09,1.09,0,1,1,0,2.17H355.69a1.09,1.09,0,1,1,0-2.17Zm0,5.87H374a1.09,1.09,0,1,1,0,2.17H355.69a1.09,1.09,0,1,1,0-2.17Zm0,5.86H374a1.09,1.09,0,1,1,0,2.17H355.69a1.09,1.09,0,1,1,0-2.17Zm0,5.87H374a1.08,1.08,0,1,1,0,2.16H355.69a1.08,1.08,0,1,1,0-2.16Zm0,5.86H374a1.09,1.09,0,1,1,0,2.17H355.69a1.09,1.09,0,1,1,0-2.17Zm0,5.87H374a1.08,1.08,0,1,1,0,2.16H355.69a1.08,1.08,0,1,1,0-2.16Zm0,5.86H374a1.09,1.09,0,1,1,0,2.17H355.69a1.09,1.09,0,1,1,0-2.17Zm24.15-5.86h25.39V142H379.84Zm0-5.87h25.39v-3.7H379.84Zm0-5.86h25.39v-3.7H379.84Z"/><path class="cls-1" d="M355.69,118.53H374a1.09,1.09,0,1,0,0-2.17H355.69a1.09,1.09,0,1,0,0,2.17Zm0-5.86H374a1.09,1.09,0,1,0,0-2.17H355.69a1.09,1.09,0,1,0,0,2.17Zm0-5.87H374a1.09,1.09,0,1,0,0-2.17H355.69a1.09,1.09,0,1,0,0,2.17Zm0-5.86H374a1.09,1.09,0,1,0,0-2.17H355.69a1.09,1.09,0,1,0,0,2.17Zm0,23.46H374a1.09,1.09,0,1,0,0-2.17H355.69a1.09,1.09,0,1,0,0,2.17Zm0,29.32H374a1.09,1.09,0,1,0,0-2.17H355.69a1.09,1.09,0,1,0,0,2.17Zm0-5.87H374a1.08,1.08,0,1,0,0-2.16H355.69a1.08,1.08,0,1,0,0,2.16Zm0-52.78H374a1.09,1.09,0,1,0,0-2.17H355.69a1.09,1.09,0,1,0,0,2.17Zm0,46.92H374a1.09,1.09,0,1,0,0-2.17H355.69a1.09,1.09,0,1,0,0,2.17Zm0-5.87H374a1.08,1.08,0,1,0,0-2.16H355.69a1.08,1.08,0,1,0,0,2.16Zm0-5.86H374a1.09,1.09,0,1,0,0-2.17H355.69a1.09,1.09,0,1,0,0,2.17ZM439.09,142h18.34a1.09,1.09,0,0,0,0-2.17H439.09a1.09,1.09,0,0,0,0,2.17Zm-83.4-52.78H374A1.09,1.09,0,1,0,374,87H355.69a1.09,1.09,0,1,0,0,2.17Zm83.4,58.64h18.34a1.08,1.08,0,0,0,0-2.16H439.09a1.08,1.08,0,1,0,0,2.16Zm0,5.87h18.34a1.09,1.09,0,0,0,0-2.17H439.09a1.09,1.09,0,0,0,0,2.17Zm0-23.46h18.34a1.09,1.09,0,0,0,0-2.17H439.09a1.09,1.09,0,0,0,0,2.17Zm0,5.86h18.34a1.08,1.08,0,0,0,0-2.16H439.09a1.08,1.08,0,1,0,0,2.16Zm0-11.72h18.34a1.09,1.09,0,0,0,0-2.17H439.09a1.09,1.09,0,0,0,0,2.17ZM474,105.72a1.08,1.08,0,0,0-1.08-1.09H458.51V78.1a1.09,1.09,0,0,0-.36-.81,1.11,1.11,0,0,0-.84-.27l-51.11,5.5a1.09,1.09,0,0,0-1,1.08V87h-6.45V76.39a1.09,1.09,0,0,0-1.09-1.08H374.33V68.17a1.09,1.09,0,0,0-1.09-1.08H363.18V35.65a1.09,1.09,0,1,0-2.17,0V67.09h-9V50.59a1.09,1.09,0,0,0-2.17,0v16.5h-4.43a1.08,1.08,0,0,0-1.08,1.08v90.3a1.08,1.08,0,0,0,1.08,1.08h10a1.09,1.09,0,0,0,.26,0H374a1.09,1.09,0,0,0,.26,0h4.21l.27,0h78.67a1.15,1.15,0,0,0,.26,0h7.21a1.09,1.09,0,0,0,.26,0H473A1.08,1.08,0,0,0,474,158.5v0h0ZM349.87,76.39v81h-3.34V69.26h25.63v6H351A1.08,1.08,0,0,0,349.87,76.39Zm27.8,81H352V77.48h25.63ZM407.4,84.57l48.94-5.26v25.32h-7V92.69a1.08,1.08,0,0,0-1.09-1.08H431a1.08,1.08,0,0,0-1.08,1.08v11.94h-11V88.12A1.08,1.08,0,0,0,417.82,87H407.4Zm39.77,9.2v10.86H432.09V93.77ZM379.84,77.48H396.6V87H379.84Zm0,11.73h36.9v3.71l-.12,0H379.84Zm0,5.86h36.9v3.72h-36.9Zm0,5.87h36.9v3.7h-36.9Zm25.39,56.44H379.84v-3.66h25.39Zm0-5.83H379.84v-3.7h25.39Zm0-5.86H379.84V142h25.39Zm0-5.87H379.84v-3.7h25.39Zm0-5.86H379.84v-3.7h25.39Zm0-5.87H379.84V124.4h25.39Zm0-5.86H379.84v-3.7h25.39Zm0-5.87H379.84v-3.69h25.39Zm0-5.86H379.84v-3.7h25.39Zm66.63,0h-6.7a1.09,1.09,0,1,0,0,2.17h6.7v3.69h-6.7a1.09,1.09,0,1,0,0,2.17h6.7v3.7h-6.7a1.09,1.09,0,1,0,0,2.17h6.7v3.69h-6.7a1.09,1.09,0,1,0,0,2.17h6.7V134h-6.7a1.08,1.08,0,1,0,0,2.16h6.7v3.7h-6.7a1.09,1.09,0,1,0,0,2.17h6.7v3.7h-6.7a1.08,1.08,0,1,0,0,2.16h6.7v3.7h-6.7a1.09,1.09,0,1,0,0,2.17h6.7v3.66H407.4v-3.66h17.25a1.09,1.09,0,1,0,0-2.17H407.4v-3.7h17.25a1.08,1.08,0,1,0,0-2.16H407.4V142h17.25a1.09,1.09,0,1,0,0-2.17H407.4v-3.7h17.25a1.08,1.08,0,1,0,0-2.16H407.4v-3.7h17.25a1.09,1.09,0,1,0,0-2.17H407.4V124.4h17.25a1.09,1.09,0,1,0,0-2.17H407.4v-3.7h17.25a1.09,1.09,0,1,0,0-2.17H407.4v-3.69h17.25a1.09,1.09,0,1,0,0-2.17H407.4v-3.7h64.46ZM355.69,83.34H374a1.09,1.09,0,1,0,0-2.17H355.69a1.09,1.09,0,1,0,0,2.17Zm83.4,35.19h18.34a1.09,1.09,0,0,0,0-2.17H439.09a1.09,1.09,0,0,0,0,2.17Zm0-5.86h18.34a1.09,1.09,0,0,0,0-2.17H439.09a1.09,1.09,0,0,0,0,2.17Z"/><path class="cls-1" d="M339.51,67.09h-8.8V17.75a1.09,1.09,0,0,0-1.09-1.09H284.57a1.09,1.09,0,0,0-1.09,1.09V34.22H260.42a1.09,1.09,0,0,0-1.09,1.09V158.47a1.09,1.09,0,0,0,1.09,1.08h23.71a1.08,1.08,0,0,0,.44.09H303.5a1,1,0,0,0,.33-.06h19.32a1.09,1.09,0,0,0,.26,0h16.1a1.09,1.09,0,0,0,1.09-1.08V68.17A1.09,1.09,0,0,0,339.51,67.09Z"/><path class="cls-2" d="M322.07,118.53H310.22v3.7h11.85Zm0-5.86H310.22v3.69h11.85Zm0-11.73H310.22v3.69h11.85Zm0-5.87H310.22v3.7h11.85Zm-11.85,38.85h11.85v-3.66H310.22ZM322.07,18.83H285.65v6.93h36.42Zm6.47,0h-4.3V133.92h4.3Zm-6.47,70.38H310.22V92.9h11.85Zm-18.14-55h18.14V30.86H285.65v3.27H303.5A1,1,0,0,1,303.93,34.22Zm18.14,90.18H310.22v3.69h11.85Zm0-17.6H310.22v3.7h11.85Zm-14-70.41H280v97.53h28Zm-4.55,93.88H284.57a1.08,1.08,0,1,1,0-2.16H303.5a1.08,1.08,0,1,1,0,2.16Zm0-5.87H284.57a1.09,1.09,0,1,1,0-2.17H303.5a1.09,1.09,0,1,1,0,2.17Zm0-5.87H284.57a1.09,1.09,0,1,1,0-2.17H303.5a1.09,1.09,0,1,1,0,2.17Zm0-5.88H284.57a1.08,1.08,0,1,1,0-2.16H303.5a1.08,1.08,0,1,1,0,2.16Zm0-5.87H284.57a1.09,1.09,0,1,1,0-2.17H303.5a1.09,1.09,0,1,1,0,2.17Zm0-5.87H284.57a1.09,1.09,0,1,1,0-2.17H303.5a1.09,1.09,0,1,1,0,2.17Zm0-5.88H284.57a1.08,1.08,0,1,1,0-2.16H303.5a1.08,1.08,0,1,1,0,2.16Zm0-5.87H284.57a1.09,1.09,0,1,1,0-2.17H303.5a1.09,1.09,0,1,1,0,2.17Zm-19.61-5.75V75.17a1.09,1.09,0,0,1,2.17,0v8.24a1.09,1.09,0,1,1-2.17,0Zm6,0V75.17a1.09,1.09,0,0,1,2.17,0v8.24a1.09,1.09,0,1,1-2.17,0Zm6,0V75.17a1.09,1.09,0,0,1,2.17,0v8.24a1.09,1.09,0,1,1-2.17,0Zm6,0V75.17a1.09,1.09,0,0,1,2.17,0v8.24a1.09,1.09,0,1,1-2.17,0Zm1.49-11.87H284.57a1.09,1.09,0,1,1,0-2.17H303.5a1.09,1.09,0,1,1,0,2.17Zm0-5.87H284.57a1.09,1.09,0,1,1,0-2.17H303.5a1.09,1.09,0,1,1,0,2.17Zm0-5.88H284.57a1.08,1.08,0,1,1,0-2.16H303.5a1.08,1.08,0,1,1,0,2.16Zm0-5.87H284.57a1.09,1.09,0,1,1,0-2.17H303.5a1.09,1.09,0,1,1,0,2.17Zm0-5.87H284.57a1.09,1.09,0,1,1,0-2.17H303.5a1.09,1.09,0,1,1,0,2.17Zm0-5.88H284.57a1.08,1.08,0,1,1,0-2.16H303.5a1.08,1.08,0,1,1,0,2.16Zm18.57.08H310.22V46h11.85Zm0,41.09H310.22V87h11.85Zm-52.48,52.75v3.7h29.3a1.08,1.08,0,0,1,1.08,1.08v16.51h38.45V136.09Zm3.24-93.61v91.44h5V36.39H261.5v5h10.24A1.08,1.08,0,0,1,272.83,42.48Zm49.24,5.67H310.22v3.7h11.85Zm0,23.46H310.22v3.7h11.85Zm0-17.59H310.22v3.7h11.85Zm0,23.46H310.22v3.69h11.85Zm0-17.6H310.22v3.7h11.85Zm0,5.87H310.22v3.7h11.85Z"/><path class="cls-3" d="M330.71,69.26v64.66h7.71V69.26ZM267.42,135a1.09,1.09,0,0,1,1.09-1.09h2.15V43.57H261.5v96.22h5.92Zm-5.92,22.37h36.3V142H261.5ZM285.65,28.7h36.42v-.77H285.65Zm24.57,11.39h11.85v-3.7H310.22Z"/><path class="cls-1" d="M339.51,67.09h-8.8V17.75a1.09,1.09,0,0,0-1.09-1.09H284.57a1.09,1.09,0,0,0-1.09,1.09V34.22H260.42a1.09,1.09,0,0,0-1.09,1.09V158.47a1.09,1.09,0,0,0,1.09,1.08h23.71a1.08,1.08,0,0,0,.44.09H303.5a1,1,0,0,0,.33-.06h19.32a1.09,1.09,0,0,0,.26,0h16.1a1.09,1.09,0,0,0,1.09-1.08V68.17A1.09,1.09,0,0,0,339.51,67.09ZM324.24,18.83h4.3V133.92h-4.3Zm-38.59,0h36.42v6.93H285.65Zm0,9.1h36.42v.77H285.65Zm0,2.93h36.42v3.36H303.93a1,1,0,0,0-.43-.09H285.65Zm24.57,97.23V124.4h11.85v3.69Zm11.85,2.17v3.66H310.22v-3.66Zm-11.85-8v-3.7h11.85v3.7Zm0-5.87v-3.69h11.85v3.69Zm0-5.86v-3.7h11.85v3.7Zm0-5.87v-3.69h11.85v3.69Zm0-5.86v-3.7h11.85v3.7Zm0-5.87V89.21h11.85V92.9Zm0-5.86v-3.7h11.85V87Zm0-5.87V77.48h11.85v3.69Zm0-5.86v-3.7h11.85v3.7Zm0-5.86v-3.7h11.85v3.7Zm0-5.87v-3.7h11.85v3.7Zm0-5.86V54h11.85v3.7Zm0-5.87v-3.7h11.85v3.7Zm0-5.86V42.25h11.85V46Zm0-5.9v-3.7h11.85v3.7ZM280,36.39h28v97.53H280Zm-18.52,0h16.35v97.53h-5V42.48a1.08,1.08,0,0,0-1.09-1.08H261.5Zm0,7.18h9.16v90.35h-2.15a1.09,1.09,0,0,0-1.09,1.09v4.78H261.5Zm36.3,113.81H261.5V142h36.3Zm40.62,0H300V140.87a1.08,1.08,0,0,0-1.08-1.08h-29.3v-3.7h68.83Zm0-23.46h-7.71V69.26h7.71ZM303.5,69.37H284.57a1.09,1.09,0,1,0,0,2.17H303.5a1.09,1.09,0,1,0,0-2.17Zm.68,14V75.17a1.09,1.09,0,0,0-2.17,0v8.24a1.09,1.09,0,1,0,2.17,0ZM303.5,63.5H284.57a1.09,1.09,0,1,0,0,2.17H303.5a1.09,1.09,0,1,0,0-2.17Zm-5.36,19.91V75.17a1.09,1.09,0,0,0-2.17,0v8.24a1.09,1.09,0,1,0,2.17,0ZM303.5,40H284.57a1.08,1.08,0,1,0,0,2.16H303.5a1.08,1.08,0,1,0,0-2.16Zm-11.4,43.4V75.17a1.09,1.09,0,0,0-2.17,0v8.24a1.09,1.09,0,1,0,2.17,0Zm11.4-25.78H284.57a1.08,1.08,0,1,0,0,2.16H303.5a1.08,1.08,0,1,0,0-2.16Zm0-11.75H284.57a1.09,1.09,0,1,0,0,2.17H303.5a1.09,1.09,0,1,0,0-2.17Zm0,5.87H284.57a1.09,1.09,0,1,0,0,2.17H303.5a1.09,1.09,0,1,0,0-2.17Zm0,52.86H284.57a1.09,1.09,0,1,0,0,2.17H303.5a1.09,1.09,0,1,0,0-2.17Zm0,5.88H284.57a1.08,1.08,0,1,0,0,2.16H303.5a1.08,1.08,0,1,0,0-2.16Zm0,5.87H284.57a1.09,1.09,0,1,0,0,2.17H303.5a1.09,1.09,0,1,0,0-2.17Zm0,5.87H284.57a1.09,1.09,0,1,0,0,2.17H303.5a1.09,1.09,0,1,0,0-2.17Zm0,5.88H284.57a1.08,1.08,0,1,0,0,2.16H303.5a1.08,1.08,0,1,0,0-2.16Zm0-41.12H284.57a1.09,1.09,0,1,0,0,2.17H303.5a1.09,1.09,0,1,0,0-2.17Zm-17.44-3.58V75.17a1.09,1.09,0,0,0-2.17,0v8.24a1.09,1.09,0,1,0,2.17,0Zm17.44,9.46H284.57a1.08,1.08,0,1,0,0,2.16H303.5a1.08,1.08,0,1,0,0-2.16Zm0,5.87H284.57a1.09,1.09,0,1,0,0,2.17H303.5a1.09,1.09,0,1,0,0-2.17Z"/></g></g></svg>