<svg xmlns="http://www.w3.org/2000/svg" viewBox="0 0 79.87 32.73"><defs><style>.cls-1{fill:#fff;}.cls-2{fill:#3280fa;}</style></defs><title>drone</title><g id="Layer_2" data-name="Layer 2"><g id="ëÎÓÈ_1" data-name="ëÎÓÈ 1"><polygon class="cls-1" points="39.94 9.29 39.94 10.38 30.95 10.38 30.95 16.38 30.95 16.38 30.95 18.9 33.47 18.9 39.94 18.9 42.78 18.9 46.4 18.9 48.92 16.38 48.92 10.38 39.94 9.29"/><path class="cls-2" d="M46.61,19.4H30.45V9.88h9V8.72l10,1.21v6.66Zm-15.16-1H46.19l2.23-2.23V10.82l-8-1v1h-9Z"/><rect class="cls-2" x="28.47" y="23.9" width="22.96" height="8.33"/><path class="cls-2" d="M51.93,32.73H28V23.4h24Zm-23-1h22V24.4H29Z"/><rect class="cls-1" x="9.41" y="7.51" width="22.93" height="2.86"/><path class="cls-2" d="M32.84,10.88H8.91V7H32.84Zm-22.93-1H31.84V8H9.91Z"/><rect class="cls-1" x="8.48" y="5.34" width="5.58" height="7.2"/><path class="cls-2" d="M14.56,13H8V4.84h6.58ZM9,12h4.58V5.84H9Z"/><path class="cls-2" d="M13.48,2.07a2.34,2.34,0,0,0-4.42,0H.5V3.64H22V2.07Z"/><path class="cls-2" d="M22.54,4.14H0V1.57H8.73a2.84,2.84,0,0,1,5.08,0h8.73ZM1,3.14H21.54V2.57H13.13L13,2.24a1.84,1.84,0,0,0-3.48,0l-.12.33H1Z"/><rect class="cls-1" x="47.84" y="7.51" width="22.62" height="2.86"/><path class="cls-2" d="M71,10.88H47.34V7H71Zm-22.62-1H70V8H48.34Z"/><rect class="cls-1" x="65.81" y="5.34" width="5.58" height="7.2"/><path class="cls-2" d="M71.89,13H65.31V4.84h6.58Zm-5.58-1h4.58V5.84H66.31Z"/><path class="cls-2" d="M66.39,2.07a2.34,2.34,0,0,1,4.42,0h8.56V3.64H57.83V2.07Z"/><path class="cls-2" d="M79.87,4.14H57.33V1.57h8.73a2.84,2.84,0,0,1,5.08,0h8.73Zm-21.54-1H78.87V2.57H70.46l-.12-.33a1.84,1.84,0,0,0-3.48,0l-.11.33H58.33Z"/><rect class="cls-1" x="30.95" y="5.34" width="17.97" height="5.03"/><path class="cls-2" d="M49.42,10.88h-19v-6h19Zm-18-1h17v-4h-17Z"/><polygon class="cls-1" points="48.92 3.87 39.94 2.47 30.95 3.87 30.95 6.27 48.92 6.27 48.92 3.87"/><path class="cls-2" d="M49.42,6.77h-19V3.44L39.94,2l9.48,1.47Zm-18-1h17V4.3L39.94,3,31.45,4.3Z"/><polygon class="cls-1" points="53.92 21.38 48.92 16.38 46.4 18.9 51.4 23.9 51.4 23.89 51.4 28.17 53.92 28.17 53.92 21.38 53.92 21.38"/><path class="cls-2" d="M54.42,28.67H50.9V24.11L45.69,18.9l3.23-3.23,5.5,5.5Zm-2.52-1h1.52V21.58l-4.5-4.5L47.11,18.9l4.35,4.35L51.9,23Z"/><polygon class="cls-1" points="25.95 21.38 25.95 21.38 25.95 28.17 28.47 28.17 28.47 23.9 33.47 18.9 30.95 16.38 25.95 21.38"/><path class="cls-2" d="M29,28.67H25.45v-7.5l5.5-5.5,3.23,3.23L29,24.11Zm-2.52-1H28v-4l4.79-4.79L31,17.08l-4.5,4.5Z"/><rect class="cls-1" x="38.68" y="16.38" width="2.52" height="11.8"/><path class="cls-2" d="M41.69,28.67H38.18V15.88h3.51Zm-2.51-1h1.51V16.88H39.18Z"/></g></g></svg>