<svg xmlns="http://www.w3.org/2000/svg" viewBox="0 0 104 104"><defs><style>.cls-1,.cls-2,.cls-3,.cls-4{fill:#fff;}.cls-1{opacity:0.3;}.cls-2{opacity:0.4;}.cls-3{opacity:0.7;}</style></defs><title>icon-white</title><g id="Layer_2" data-name="Layer 2"><g id="logo_full_white"><path class="cls-1" d="M51.76,104a25.19,25.19,0,0,1-17.93-7.41,25.44,25.44,0,0,1-7.38-19,25.68,25.68,0,0,1-19-43.68,25.5,25.5,0,0,1,18.94-7.5,25.82,25.82,0,0,1,43.81-19,25.43,25.43,0,0,1,7.38,19,25.68,25.68,0,0,1,19,43.68,25.44,25.44,0,0,1-19,7.4A25.88,25.88,0,0,1,70,96.44,25.61,25.61,0,0,1,51.89,104ZM32.48,71.61l-.61,3.54A20.29,20.29,0,0,0,37.47,93a20.06,20.06,0,0,0,14.29,5.91h.1A20.66,20.66,0,0,0,72.15,75l-.56-3.54,3.53.61a20.34,20.34,0,0,0,17.82-5.62,20.09,20.09,0,0,0,5.92-14.4,20.42,20.42,0,0,0-6-14.47,20.63,20.63,0,0,0-17.76-5.79l-3.54.56.61-3.54A20.27,20.27,0,0,0,37.64,11.19a20.35,20.35,0,0,0-5.91,17.66l.56,3.54-3.53-.61A20,20,0,0,0,11.05,37.5,20.54,20.54,0,0,0,28.93,72.17Z"/><path class="cls-2" d="M67.54,12.13c-.35-.39-.68-.75-1-1.09a20.43,20.43,0,0,0-28.88.15c-.25.25-.5.52-.77.82L33.05,8.56c.33-.36.64-.69,1-1A25.59,25.59,0,0,1,70.16,7.4c.43.43.84.88,1.27,1.37Z"/><path class="cls-2" d="M8.53,71c-.36-.33-.69-.64-1-.94a25.59,25.59,0,0,1-.13-36.15c.41-.41.86-.83,1.32-1.23l3.38,3.87c-.38.33-.73.66-1.06,1a20.45,20.45,0,0,0,.12,28.88l.8.76Z"/><path class="cls-2" d="M95.25,71.35l-3.37-3.88c.38-.33.73-.66,1.06-1a20.09,20.09,0,0,0,5.92-14.4,20.42,20.42,0,0,0-6-14.47c-.24-.25-.5-.49-.79-.76L95.46,33c.36.33.69.64,1,.94A25.6,25.6,0,0,1,104,52.06a25.18,25.18,0,0,1-7.43,18.06C96.16,70.53,95.72,71,95.25,71.35Z"/><path class="cls-2" d="M51.76,104a25.19,25.19,0,0,1-17.93-7.41c-.42-.43-.85-.89-1.27-1.37l3.89-3.37c.34.4.68.76,1,1.1a20,20,0,0,0,14.39,5.91A20.54,20.54,0,0,0,66.35,92.8c.25-.25.5-.52.77-.82l3.82,3.44c-.33.37-.64.7-1,1A25.61,25.61,0,0,1,51.89,104Z"/><path class="cls-3" d="M70.7,96.34A25.48,25.48,0,0,1,52,88.1a25.86,25.86,0,0,1-18.71,8A25.41,25.41,0,0,1,15.86,52,25.68,25.68,0,0,1,33.29,7.65,25.5,25.5,0,0,1,52,15.75,25.61,25.61,0,1,1,88.13,52a25.85,25.85,0,0,1,8,18.7A25.59,25.59,0,0,1,70.7,96.34ZM52.06,79.64l2.07,2.93A20.3,20.3,0,0,0,91,70.68,20.62,20.62,0,0,0,82.57,54l-2.91-2.12,2.93-2.07A20.42,20.42,0,1,0,54,21.3l-2.11,2.9-2.07-2.93a20,20,0,0,0-16.56-8.48A20.55,20.55,0,0,0,21.42,50l2.91,2.11-2.94,2.07A20.27,20.27,0,0,0,33.29,91,20.67,20.67,0,0,0,50,82.54Z"/><path class="cls-4" d="M72,52a8,8,0,0,0-3.73-6.76,8.09,8.09,0,0,0-9.57-9.58,8.1,8.1,0,0,0-13.54,0,8.09,8.09,0,0,0-9.57,9.58,8.08,8.08,0,0,0,0,13.53,8.08,8.08,0,0,0,9.57,9.57,8.09,8.09,0,0,0,13.54,0,8.08,8.08,0,0,0,9.57-9.57A8,8,0,0,0,72,52Z"/></g></g></svg>