<svg xmlns="http://www.w3.org/2000/svg" viewBox="0 0 543.45 104"><defs><style>.cls-1{fill:#8d9999;}.cls-2{fill:#b9c0c2;}.cls-3{fill:#617270;}.cls-4{fill:#00bcdb;}.cls-5{fill:#4a4a49;stroke:#414f4d;stroke-linecap:round;stroke-miterlimit:10;stroke-width:0.3px;}</style></defs><title>logo-full-reg</title><g id="Layer_2" data-name="Layer 2"><g id="logo_full_reg"><path class="cls-1" d="M51.76,104a25.19,25.19,0,0,1-17.93-7.41,25.44,25.44,0,0,1-7.38-19,25.68,25.68,0,0,1-19-43.68,25.5,25.5,0,0,1,18.94-7.5,25.82,25.82,0,0,1,43.81-19,25.43,25.43,0,0,1,7.38,19,25.68,25.68,0,0,1,19,43.68,25.44,25.44,0,0,1-19,7.4A25.88,25.88,0,0,1,70,96.44,25.61,25.61,0,0,1,51.89,104ZM32.48,71.61l-.61,3.54A20.29,20.29,0,0,0,37.47,93a20.06,20.06,0,0,0,14.29,5.91h.1A20.66,20.66,0,0,0,72.15,75l-.56-3.54,3.53.61a20.34,20.34,0,0,0,17.82-5.62,20.09,20.09,0,0,0,5.92-14.4,20.42,20.42,0,0,0-6-14.47,20.63,20.63,0,0,0-17.76-5.79l-3.54.56.61-3.54A20.27,20.27,0,0,0,37.64,11.19a20.35,20.35,0,0,0-5.91,17.66l.56,3.54-3.53-.61A20,20,0,0,0,11.05,37.5,20.54,20.54,0,0,0,28.93,72.17Z"/><path class="cls-2" d="M67.54,12.13c-.35-.39-.68-.75-1-1.09a20.43,20.43,0,0,0-28.88.15c-.25.25-.5.52-.77.82L33.05,8.56c.33-.36.64-.69,1-1A25.59,25.59,0,0,1,70.16,7.4c.43.43.84.88,1.27,1.37Z"/><path class="cls-2" d="M8.53,71c-.36-.33-.69-.64-1-.94a25.59,25.59,0,0,1-.13-36.15c.41-.41.86-.83,1.32-1.23l3.38,3.87c-.38.33-.73.66-1.06,1a20.45,20.45,0,0,0,.12,28.88l.8.76Z"/><path class="cls-2" d="M95.25,71.35l-3.37-3.88c.38-.33.73-.66,1.06-1a20.09,20.09,0,0,0,5.92-14.4,20.42,20.42,0,0,0-6-14.47c-.24-.25-.5-.49-.79-.76L95.46,33c.36.33.69.64,1,.94A25.6,25.6,0,0,1,104,52.06a25.18,25.18,0,0,1-7.43,18.06C96.16,70.53,95.72,71,95.25,71.35Z"/><path class="cls-2" d="M51.76,104a25.19,25.19,0,0,1-17.93-7.41c-.42-.43-.85-.89-1.27-1.37l3.89-3.37c.34.4.68.76,1,1.1a20,20,0,0,0,14.39,5.91A20.54,20.54,0,0,0,66.35,92.8c.25-.25.5-.52.77-.82l3.82,3.44c-.33.37-.64.7-1,1A25.61,25.61,0,0,1,51.89,104Z"/><path class="cls-3" d="M70.7,96.34A25.48,25.48,0,0,1,52,88.1a25.86,25.86,0,0,1-18.71,8A25.41,25.41,0,0,1,15.86,52,25.68,25.68,0,0,1,33.29,7.65,25.5,25.5,0,0,1,52,15.75,25.61,25.61,0,1,1,88.13,52a25.85,25.85,0,0,1,8,18.7A25.59,25.59,0,0,1,70.7,96.34ZM52.06,79.64l2.07,2.93A20.3,20.3,0,0,0,91,70.68,20.62,20.62,0,0,0,82.57,54l-2.91-2.12,2.93-2.07A20.42,20.42,0,1,0,54,21.3l-2.11,2.9-2.07-2.93a20,20,0,0,0-16.56-8.48A20.55,20.55,0,0,0,21.42,50l2.91,2.11-2.94,2.07A20.27,20.27,0,0,0,33.29,91,20.67,20.67,0,0,0,50,82.54Z"/><path class="cls-4" d="M72,52a8,8,0,0,0-3.73-6.76,8.09,8.09,0,0,0-9.57-9.58,8.1,8.1,0,0,0-13.54,0,8.09,8.09,0,0,0-9.57,9.58,8.08,8.08,0,0,0,0,13.53,8.08,8.08,0,0,0,9.57,9.57,8.09,8.09,0,0,0,13.54,0,8.08,8.08,0,0,0,9.57-9.57A8,8,0,0,0,72,52Z"/><path class="cls-5" d="M159.72,59.69h-9.61V76.35h-9.94v-48h19.55q7.75,0,12.32,4.1t4.58,11.61q0,7.52-4.58,11.58T159.72,59.69Zm7-15.64a7,7,0,0,0-1.95-5.27,7.84,7.84,0,0,0-5.71-1.92h-9V51.17h9a7.76,7.76,0,0,0,5.71-2A7,7,0,0,0,166.76,44.05Z"/><path class="cls-5" d="M212.28,58.91q0,8.06-4.78,13.14a17.56,17.56,0,0,1-24.71,0Q178,67,178,58.91t4.77-13.21a17.54,17.54,0,0,1,24.71,0Q212.27,50.79,212.28,58.91Zm-9.62,0a12.26,12.26,0,0,0-2-7.31,6.85,6.85,0,0,0-11,0,12.26,12.26,0,0,0-2,7.31,12.14,12.14,0,0,0,2,7.24,6.87,6.87,0,0,0,11,0A12.14,12.14,0,0,0,202.66,58.91Z"/><path class="cls-5" d="M226.9,25.52V76.35h-9.7V25.52Z"/><path class="cls-5" d="M248.72,89.25h-9.54l5.08-12.74L230.89,41.39h10.24l8.06,23.23,8-23.23h9.78Z"/><path class="cls-5" d="M281.48,31.31a5.23,5.23,0,0,1-1.68,4,5.71,5.71,0,0,1-4,1.56,5.81,5.81,0,0,1-4.1-1.56,5.23,5.23,0,0,1-1.68-4,5.17,5.17,0,0,1,1.72-3.95,5.75,5.75,0,0,1,4.06-1.61,5.63,5.63,0,0,1,4,1.61A5.24,5.24,0,0,1,281.48,31.31Zm-.86,10.08v35h-9.7v-35Z"/><path class="cls-5" d="M309.09,64.93h9a13.94,13.94,0,0,1-5,9q-4,3.24-10.52,3.24a16,16,0,0,1-12.28-5q-4.69-5-4.69-13.18a18.71,18.71,0,0,1,4.73-13.1,15.62,15.62,0,0,1,12.08-5.2q7.51,0,11.69,4.73T318.32,58v3H295a9.64,9.64,0,0,0,2.27,6.13,6.84,6.84,0,0,0,5.32,2.23C306.14,69.31,308.31,67.85,309.09,64.93Zm-6.57-16.42q-5.94,0-7.27,6.57h13.52a7.09,7.09,0,0,0-1.72-4.73A5.74,5.74,0,0,0,302.52,48.51Z"/><path class="cls-5" d="M323.24,76.35v-35h9.7V44.6a11.74,11.74,0,0,1,9.38-4q5.87,0,9.11,3.52t3.25,9.39V76.35H345V55.55a6.68,6.68,0,0,0-1.44-4.5,5.34,5.34,0,0,0-4.27-1.68,6.61,6.61,0,0,0-4,1.29,6,6,0,0,0-2.31,3.56V76.35Z"/><path class="cls-5" d="M363.59,65.79V49.22h-5.32V41.39h5.32V31.93h9.62v9.46h7.67v7.83h-7.67V64.54q0,4,4,4a7.58,7.58,0,0,0,4.22-1.17V76a13.69,13.69,0,0,1-6.25,1.09c-3.65,0-6.5-.93-8.53-2.81S363.59,69.55,363.59,65.79Z"/><path class="cls-5" d="M402.93,76.35v-48h10V67.51H435.3v8.84Z"/><path class="cls-5" d="M469.63,76.35h-9.3V74.47A8.58,8.58,0,0,1,457,76.19a16.4,16.4,0,0,1-5.16.79,14.16,14.16,0,0,1-9.27-3,10.19,10.19,0,0,1-3.71-8.29,9.9,9.9,0,0,1,3.87-8.06,14.9,14.9,0,0,1,9.66-3.13,17.4,17.4,0,0,1,4.53.63,11.22,11.22,0,0,1,3.45,1.41V53.91A5.4,5.4,0,0,0,458.88,50a5.61,5.61,0,0,0-4.26-1.53q-3.92,0-5.16,3.29h-9.23a12.39,12.39,0,0,1,4.81-8,15.5,15.5,0,0,1,9.89-3.17q7,0,10.83,3.56t3.87,9.89Zm-9.3-9.54v-2.5a4.6,4.6,0,0,0-2.39-2.23,9.18,9.18,0,0,0-3.95-.82,8.33,8.33,0,0,0-4.34,1.09,3.73,3.73,0,0,0,0,6.41,8.19,8.19,0,0,0,4.38,1.1,9.18,9.18,0,0,0,3.95-.82A4.6,4.6,0,0,0,460.33,66.81Z"/><path class="cls-5" d="M486,73.46v2.89H476.2V25.52H486V44.29a10.25,10.25,0,0,1,3.68-2.58,12.22,12.22,0,0,1,5.08-1.1,14.21,14.21,0,0,1,11.62,5.24,20,20,0,0,1,4.26,13.06,19.84,19.84,0,0,1-4.26,13,14.23,14.23,0,0,1-11.62,5.2A12.21,12.21,0,0,1,489.65,76,10.25,10.25,0,0,1,486,73.46Zm0-20.33V64.62a7.27,7.27,0,0,0,6.57,4.07,7.49,7.49,0,0,0,6.1-2.74,10.67,10.67,0,0,0,2.27-7,10.87,10.87,0,0,0-2.27-7.08,7.46,7.46,0,0,0-6.1-2.77,7.26,7.26,0,0,0-3.91,1.13A7.08,7.08,0,0,0,486,53.13Z"/><path class="cls-5" d="M513.42,66H523c.78,2.56,2.74,3.83,5.87,3.83,3.28,0,4.92-1.14,4.92-3.44A2.24,2.24,0,0,0,533,64.5a7.15,7.15,0,0,0-2.7-1.13l-7-1.57q-9.07-2.1-9.07-9.85a10,10,0,0,1,4-8.17,15.49,15.49,0,0,1,9.94-3.17q6.48,0,10.2,2.86A12.4,12.4,0,0,1,543,51.4h-9.22C533,49.11,531.2,48,528.28,48a6,6,0,0,0-3.24.86,2.72,2.72,0,0,0-1.37,2.43c0,1.3,1,2.22,3.13,2.74L534,55.63q9.3,2.26,9.31,10.16a9.85,9.85,0,0,1-4,8.29,16.52,16.52,0,0,1-10.28,3q-6.5,0-10.64-2.93A11.73,11.73,0,0,1,513.42,66Z"/></g></g></svg>