<svg xmlns="http://www.w3.org/2000/svg" viewBox="0 0 203.09 60.23"><defs><style>.cls-1{fill:#e6f0fe;}.cls-2{fill:#3280fa;}</style></defs><title>plane</title><g id="Layer_2" data-name="Layer 2"><g id="ëÎÓÈ_1" data-name="ëÎÓÈ 1"><rect class="cls-1" x="167.77" y="52.53" width="5.72" height="2.58"/><path class="cls-2" d="M173.85,55.47h-6.44v-3.3h6.44Zm-5.72-.72h5V52.89h-5Z"/><path class="cls-1" d="M82.28,47.43A18.71,18.71,0,0,0,99.9,59.87h32.23a18.7,18.7,0,0,0,17.62-12.44Z"/><path class="cls-2" d="M132.13,60.23H99.9A19.07,19.07,0,0,1,82,47.55l-.17-.48h68.48l-.17.48A19.08,19.08,0,0,1,132.13,60.23ZM82.8,47.79A18.37,18.37,0,0,0,99.9,59.52h32.23a18.37,18.37,0,0,0,17.11-11.73Z"/><polygon class="cls-1" points="27.95 37.78 35.53 48.56 61.13 48.56 27.95 37.78"/><path class="cls-2" d="M63.39,48.92h-28L27,37.11ZM35.71,48.2H58.87l-30-9.75Z"/><polygon class="cls-1" points="78.18 25.55 37.07 17.25 48.32 30.37 78.18 25.55"/><path class="cls-2" d="M48.18,30.76,36.12,16.69l44.06,8.9ZM38,17.81,48.47,30l27.71-4.48Z"/><polygon class="cls-1" points="39.09 17.25 39.09 17.25 21.07 0.69 3.06 0.69 23.92 33.81 50.22 27.48 39.09 17.25"/><path class="cls-2" d="M23.75,34.22,2.42.34H21.21L51,27.67ZM3.71,1.05,24.08,33.4l25.4-6.11L20.93,1.05Z"/><path class="cls-1" d="M184.12,49H54.82a152.55,152.55,0,0,0,38.45,4.65h71.84c7.78,0,14-.13,19-.37Z"/><path class="cls-2" d="M165.11,54H93.27a153.08,153.08,0,0,1-38.54-4.66L52,48.64H184.47v5l-.34,0C179,53.89,172.61,54,165.11,54ZM57.74,49.36A154.35,154.35,0,0,0,93.27,53.3h71.84c7.32,0,13.59-.12,18.65-.36V49.36Z"/><polygon class="cls-1" points="55.69 21.01 61.13 25.73 69.24 26.99 78.18 25.55 55.69 21.01"/><path class="cls-2" d="M69.24,27.36h-.06L61,26.07l-6.55-5.68,25.75,5.2Zm-7.95-2,7.95,1.24,6.94-1.12L57,21.63Z"/><path class="cls-1" d="M202.73,48.81a1,1,0,0,0,0-.24h0a3,3,0,0,0-.39-1c-1.46-2.54-21.12-9.8-21.12-9.8l-13.48-9.23s-5.51-3-14.63-3H74q-7,0-12.89.18c-12.68.37-21.21,1-26.5,2.3h0C25.88,29.63,22,31.86,22,34.32c0,3.76,18,13.44,45.77,17.5l-.1-.14a161.92,161.92,0,0,0,25.58,2h74.89l2.47,0h.42l2.31,0h.37l2.23,0h.21l4.35-.12h.17l1.91-.07h.24l1.78-.08h.19l1.72-.1h.05c1.16-.07,2.23-.15,3.24-.23h.07l1.41-.12h.1l1.3-.13h.07c1.3-.15,2.44-.31,3.44-.47h0l.93-.17h.05l.84-.18h0a19.9,19.9,0,0,0,2.08-.59h0l.52-.2,0,0,.45-.21h0a3.71,3.71,0,0,0,1-.67l0,0,.2-.22v0a1.14,1.14,0,0,0,.15-.23h0a1.54,1.54,0,0,0,.15-.49h0a1.93,1.93,0,0,0,0-.24Z"/><path class="cls-2" d="M165.11,54H93.27a164.81,164.81,0,0,1-24.75-1.83l.09.12-.87-.13C39.16,48,21.66,38.24,21.66,34.32c0-2.84,4.34-5.08,12.9-6.65,5.06-1.21,13-1.9,26.56-2.3,4-.12,8.34-.18,12.9-.18h79.06c9.1,0,14.57,2.92,14.8,3l13.48,9.23c2.21.82,19.79,7.38,21.26,9.94a3.29,3.29,0,0,1,.42,1.05l0,.08,0,.26c0,.14,0,.24,0,.34a1.82,1.82,0,0,1-.2.61,1.41,1.41,0,0,1-.18.29,2.47,2.47,0,0,1-.24.29,4.65,4.65,0,0,1-1.09.76,4.37,4.37,0,0,1-.49.23l-.57.23a19,19,0,0,1-2.14.61l-.88.18-1,.18c-1.06.18-2.22.34-3.49.48h-.07l-1.31.14h-.09l-1.42.12h-.07c-1,.08-2.09.16-3.25.23l-1.78.1h-.18l-1.78.09h-.25l-1.91.07h-.17l-4.35.11H176l-2.24,0h-.36l-2.31,0h-5.95ZM66.85,51.19l.89.14a163,163,0,0,0,25.53,2h74.89l2.47,0H171l2.35,0h.37l2.24,0h.2q2.29,0,4.35-.12h.17l1.91-.07h.23l1.78-.08h.19l1.72-.09c1.2-.08,2.28-.15,3.28-.24h.08l1.4-.13.13.35,0-.36,1.29-.13.11.35,0-.36c1.26-.14,2.41-.3,3.42-.47l.95-.17.88-.19a17.66,17.66,0,0,0,2.07-.58l.52-.2.45-.22a3.26,3.26,0,0,0,.91-.62l.18-.2a1.32,1.32,0,0,0,.13-.2,1,1,0,0,0,.12-.39,1.28,1.28,0,0,0,0-.19,1.25,1.25,0,0,0,0-.21,2.68,2.68,0,0,0-.35-.88c-1.14-2-15.5-7.64-20.93-9.65l-.08,0-13.48-9.23s-5.52-2.93-14.43-2.93H74c-4.55,0-8.89.06-12.88.18-13.31.39-21.47,1.1-26.43,2.29-8,1.45-12.33,3.56-12.33,5.94,0,3.17,16.82,12.8,44.58,17Z"/><path class="cls-1" d="M167.82,28.62l-.11-.07c-5,.52-9.38,1-10.54,1.14h0a4,4,0,0,0-.72,8,2.49,2.49,0,0,0,.58.07h24.21Z"/><path class="cls-2" d="M182.35,38.14H157a2.91,2.91,0,0,1-.66-.08,4.4,4.4,0,0,1,.8-8.73c.61,0,2-.2,4-.42l6.59-.72h.12l.1.06.15.1Zm-25.17-8.09h-.07a3.68,3.68,0,0,0-.65,7.31,2.44,2.44,0,0,0,.52.06H180l-12.42-8.5c-2.4.25-4.65.5-6.46.7s-3.36.38-4,.43Z"/><path class="cls-2" d="M160.37,30.91l-3.17.4h0a2.48,2.48,0,0,0,.21,5h4.8Z"/><path class="cls-2" d="M162.71,36.64h-5.3a2.84,2.84,0,0,1-.57-5.63h0l.32-.05,3.46-.45Zm-5.15-5h0l-.33,0a2.11,2.11,0,0,0-1.95,2.11,2.13,2.13,0,0,0,2.13,2.14h4.3l-1.58-4.63Z"/><polygon class="cls-2" points="162.21 30.61 164.31 36.28 176.46 36.28 167.42 30.02 162.21 30.61"/><path class="cls-2" d="M177.6,36.64H164.06l-2.35-6.33,5.81-.66Zm-13-.71h10.75l-8-5.54-4.63.52Z"/><rect class="cls-2" x="137.2" y="32.51" width="4.77" height="6.87" rx="1.77" ry="1.77"/><path class="cls-2" d="M140.19,39.74H139a2.14,2.14,0,0,1-2.13-2.14V34.28A2.13,2.13,0,0,1,139,32.15h1.22a2.13,2.13,0,0,1,2.13,2.13V37.6A2.13,2.13,0,0,1,140.19,39.74ZM139,32.86a1.42,1.42,0,0,0-1.41,1.42V37.6A1.42,1.42,0,0,0,139,39h1.22a1.43,1.43,0,0,0,1.42-1.42V34.28a1.43,1.43,0,0,0-1.42-1.42Z"/><path class="cls-2" d="M128.84,32.51h1.22a1.78,1.78,0,0,1,1.78,1.78v3.32a1.77,1.77,0,0,1-1.77,1.77h-1.22a1.77,1.77,0,0,1-1.77-1.77V34.28A1.77,1.77,0,0,1,128.84,32.51Z"/><path class="cls-2" d="M130.06,39.74h-1.22a2.14,2.14,0,0,1-2.13-2.14V34.28a2.13,2.13,0,0,1,2.13-2.13h1.22a2.13,2.13,0,0,1,2.13,2.13V37.6A2.13,2.13,0,0,1,130.06,39.74Zm-1.22-6.88a1.43,1.43,0,0,0-1.42,1.42V37.6A1.43,1.43,0,0,0,128.84,39h1.22a1.43,1.43,0,0,0,1.42-1.42V34.28a1.43,1.43,0,0,0-1.42-1.42Z"/><path class="cls-2" d="M118.71,32.51h1.22a1.78,1.78,0,0,1,1.78,1.78v3.32a1.77,1.77,0,0,1-1.77,1.77h-1.22a1.77,1.77,0,0,1-1.77-1.77V34.28A1.77,1.77,0,0,1,118.71,32.51Z"/><path class="cls-2" d="M119.93,39.74h-1.22a2.14,2.14,0,0,1-2.13-2.14V34.28a2.13,2.13,0,0,1,2.13-2.13h1.22a2.13,2.13,0,0,1,2.13,2.13V37.6A2.13,2.13,0,0,1,119.93,39.74Zm-1.22-6.88a1.43,1.43,0,0,0-1.42,1.42V37.6A1.43,1.43,0,0,0,118.71,39h1.22a1.43,1.43,0,0,0,1.42-1.42V34.28a1.43,1.43,0,0,0-1.42-1.42Z"/><rect class="cls-2" x="106.81" y="32.51" width="4.77" height="6.87" rx="1.77" ry="1.77"/><path class="cls-2" d="M109.8,39.74h-1.22a2.14,2.14,0,0,1-2.13-2.14V34.28a2.13,2.13,0,0,1,2.13-2.13h1.22a2.13,2.13,0,0,1,2.13,2.13V37.6A2.13,2.13,0,0,1,109.8,39.74Zm-1.22-6.88a1.42,1.42,0,0,0-1.41,1.42V37.6A1.42,1.42,0,0,0,108.58,39h1.22a1.43,1.43,0,0,0,1.42-1.42V34.28a1.43,1.43,0,0,0-1.42-1.42Z"/><rect class="cls-2" x="96.68" y="32.51" width="4.77" height="6.87" rx="1.77" ry="1.77"/><path class="cls-2" d="M99.67,39.74H98.45a2.14,2.14,0,0,1-2.13-2.14V34.28a2.13,2.13,0,0,1,2.13-2.13h1.22a2.13,2.13,0,0,1,2.13,2.13V37.6A2.13,2.13,0,0,1,99.67,39.74Zm-1.22-6.88A1.42,1.42,0,0,0,97,34.28V37.6A1.42,1.42,0,0,0,98.45,39h1.22a1.43,1.43,0,0,0,1.42-1.42V34.28a1.43,1.43,0,0,0-1.42-1.42Z"/><rect class="cls-2" x="79.44" y="32.51" width="4.77" height="6.87" rx="1.77" ry="1.77"/><path class="cls-2" d="M82.43,39.74H81.21a2.14,2.14,0,0,1-2.13-2.14V34.28a2.13,2.13,0,0,1,2.13-2.13h1.22a2.13,2.13,0,0,1,2.13,2.13V37.6A2.13,2.13,0,0,1,82.43,39.74Zm-1.22-6.88a1.42,1.42,0,0,0-1.41,1.42V37.6A1.42,1.42,0,0,0,81.21,39h1.22a1.43,1.43,0,0,0,1.42-1.42V34.28a1.43,1.43,0,0,0-1.42-1.42Z"/><path class="cls-1" d="M100.87,43H97.25a3.38,3.38,0,0,1-3.37-3.38v-7.4a3.37,3.37,0,0,1,3.37-3.37h3.62a3.37,3.37,0,0,1,3.37,3.37v7.4A3.38,3.38,0,0,1,100.87,43ZM97.25,29.93a2.32,2.32,0,0,0-2.31,2.31v7.4A2.32,2.32,0,0,0,97.25,42h3.62a2.32,2.32,0,0,0,2.31-2.31v-7.4a2.32,2.32,0,0,0-2.31-2.31Z"/><path class="cls-2" d="M100.87,43.38H97.25a3.75,3.75,0,0,1-3.73-3.74v-7.4a3.74,3.74,0,0,1,3.73-3.73h3.62a3.73,3.73,0,0,1,3.73,3.73v7.4A3.74,3.74,0,0,1,100.87,43.38ZM97.25,29.22a3,3,0,0,0-3,3v7.4a3,3,0,0,0,3,3h3.62a3,3,0,0,0,3-3v-7.4a3,3,0,0,0-3-3Zm3.62,13.09H97.25a2.67,2.67,0,0,1-2.66-2.67v-7.4a2.67,2.67,0,0,1,2.66-2.67h3.62a2.68,2.68,0,0,1,2.67,2.67v7.4A2.68,2.68,0,0,1,100.87,42.31Zm-3.62-12a2,2,0,0,0-2,2v7.4a2,2,0,0,0,2,2h3.62a2,2,0,0,0,1.95-2v-7.4a2,2,0,0,0-1.95-2Z"/><rect class="cls-1" x="69.14" y="30.08" width="2.17" height="11.73"/><path class="cls-2" d="M71.67,42.17H68.79V29.72h2.88Zm-2.17-.72H71v-11H69.5Z"/><path class="cls-1" d="M56.38,51.4a2.25,2.25,0,0,0,0,4.5H76.25l60.31-4.5Z"/><path class="cls-2" d="M76.27,56.26H56.38a2.61,2.61,0,0,1,0-5.22h80.18l0,.72Zm-19.89-4.5a1.9,1.9,0,0,0,0,3.79H76.24L127,51.76Z"/><path class="cls-1" d="M51.4,30.08a18,18,0,0,0-8.65,2.2H37.07V39.6h5.68a18,18,0,0,0,8.65,2.21H69.14V30.08Z"/><path class="cls-2" d="M69.5,42.17H51.4A18.53,18.53,0,0,1,42.66,40H36.71v-8h5.95a18.52,18.52,0,0,1,8.74-2.2H69.5ZM37.43,39.24h5.41l.08,0a17.81,17.81,0,0,0,8.48,2.16H68.79v-11H51.4a17.71,17.71,0,0,0-8.48,2.17l-.08,0H37.43Z"/><polygon class="cls-1" points="37.07 32.28 37.07 35.94 37.07 39.6 42.75 39.6 42.75 35.94 42.75 32.28 37.07 32.28"/><path class="cls-2" d="M43.11,40h-6.4v-8h6.4Zm-5.68-.72h5v-6.6h-5Z"/><path class="cls-1" d="M23.92.36h-22a1.52,1.52,0,0,0,0,3h22a1.52,1.52,0,0,0,0-3Z"/><path class="cls-2" d="M23.92,3.76h-22A1.88,1.88,0,0,1,1.88,0h22a1.88,1.88,0,0,1,0,3.76Zm-22-3A1.16,1.16,0,0,0,1.88,3h22a1.16,1.16,0,1,0,0-2.32Z"/><path class="cls-1" d="M29.32,12.53a.93.93,0,0,1-.93.93c-.51,0-3.11-.42-3.11-.93s2.6-.92,3.11-.92A.93.93,0,0,1,29.32,12.53Z"/><path class="cls-2" d="M28.39,13.81s-3.47-.25-3.47-1.28,3.44-1.28,3.47-1.28a1.28,1.28,0,1,1,0,2.56Zm-2.63-1.28a9.34,9.34,0,0,0,2.63.57.58.58,0,0,0,.57-.57.57.57,0,0,0-.57-.56A9.68,9.68,0,0,0,25.76,12.53Z"/><rect class="cls-1" x="22.39" y="14.44" width="10.43" height="1.4"/><path class="cls-2" d="M33.19,16.19H22V14.08H33.19Zm-10.44-.71h9.72v-.69H22.75Z"/><rect class="cls-1" x="37.07" y="32.28" width="2.02" height="7.32"/><path class="cls-2" d="M39.45,40H36.71v-8h2.74Zm-2-.72h1.3v-6.6h-1.3Z"/><path class="cls-1" d="M136.56,51.4H76.25a2.25,2.25,0,1,1,0,4.5h60.31a2.25,2.25,0,0,0,0-4.5Z"/><path class="cls-2" d="M136.56,56.26H76.25v-.71a1.9,1.9,0,1,0,0-3.79V51h60.31a2.61,2.61,0,0,1,0,5.22Zm-58.51-.71h58.51a1.9,1.9,0,0,0,0-3.79H78.05a2.62,2.62,0,0,1,0,3.79Z"/><polygon class="cls-1" points="61.77 41.8 59.37 39.38 59.12 39.38 53.3 39.38 56.38 51.4 72.22 51.4 61.77 41.8"/><path class="cls-2" d="M73.14,51.76h-17L52.84,39h6.68L62,41.55ZM56.66,51H71.3l-9.78-9-2.3-2.33H53.76Z"/><path class="cls-1" d="M62.76,46.77a2.23,2.23,0,1,1-2.23-2.23A2.23,2.23,0,0,1,62.76,46.77Z"/><path class="cls-2" d="M60.53,49.36a2.59,2.59,0,1,1,2.59-2.59A2.59,2.59,0,0,1,60.53,49.36Zm0-4.46a1.87,1.87,0,1,0,1.87,1.87A1.87,1.87,0,0,0,60.53,44.9Z"/><path class="cls-1" d="M160.27,49.18A1.3,1.3,0,1,1,159,47.89,1.3,1.3,0,0,1,160.27,49.18Z"/><path class="cls-2" d="M159,50.84a1.66,1.66,0,1,1,1.65-1.66A1.66,1.66,0,0,1,159,50.84Zm0-2.6a.94.94,0,1,0,.93.94A.94.94,0,0,0,159,48.24Z"/><rect class="cls-1" x="157.68" y="39.65" width="4.53" height="1.5"/><path class="cls-2" d="M162.57,41.5h-5.25V39.29h5.25ZM158,40.79h3.81V40H158Z"/><path class="cls-1" d="M194,45.74a1,1,0,1,1-1-1A1,1,0,0,1,194,45.74Z"/><path class="cls-2" d="M193,47.13a1.39,1.39,0,1,1,1.39-1.39A1.39,1.39,0,0,1,193,47.13Zm0-2.06a.67.67,0,1,0,.67.67A.67.67,0,0,0,193,45.07Z"/></g></g></svg>