<svg xmlns="http://www.w3.org/2000/svg" viewBox="0 0 403.3 574.11"><defs><style>.cls-1{fill:#dae8fe;}.cls-1,.cls-2,.cls-3{stroke:#3280fa;stroke-miterlimit:10;stroke-width:2.71px;}.cls-2{fill:#c4dafe;}.cls-3{fill:#fff;}.cls-4{fill:#3280fa;}</style></defs><title>whitepaper_thumb</title><g id="Layer_2" data-name="Layer 2"><g id="Layer_1-2" data-name="Layer 1"><rect class="cls-1" x="1.35" y="27.8" width="400.6" height="544.96"/><rect class="cls-2" x="1.35" y="14.8" width="400.6" height="544.96"/><rect class="cls-3" x="1.35" y="1.35" width="400.6" height="544.96"/><path class="cls-4" d="M81.68,286.65H82l8.66-35.21h5.44L85.24,293.77H78.45L69.65,260h-.27l-9,33.79H53.66L42.84,251.44h5.65l8.87,35.07h.26l9.21-35.07h5.44Z"/><path class="cls-4" d="M106.26,293.77h-5.57V251.44h5.57v18.21c1.42-3.56,5.38-6,9.75-6,7.66,0,10.75,5.11,10.75,12v18.21h-5.58V276c0-4.9-2.35-8-7-8-4.43,0-7.93,3.49-7.93,8.87Z"/><path class="cls-4" d="M133.88,251.44h5.77v6.32h-5.77Zm5.71,13v29.36H134V264.41Z"/><path class="cls-4" d="M148.19,268.44h-4.44v-3l1.88-.34c2.76-.54,3.36-1.88,4-4.7l.88-4.1h3.16v8.13H162v4H153.7v17.8c0,2.62,1.07,3.83,3.62,3.83a11.81,11.81,0,0,0,5.51-1.74v3.76a11.54,11.54,0,0,1-7.52,2.48c-4.17,0-7.12-1.94-7.12-7.65Z"/><path class="cls-4" d="M194.41,283.83c-1.41,6.71-6.38,10.74-13.71,10.74-8.73,0-15.11-5.91-15.11-15S172,263.6,180.43,263.6c9.34,0,14.11,6.65,14.11,14.65v2.15H171.16c.27,5.84,4.37,9.81,9.61,9.81,4.9,0,7.86-2.35,9-6.92ZM188.83,277c-.13-4.77-2.89-9.13-8.4-9.13-5.3,0-8.53,4.23-9.13,9.13Z"/><path class="cls-4" d="M218.46,293.77h-5.78V251.44h15.39c10.48,0,16.46,5,16.46,13.24s-6,13.3-16.46,13.3h-9.61Zm9.47-20.56c7.39,0,10.95-3,10.95-8.53s-3.56-8.47-10.95-8.47h-9.47v17Z"/><path class="cls-4" d="M272.21,288a2.06,2.06,0,0,0,2.28,2.29,5.57,5.57,0,0,0,2.55-.68v3a5.73,5.73,0,0,1-4.5,1.74c-3,0-5.3-2.35-5.64-6-1.55,3.43-5.64,6.18-10.62,6.18-5.51,0-9.2-3-9.2-8.12,0-5.58,4.7-7.8,11.82-9.21l7.93-1.61v-1.21c0-4-2.35-6.52-6.45-6.52s-6.51,2.49-7.46,5.92l-4.9-.68c1.08-5.51,5.51-9.54,12.43-9.54,7.39,0,11.76,3.77,11.76,11.22Zm-5.38-8.8-6.58,1.34c-4.7,1-7.59,2.09-7.59,5.51,0,2.49,1.68,4.5,5,4.5,5.17,0,9.13-3.89,9.13-9.87Z"/><path class="cls-4" d="M287,305.06h-5.58V264.41H287v6.18a10.88,10.88,0,0,1,10.54-7c8.67,0,13.44,6.86,13.44,15.52s-4.77,15.45-13.44,15.45A10.83,10.83,0,0,1,287,287.65Zm-.14-25.13c0,6.45,4.1,10.21,9.41,10.21,5.78,0,8.93-4.3,8.93-11s-3.15-11-8.93-11c-5.31,0-9.41,3.77-9.41,10.15Z"/><path class="cls-4" d="M343.89,283.83c-1.41,6.71-6.38,10.74-13.71,10.74-8.73,0-15.11-5.91-15.11-15s6.38-15.93,14.85-15.93c9.33,0,14.1,6.65,14.1,14.65v2.15H320.64c.27,5.84,4.37,9.81,9.61,9.81,4.91,0,7.86-2.35,9-6.92ZM338.31,277c-.13-4.77-2.89-9.13-8.39-9.13-5.31,0-8.54,4.23-9.14,9.13Z"/><path class="cls-4" d="M367.34,270a8.45,8.45,0,0,0-4.57-1.21c-4.24,0-7.39,3.83-7.39,9.47v15.52H349.8V264.41h5.58v6c1.07-3.36,4.1-6.79,8.33-6.79a6,6,0,0,1,4.16,1.35Z"/><polygon class="cls-3" points="371.34 35.05 371.34 92.85 313.54 92.85 313.54 50.37 371.34 35.05"/></g></g></svg>